<svg width="49" height="49" viewBox="0 0 49 49" fill="none" xmlns="http://www.w3.org/2000/svg">
<g clip-path="url(#clip0_97161_4392)">
<path d="M21.7851 23.3164C22.2265 22.9366 22.8527 22.6902 23.6739 22.6286V27.3402C22.6679 27.022 21.9801 26.6526 21.6003 26.3342C21.2205 25.9544 21.0357 25.513 21.0357 24.8868C21.0973 24.2608 21.3437 23.7578 21.7851 23.3164ZM40.1906 8.17523C39.3693 5.15727 36.9879 4.0281 34.2265 4.78772L9.84667 11.3164H41.0118L40.1906 8.17523ZM48.3 19.1077V40.0897C48.3 42.7894 46.1649 44.9247 43.4651 44.9247H5.13495C2.43521 44.9247 0.300049 42.7894 0.300049 40.0897V19.1077C0.300049 16.4079 2.43521 14.2727 5.13495 14.2727H43.4549C46.1033 14.2726 48.3 16.4695 48.3 19.1077ZM31.5883 33.4275C31.5883 31.8568 31.0854 30.6662 30.0793 29.7833C29.0734 28.9004 27.5644 28.2745 25.4909 27.833H25.4292V22.7413C26.815 22.9261 28.129 23.4907 29.3197 24.3119L31.0751 21.7969C29.3197 20.6062 27.4309 19.9081 25.419 19.7849V18.3991H23.6636V19.7234C21.9083 19.7849 20.5225 20.3495 19.3933 21.3555C18.3257 22.3615 17.7611 23.6139 17.7611 25.1844C17.7611 26.755 18.2641 27.9458 19.2085 28.7054C20.1529 29.5266 21.6619 30.153 23.6739 30.6558V35.9321C22.0417 35.6857 20.5327 34.8645 18.9622 33.5403L16.9502 35.9321C18.9006 37.6258 21.1589 38.6318 23.6123 38.8885V40.9006H25.3676V38.9503C27.1845 38.8885 28.6933 38.3239 29.833 37.3181C31.0237 36.2608 31.5883 34.9982 31.5883 33.4275ZM25.4292 31.1075V36.004C26.3121 35.9423 26.9998 35.6857 27.5028 35.2547C28.0057 34.8132 28.2521 34.3103 28.2521 33.684C28.2521 33.0577 28.0674 32.5548 27.6876 32.1751C27.2564 31.7954 26.5584 31.4258 25.4292 31.1075Z" fill="#C61818"/>
</g>
<defs>
<clipPath id="clip0_97161_4392">
<rect width="48" height="48" fill="white" transform="translate(0.300049 0.742188)"/>
</clipPath>
</defs>
</svg>
