<svg width="48" height="49" viewBox="0 0 48 49" fill="none" xmlns="http://www.w3.org/2000/svg">
<path fill-rule="evenodd" clip-rule="evenodd" d="M45.75 18.7422C45.75 18.1455 45.5129 17.5732 45.091 17.1512C44.669 16.7292 44.0967 16.4922 43.5 16.4922H4.5C3.90326 16.4922 3.33097 16.7292 2.90901 17.1512C2.48705 17.5732 2.25 18.1455 2.25 18.7422V38.2422C2.25 38.8389 2.48705 39.4112 2.90901 39.8332C3.33097 40.2551 3.90326 40.4922 4.5 40.4922H43.5C44.0967 40.4922 44.669 40.2551 45.091 39.8332C45.5129 39.4112 45.75 38.8389 45.75 38.2422V18.7422ZM5.25 33.7422C5.25 33.9411 5.32902 34.1319 5.46967 34.2725C5.61032 34.4132 5.80109 34.4922 6 34.4922C6.59674 34.4922 7.16903 34.7292 7.59099 35.1512C8.01295 35.5732 8.25 36.1455 8.25 36.7422C8.25 36.9411 8.32902 37.1319 8.46967 37.2725C8.61032 37.4132 8.80109 37.4922 9 37.4922H39C39.1989 37.4922 39.3897 37.4132 39.5303 37.2725C39.671 37.1319 39.75 36.9411 39.75 36.7422C39.75 36.1455 39.9871 35.5732 40.409 35.1512C40.831 34.7292 41.4033 34.4922 42 34.4922C42.1989 34.4922 42.3897 34.4132 42.5303 34.2725C42.671 34.1319 42.75 33.9411 42.75 33.7422V23.2422C42.75 23.0433 42.671 22.8525 42.5303 22.7119C42.3897 22.5712 42.1989 22.4922 42 22.4922C41.4033 22.4922 40.831 22.2551 40.409 21.8332C39.9871 21.4112 39.75 20.8389 39.75 20.2422C39.75 20.0433 39.671 19.8525 39.5303 19.7119C39.3897 19.5712 39.1989 19.4922 39 19.4922H9C8.80109 19.4922 8.61032 19.5712 8.46967 19.7119C8.32902 19.8525 8.25 20.0433 8.25 20.2422C8.25 20.8389 8.01295 21.4112 7.59099 21.8332C7.16903 22.2551 6.59674 22.4922 6 22.4922C5.80109 22.4922 5.61032 22.5712 5.46967 22.7119C5.32902 22.8525 5.25 23.0433 5.25 23.2422V33.7422Z" fill="#C61818"/>
<path fill-rule="evenodd" clip-rule="evenodd" d="M6.75 33.0672V23.9172C7.47038 23.7696 8.13158 23.4137 8.65155 22.8937C9.17152 22.3738 9.52739 21.7126 9.675 20.9922H38.325C38.4726 21.7126 38.8285 22.3738 39.3484 22.8937C39.8684 23.4137 40.5296 23.7696 41.25 23.9172V33.0672C40.5296 33.2148 39.8684 33.5707 39.3484 34.0906C38.8285 34.6106 38.4726 35.2718 38.325 35.9922H9.675C9.52739 35.2718 9.17152 34.6106 8.65155 34.0906C8.13158 33.5707 7.47038 33.2148 6.75 33.0672ZM24.0015 22.4884C22.41 22.4894 20.8839 23.1222 19.7586 24.2476C18.6333 25.373 18.0008 26.8992 18 28.4907C18.0008 30.0821 18.6333 31.6082 19.7587 32.7335C20.884 33.8588 22.41 34.4914 24.0015 34.4922C25.593 34.4914 27.1191 33.8589 28.2446 32.7336C29.37 31.6083 30.0028 30.0822 30.0037 28.4907C30.003 26.899 29.3703 25.3728 28.2449 24.2473C27.1194 23.1219 25.5932 22.4892 24.0015 22.4884Z" fill="#C61818"/>
<path d="M24.0015 32.9913C26.4876 32.9913 28.503 30.9759 28.503 28.4898C28.503 26.0037 26.4876 23.9883 24.0015 23.9883C21.5154 23.9883 19.5 26.0037 19.5 28.4898C19.5 30.9759 21.5154 32.9913 24.0015 32.9913Z" fill="#C61818"/>
<path fill-rule="evenodd" clip-rule="evenodd" d="M16.1423 14.9918L35.2171 9.88051C35.3122 9.85468 35.4115 9.84792 35.5093 9.86063C35.607 9.87333 35.7013 9.90523 35.7867 9.95452C35.8721 10.0038 35.9469 10.0695 36.0068 10.1478C36.0667 10.2261 36.1106 10.3155 36.1358 10.4108C36.2122 10.6962 36.3441 10.9638 36.524 11.1982C36.7038 11.4327 36.928 11.6294 37.1839 11.7772C37.4398 11.925 37.7223 12.0209 38.0152 12.0596C38.3082 12.0982 38.6059 12.0787 38.8913 12.0023C39.0834 11.9511 39.288 11.9782 39.4602 12.0776C39.6324 12.177 39.7582 12.3406 39.8101 12.5325L40.4693 14.9918H43.3628L41.3985 7.65976C41.3221 7.37432 41.1901 7.10674 41.0102 6.8723C40.8302 6.63787 40.6059 6.44118 40.3499 6.29346C40.094 6.14574 39.8114 6.04988 39.5184 6.01137C39.2254 5.97286 38.9277 5.99245 38.6423 6.06901L5.34155 14.9918H16.1423Z" fill="#C61818"/>
<path fill-rule="evenodd" clip-rule="evenodd" d="M21.9375 14.9914L34.9537 11.5039C35.2825 12.1616 35.7973 12.7083 36.4341 13.0759C37.071 13.4435 37.8018 13.6159 38.5358 13.5717L38.916 14.9914H21.9375Z" fill="#C61818"/>
</svg>
