<svg width="49" height="49" viewBox="0 0 49 49" fill="none" xmlns="http://www.w3.org/2000/svg">
<g clip-path="url(#clip0_97161_4380)">
<path d="M0.600098 31.1135C0.615668 32.566 1.78862 33.7398 3.24115 33.7568H45.9589C47.4115 33.7398 48.5844 32.566 48.6 31.1135V28.8397H0.600098V31.1135ZM45.959 0.742188H3.24127C1.80513 0.742188 0.600098 1.85204 0.600098 3.28806V27.2007H48.6001V3.28806C48.6001 1.85204 47.3951 0.742188 45.959 0.742188ZM35.7394 43.2397H30.3367V35.3958H18.8635V43.2397H14.0764C13.4297 43.2397 12.9057 43.7639 12.9057 44.4105C12.9057 45.0571 13.4297 45.5812 14.0764 45.5812H35.7394C36.3861 45.5812 36.9101 45.0571 36.9101 44.4105C36.9101 43.7639 36.3861 43.2397 35.7394 43.2397Z" fill="#C61818"/>
</g>
<defs>
<clipPath id="clip0_97161_4380">
<rect width="48" height="48" fill="white" transform="translate(0.600098 0.742188)"/>
</clipPath>
</defs>
</svg>
