<svg width="49" height="49" viewBox="0 0 49 49" fill="none" xmlns="http://www.w3.org/2000/svg">
<path d="M30.2474 13.4492H18.9533C18.5788 13.4492 18.2198 13.598 17.955 13.8627C17.6902 14.1275 17.5415 14.4866 17.5415 14.861V34.6257C17.5415 35.0001 17.6902 35.3592 17.955 35.624C18.2198 35.8887 18.5788 36.0375 18.9533 36.0375H30.2474C30.6218 36.0375 30.9809 35.8887 31.2457 35.624C31.5104 35.3592 31.6592 35.0001 31.6592 34.6257V14.861C31.6592 14.4866 31.5104 14.1275 31.2457 13.8627C30.9809 13.598 30.6218 13.4492 30.2474 13.4492ZM26.0121 34.6257H23.1886C22.8141 34.6257 22.4551 34.477 22.1903 34.2122C21.9255 33.9474 21.7768 33.5883 21.7768 33.2139C21.7768 32.8395 21.9255 32.4804 22.1903 32.2157C22.4551 31.9509 22.8141 31.8022 23.1886 31.8022H26.0121C26.3865 31.8022 26.7456 31.9509 27.0104 32.2157C27.2751 32.4804 27.4239 32.8395 27.4239 33.2139C27.4239 33.5883 27.2751 33.9474 27.0104 34.2122C26.7456 34.477 26.3865 34.6257 26.0121 34.6257Z" fill="#C61818"/>
<path d="M24.6002 2.1543C20.1327 2.1543 15.7655 3.47907 12.0509 5.9611C8.33624 8.44313 5.44105 11.9709 3.7314 16.0984C2.02175 20.2258 1.57443 24.7676 2.446 29.1493C3.31757 33.531 5.46889 37.5558 8.62791 40.7148C11.7869 43.8739 15.8118 46.0252 20.1935 46.8967C24.5752 47.7683 29.1169 47.321 33.2444 45.6113C37.3718 43.9017 40.8996 41.0065 43.3816 37.2919C45.8637 33.5773 47.1884 29.2101 47.1884 24.7425C47.1884 18.7518 44.8086 13.0064 40.5725 8.77024C36.3364 4.53412 30.591 2.1543 24.6002 2.1543ZM34.4826 34.6249C34.4792 35.7471 34.0319 36.8224 33.2384 37.616C32.4448 38.4095 31.3695 38.8568 30.2473 38.8602H18.9531C17.8309 38.8568 16.7556 38.4095 15.962 37.616C15.1685 36.8224 14.7212 35.7471 14.7179 34.6249V14.8602C14.7212 13.7379 15.1685 12.6626 15.962 11.8691C16.7556 11.0755 17.8309 10.6282 18.9531 10.6249H30.2473C31.3695 10.6282 32.4448 11.0755 33.2384 11.8691C34.0319 12.6626 34.4792 13.7379 34.4826 14.8602V34.6249Z" fill="#C61818"/>
</svg>
