<svg width="49" height="49" viewBox="0 0 49 49" fill="none" xmlns="http://www.w3.org/2000/svg">
<g clip-path="url(#clip0_97161_3460)">
<path d="M31.2287 28.8909C29.6923 28.8909 28.4421 30.1408 28.4421 31.6772C28.4421 33.2139 29.6923 34.4642 31.2287 34.4642C32.7655 34.4642 34.015 33.2139 34.015 31.6772C34.0146 30.1408 32.7651 28.8909 31.2287 28.8909ZM17.341 15.0039C15.8042 15.0039 14.554 16.2542 14.554 17.7909C14.5543 19.3269 15.8046 20.5768 17.341 20.5768C18.8773 20.5768 20.1268 19.3269 20.1268 17.7909C20.1268 16.2542 18.8773 15.0039 17.341 15.0039Z" fill="#C61818"/>
<path d="M24.3013 0.742188C11.0671 0.742188 0.30127 11.5081 0.30127 24.7422C0.30127 37.9756 11.0671 48.7422 24.3013 48.7422C37.5339 48.7422 48.299 37.9756 48.299 24.7422C48.299 11.5081 37.5339 0.742188 24.3013 0.742188ZM17.3409 12.0008C20.5321 12.0008 23.1294 14.5973 23.1294 17.7901C23.1294 20.9813 20.5321 23.5786 17.3409 23.5786C14.1485 23.5786 11.5516 20.9813 11.5516 17.7901C11.5516 14.5973 14.1489 12.0008 17.3409 12.0008ZM15.581 35.5842C15.4419 35.7239 15.2765 35.8347 15.0944 35.9103C14.9122 35.9858 14.7169 36.0246 14.5198 36.0244C14.3225 36.0246 14.1272 35.9858 13.945 35.9102C13.7629 35.8347 13.5974 35.7239 13.4581 35.5842C12.872 34.9981 12.872 34.0471 13.4581 33.4617L33.0193 13.8998C33.605 13.3137 34.5556 13.3137 35.1421 13.8998C35.7283 14.4859 35.7283 15.4369 35.1421 16.0227L15.581 35.5842ZM31.2286 37.4652C28.0366 37.4652 25.4394 34.8683 25.4394 31.6759C25.4394 28.4847 28.0366 25.8874 31.2286 25.8874C34.4203 25.8874 37.0171 28.4847 37.0171 31.6759C37.0168 34.8683 34.4199 37.4652 31.2286 37.4652Z" fill="#C61818"/>
</g>
<defs>
<clipPath id="clip0_97161_3460">
<rect width="48" height="48" fill="white" transform="translate(0.300049 0.742188)"/>
</clipPath>
</defs>
</svg>
