<svg width="48" height="49" viewBox="0 0 48 49" fill="none" xmlns="http://www.w3.org/2000/svg">
<g clip-path="url(#clip0_97161_3598)">
<path d="M11.2 29.543C6.78875 29.543 3.19995 33.1318 3.19995 37.543C3.19995 41.9542 6.78875 45.543 11.2 45.543C15.6112 45.543 19.2 41.9542 19.2 37.543C19.2 33.1318 15.6112 29.543 11.2 29.543ZM11.2 43.943C7.67115 43.943 4.79995 41.0718 4.79995 37.543C4.79995 34.0142 7.67115 31.143 11.2 31.143C14.7288 31.143 17.6 34.0142 17.6 37.543C17.6 41.0718 14.7288 43.943 11.2 43.943Z" fill="#C61818"/>
<path d="M36.8 26.3422H11.2C5.024 26.3422 0 31.3662 0 37.5422C0 43.7182 5.024 48.7422 11.2 48.7422H36.8C42.976 48.7422 48 43.7182 48 37.5422C48 31.3662 42.976 26.3422 36.8 26.3422ZM36.8 47.1422H11.2C5.9064 47.1422 1.6 42.8358 1.6 37.5422C1.6 32.2486 5.9064 27.9422 11.2 27.9422H36.8C42.0936 27.9422 46.4 32.2486 46.4 37.5422C46.4 42.8358 42.0936 47.1422 36.8 47.1422ZM11.2 23.1422H36.8C42.976 23.1422 48 18.1182 48 11.9422C48 5.76619 42.976 0.742188 36.8 0.742188H11.2C5.024 0.742188 0 5.76619 0 11.9422C0 18.1182 5.024 23.1422 11.2 23.1422ZM36.8 3.94219C41.2112 3.94219 44.8 7.53099 44.8 11.9422C44.8 16.3534 41.2112 19.9422 36.8 19.9422C32.3888 19.9422 28.8 16.3534 28.8 11.9422C28.8 7.53099 32.3888 3.94219 36.8 3.94219Z" fill="#C61818"/>
</g>
<defs>
<clipPath id="clip0_97161_3598">
<rect width="48" height="48" fill="white" transform="translate(0 0.742188)"/>
</clipPath>
</defs>
</svg>
