<svg width="29" height="32" viewBox="0 0 29 32" fill="none" xmlns="http://www.w3.org/2000/svg">
<path d="M11.1413 26.2127L11.951 28.0338C12.1917 28.5758 12.5845 29.0364 13.0818 29.3597C13.5791 29.6829 14.1595 29.8549 14.7526 29.8548C15.3457 29.8549 15.9261 29.6829 16.4234 29.3597C16.9207 29.0364 17.3136 28.5758 17.5543 28.0338L18.364 26.2127C18.6522 25.5665 19.137 25.0278 19.7494 24.6734C20.3656 24.3179 21.0784 24.1665 21.7859 24.2408L23.7671 24.4517C24.3568 24.5141 24.952 24.404 25.4804 24.1349C26.0088 23.8658 26.4478 23.4491 26.7442 22.9354C27.0409 22.4221 27.1823 21.8336 27.1511 21.2415C27.12 20.6494 26.9177 20.079 26.5687 19.5997L25.3957 17.988C24.978 17.4098 24.7549 16.7139 24.7584 16.0007C24.7583 15.2894 24.9836 14.5963 25.4019 14.021L26.5749 12.4093C26.9238 11.93 27.1261 11.3596 27.1573 10.7675C27.1884 10.1754 27.0471 9.58692 26.7503 9.07357C26.454 8.5599 26.015 8.14325 25.4866 7.87411C24.9581 7.60498 24.363 7.49493 23.7732 7.55731L21.7921 7.7682C21.0846 7.8425 20.3717 7.69109 19.7555 7.33564C19.142 6.97917 18.657 6.43762 18.3701 5.78859L17.5543 3.96754C17.3136 3.42546 16.9207 2.96487 16.4234 2.64163C15.9261 2.31839 15.3457 2.14639 14.7526 2.14648C14.1595 2.14639 13.5791 2.31839 13.0818 2.64163C12.5845 2.96487 12.1917 3.42546 11.951 3.96754L11.1413 5.78859C10.8544 6.43762 10.3695 6.97917 9.7559 7.33564C9.13968 7.69109 8.42682 7.8425 7.71933 7.7682L5.73203 7.55731C5.1423 7.49493 4.54714 7.60498 4.01871 7.87411C3.49027 8.14325 3.05127 8.5599 2.75492 9.07357C2.4582 9.58692 2.31683 10.1754 2.34798 10.7675C2.37913 11.3596 2.58146 11.93 2.93041 12.4093L4.1034 14.021C4.52171 14.5963 4.74697 15.2894 4.74684 16.0007C4.74697 16.7119 4.52171 17.405 4.1034 17.9803L2.93041 19.592C2.58146 20.0713 2.37913 20.6417 2.34798 21.2338C2.31683 21.8259 2.4582 22.4144 2.75492 22.9277C3.05156 23.4411 3.49062 23.8576 4.01897 24.1267C4.54733 24.3958 5.14234 24.506 5.73203 24.444L7.71318 24.2331C8.42067 24.1588 9.13353 24.3102 9.74974 24.6657C10.3656 25.0211 10.8528 25.5628 11.1413 26.2127Z" stroke="#FEFEFE" stroke-width="3" stroke-linecap="round" stroke-linejoin="round"/>
<path d="M14.7502 20.1569C17.0456 20.1569 18.9064 18.2961 18.9064 16.0007C18.9064 13.7052 17.0456 11.8444 14.7502 11.8444C12.4547 11.8444 10.5939 13.7052 10.5939 16.0007C10.5939 18.2961 12.4547 20.1569 14.7502 20.1569Z" stroke="white" stroke-width="3" stroke-linecap="round" stroke-linejoin="round"/>
</svg>
