<svg width="35" height="29" viewBox="0 0 35 29" fill="none" xmlns="http://www.w3.org/2000/svg">
<path d="M28.5837 27.2493V17.7493M23.8337 22.4993H33.3337M33.3337 9.83268H1.66699M33.3337 12.9993V6.98268C33.3337 5.20919 33.3337 4.32244 32.9885 3.64505C32.6849 3.0492 32.2005 2.56476 31.6046 2.26116C30.9272 1.91602 30.0405 1.91602 28.267 1.91602H6.73366C4.96016 1.91602 4.07341 1.91602 3.39602 2.26116C2.80018 2.56476 2.31574 3.0492 2.01214 3.64505C1.66699 4.32243 1.66699 5.20918 1.66699 6.98268V19.016C1.66699 20.7895 1.66699 21.6763 2.01214 22.3536C2.31574 22.9495 2.80018 23.4339 3.39602 23.7375C4.07341 24.0827 4.96016 24.0827 6.73366 24.0827H17.5003" stroke="#FEFEFE" stroke-width="3" stroke-linecap="round" stroke-linejoin="round"/>
</svg>
