<svg width="26" height="32" viewBox="0 0 26 32" fill="none" xmlns="http://www.w3.org/2000/svg">
<path d="M6.58366 25.4993H18.917V22.3327H6.58366V25.4993ZM6.58366 19.166H18.917V15.9993H6.58366V19.166ZM3.50033 31.8327C2.65241 31.8327 1.92654 31.5226 1.32272 30.9025C0.718902 30.2823 0.416992 29.5368 0.416992 28.666V3.33268C0.416992 2.46185 0.718902 1.71636 1.32272 1.09622C1.92654 0.476085 2.65241 0.166016 3.50033 0.166016H15.8337L25.0837 9.66602V28.666C25.0837 29.5368 24.7817 30.2823 24.1779 30.9025C23.5741 31.5226 22.8482 31.8327 22.0003 31.8327H3.50033ZM14.292 11.2493V3.33268H3.50033V28.666H22.0003V11.2493H14.292Z" fill="white"/>
</svg>
