<svg width="31" height="18" viewBox="0 0 31 18" fill="none" xmlns="http://www.w3.org/2000/svg">
<path d="M15.4997 8.99935H15.5066M22.4268 8.99935H22.4337M8.57259 8.99935H8.57952M6.07884 2.07227H24.9205C26.4723 2.07227 27.2482 2.07227 27.8409 2.37427C28.3623 2.63992 28.7862 3.0638 29.0518 3.58517C29.3538 4.17788 29.3538 4.95379 29.3538 6.5056V11.4931C29.3538 13.0449 29.3538 13.8208 29.0518 14.4135C28.7862 14.9349 28.3623 15.3588 27.8409 15.6244C27.2482 15.9264 26.4723 15.9264 24.9205 15.9264H6.07884C4.52703 15.9264 3.75112 15.9264 3.15841 15.6244C2.63704 15.3588 2.21316 14.9349 1.94751 14.4135C1.64551 13.8208 1.64551 13.0449 1.64551 11.4931V6.5056C1.64551 4.95379 1.64551 4.17788 1.94751 3.58517C2.21316 3.0638 2.63704 2.63992 3.15841 2.37427C3.75112 2.07227 4.52703 2.07227 6.07884 2.07227ZM15.846 8.99935C15.846 9.19063 15.691 9.3457 15.4997 9.3457C15.3084 9.3457 15.1533 9.19063 15.1533 8.99935C15.1533 8.80806 15.3084 8.65299 15.4997 8.65299C15.691 8.65299 15.846 8.80806 15.846 8.99935ZM22.7731 8.99935C22.7731 9.19063 22.618 9.3457 22.4268 9.3457C22.2355 9.3457 22.0804 9.19063 22.0804 8.99935C22.0804 8.80806 22.2355 8.65299 22.4268 8.65299C22.618 8.65299 22.7731 8.80806 22.7731 8.99935ZM8.91895 8.99935C8.91895 9.19063 8.76388 9.3457 8.57259 9.3457C8.3813 9.3457 8.22624 9.19063 8.22624 8.99935C8.22624 8.80806 8.3813 8.65299 8.57259 8.65299C8.76388 8.65299 8.91895 8.80806 8.91895 8.99935Z" stroke="white" stroke-width="3" stroke-linecap="round" stroke-linejoin="round"/>
</svg>
