<svg width="32" height="28" viewBox="0 0 32 28" fill="none" xmlns="http://www.w3.org/2000/svg">
<path d="M21.2913 7.07292C21.2913 5.78452 21.2913 5.14032 21.1497 4.61178C20.7654 3.17749 19.6451 2.05719 18.2108 1.67287C17.6823 1.53125 17.0381 1.53125 15.7497 1.53125C14.4613 1.53125 13.8171 1.53125 13.2885 1.67287C11.8543 2.05719 10.7339 3.17749 10.3496 4.61178C10.208 5.14032 10.208 5.78452 10.208 7.07292M6.32884 26.4687H25.1705C26.7223 26.4687 27.4982 26.4687 28.0909 26.1667C28.6123 25.9011 29.0362 25.4772 29.3018 24.9558C29.6038 24.3631 29.6038 23.5872 29.6038 22.0354V11.5062C29.6038 9.95444 29.6038 9.17853 29.3018 8.58582C29.0362 8.06445 28.6123 7.64057 28.0909 7.37492C27.4982 7.07292 26.7223 7.07292 25.1705 7.07292H6.32884C4.77703 7.07292 4.00112 7.07292 3.40841 7.37492C2.88704 7.64057 2.46316 8.06445 2.19751 8.58582C1.89551 9.17853 1.89551 9.95444 1.89551 11.5062V22.0354C1.89551 23.5872 1.89551 24.3631 2.19751 24.9558C2.46316 25.4772 2.88704 25.9011 3.40841 26.1667C4.00112 26.4687 4.77703 26.4687 6.32884 26.4687Z" stroke="#FEFEFE" stroke-width="3" stroke-linecap="round" stroke-linejoin="round"/>
</svg>
