<svg width="27" height="34" viewBox="0 0 27 34" fill="none" xmlns="http://www.w3.org/2000/svg">
<path d="M13.4997 25.9173C15.2413 25.9173 16.6663 24.4923 16.6663 22.7507C16.6663 21.009 15.2413 19.584 13.4997 19.584C11.758 19.584 10.333 21.009 10.333 22.7507C10.333 24.4923 11.758 25.9173 13.4997 25.9173ZM22.9997 11.6673H21.4163V8.50065C21.4163 4.13065 17.8697 0.583984 13.4997 0.583984C9.12967 0.583984 5.58301 4.13065 5.58301 8.50065V11.6673H3.99967C2.25801 11.6673 0.833008 13.0923 0.833008 14.834V30.6673C0.833008 32.409 2.25801 33.834 3.99967 33.834H22.9997C24.7413 33.834 26.1663 32.409 26.1663 30.6673V14.834C26.1663 13.0923 24.7413 11.6673 22.9997 11.6673ZM8.59134 8.50065C8.59134 5.79315 10.7922 3.59232 13.4997 3.59232C16.2072 3.59232 18.408 5.79315 18.408 8.50065V11.6673H8.59134V8.50065ZM22.9997 30.6673H3.99967V14.834H22.9997V30.6673Z" fill="white"/>
</svg>
