<svg width="156" height="46" viewBox="0 0 156 46" fill="none" xmlns="http://www.w3.org/2000/svg">
    <g clip-path="url(#clip0_46_157)">
        <path d="M150.477 46H6.18835C3.1903 46 0.75 43.5528 0.75 40.557V5.4349C0.75 2.438 3.1903 0 6.18835 0H150.477C153.473 0 156 2.438 156 5.4349V40.557C156 43.5528 153.473 46 150.477 46Z"
              fill="white"/>
        <path d="M154.886 40.5583C154.886 42.9917 152.915 44.9628 150.477 44.9628H6.18792C3.75107 44.9628 1.77307 42.9917 1.77307 40.5583V5.43381C1.77307 3.00156 3.75107 1.02356 6.18792 1.02356H150.476C152.915 1.02356 154.885 3.00156 154.885 5.43381L154.886 40.5583Z"
              fill="#212529"/>
        <path d="M35.3972 22.7516C35.3639 19.0452 38.4321 17.242 38.5724 17.158C36.8347 14.6246 34.1414 14.2784 33.195 14.2508C30.9329 14.0128 28.7387 15.6044 27.5864 15.6044C26.4111 15.6044 24.6367 14.2738 22.7242 14.3129C20.2632 14.3509 17.9609 15.7757 16.6982 17.9883C14.0923 22.4998 16.0358 29.1295 18.5325 32.7762C19.7814 34.5621 21.2407 36.5562 23.1509 36.4861C25.0196 36.409 25.7177 35.2947 27.9728 35.2947C30.2073 35.2947 30.8628 36.4861 32.8109 36.4412C34.8165 36.409 36.0792 34.6472 37.2844 32.8452C38.7276 30.7982 39.3072 28.7822 39.3302 28.6787C39.2831 28.6626 35.4352 27.1941 35.3972 22.7516Z"
              fill="white"/>
        <path d="M31.7172 11.8519C32.7223 10.5949 33.41 8.88489 33.2191 7.14954C31.7644 7.21394 29.9451 8.15579 28.8974 9.38514C27.9705 10.4684 27.1425 12.244 27.3564 13.9138C28.9906 14.0357 30.6684 13.0893 31.7172 11.8519Z"
              fill="white"/>
        <path d="M62.4417 36.2296H59.8301L58.3995 31.7343H53.4269L52.0641 36.2296H49.5215L54.4481 20.9254H57.491L62.4417 36.2296ZM57.9682 29.8483L56.6745 25.852C56.5376 25.4438 56.2812 24.4824 55.9028 22.969H55.8568C55.7062 23.6199 55.4635 24.5813 55.13 25.852L53.8593 29.8483H57.9682Z"
              fill="white"/>
        <path d="M75.111 30.5762C75.111 32.453 74.6038 33.9365 73.5895 35.0256C72.681 35.995 71.5529 36.4792 70.2062 36.4792C68.7526 36.4792 67.7084 35.957 67.0725 34.9128H67.0265V40.7261H64.5747V28.8271C64.5747 27.6472 64.5436 26.4362 64.4838 25.1942H66.6401L66.7769 26.9434H66.8229C67.6406 25.6255 68.8814 24.9677 70.5466 24.9677C71.8484 24.9677 72.9352 25.4817 73.8046 26.511C74.6763 27.5414 75.111 28.896 75.111 30.5762ZM72.6132 30.6659C72.6132 29.5918 72.3717 28.7063 71.8864 28.0094C71.3562 27.2826 70.6444 26.9192 69.752 26.9192C69.1471 26.9192 68.5974 27.1216 68.1063 27.5207C67.6141 27.9232 67.2921 28.4487 67.1415 29.0996C67.0656 29.4032 67.0276 29.6516 67.0276 29.8471V31.6871C67.0276 32.4898 67.2737 33.1672 67.7659 33.7203C68.2581 34.2735 68.8975 34.5494 69.6841 34.5494C70.6076 34.5494 71.3263 34.193 71.8404 33.4823C72.3556 32.7704 72.6132 31.832 72.6132 30.6659Z"
              fill="white"/>
        <path d="M87.8039 30.5762C87.8039 32.453 87.2967 33.9365 86.2813 35.0256C85.3739 35.995 84.2458 36.4792 82.8991 36.4792C81.4455 36.4792 80.4013 35.957 79.7665 34.9128H79.7205V40.7261H77.2687V28.8271C77.2687 27.6472 77.2377 26.4362 77.1779 25.1942H79.3341L79.471 26.9434H79.517C80.3335 25.6255 81.5743 24.9677 83.2407 24.9677C84.5413 24.9677 85.6281 25.4817 86.4998 26.511C87.368 27.5414 87.8039 28.896 87.8039 30.5762ZM85.3061 30.6659C85.3061 29.5918 85.0634 28.7063 84.5781 28.0094C84.048 27.2826 83.3384 26.9192 82.4449 26.9192C81.8388 26.9192 81.2903 27.1216 80.7981 27.5207C80.3059 27.9232 79.985 28.4487 79.8344 29.0996C79.7596 29.4032 79.7205 29.6516 79.7205 29.8471V31.6871C79.7205 32.4898 79.9666 33.1672 80.4565 33.7203C80.9487 34.2723 81.5881 34.5494 82.377 34.5494C83.3005 34.5494 84.0192 34.193 84.5333 33.4823C85.0485 32.7704 85.3061 31.832 85.3061 30.6659Z"
              fill="white"/>
        <path d="M101.995 31.9378C101.995 33.2396 101.543 34.2988 100.636 35.1164C99.6385 36.01 98.2504 36.4562 96.4668 36.4562C94.82 36.4562 93.4998 36.1388 92.5004 35.5028L93.0685 33.4593C94.1449 34.1102 95.326 34.4368 96.6128 34.4368C97.5363 34.4368 98.255 34.2275 98.7714 33.8112C99.2854 33.3949 99.5419 32.836 99.5419 32.1391C99.5419 31.5181 99.3303 30.9948 98.9059 30.5705C98.4839 30.1461 97.7789 29.7517 96.7945 29.3871C94.115 28.3878 92.7764 26.9238 92.7764 24.9987C92.7764 23.7406 93.2456 22.7091 94.1852 21.9064C95.1213 21.1025 96.3702 20.7012 97.9319 20.7012C99.3245 20.7012 100.481 20.9438 101.405 21.428L100.792 23.4267C99.9294 22.9575 98.9542 22.7229 97.8629 22.7229C97.0004 22.7229 96.3265 22.9356 95.8435 23.3588C95.4352 23.7372 95.2305 24.1983 95.2305 24.7446C95.2305 25.3495 95.464 25.8497 95.9332 26.243C96.3414 26.6064 97.0832 26.9997 98.1596 27.4241C99.4763 27.9542 100.443 28.5741 101.066 29.2848C101.685 29.9932 101.995 30.8798 101.995 31.9378Z"
              fill="white"/>
        <path d="M110.101 27.0342H107.399V32.3921C107.399 33.7548 107.875 34.4356 108.829 34.4356C109.267 34.4356 109.631 34.3977 109.918 34.3218L109.986 36.1836C109.503 36.3642 108.867 36.455 108.08 36.455C107.111 36.455 106.355 36.1595 105.808 35.5695C105.264 34.9784 104.991 33.9871 104.991 32.5945V27.0319H103.381V25.1919H104.991V23.1714L107.399 22.4446V25.1919H110.101V27.0342Z"
              fill="white"/>
        <path d="M122.295 30.6211C122.295 32.3174 121.809 33.71 120.841 34.7991C119.826 35.9203 118.478 36.4792 116.798 36.4792C115.178 36.4792 113.889 35.9422 112.928 34.8681C111.966 33.794 111.486 32.4381 111.486 30.804C111.486 29.0939 111.98 27.6932 112.973 26.6042C113.963 25.514 115.299 24.9689 116.979 24.9689C118.599 24.9689 119.901 25.5059 120.885 26.5812C121.825 27.6242 122.295 28.9709 122.295 30.6211ZM119.751 30.7005C119.751 29.6827 119.533 28.8099 119.093 28.0819C118.579 27.201 117.844 26.7617 116.892 26.7617C115.906 26.7617 115.158 27.2022 114.644 28.0819C114.203 28.811 113.986 29.6977 113.986 30.7465C113.986 31.7642 114.203 32.6371 114.644 33.3639C115.174 34.2448 115.914 34.6841 116.87 34.6841C117.806 34.6841 118.541 34.2356 119.071 33.3409C119.523 32.5991 119.751 31.7171 119.751 30.7005Z"
              fill="white"/>
        <path d="M130.264 27.3505C130.022 27.3056 129.763 27.2826 129.491 27.2826C128.629 27.2826 127.962 27.6081 127.493 28.2601C127.084 28.8351 126.88 29.5619 126.88 30.4394V36.2296H124.429L124.452 28.6695C124.452 27.3976 124.421 26.2396 124.36 25.1954H126.496L126.585 27.3068H126.653C126.912 26.5811 127.32 25.9969 127.879 25.5588C128.425 25.1643 129.015 24.9677 129.651 24.9677C129.878 24.9677 130.082 24.9838 130.264 25.0125V27.3505Z"
              fill="white"/>
        <path d="M141.229 30.1899C141.229 30.6292 141.201 30.9995 141.14 31.3019H133.784C133.813 32.3921 134.168 33.2259 134.851 33.8009C135.471 34.3149 136.273 34.5725 137.257 34.5725C138.346 34.5725 139.34 34.3989 140.233 34.0504L140.618 35.7524C139.573 36.2078 138.341 36.4344 136.918 36.4344C135.207 36.4344 133.864 35.9307 132.886 34.9244C131.911 33.9182 131.422 32.5669 131.422 30.8718C131.422 29.2078 131.876 27.822 132.786 26.7169C133.738 25.537 135.025 24.947 136.644 24.947C138.235 24.947 139.439 25.537 140.256 26.7169C140.904 27.6541 141.229 28.8133 141.229 30.1899ZM138.891 29.5539C138.908 28.8271 138.748 28.1992 138.415 27.6691C137.991 26.9871 137.339 26.6467 136.461 26.6467C135.66 26.6467 135.008 26.9791 134.51 27.6461C134.102 28.1762 133.859 28.8122 133.784 29.5528H138.891V29.5539Z"
              fill="white"/>
        <path d="M57.1575 11.5104C57.1575 12.8639 56.7516 13.8828 55.9408 14.5671C55.1899 15.1984 54.1227 15.5147 52.7404 15.5147C52.055 15.5147 51.4685 15.4848 50.9774 15.425V8.02932C51.618 7.92582 52.308 7.87292 53.0532 7.87292C54.3699 7.87292 55.3624 8.15927 56.0317 8.73197C56.7815 9.37942 57.1575 10.3052 57.1575 11.5104ZM55.8868 11.5437C55.8868 10.6663 55.6545 9.99352 55.1899 9.52432C54.7253 9.05627 54.0468 8.82167 53.1532 8.82167C52.7737 8.82167 52.4506 8.84697 52.1826 8.89987V14.5222C52.331 14.5452 52.6024 14.5556 52.9968 14.5556C53.9191 14.5556 54.631 14.2991 55.1324 13.7862C55.6338 13.2733 55.8868 12.5258 55.8868 11.5437Z"
              fill="white"/>
        <path d="M63.8954 12.6926C63.8954 13.5264 63.6573 14.2095 63.1812 14.7454C62.6821 15.2962 62.0209 15.5711 61.1952 15.5711C60.3994 15.5711 59.7657 15.3077 59.2931 14.7787C58.8216 14.2509 58.5858 13.585 58.5858 12.7823C58.5858 11.9428 58.8285 11.254 59.3161 10.7192C59.8037 10.1845 60.4592 9.9165 61.2849 9.9165C62.0807 9.9165 62.7201 10.1799 63.2042 10.7077C63.6642 11.2206 63.8954 11.883 63.8954 12.6926ZM62.6453 12.7317C62.6453 12.2315 62.5372 11.8025 62.3222 11.4449C62.0692 11.0125 61.7092 10.7963 61.2412 10.7963C60.757 10.7963 60.389 11.0125 60.136 11.4449C59.9198 11.8025 59.8129 12.2384 59.8129 12.7536C59.8129 13.2538 59.921 13.6828 60.136 14.0404C60.3971 14.4728 60.7605 14.689 61.2297 14.689C61.6897 14.689 62.0508 14.4694 62.3107 14.0289C62.5338 13.6644 62.6453 13.232 62.6453 12.7317Z"
              fill="white"/>
        <path d="M72.9298 10.0269L71.2335 15.448H70.1295L69.4269 13.0939C69.2486 12.5063 69.1037 11.9221 68.991 11.3425H68.9692C68.8645 11.9382 68.7196 12.5212 68.5333 13.0939L67.787 15.448H66.6703L65.0753 10.0269H66.3138L66.9268 12.604C67.0751 13.2135 67.197 13.7943 67.2948 14.344H67.3166C67.4063 13.8909 67.5547 13.3136 67.764 12.6155L68.5333 10.028H69.5154L70.2526 12.5603C70.4308 13.1779 70.5757 13.7724 70.6873 14.3451H70.7206C70.8023 13.7874 70.9253 13.1928 71.0886 12.5603L71.7464 10.028H72.9298V10.0269Z"
              fill="white"/>
        <path d="M79.1773 15.4479H77.9721V12.3429C77.9721 11.3861 77.6087 10.9077 76.8796 10.9077C76.522 10.9077 76.2333 11.0388 76.0091 11.3022C75.7871 11.5655 75.6744 11.876 75.6744 12.2314V15.4468H74.4692V11.5759C74.4692 11.0998 74.4543 10.5834 74.4255 10.0245H75.4847L75.541 10.8721H75.5744C75.7147 10.6087 75.924 10.3914 76.1988 10.2177C76.5254 10.0153 76.8911 9.91296 77.2913 9.91296C77.7973 9.91296 78.2182 10.0763 78.5529 10.404C78.9692 10.8054 79.1773 11.4045 79.1773 12.2003V15.4479Z"
              fill="white"/>
        <path d="M82.5012 15.448H81.2972V7.53943H82.5012V15.448Z" fill="white"/>
        <path d="M89.5967 12.6926C89.5967 13.5264 89.3587 14.2095 88.8826 14.7454C88.3835 15.2962 87.7211 15.5711 86.8965 15.5711C86.0996 15.5711 85.4659 15.3077 84.9944 14.7787C84.5229 14.2509 84.2872 13.585 84.2872 12.7823C84.2872 11.9428 84.5298 11.254 85.0174 10.7192C85.505 10.1845 86.1605 9.9165 86.9851 9.9165C87.782 9.9165 88.4203 10.1799 88.9056 10.7077C89.3656 11.2206 89.5967 11.883 89.5967 12.6926ZM88.3455 12.7317C88.3455 12.2315 88.2374 11.8025 88.0224 11.4449C87.7705 11.0125 87.4094 10.7963 86.9425 10.7963C86.4572 10.7963 86.0892 11.0125 85.8374 11.4449C85.6212 11.8025 85.5142 12.2384 85.5142 12.7536C85.5142 13.2538 85.6223 13.6828 85.8374 14.0404C86.0984 14.4728 86.4618 14.689 86.931 14.689C87.391 14.689 87.751 14.4694 88.0109 14.0289C88.2351 13.6644 88.3455 13.232 88.3455 12.7317Z"
              fill="white"/>
        <path d="M95.4295 15.448H94.3474L94.2577 14.8236H94.2243C93.854 15.3215 93.3262 15.5711 92.6408 15.5711C92.129 15.5711 91.715 15.4066 91.4034 15.08C91.1205 14.7833 90.979 14.4142 90.979 13.976C90.979 13.3136 91.255 12.8088 91.8105 12.4592C92.3648 12.1096 93.1445 11.9382 94.1484 11.9463V11.8451C94.1484 11.1309 93.7735 10.7744 93.0226 10.7744C92.4878 10.7744 92.0163 10.909 91.6092 11.1758L91.3643 10.3846C91.868 10.0729 92.4901 9.9165 93.2238 9.9165C94.6406 9.9165 95.3513 10.664 95.3513 12.159V14.1554C95.3513 14.6971 95.3778 15.1283 95.4295 15.448ZM94.1783 13.585V12.749C92.8489 12.726 92.1842 13.0905 92.1842 13.8415C92.1842 14.1244 92.2601 14.336 92.4154 14.4774C92.5706 14.6189 92.7684 14.689 93.0042 14.689C93.2687 14.689 93.5159 14.6051 93.7413 14.4383C93.9679 14.2704 94.107 14.0577 94.1588 13.7966C94.1714 13.738 94.1783 13.6667 94.1783 13.585Z"
              fill="white"/>
        <path d="M102.278 15.448H101.209L101.152 14.5774H101.119C100.777 15.2398 100.196 15.571 99.3779 15.571C98.7247 15.571 98.1808 15.3146 97.7495 14.8017C97.3183 14.2888 97.1032 13.6229 97.1032 12.8053C97.1032 11.9278 97.3367 11.2171 97.8059 10.6743C98.2601 10.1683 98.8167 9.91533 99.4791 9.91533C100.207 9.91533 100.717 10.1603 101.006 10.6513H101.029V7.53943H102.236V13.9875C102.236 14.5153 102.249 15.0018 102.278 15.448ZM101.029 13.1618V12.2579C101.029 12.1015 101.018 11.975 100.996 11.8784C100.928 11.5886 100.782 11.3448 100.56 11.1481C100.336 10.9515 100.066 10.8526 99.754 10.8526C99.3043 10.8526 98.9524 11.0308 98.6937 11.3885C98.4372 11.7461 98.3073 12.2027 98.3073 12.7604C98.3073 13.2963 98.4303 13.731 98.6776 14.0657C98.9386 14.4222 99.2905 14.6004 99.731 14.6004C100.127 14.6004 100.443 14.4521 100.683 14.1542C100.915 13.8794 101.029 13.5482 101.029 13.1618Z"
              fill="white"/>
        <path d="M112.585 12.6926C112.585 13.5264 112.347 14.2095 111.871 14.7454C111.372 15.2962 110.712 15.5711 109.885 15.5711C109.09 15.5711 108.457 15.3077 107.983 14.7787C107.511 14.2509 107.276 13.585 107.276 12.7823C107.276 11.9428 107.518 11.254 108.006 10.7192C108.493 10.1845 109.149 9.9165 109.976 9.9165C110.77 9.9165 111.411 10.1799 111.894 10.7077C112.354 11.2206 112.585 11.883 112.585 12.6926ZM111.336 12.7317C111.336 12.2315 111.228 11.8025 111.013 11.4449C110.759 11.0125 110.4 10.7963 109.931 10.7963C109.448 10.7963 109.08 11.0125 108.826 11.4449C108.61 11.8025 108.503 12.2384 108.503 12.7536C108.503 13.2538 108.611 13.6828 108.826 14.0404C109.087 14.4728 109.45 14.689 109.919 14.689C110.379 14.689 110.742 14.4694 111.002 14.0289C111.224 13.6644 111.336 13.232 111.336 12.7317Z"
              fill="white"/>
        <path d="M119.065 15.448H117.861V12.343C117.861 11.3862 117.498 10.9078 116.768 10.9078C116.41 10.9078 116.121 11.0389 115.898 11.3023C115.675 11.5656 115.564 11.8761 115.564 12.2315V15.4469H114.357V11.576C114.357 11.0999 114.344 10.5835 114.315 10.0246H115.373L115.429 10.8722H115.463C115.604 10.6088 115.813 10.3915 116.087 10.2178C116.415 10.0154 116.779 9.91309 117.181 9.91309C117.685 9.91309 118.106 10.0764 118.441 10.4041C118.858 10.8055 119.065 11.4046 119.065 12.2004V15.448Z"
              fill="white"/>
        <path d="M127.176 10.9296H125.849V13.5631C125.849 14.2324 126.085 14.5671 126.552 14.5671C126.768 14.5671 126.947 14.5487 127.089 14.5107L127.12 15.425C126.882 15.5147 126.569 15.5595 126.184 15.5595C125.707 15.5595 125.337 15.4146 125.069 15.1248C124.8 14.835 124.667 14.3474 124.667 13.6632V10.9296H123.874V10.0269H124.667V9.03326L125.848 8.67676V10.0257H127.175V10.9296H127.176Z"
              fill="white"/>
        <path d="M133.557 15.448H132.35V12.366C132.35 11.3942 131.987 10.9078 131.259 10.9078C130.7 10.9078 130.318 11.1895 130.109 11.753C130.073 11.8715 130.053 12.0164 130.053 12.1866V15.4468H128.849V7.53943H130.053V10.8066H130.076C130.455 10.212 130.999 9.91533 131.704 9.91533C132.203 9.91533 132.616 10.0786 132.944 10.4064C133.352 10.8146 133.557 11.4218 133.557 12.2245V15.448Z"
              fill="white"/>
        <path d="M140.138 12.481C140.138 12.6972 140.122 12.8789 140.093 13.0272H136.479C136.495 13.5631 136.667 13.9714 137.002 14.2543C137.308 14.5073 137.702 14.6338 138.185 14.6338C138.72 14.6338 139.208 14.5487 139.647 14.3773L139.836 15.2145C139.322 15.4376 138.717 15.5492 138.016 15.5492C137.177 15.5492 136.516 15.3019 136.037 14.8074C135.556 14.3129 135.318 13.6494 135.318 12.8168C135.318 11.9991 135.54 11.3183 135.988 10.7755C136.455 10.1959 137.086 9.90613 137.883 9.90613C138.663 9.90613 139.255 10.1959 139.655 10.7755C139.978 11.2355 140.138 11.8048 140.138 12.481ZM138.988 12.1693C138.997 11.8117 138.918 11.5035 138.755 11.2436C138.545 10.9089 138.227 10.741 137.796 10.741C137.402 10.741 137.081 10.9043 136.836 11.2321C136.636 11.4931 136.518 11.8048 136.479 12.1693H138.988Z"
              fill="white"/>
    </g>
    <defs>
        <clipPath id="clip0_46_157">
            <rect width="155.25" height="46" fill="white" transform="translate(0.75)"/>
        </clipPath>
    </defs>
</svg>
