<svg width="24" height="24" viewBox="0 0 24 24" fill="none" xmlns="http://www.w3.org/2000/svg">
<path d="M13.786 11.9902C13.1599 12.6275 12.5142 13.3115 11.8386 13.9658C10.3628 15.3956 8.87051 16.8089 7.38698 18.2311C6.91175 18.687 6.87508 19.2695 7.28677 19.6821C7.72273 20.1198 8.36274 20.1042 8.84468 19.6434L15.1776 13.5859C15.4844 13.2924 15.7974 13.0044 16.0975 12.7054C16.5191 12.2857 16.5221 11.7088 16.0913 11.2946C14.1316 9.413 12.1687 7.53405 10.2027 5.65777C9.72436 5.19993 9.24965 4.73807 8.76306 4.28877C8.45623 4.00532 8.08535 3.92691 7.68657 4.06964C7.29968 4.20835 7.07136 4.4908 7.01506 4.88934C6.99322 5.03527 7.00792 5.18417 7.05793 5.32339C7.10793 5.4626 7.19175 5.58801 7.30226 5.68893C8.98776 7.30521 10.6805 8.91394 12.3644 10.5342C12.8629 11.0187 13.3356 11.5293 13.786 11.9902Z" fill="#2a2a2a"/>
</svg>
