<svg width="24" height="24" viewBox="0 0 24 24" fill="none" xmlns="http://www.w3.org/2000/svg">
<g clip-path="url(#clip0_114954_6682)">
<path d="M12.4176 15.8224L12.4176 15.8224L12.4223 15.8242C12.5507 15.8741 12.668 15.9478 12.7742 16.0421L12.7743 16.042L12.7764 16.044L19.9183 22.5298C20.1326 22.7206 20.25 22.9638 20.25 23.2474C20.25 23.4341 20.2009 23.6083 20.0981 23.7614C20.0002 23.9126 19.8668 24.03 19.7043 24.1136C19.5403 24.2067 19.3569 24.25 19.1613 24.25C18.8746 24.25 18.6172 24.1552 18.3997 23.9691L18.3996 23.9692L18.3942 23.9643L12 18.1617L5.60579 23.9643L5.60586 23.9644L5.60034 23.9691C5.38281 24.1552 5.12541 24.25 4.83871 24.25C4.6431 24.25 4.45972 24.2067 4.29574 24.1136C4.13321 24.03 3.99985 23.9126 3.9019 23.7614C3.79912 23.6083 3.75 23.4341 3.75 23.2474C3.75 22.9667 3.8619 22.7239 4.0702 22.5319L4.07168 22.5306L11.2238 16.0439L11.2237 16.0438L11.2258 16.0421C11.3338 15.9462 11.4553 15.8726 11.5893 15.8233C11.7187 15.7734 11.8565 15.75 12 15.75C12.1445 15.75 12.2843 15.7737 12.4176 15.8224Z" fill="#BABEC5" stroke="#BABEC5" stroke-width="0.5"/>
</g>
<defs>
<clipPath id="clip0_114954_6682">
<rect width="24" height="24" fill="white" transform="matrix(-1 0 0 -1 24 24)"/>
</clipPath>
</defs>
</svg>
