<svg width="24" height="24" viewBox="0 0 24 24" fill="none" xmlns="http://www.w3.org/2000/svg">
<path d="M11.9269 16.6668L11.9269 16.6669L11.9319 16.6647C12.0623 16.6077 12.1798 16.5242 12.2849 16.4192L12.287 16.4172L19.4288 9.12064C19.6407 8.90858 19.75 8.64605 19.75 8.34663C19.75 8.14801 19.7038 7.96222 19.6051 7.7969C19.5104 7.63239 19.3794 7.50105 19.2153 7.40602C19.0497 7.30026 18.8623 7.25 18.6613 7.25C18.3658 7.25 18.1048 7.36038 17.8888 7.56837L17.8887 7.56829L17.8836 7.57353L11.5 14.0906L5.11638 7.57353L5.11646 7.57345L5.11118 7.56837C4.89516 7.36038 4.63424 7.25 4.33871 7.25C4.13766 7.25 3.95029 7.30026 3.78471 7.40602C3.62058 7.50104 3.48959 7.63236 3.39494 7.79684C3.29618 7.96218 3.25 8.14799 3.25 8.34663C3.25 8.64355 3.35434 8.90542 3.55968 9.11833L3.55968 9.11834L3.56108 9.11977L10.7132 16.4173L10.7131 16.4173L10.7151 16.4192C10.822 16.526 10.9436 16.6094 11.0799 16.6658C11.2117 16.7229 11.3528 16.75 11.5 16.75C11.6482 16.75 11.7912 16.7226 11.9269 16.6668Z" fill="#414650" stroke="#414650" stroke-width="0.5"/>
</svg>
