<svg width="32" height="32" viewBox="0 0 32 32" fill="none" xmlns="http://www.w3.org/2000/svg">
<path d="M2.90678 29.239L2.90681 29.2387L5.57587 8.9942L2.90678 29.239ZM2.90678 29.239C2.89131 29.3585 2.90238 29.4799 2.93921 29.5946C2.97603 29.7093 3.03771 29.8145 3.11983 29.9027L3.1199 29.9028L2.90678 29.239ZM4.66782 31.1H4.66756C4.46456 31.0995 4.26899 31.0236 4.11873 30.8871C4.11867 30.8871 4.11861 30.887 4.11855 30.8869L4.18581 30.8129L4.66782 31.1ZM4.66782 31.1H27.9484H27.9487M4.66782 31.1H27.9487M27.9487 31.1C28.1517 31.0995 28.3474 31.0235 28.4977 30.8869L28.4981 30.8866M27.9487 31.1L28.4981 30.8866M28.4981 30.8866C28.5234 30.8633 28.5489 30.84 28.5744 30.8166C28.9013 30.5168 29.24 30.2062 29.4981 29.9009C29.5794 29.8131 29.6404 29.7085 29.677 29.5946C29.7138 29.4799 29.7249 29.3585 29.7094 29.239L29.7094 29.2387M28.4981 30.8866L29.7094 29.2387M29.7094 29.2387L27.0332 8.9942L29.7094 29.2387ZM26.7585 8.48248C26.9094 8.61378 27.0071 8.79575 27.0331 8.99409L26.7585 8.48248ZM26.7585 8.48248C26.6077 8.35125 26.4141 8.2797 26.2141 8.28129M26.7585 8.48248L26.2141 8.28129M26.2141 8.28129H22.3506V6.94245C22.3506 5.33989 21.7139 3.80297 20.5808 2.66979C19.4476 1.53661 17.9107 0.9 16.3081 0.9C14.7056 0.9 13.1686 1.53661 12.0355 2.66979C10.9023 3.80297 10.2657 5.33989 10.2657 6.94245V8.28129H6.39489H6.39444V8.38129C6.21879 8.37981 6.04866 8.44263 5.91614 8.55793L26.2141 8.28129ZM11.9261 6.92956L11.9261 6.92956V6.92806C11.9261 5.76015 12.39 4.64008 13.2159 3.81424C14.0417 2.98841 15.1618 2.52446 16.3297 2.52446C17.4976 2.52446 18.6177 2.98841 19.4435 3.81424C20.2693 4.64008 20.7333 5.76015 20.7333 6.92806V8.26691H11.906L11.9261 6.92956ZM28.0297 29.0635L27.6133 29.4611H4.98892L4.57931 29.0639L7.108 9.92014H25.501L28.0297 29.0635Z" fill="#1640DE" stroke="#1640DE" stroke-width="0.2"/>
</svg>
