<svg width="16" height="16" viewBox="0 0 16 16" fill="none" xmlns="http://www.w3.org/2000/svg">
<path d="M8.00187 14.0819C9.20438 14.0819 10.3799 13.7253 11.3797 13.0572C12.3796 12.3891 13.1589 11.4396 13.6191 10.3286C14.0792 9.21762 14.1996 7.99513 13.965 6.81573C13.7304 5.63632 13.1514 4.55297 12.3011 3.70267C11.4508 2.85237 10.3674 2.2733 9.18802 2.0387C8.00862 1.8041 6.78613 1.92451 5.67516 2.38469C4.56418 2.84487 3.61462 3.62416 2.94654 4.62401C2.27846 5.62386 1.92188 6.79937 1.92188 8.00188C1.9237 9.61383 2.56485 11.1592 3.70468 12.2991C4.8445 13.4389 6.38992 14.0801 8.00187 14.0819ZM8.00187 2.56188C9.0778 2.56188 10.1296 2.88093 11.0242 3.47868C11.9188 4.07644 12.616 4.92605 13.0278 5.92008C13.4395 6.91411 13.5472 8.00791 13.3373 9.06317C13.1274 10.1184 12.6093 11.0877 11.8485 11.8485C11.0877 12.6093 10.1184 13.1274 9.06317 13.3373C8.00791 13.5473 6.91411 13.4395 5.92008 13.0278C4.92605 12.616 4.07643 11.9188 3.47868 11.0242C2.88093 10.1296 2.56187 9.07781 2.56187 8.00188C2.56351 6.5596 3.13717 5.17686 4.15701 4.15702C5.17686 3.13717 6.5596 2.56351 8.00187 2.56188Z" fill="url(#paint0_linear_78667_1168)"/>
<path d="M5.27519 11.1442C5.26513 11.203 5.27172 11.2635 5.2942 11.3187C5.31668 11.374 5.35417 11.4219 5.40243 11.457C5.45069 11.492 5.50779 11.5129 5.5673 11.5173C5.62681 11.5216 5.68635 11.5093 5.73919 11.4815L7.99935 10.2935L10.2592 11.4815C10.312 11.5093 10.3716 11.5216 10.4311 11.5173C10.4906 11.5129 10.5477 11.492 10.5959 11.457C10.6442 11.4219 10.6817 11.374 10.7042 11.3187C10.7267 11.2635 10.7332 11.203 10.7232 11.1442L10.2912 8.62779L12.1194 6.84571C12.1622 6.80403 12.1924 6.75122 12.2067 6.69326C12.221 6.6353 12.2188 6.57449 12.2003 6.51772C12.1819 6.46094 12.1479 6.41046 12.1023 6.37197C12.0566 6.33349 12.0011 6.30854 11.9421 6.29995L9.41551 5.93275L8.28559 3.64323C8.25916 3.58968 8.21829 3.5446 8.16757 3.51307C8.11686 3.48155 8.05834 3.46484 7.99863 3.46484C7.93892 3.46484 7.8804 3.48155 7.82968 3.51307C7.77897 3.5446 7.73809 3.58968 7.71167 3.64323L6.58175 5.93275L4.05519 6.29995C3.99611 6.30854 3.94062 6.33349 3.89497 6.37197C3.84933 6.41046 3.81537 6.46094 3.79692 6.51772C3.77847 6.57449 3.77627 6.6353 3.79056 6.69326C3.80486 6.75122 3.83509 6.80403 3.87783 6.84571L5.70607 8.62779L5.27519 11.1442ZM4.78959 6.84019L6.84103 6.54211C6.89236 6.53464 6.94111 6.51481 6.98307 6.48431C7.02503 6.45382 7.05895 6.41359 7.08191 6.36707L7.99935 4.50795L8.91679 6.36683C8.93974 6.41335 8.97367 6.45358 9.01563 6.48408C9.05759 6.51457 9.10634 6.5344 9.15767 6.54187L11.2091 6.83995L9.72471 8.28691C9.68757 8.32312 9.65979 8.36782 9.64376 8.41716C9.62774 8.46649 9.62394 8.51898 9.63271 8.57011L9.98311 10.6133L8.14823 9.64867C8.10231 9.62454 8.05122 9.61193 7.99935 9.61193C7.94748 9.61193 7.89638 9.62454 7.85047 9.64867L6.01535 10.6133L6.36575 8.57011C6.37452 8.51898 6.37072 8.46649 6.3547 8.41716C6.33867 8.36782 6.31089 8.32312 6.27375 8.28691L4.78959 6.84019Z" fill="url(#paint1_linear_78667_1168)"/>
<path d="M8 16C9.58225 16 11.129 15.5308 12.4446 14.6518C13.7602 13.7727 14.7855 12.5233 15.391 11.0615C15.9965 9.59966 16.155 7.99113 15.8463 6.43928C15.5376 4.88743 14.7757 3.46197 13.6569 2.34315C12.538 1.22433 11.1126 0.462403 9.56072 0.153721C8.00887 -0.15496 6.40034 0.00346626 4.93853 0.608967C3.47672 1.21447 2.22729 2.23985 1.34824 3.55544C0.469192 4.87103 0 6.41775 0 8C0.00239267 10.121 0.846016 12.1544 2.34579 13.6542C3.84556 15.154 5.879 15.9976 8 16ZM8 0.640004C9.45567 0.640004 10.8786 1.07166 12.089 1.88039C13.2993 2.68911 14.2427 3.83859 14.7998 5.18345C15.3568 6.52832 15.5026 8.00817 15.2186 9.43587C14.9346 10.8636 14.2336 12.175 13.2043 13.2043C12.175 14.2336 10.8636 14.9346 9.43586 15.2186C8.00816 15.5026 6.52831 15.3568 5.18345 14.7998C3.83858 14.2427 2.68911 13.2993 1.88038 12.089C1.07166 10.8787 0.64 9.45567 0.64 8C0.642117 6.04866 1.41822 4.17785 2.79803 2.79804C4.17784 1.41823 6.04866 0.642121 8 0.640004Z" fill="url(#paint2_linear_78667_1168)"/>
<defs>
<linearGradient id="paint0_linear_78667_1168" x1="8.00187" y1="1.92187" x2="8.00187" y2="14.0819" gradientUnits="userSpaceOnUse">
<stop stop-color="#1640DE"/>
<stop offset="1" stop-color="#0647BD"/>
</linearGradient>
<linearGradient id="paint1_linear_78667_1168" x1="7.99863" y1="3.46484" x2="7.99863" y2="11.5181" gradientUnits="userSpaceOnUse">
<stop stop-color="#1640DE"/>
<stop offset="1" stop-color="#0647BD"/>
</linearGradient>
<linearGradient id="paint2_linear_78667_1168" x1="8" y1="0" x2="8" y2="16" gradientUnits="userSpaceOnUse">
<stop stop-color="#1640DE"/>
<stop offset="1" stop-color="#0647BD"/>
</linearGradient>
</defs>
</svg>
