<svg width="24" height="24" viewBox="0 0 24 24" fill="none" xmlns="http://www.w3.org/2000/svg">
<path d="M6.60936 5.26263C6.43292 5.0922 6.1966 4.9979 5.95131 5.00004C5.70602 5.00217 5.47139 5.10056 5.29793 5.27402C5.12448 5.44749 5.02609 5.68214 5.02396 5.92745C5.02183 6.17275 5.11613 6.40908 5.28654 6.58554L10.6891 11.9885L5.2856 17.3915C5.19625 17.4778 5.12498 17.581 5.07595 17.6952C5.02692 17.8093 5.00111 17.9321 5.00004 18.0563C4.99896 18.1805 5.02263 18.3037 5.06966 18.4187C5.1167 18.5337 5.18617 18.6381 5.27401 18.726C5.36184 18.8138 5.4663 18.8833 5.58127 18.9303C5.69624 18.9774 5.81943 19.001 5.94365 19C6.06786 18.9989 6.19062 18.9731 6.30476 18.924C6.41889 18.875 6.52212 18.8037 6.60842 18.7144L12.012 13.3114L17.4146 18.7144C17.591 18.8848 17.8273 18.9791 18.0726 18.977C18.3179 18.9748 18.5525 18.8764 18.726 18.703C18.8994 18.5295 18.9978 18.2949 19 18.0496C19.0021 17.8043 18.9078 17.5679 18.7374 17.3915L13.3348 11.9885L18.7374 6.58554C18.9078 6.40908 19.0021 6.17275 19 5.92745C18.9978 5.68214 18.8994 5.44749 18.726 5.27402C18.5525 5.10056 18.3179 5.00217 18.0726 5.00004C17.8273 4.9979 17.591 5.0922 17.4146 5.26263L12.012 10.6656L6.60936 5.26263Z" fill="#2a2a2a"/>
</svg>
