<svg width="40" height="40" viewBox="0 0 40 40" fill="none" xmlns="http://www.w3.org/2000/svg">
<circle cx="20" cy="20" r="20" fill="#C61818"/>
<circle cx="20" cy="20" r="15" fill="#FEFEFE"/>
<path d="M21.2578 20.7578H15.3437V19.2031H21.2187C21.7448 19.2031 22.1693 19.1224 22.4922 18.9609C22.8151 18.7943 23.0521 18.5625 23.2031 18.2656C23.3542 17.9687 23.4297 17.6224 23.4297 17.2266C23.4297 16.8724 23.3542 16.5417 23.2031 16.2344C23.0521 15.9271 22.8177 15.6771 22.5 15.4844C22.1823 15.2865 21.7682 15.1875 21.2578 15.1875H18.8984V25H16.9375V13.625H21.2578C22.1328 13.625 22.8776 13.7786 23.4922 14.0859C24.1068 14.3932 24.5781 14.8177 24.9062 15.3594C25.2344 15.8958 25.3984 16.513 25.3984 17.2109C25.3984 17.9557 25.2318 18.5937 24.8984 19.125C24.5703 19.651 24.0964 20.0547 23.4766 20.3359C22.862 20.6172 22.1224 20.7578 21.2578 20.7578ZM21.4453 21.5937V23.1484H15.3437V21.5937H21.4453Z" fill="#C61818"/>
</svg>
