<?xml version="1.0" standalone="no"?>
<!DOCTYPE svg PUBLIC "-//W3C//DTD SVG 20010904//EN"
 "http://www.w3.org/TR/2001/REC-SVG-20010904/DTD/svg10.dtd">
<svg version="1.0" xmlns="http://www.w3.org/2000/svg"
 width="800.000000pt" height="507.000000pt" viewBox="0 0 800.000000 507.000000"
 preserveAspectRatio="xMidYMid meet">

<g transform="translate(0.000000,507.000000) scale(0.100000,-0.100000)"
fill="#000000" stroke="none">
<path d="M218 5046 c-98 -27 -177 -109 -198 -209 -8 -37 -10 -693 -8 -2327 l3
-2275 28 -57 c29 -60 78 -106 144 -136 36 -16 251 -17 3813 -17 l3775 0 50 27
c62 33 108 80 134 138 20 45 21 53 21 2350 l0 2305 -24 50 c-29 62 -76 107
-141 137 l-50 23 -3750 2 c-3005 1 -3759 -1 -3797 -11z m5802 -300 c91 -3 168
-5 173 -5 4 -1 7 -16 7 -34 0 -87 140 -115 148 -30 4 41 -30 65 -56 39 -19
-18 -9 -34 11 -18 16 14 27 6 27 -20 0 -10 -11 -24 -25 -30 -34 -15 -72 3 -81
38 -11 43 23 64 101 64 l62 0 -7 -40 c-4 -22 -5 -92 -2 -155 5 -114 4 -115
-18 -115 -19 0 -21 4 -16 27 16 60 -45 124 -98 103 -44 -16 -31 -90 16 -90 25
0 23 16 -3 23 -25 7 -22 40 4 45 38 8 72 -50 49 -84 -4 -6 -24 -19 -44 -28
-52 -25 -113 -14 -151 27 -29 32 -32 62 -12 112 6 13 -3 8 -23 -14 -31 -32
-34 -33 -90 -26 -47 5 -64 13 -94 42 -20 20 -37 43 -36 52 3 38 -3 69 -16 87
-12 15 -17 17 -27 7 -11 -11 -10 -13 4 -13 19 0 21 -8 8 -28 -12 -20 -58 -4
-81 28 -11 16 -20 30 -20 33 0 8 39 13 85 10 22 -1 114 -4 205 -7z m-127 -191
c45 -39 98 -58 135 -48 20 5 31 -1 52 -27 l27 -34 -61 -60 c-33 -34 -69 -77
-79 -95 -14 -27 -20 -32 -27 -21 -6 9 -9 -11 -8 -55 1 -71 -24 -155 -57 -199
-15 -19 -15 -19 -28 -1 -10 13 -21 16 -40 11 -18 -4 -36 -1 -52 10 -23 15 -27
15 -51 -1 -19 -12 -29 -14 -37 -6 -6 6 -23 11 -38 11 -31 0 -69 -43 -86 -94
-12 -37 -39 -50 -30 -15 4 13 7 36 7 51 0 37 64 73 157 89 40 6 86 20 102 30
31 19 94 116 85 131 -10 16 -22 7 -28 -23 -3 -17 -23 -48 -44 -69 -30 -30 -47
-39 -90 -45 -47 -6 -54 -5 -71 16 l-18 23 -14 -29 c-8 -16 -30 -39 -49 -52
-58 -38 -60 -41 -60 -101 0 -67 -20 -105 -53 -100 -21 3 -22 8 -21 98 0 86 4
103 36 178 20 46 48 96 62 111 39 41 31 47 -14 11 -22 -17 -43 -44 -46 -58 -3
-15 -16 -54 -29 -87 -13 -35 -26 -94 -30 -140 -4 -58 -11 -84 -23 -93 -9 -7
-16 -18 -14 -24 5 -18 -18 -74 -40 -97 -11 -13 -22 -37 -23 -55 -3 -39 -31
-106 -44 -106 -7 0 -7 8 -2 23 8 23 5 47 -8 47 -3 0 -8 -12 -9 -27 -2 -29 -9
-40 -18 -30 -6 6 3 45 40 157 8 25 23 77 34 115 11 39 30 104 42 145 12 41 27
93 33 115 8 27 30 59 72 99 66 65 182 155 231 180 18 8 65 51 105 95 41 44 76
81 77 81 2 0 22 -16 45 -35z m-4030 -93 c46 -20 47 -22 47 -66 0 -25 -4 -47
-8 -50 -5 -3 -35 6 -68 19 -117 48 -224 23 -274 -66 -34 -59 -36 -185 -4 -239
39 -66 120 -102 193 -84 l36 9 3 72 3 72 -63 3 -63 3 0 40 0 40 114 3 c85 2
117 -1 123 -10 14 -23 10 -284 -5 -297 -50 -41 -248 -51 -330 -17 -96 41 -155
132 -164 251 -12 162 69 293 207 332 64 18 195 11 253 -15z m-984 -1 c20 -36
201 -546 201 -564 0 -16 -8 -18 -62 -15 l-61 3 -22 65 -22 65 -115 3 -115 3
-24 -68 -24 -68 -49 -3 c-27 -2 -53 1 -58 6 -7 7 175 547 197 582 3 6 37 10
75 10 58 0 71 -3 79 -19z m1516 -31 l0 -45 -112 -3 -113 -3 0 -74 0 -74 98 -3
97 -3 0 -40 0 -40 -97 -3 -98 -3 0 -79 0 -79 113 -3 112 -3 0 -45 0 -45 -159
-3 c-108 -2 -163 1 -172 9 -19 16 -21 558 -2 577 9 9 57 12 173 10 l160 -3 0
-45z m233 -202 l2 -247 103 -3 102 -3 0 -45 0 -45 -149 -3 c-101 -2 -153 1
-162 9 -11 9 -14 65 -14 294 0 155 3 285 7 289 4 4 30 6 58 4 l50 -3 3 -247z
m634 223 c105 -51 154 -149 146 -290 -8 -132 -54 -208 -153 -252 -42 -19 -73
-24 -183 -27 -96 -3 -136 -1 -147 8 -13 10 -15 56 -15 289 0 208 3 280 13 290
9 10 47 12 152 9 120 -4 147 -7 187 -27z m-1917 -331 l0 -45 -115 0 -115 0 -3
33 c-6 62 -4 63 120 60 l113 -3 0 -45z m4413 -116 c5 -32 -54 -146 -96 -187
-26 -25 -50 -38 -79 -43 -51 -8 -56 6 -10 28 34 16 37 22 82 128 15 36 35 73
43 83 21 23 56 18 60 -9z m-144 -8 c-4 -17 0 -27 13 -34 17 -10 17 -12 -1 -43
-11 -18 -22 -46 -25 -63 -6 -27 -14 -33 -75 -54 -63 -21 -70 -22 -92 -7 -31
20 -31 35 1 35 15 0 38 12 52 26 19 19 28 22 33 13 11 -17 40 13 40 42 0 26
40 109 52 109 5 0 6 -11 2 -24z m46 5 c0 -22 -15 -35 -29 -27 -13 9 -1 46 15
46 8 0 14 -9 14 -19z m173 3 c8 -8 -11 -44 -23 -44 -5 0 -11 8 -13 18 -3 10
-5 6 -6 -10 -1 -18 4 -28 13 -28 13 0 13 -7 -1 -46 -11 -32 -27 -54 -56 -75
-44 -32 -80 -39 -71 -14 4 8 11 15 18 15 11 0 76 128 76 149 0 10 39 41 51 41
3 0 9 -3 12 -6z m270 -189 c-7 -21 -13 -19 -13 6 0 11 4 18 10 14 5 -3 7 -12
3 -20z m77 13 c0 -17 -18 -44 -24 -37 -8 7 5 49 15 49 5 0 9 -6 9 -12z m-120
-40 c0 -18 -2 -20 -9 -8 -6 8 -7 18 -5 22 9 14 14 9 14 -14z m68 -60 c-3 -7
-13 -15 -24 -17 -16 -3 -17 -1 -5 13 16 19 34 21 29 4z m-1519 -235 l11 -28
146 -2 c120 -2 149 -5 164 -18 12 -11 26 -14 40 -10 23 7 49 -17 49 -45 0 -12
-2 -11 -10 3 -14 24 -29 21 -26 -5 2 -18 -8 -26 -51 -44 -51 -20 -102 -59
-102 -76 0 -5 -7 -16 -15 -24 -8 -9 -15 -22 -15 -29 0 -16 36 -39 48 -31 5 3
4 -20 -2 -50 -5 -30 -12 -51 -15 -46 -10 14 -50 21 -57 10 -4 -6 -15 6 -25 27
-10 21 -16 42 -12 48 4 6 0 8 -10 4 -9 -3 -18 -1 -20 6 -3 9 -8 9 -20 -1 -9
-8 -20 -11 -26 -8 -5 4 -17 -1 -25 -10 -15 -14 -16 -13 -16 10 0 30 -9 37 -39
29 -15 -4 -19 -8 -10 -13 9 -6 9 -15 1 -39 -6 -18 -7 -29 -3 -26 11 6 23 -23
15 -37 -3 -5 -15 -8 -25 -5 -29 8 -23 -19 9 -41 15 -10 32 -18 37 -16 6 2 18
-12 27 -31 10 -20 13 -35 7 -35 -6 0 -7 -4 -4 -10 3 -5 17 -10 31 -10 29 0 41
-24 23 -46 -11 -14 -10 -18 5 -29 17 -13 16 -15 -17 -28 -41 -18 -55 -36 -36
-48 26 -16 0 -20 -30 -4 -32 16 -43 32 -16 21 23 -8 18 2 -20 46 -39 46 -80
156 -72 196 3 16 -1 34 -9 43 -11 12 -12 23 -4 43 15 40 12 66 -6 66 -9 0 -14
6 -11 13 2 6 1 19 -4 28 -6 12 0 28 21 54 16 20 32 45 35 56 4 10 11 19 16 19
21 0 6 21 -31 45 -46 29 -55 53 -10 30 39 -20 100 -20 100 0 0 8 -4 15 -10 15
-5 0 -10 14 -10 30 0 37 14 39 29 3z m429 -158 c-3 -3 -9 2 -12 12 -6 14 -5
15 5 6 7 -7 10 -15 7 -18z m-18 -4 c12 -24 13 -31 2 -31 -5 0 -14 11 -20 25
-14 29 2 34 18 6z m-65 -19 c-53 -42 -60 -46 -33 -19 16 15 31 27 35 27 4 0 3
-3 -2 -8z m551 -28 c39 -10 64 -23 67 -33 2 -9 26 -24 53 -33 69 -24 179 -99
178 -120 -2 -17 15 -34 121 -122 49 -41 55 -62 7 -28 -15 11 -41 24 -58 28
-30 7 -69 29 -92 51 -7 7 -21 13 -31 13 -9 0 -22 5 -29 12 -9 9 -12 9 -12 1 0
-7 9 -14 19 -18 11 -3 32 -16 47 -28 15 -12 39 -27 53 -34 23 -10 24 -11 5
-12 -11 -1 -29 7 -40 18 -23 21 -57 34 -94 36 -14 1 -34 5 -44 10 -13 6 -17 5
-13 -3 4 -6 21 -13 37 -17 17 -4 30 -13 30 -22 0 -10 -6 -13 -16 -9 -15 6 -13
-4 9 -31 12 -17 16 -93 4 -93 -5 0 -7 -6 -4 -12 2 -7 10 -13 18 -13 8 0 15
-10 17 -22 4 -27 -13 -30 -27 -5 -6 9 -11 11 -11 5 0 -15 -30 -18 -30 -3 0 6
-5 10 -12 10 -6 0 -4 -7 5 -18 10 -10 17 -25 17 -33 0 -7 -10 1 -22 18 -15 21
-35 35 -55 39 -37 7 -79 47 -67 65 5 9 1 11 -14 7 -12 -4 -22 -3 -22 1 0 12
-48 7 -62 -6 -18 -19 -38 -16 -38 7 0 11 6 20 13 20 6 0 -1 7 -17 15 -16 9
-35 14 -40 12 -6 -3 -32 -1 -58 3 -26 3 -53 3 -61 -2 -11 -6 -21 1 -37 26 -23
39 -44 47 -78 32 -18 -7 -26 -5 -43 12 -11 12 -29 22 -39 22 -18 0 -27 26 -21
63 0 4 -6 7 -15 7 -14 0 -14 -3 -4 -15 10 -12 9 -15 -4 -15 -12 0 -16 -5 -11
-19 3 -12 0 -21 -10 -25 -29 -11 -15 -26 20 -21 43 5 44 -4 5 -33 -25 -19 -33
-20 -50 -10 -23 14 -26 34 -7 42 8 3 7 8 -6 16 -9 6 -15 15 -12 20 8 14 -16
23 -28 11 -22 -22 -37 -13 -27 15 6 14 10 36 10 48 0 17 14 32 53 56 28 18 61
33 72 32 11 -1 27 6 36 14 9 8 45 29 81 47 61 31 70 33 193 35 97 2 144 -1
191 -14z m-4039 -117 l28 -27 3 -300 c2 -259 1 -304 -13 -330 -30 -58 -43 -60
-487 -60 -364 0 -406 2 -438 18 -58 29 -60 37 -60 366 l0 298 34 34 35 35 435
-3 436 -3 27 -28z m3160 -89 c-3 -8 -6 -5 -6 6 -1 11 2 17 5 13 3 -3 4 -12 1
-19z m2828 -40 c9 -13 25 -54 37 -92 28 -93 22 -207 -17 -294 -27 -61 -43 -76
-69 -66 -26 10 -26 33 2 91 23 49 27 71 27 148 0 77 -4 98 -28 149 -21 45 -24
62 -16 72 17 21 46 17 64 -8z m-2785 -8 c8 -5 11 -10 7 -10 -5 0 -5 -5 -2 -10
5 -8 11 -7 20 0 11 9 22 6 48 -14 43 -33 55 -33 55 0 0 14 5 31 12 37 10 10
11 5 8 -20 -3 -22 0 -33 8 -33 16 0 27 -30 11 -30 -7 -1 -6 -5 4 -13 9 -7 14
-17 12 -24 -2 -6 5 -14 17 -18 11 -3 18 -10 15 -15 -7 -12 13 -23 26 -14 8 5
6 10 -5 16 -22 12 -20 28 3 28 24 0 36 -43 19 -70 -22 -35 -45 -34 -82 4 -19
19 -43 33 -53 32 -10 -2 -12 -1 -5 1 24 8 10 66 -22 91 -33 25 -56 28 -57 10
0 -10 -2 -10 -6 0 -2 6 -13 12 -23 12 -10 0 -25 11 -34 25 -18 27 -6 34 24 15z
m2686 -84 c57 -123 -3 -363 -74 -293 -13 14 -13 21 8 68 26 62 25 152 -3 208
-21 42 -21 46 -2 65 23 23 45 8 71 -48z m-1586 29 c33 -17 38 -25 16 -25 -14
0 -67 39 -53 40 4 0 21 -7 37 -15z m-618 -10 c13 -18 9 -28 -7 -15 -8 6 -18 9
-24 6 -5 -3 -11 0 -14 7 -6 16 34 17 45 2z m-252 -26 c0 -5 -4 -9 -10 -9 -5 0
-10 7 -10 16 0 8 5 12 10 9 6 -3 10 -10 10 -16z m2343 -31 c25 -49 25 -128 0
-171 -35 -60 -100 -39 -69 22 20 38 20 100 1 129 -12 17 -13 26 -5 42 17 32
50 21 73 -22z m-2178 13 c-3 -5 4 -12 15 -16 11 -3 20 -13 20 -22 0 -9 6 -13
14 -10 23 9 7 -22 -17 -35 -27 -14 -87 -19 -87 -7 0 12 56 40 64 32 3 -4 6 -2
6 4 0 15 -49 11 -55 -5 -4 -10 -9 -10 -27 0 -13 7 -29 11 -35 10 -14 -3 -17 8
-5 23 10 14 35 13 47 -2 13 -16 58 -5 51 12 -2 7 -2 16 1 19 10 9 15 7 8 -3z
m135 -1 c0 -5 -7 -10 -15 -10 -8 0 -15 5 -15 10 0 6 7 10 15 10 8 0 15 -4 15
-10z m85 -10 c-3 -5 -2 -10 4 -10 5 0 16 -3 25 -6 11 -4 16 -1 16 10 0 18 25
22 35 6 3 -5 2 -10 -4 -10 -6 0 -14 -12 -17 -26 -5 -18 -10 -22 -17 -15 -6 6
-24 11 -40 11 -15 0 -26 4 -22 9 3 5 1 12 -5 16 -17 11 -11 25 11 25 11 0 17
-4 14 -10z m-115 -30 c-6 -11 -16 -20 -22 -20 -6 0 -3 9 7 20 10 11 20 20 22
20 2 0 -1 -9 -7 -20z m70 0 c0 -5 -2 -10 -4 -10 -3 0 -8 5 -11 10 -3 6 -1 10
4 10 6 0 11 -4 11 -10z m-248 -45 c3 -14 1 -25 -3 -25 -5 0 -9 6 -9 14 0 8 -3
22 -7 32 -4 11 -3 15 4 11 6 -4 13 -18 15 -32z m300 -15 c-4 -26 -1 -30 20
-30 14 0 28 3 31 6 4 4 23 7 42 8 25 1 34 -3 30 -12 -3 -8 -5 -19 -5 -27 0
-23 -38 -24 -85 -2 -42 19 -45 23 -45 60 0 21 4 36 8 33 5 -3 7 -19 4 -36z
m143 30 c3 -5 -1 -10 -9 -10 -8 0 -18 5 -21 10 -3 6 1 10 9 10 8 0 18 -4 21
-10z m-185 -16 c0 -8 -4 -12 -10 -9 -5 3 -10 10 -10 16 0 5 5 9 10 9 6 0 10
-7 10 -16z m274 1 c-7 -16 -24 -21 -24 -6 0 8 7 13 27 20 1 1 0 -6 -3 -14z
m-816 -28 c17 -1 15 -14 -4 -21 -17 -7 -44 9 -44 26 0 6 8 7 18 3 9 -4 23 -8
30 -8z m152 -8 c0 -11 -4 -17 -10 -14 -5 3 -10 1 -10 -5 0 -22 -43 -6 -46 18
-3 19 0 22 31 22 29 0 35 -4 35 -21z m1101 -24 c8 -16 6 -15 -10 4 -12 13 -21
28 -21 35 0 12 14 -5 31 -39z m-333 -17 c25 -58 24 -58 -12 -5 -26 38 -32 57
-18 57 4 0 17 -24 30 -52z m-378 27 c0 -9 -6 -12 -15 -9 -8 4 -15 10 -15 15 0
5 7 9 15 9 8 0 15 -7 15 -15z m-253 -17 c-3 -8 -6 -5 -6 6 -1 11 2 17 5 13 3
-3 4 -12 1 -19z m513 8 c0 -2 -9 -6 -20 -9 -11 -3 -18 -1 -14 4 5 9 34 13 34
5z m-260 -39 c0 -13 -7 -32 -15 -43 -9 -12 -13 -13 -11 -4 2 8 7 27 10 43 8
33 16 35 16 4z m205 13 c-3 -5 -11 -10 -16 -10 -6 0 -7 5 -4 10 3 6 11 10 16
10 6 0 7 -4 4 -10z m-449 -47 c-11 -11 -17 4 -9 23 7 18 8 18 11 1 2 -10 1
-21 -2 -24z m-19 -75 c-3 -8 -6 -5 -6 6 -1 11 2 17 5 13 3 -3 4 -12 1 -19z
m63 -33 c0 -8 -4 -15 -10 -15 -5 0 -10 7 -10 15 0 8 5 15 10 15 6 0 10 -7 10
-15z m-80 -25 c-6 -11 -13 -20 -16 -20 -2 0 0 9 6 20 6 11 13 20 16 20 2 0 0
-9 -6 -20z m-557 -27 c-7 -2 -19 -2 -25 0 -7 3 -2 5 12 5 14 0 19 -2 13 -5z
m142 -13 c3 -5 1 -10 -4 -10 -6 0 -11 5 -11 10 0 6 2 10 4 10 3 0 8 -4 11 -10z
m363 -14 c-10 -7 -15 -15 -12 -18 2 -3 -7 -3 -22 0 l-27 5 34 12 c45 17 47 17
27 1z m-51 -62 c-3 -3 -12 -4 -19 -1 -8 3 -5 6 6 6 11 1 17 -2 13 -5z m50 -50
c-3 -3 -12 -4 -19 -1 -8 3 -5 6 6 6 11 1 17 -2 13 -5z m-3077 -603 c0 -36 3
-40 30 -46 82 -18 78 -130 -5 -151 -19 -5 -25 -13 -25 -35 0 -22 -5 -29 -20
-29 -15 0 -20 7 -20 29 0 25 -5 31 -30 36 -82 18 -78 130 5 151 21 5 25 12 25
45 0 32 3 39 20 39 17 0 20 -7 20 -39z m-1219 9 c10 -6 19 -17 19 -25 0 -17
-16 -20 -25 -5 -10 17 -54 11 -75 -10 -24 -24 -27 -86 -4 -118 16 -23 67 -31
79 -12 9 15 25 12 25 -5 0 -38 -85 -47 -125 -12 -52 44 -40 163 18 187 30 12
65 12 88 0z m179 -65 c0 -9 -9 -15 -25 -15 -24 0 -25 -2 -25 -65 0 -58 -2 -65
-20 -65 -18 0 -20 7 -20 65 0 63 -1 65 -25 65 -16 0 -25 6 -25 15 0 12 14 15
70 15 56 0 70 -3 70 -15z m52 4 c3 -8 10 -8 25 2 31 19 75 2 87 -33 15 -44 -3
-101 -37 -112 -20 -7 -34 -7 -47 2 -19 11 -20 9 -20 -28 0 -33 -3 -40 -20 -40
-19 0 -20 7 -20 110 0 88 3 110 14 110 8 0 16 -5 18 -11z m288 -9 c48 -48 7
-140 -61 -140 -72 0 -106 84 -54 135 31 32 86 34 115 5z m102 -26 l3 -46 34
46 c19 25 43 46 53 46 16 0 18 -9 18 -80 0 -73 -2 -80 -19 -80 -16 0 -20 8
-23 45 l-3 45 -35 -44 c-19 -25 -43 -45 -52 -46 -16 0 -18 10 -18 80 0 73 2
80 19 80 16 0 20 -8 23 -46z m235 -10 l17 -56 19 56 c17 50 22 56 46 56 26 0
29 -4 35 -46 11 -85 8 -116 -11 -112 -14 2 -19 16 -23 63 l-5 60 -21 -60 c-15
-44 -26 -61 -41 -63 -16 -2 -23 8 -39 60 l-19 63 -5 -60 c-4 -47 -9 -61 -22
-63 -20 -4 -23 27 -12 112 6 42 9 46 35 46 25 0 30 -5 46 -56z m525 10 l3 -46
34 46 c19 25 43 46 53 46 16 0 18 -9 18 -80 0 -73 -2 -80 -19 -80 -16 0 -20 8
-23 45 l-3 45 -35 -44 c-19 -25 -43 -45 -52 -46 -16 0 -18 10 -18 80 0 73 2
80 19 80 16 0 20 -8 23 -46z m188 11 c0 -33 2 -35 35 -35 33 0 35 2 35 35 0
28 4 35 20 35 18 0 20 -7 20 -80 0 -73 -2 -80 -20 -80 -16 0 -20 7 -20 30 0
28 -3 30 -35 30 -32 0 -35 -2 -35 -30 0 -23 -4 -30 -20 -30 -18 0 -20 7 -20
80 0 73 2 80 20 80 16 0 20 -7 20 -35z m264 19 c22 -22 23 -144 1 -144 -8 0
-15 5 -15 12 0 9 -3 9 -12 0 -17 -17 -64 -15 -82 4 -35 35 -2 84 57 84 19 0
27 4 24 13 -4 13 -41 15 -69 2 -13 -5 -18 -3 -18 8 0 35 85 51 114 21z m96
-19 c0 -33 2 -35 35 -35 33 0 35 2 35 35 0 28 4 35 20 35 18 0 20 -7 20 -80 0
-73 -2 -80 -20 -80 -16 0 -20 7 -20 30 0 28 -3 30 -35 30 -32 0 -35 -2 -35
-30 0 -23 -4 -30 -20 -30 -18 0 -20 7 -20 80 0 73 2 80 20 80 16 0 20 -7 20
-35z m248 23 c7 -7 12 -18 12 -25 0 -10 -5 -10 -25 -1 -32 14 -55 -3 -55 -42
0 -39 23 -56 55 -42 20 9 25 9 25 -1 0 -39 -67 -50 -100 -17 -43 43 -10 140
49 140 15 0 32 -5 39 -12z m182 -8 c48 -48 7 -140 -61 -140 -72 0 -106 84 -54
135 31 32 86 34 115 5z m176 6 c16 -12 17 -18 7 -35 -10 -15 -9 -22 2 -31 42
-34 -3 -80 -77 -80 l-48 0 0 80 0 80 48 0 c27 0 57 -6 68 -14z m98 -46 l20
-54 16 54 c13 44 20 56 39 58 17 3 22 0 19 -10 -3 -7 -20 -57 -37 -110 -29
-88 -35 -98 -57 -98 -27 0 -28 1 -13 32 10 23 3 50 -46 171 -6 15 -4 18 15 15
17 -2 28 -16 44 -58z m166 30 c0 -16 4 -30 9 -30 5 0 23 14 39 30 36 36 78 39
116 9 55 -44 18 -139 -55 -139 -34 0 -79 32 -79 57 0 7 -7 13 -15 13 -10 0
-15 -11 -15 -35 0 -28 -4 -35 -20 -35 -18 0 -20 7 -20 80 0 73 2 80 20 80 16
0 20 -7 20 -30z m440 -50 c0 -73 -2 -80 -20 -80 -18 0 -20 7 -20 65 l0 65 -30
0 -30 0 0 -65 c0 -58 -2 -65 -20 -65 -18 0 -20 7 -20 80 l0 80 70 0 70 0 0
-80z m190 0 c0 -73 -2 -80 -20 -80 -18 0 -20 7 -20 65 0 49 -3 65 -14 65 -9 0
-17 -15 -21 -40 -8 -47 -39 -90 -66 -90 -24 0 -24 15 0 39 11 11 22 41 26 70
l7 51 54 0 54 0 0 -80z m170 60 c48 -48 7 -140 -61 -140 -72 0 -106 84 -54
135 31 32 86 34 115 5z m180 5 c0 -9 -9 -15 -25 -15 -24 0 -25 -2 -25 -65 0
-58 -2 -65 -20 -65 -18 0 -20 7 -20 65 0 63 -1 65 -25 65 -16 0 -25 6 -25 15
0 12 14 15 70 15 56 0 70 -3 70 -15z m62 -31 l3 -46 34 46 c19 25 43 46 53 46
16 0 18 -9 18 -80 0 -73 -2 -80 -19 -80 -16 0 -20 8 -23 45 l-3 45 -35 -44
c-19 -25 -43 -45 -52 -46 -16 0 -18 10 -18 80 0 73 2 80 19 80 16 0 20 -8 23
-46z m188 11 c0 -33 2 -35 35 -35 33 0 35 2 35 35 0 28 4 35 20 35 18 0 20 -7
20 -80 0 -73 -2 -80 -20 -80 -16 0 -20 7 -20 30 0 28 -3 30 -35 30 -32 0 -35
-2 -35 -30 0 -23 -4 -30 -20 -30 -18 0 -20 7 -20 80 0 73 2 80 20 80 16 0 20
-7 20 -35z m194 -25 l20 -54 16 54 c13 44 20 56 39 58 17 3 22 0 19 -10 -3 -7
-20 -57 -37 -110 -29 -88 -35 -98 -57 -98 -27 0 -28 1 -13 32 10 23 3 50 -46
171 -6 15 -4 18 15 15 17 -2 28 -16 44 -58z m322 46 c16 -12 17 -18 7 -35 -10
-15 -9 -22 2 -31 42 -34 -3 -80 -77 -80 l-48 0 0 80 0 80 48 0 c27 0 57 -6 68
-14z m141 -42 l17 -56 19 56 c17 50 22 56 46 56 26 0 29 -4 35 -46 11 -85 8
-116 -11 -112 -14 2 -19 16 -23 63 l-5 60 -21 -60 c-15 -44 -26 -61 -41 -63
-16 -2 -23 8 -39 60 l-19 63 -5 -60 c-4 -47 -9 -61 -22 -63 -20 -4 -23 27 -12
112 6 42 9 46 35 46 25 0 30 -5 46 -56z m283 36 c11 -11 20 -31 20 -45 0 -24
-3 -25 -55 -25 -30 0 -55 -4 -55 -9 0 -20 31 -33 65 -28 25 4 35 2 35 -8 0
-16 -22 -25 -66 -25 -45 0 -74 29 -74 75 0 71 83 112 130 65z m158 8 c7 -7 12
-18 12 -25 0 -10 -5 -10 -25 -1 -32 14 -55 -3 -55 -42 0 -39 23 -56 55 -42 20
9 25 9 25 -1 0 -39 -67 -50 -100 -17 -43 43 -10 140 49 140 15 0 32 -5 39 -12z
m172 -3 c0 -9 -9 -15 -25 -15 -24 0 -25 -2 -25 -65 0 -58 -2 -65 -20 -65 -18
0 -20 7 -20 65 0 63 -1 65 -25 65 -16 0 -25 6 -25 15 0 12 14 15 70 15 56 0
70 -3 70 -15z m140 -5 c11 -11 20 -31 20 -45 0 -24 -3 -25 -55 -25 -30 0 -55
-4 -55 -9 0 -20 31 -33 65 -28 25 4 35 2 35 -8 0 -16 -22 -25 -66 -25 -45 0
-74 29 -74 75 0 71 83 112 130 65z m-5496 -536 c3 -9 6 -40 6 -70 0 -53 0 -54
30 -54 30 0 30 0 30 58 0 68 9 85 41 80 22 -3 24 -8 27 -69 2 -57 6 -68 22
-72 26 -7 26 -27 0 -34 -16 -4 -20 -15 -22 -67 -3 -56 -5 -61 -27 -64 -31 -5
-41 12 -41 76 l0 52 -65 0 -65 0 0 83 c0 46 3 87 7 90 12 13 51 7 57 -9z m386
-114 l0 -130 28 0 c27 0 52 -15 52 -32 0 -5 -51 -7 -112 -6 -93 2 -113 6 -113
18 0 10 13 16 43 18 l42 3 0 105 c0 84 -3 104 -14 104 -19 0 -29 17 -22 35 4
10 20 15 51 15 l45 0 0 -130z m365 110 c0 -12 -17 -16 -77 -18 l-78 -3 0 -44
0 -45 65 0 c82 0 105 -18 105 -85 0 -35 -6 -52 -25 -70 -21 -22 -33 -25 -98
-25 -83 0 -124 20 -112 53 9 21 25 22 69 1 60 -29 116 6 96 61 -6 17 -19 21
-81 25 l-74 5 -3 69 c-2 38 -1 75 2 83 8 21 211 14 211 -7z m179 4 c3 -9 6
-40 6 -70 0 -53 0 -54 30 -54 30 0 30 0 30 58 0 68 9 85 41 80 22 -3 24 -8 27
-69 2 -57 6 -68 22 -72 26 -7 26 -27 0 -34 -16 -4 -20 -15 -22 -67 -3 -56 -5
-61 -27 -64 -31 -5 -41 12 -41 76 l0 52 -65 0 -65 0 0 83 c0 46 3 87 7 90 12
13 51 7 57 -9z m926 -114 l0 -130 28 0 c27 0 52 -15 52 -32 0 -5 -51 -7 -112
-6 -93 2 -113 6 -113 18 0 10 13 16 43 18 l42 3 0 105 c0 84 -3 104 -14 104
-19 0 -29 17 -22 35 4 10 20 15 51 15 l45 0 0 -130z m1470 0 l0 -130 28 0 c27
0 52 -15 52 -32 0 -5 -51 -7 -112 -6 -93 2 -113 6 -113 18 0 10 13 16 43 18
l42 3 0 105 c0 84 -3 104 -14 104 -19 0 -29 17 -22 35 4 10 20 15 51 15 l45 0
0 -130z m1084 114 c3 -9 6 -40 6 -70 0 -53 0 -54 30 -54 30 0 30 0 30 58 0 68
9 85 41 80 22 -3 24 -8 27 -69 2 -57 6 -68 22 -72 26 -7 26 -27 0 -34 -16 -4
-20 -15 -22 -67 -3 -56 -5 -61 -27 -64 -31 -5 -41 12 -41 76 l0 52 -65 0 -65
0 0 83 c0 46 3 87 7 90 12 13 51 7 57 -9z m481 -4 c0 -12 -17 -16 -77 -18
l-78 -3 0 -44 0 -45 65 0 c82 0 105 -18 105 -85 0 -35 -6 -52 -25 -70 -21 -22
-33 -25 -98 -25 -83 0 -124 20 -112 53 9 21 25 22 69 1 60 -29 116 6 96 61 -6
17 -19 21 -81 25 l-74 5 -3 69 c-2 38 -1 75 2 83 8 21 211 14 211 -7z m235
-110 l0 -130 28 0 c27 0 52 -15 52 -32 0 -5 -51 -7 -112 -6 -93 2 -113 6 -113
18 0 10 13 16 43 18 l42 3 0 105 c0 84 -3 104 -14 104 -19 0 -29 17 -22 35 4
10 20 15 51 15 l45 0 0 -130z m280 0 l0 -130 28 0 c27 0 52 -15 52 -32 0 -5
-51 -7 -112 -6 -93 2 -113 6 -113 18 0 10 13 16 43 18 l42 3 0 105 c0 84 -3
104 -14 104 -19 0 -29 17 -22 35 4 10 20 15 51 15 l45 0 0 -130z m-3800 102
c29 -24 38 -92 15 -116 -16 -16 -16 -18 -1 -35 24 -27 20 -78 -9 -106 -21 -22
-33 -25 -93 -25 -87 0 -122 22 -122 77 0 20 7 44 15 53 14 15 14 18 0 30 -9 8
-15 29 -15 55 0 63 31 85 120 85 50 0 74 -5 90 -18z m604 -3 c25 -20 26 -24
26 -129 0 -105 -1 -109 -26 -129 -21 -16 -41 -21 -91 -21 -55 0 -67 4 -88 25
-23 22 -25 31 -25 120 0 137 13 153 121 154 42 1 63 -4 83 -20z m330 0 c25
-20 26 -24 26 -129 0 -105 -1 -109 -26 -129 -21 -16 -41 -21 -91 -21 -55 0
-67 4 -88 25 -23 22 -25 31 -25 120 0 137 13 153 121 154 42 1 63 -4 83 -20z
m540 0 c25 -20 26 -24 26 -129 0 -105 -1 -109 -26 -129 -21 -16 -41 -21 -91
-21 -55 0 -67 4 -88 25 -23 22 -25 31 -25 120 0 137 13 153 121 154 42 1 63
-4 83 -20z m610 0 c25 -20 26 -24 26 -129 0 -105 -1 -109 -26 -129 -21 -16
-41 -21 -91 -21 -55 0 -67 4 -88 25 -23 22 -25 31 -25 120 0 137 13 153 121
154 42 1 63 -4 83 -20z m330 0 c25 -20 26 -24 26 -129 0 -105 -1 -109 -26
-129 -21 -16 -41 -21 -91 -21 -55 0 -67 4 -88 25 -23 22 -25 31 -25 120 0 137
13 153 121 154 42 1 63 -4 83 -20z m2752 -252 c3 -3 3 -28 -1 -56 -6 -48 -8
-50 -32 -40 -39 14 -109 11 -123 -6 -16 -20 -8 -29 57 -64 112 -61 120 -160
19 -235 -21 -16 -46 -22 -109 -24 -45 -2 -95 1 -111 7 -27 11 -28 14 -23 57 2
25 6 47 8 49 2 2 31 -4 64 -12 46 -12 66 -13 88 -4 44 17 35 46 -27 81 -67 38
-85 58 -93 102 -9 56 19 102 80 133 46 23 61 26 125 22 40 -2 75 -7 78 -10z
m-759 -9 c4 -7 19 -68 33 -136 l25 -123 50 136 50 135 63 0 c35 0 62 -4 60 -9
-1 -5 -41 -101 -87 -215 l-85 -207 -60 3 -61 3 -32 120 c-73 273 -62 247 -121
271 -29 11 -55 24 -59 27 -3 4 44 7 105 7 78 0 113 -4 119 -12z m432 -10 c0
-13 -15 -108 -32 -213 l-32 -190 -57 -3 c-32 -2 -58 1 -58 5 -1 4 14 101 32
215 l33 208 58 0 c53 0 57 -2 56 -22z m657 -183 c24 -110 43 -206 43 -212 1
-9 -16 -13 -53 -13 -52 0 -55 1 -61 30 -7 30 -7 30 -75 30 -67 0 -68 -1 -79
-30 -10 -29 -12 -30 -70 -30 -34 0 -61 2 -61 4 0 17 172 411 182 418 7 4 40 7
72 6 l60 -3 42 -200z m-7006 -245 c0 -47 4 -80 10 -80 6 0 10 -18 10 -40 0
-33 -3 -40 -20 -40 -13 0 -20 7 -20 20 0 18 -7 20 -55 20 -48 0 -55 -2 -55
-20 0 -13 -7 -20 -20 -20 -16 0 -20 7 -20 36 0 22 6 41 16 49 12 8 18 33 22
83 l5 72 63 0 64 0 0 -80z m210 60 c0 -18 -7 -20 -60 -20 -53 0 -60 -2 -60
-20 0 -18 7 -20 55 -20 48 0 55 -2 55 -20 0 -18 -7 -20 -55 -20 -48 0 -55 -2
-55 -20 0 -18 7 -20 60 -20 53 0 60 -2 60 -20 0 -18 -7 -20 -80 -20 l-80 0 0
100 0 100 80 0 c73 0 80 -2 80 -20z m180 0 c0 -18 -7 -20 -55 -20 -48 0 -55
-2 -55 -20 0 -17 7 -20 45 -20 52 0 85 -25 85 -64 0 -38 -35 -56 -107 -56
l-63 0 0 100 0 100 75 0 c68 0 75 -2 75 -20z m210 0 c0 -18 -7 -20 -60 -20
-53 0 -60 -2 -60 -20 0 -18 7 -20 55 -20 48 0 55 -2 55 -20 0 -18 -7 -20 -55
-20 -48 0 -55 -2 -55 -20 0 -18 7 -20 60 -20 53 0 60 -2 60 -20 0 -18 -7 -20
-80 -20 l-80 0 0 100 0 100 80 0 c73 0 80 -2 80 -20z m180 0 c0 -16 -7 -20
-30 -20 l-30 0 0 -80 c0 -73 -2 -80 -20 -80 -18 0 -20 7 -20 80 l0 80 -30 0
c-23 0 -30 4 -30 20 0 18 7 20 80 20 73 0 80 -2 80 -20z m181 -9 c23 -23 29
-38 29 -71 0 -90 -99 -133 -161 -71 -62 62 -20 171 66 171 27 0 44 -8 66 -29z
m194 8 c16 -17 17 -25 8 -49 -9 -23 -8 -32 3 -41 19 -15 18 -48 -3 -71 -12
-14 -31 -18 -80 -18 l-63 0 0 100 0 100 58 0 c47 0 63 -4 77 -21z m188 -74
c16 -49 32 -92 34 -95 3 -3 13 6 22 20 9 13 24 33 34 42 14 15 14 18 2 18 -16
0 -35 30 -35 56 0 37 30 54 97 54 l63 0 0 -100 c0 -93 -1 -100 -20 -100 -17 0
-20 7 -20 40 0 33 -3 40 -20 40 -12 0 -30 -16 -46 -40 -24 -37 -30 -40 -71
-40 -37 0 -45 4 -53 25 -8 20 -16 25 -45 25 -29 0 -37 -5 -45 -25 -6 -16 -17
-25 -31 -25 -13 0 -19 5 -16 13 2 6 17 52 33 100 28 86 29 88 58 85 28 -3 31
-9 59 -93z m377 50 c0 -52 12 -58 30 -14 7 17 19 37 27 45 19 19 53 18 53 -1
0 -8 -7 -15 -15 -15 -8 0 -21 -16 -29 -35 -15 -34 -14 -37 14 -82 34 -53 28
-59 71 75 22 70 24 73 53 70 28 -3 31 -8 62 -100 31 -93 32 -98 13 -98 -12 0
-23 10 -29 25 -8 20 -16 25 -45 25 -29 0 -37 -5 -45 -25 -8 -21 -16 -25 -52
-25 -39 0 -45 3 -63 37 -29 52 -45 54 -45 4 0 -34 -3 -41 -20 -41 -19 0 -20 7
-20 100 0 93 1 100 20 100 17 0 20 -7 20 -45z m452 28 c44 -40 8 -103 -59
-103 -32 0 -33 -1 -33 -40 0 -33 -3 -40 -20 -40 -19 0 -20 7 -20 100 l0 100
57 0 c38 0 62 -5 75 -17z m198 -3 c0 -16 -7 -20 -30 -20 l-30 0 0 -80 c0 -73
-2 -80 -20 -80 -18 0 -20 7 -20 80 l0 80 -30 0 c-23 0 -30 4 -30 20 0 18 7 20
80 20 73 0 80 -2 80 -20z m166 -82 c31 -93 32 -98 13 -98 -12 0 -23 10 -29 25
-8 20 -16 25 -45 25 -29 0 -37 -5 -45 -25 -6 -16 -17 -25 -31 -25 -13 0 -19 5
-16 13 2 6 17 52 33 100 28 86 29 88 58 85 28 -3 31 -9 62 -100z"/>
<path d="M5992 4704 c-38 -26 -25 -91 21 -107 11 -4 25 1 37 13 24 24 25 34 3
51 -15 12 -16 12 -10 -5 4 -10 2 -25 -4 -33 -10 -11 -15 -11 -30 3 -24 22 -24
39 1 64 26 26 41 25 74 -5 17 -16 26 -34 26 -55 0 -20 4 -29 11 -24 16 10 2
64 -23 91 -25 27 -73 30 -106 7z"/>
<path d="M5420 3920 c0 -5 5 -10 11 -10 7 0 9 -10 5 -25 -4 -14 -2 -25 4 -25
12 0 24 45 15 59 -8 14 -35 14 -35 1z"/>
<path d="M753 4244 l-40 -129 80 -3 c44 -2 81 -1 83 1 2 2 -16 61 -39 131
l-43 128 -41 -128z"/>
<path d="M3030 4180 l0 -200 58 0 c73 0 139 31 167 80 16 28 20 53 20 120 0
67 -4 92 -20 120 -28 49 -94 80 -167 80 l-58 0 0 -200z"/>
<path d="M5715 3989 c-4 -12 -2 -26 4 -32 8 -8 11 -7 11 5 0 9 3 23 6 32 3 9
1 16 -4 16 -6 0 -14 -9 -17 -21z"/>
<path d="M4695 3439 c-4 -6 -13 -8 -20 -5 -17 6 -35 -14 -35 -40 0 -27 19 -42
30 -24 5 9 9 9 14 1 4 -6 19 -11 33 -11 l26 0 -21 -23 c-27 -29 -28 -37 -2
-30 26 7 80 69 80 92 0 10 -8 25 -18 34 -21 19 -77 23 -87 6z m64 -12 c15 -19
-9 -50 -35 -45 -23 4 -31 37 -12 49 19 12 34 11 47 -4z"/>
<path d="M4735 3420 c-3 -5 -1 -10 4 -10 6 0 11 5 11 10 0 6 -2 10 -4 10 -3 0
-8 -4 -11 -10z"/>
<path d="M4905 3421 c-6 -11 9 -23 19 -14 9 9 7 23 -3 23 -6 0 -12 -4 -16 -9z"/>
<path d="M4558 3403 c7 -3 16 -2 19 1 4 3 -2 6 -13 5 -11 0 -14 -3 -6 -6z"/>
<path d="M4876 3403 c-11 -11 -6 -23 9 -23 8 0 15 4 15 9 0 13 -16 22 -24 14z"/>
<path d="M4937 3404 c-8 -8 1 -24 14 -24 5 0 9 7 9 15 0 15 -12 20 -23 9z"/>
<path d="M4910 3370 c0 -5 5 -10 10 -10 6 0 10 5 10 10 0 6 -4 10 -10 10 -5 0
-10 -4 -10 -10z"/>
<path d="M4819 3313 c-13 -16 -12 -17 4 -4 16 13 21 21 13 21 -2 0 -10 -8 -17
-17z"/>
<path d="M4766 3191 c-4 -7 -5 -15 -2 -18 9 -9 19 4 14 18 -4 11 -6 11 -12 0z"/>
<path d="M4788 3158 c-16 -5 -28 -14 -28 -19 0 -12 27 -12 35 1 3 6 11 10 17
10 7 0 6 -6 -2 -15 -10 -12 -10 -15 4 -15 10 0 16 9 16 25 0 27 -2 28 -42 13z"/>
<path d="M4607 2983 c-4 -3 -7 -11 -7 -17 0 -6 5 -5 12 2 6 6 9 14 7 17 -3 3
-9 2 -12 -2z"/>
<path d="M4585 2930 c3 -5 8 -10 11 -10 2 0 4 5 4 10 0 6 -5 10 -11 10 -5 0
-7 -4 -4 -10z"/>
<path d="M5037 3145 c-15 -11 -12 -12 23 -11 24 0 44 -5 49 -13 6 -9 11 -10
15 -2 4 6 16 11 28 11 16 0 18 3 9 14 -8 10 -21 12 -45 6 -18 -4 -40 -4 -47 0
-8 5 -22 3 -32 -5z"/>
<path d="M5684 3126 c11 -9 24 -16 30 -16 12 0 7 5 -24 19 -24 11 -24 11 -6
-3z"/>
<path d="M4890 3109 c0 -5 5 -7 10 -4 6 3 10 8 10 11 0 2 -4 4 -10 4 -5 0 -10
-5 -10 -11z"/>
<path d="M5085 3110 c-3 -5 -1 -10 4 -10 6 0 11 5 11 10 0 6 -2 10 -4 10 -3 0
-8 -4 -11 -10z"/>
<path d="M5049 3109 c-7 -31 -4 -47 6 -39 7 5 15 7 18 3 4 -3 7 -2 7 4 0 10
-29 40 -31 32z"/>
<path d="M5530 3080 c19 -13 30 -13 30 0 0 6 -10 10 -22 10 -19 0 -20 -2 -8
-10z"/>
<path d="M4942 3051 c2 -7 7 -12 11 -12 12 1 9 15 -3 20 -7 2 -11 -2 -8 -8z"/>
<path d="M5082 3043 c2 -9 9 -18 16 -21 18 -6 15 25 -4 32 -11 4 -14 1 -12
-11z"/>
<path d="M5525 3039 c4 -5 0 -18 -9 -28 -15 -17 -15 -19 -1 -24 24 -10 45 3
42 26 -2 22 -14 37 -30 37 -5 0 -5 -5 -2 -11z"/>
<path d="M5574 3018 c3 -13 6 -28 6 -34 0 -6 10 -16 23 -22 17 -8 18 -11 5
-11 -9 -1 -24 -16 -33 -35 -15 -32 -15 -36 0 -60 10 -14 25 -26 34 -26 9 0 22
-5 29 -12 9 -9 12 -9 12 1 0 7 -7 19 -15 27 -8 9 -15 20 -15 25 0 5 7 12 15
15 8 4 15 14 15 24 0 11 5 22 10 25 8 5 8 11 0 20 -6 7 -9 19 -8 26 2 7 -12
17 -32 22 -44 13 -48 16 -30 27 12 8 12 10 -4 10 -14 0 -17 -5 -12 -22z"/>
<path d="M5800 3036 c0 -2 7 -7 16 -10 8 -3 12 -2 9 4 -6 10 -25 14 -25 6z"/>
<path d="M5461 3006 c-13 -14 -18 -26 -13 -30 6 -3 20 7 32 24 25 36 13 40
-19 6z"/>
<path d="M5315 2970 c-3 -5 -1 -10 4 -10 6 0 11 5 11 10 0 6 -2 10 -4 10 -3 0
-8 -4 -11 -10z"/>
<path d="M5415 2970 c3 -5 8 -10 11 -10 2 0 4 5 4 10 0 6 -5 10 -11 10 -5 0
-7 -4 -4 -10z"/>
<path d="M5668 2888 c4 -17 2 -20 -11 -15 -9 3 -19 2 -22 -3 -4 -6 3 -10 13
-10 23 0 46 25 37 40 -11 18 -23 11 -17 -12z"/>
<path d="M1768 1719 c-22 -12 -23 -52 -2 -73 26 -26 34 -18 34 34 0 52 -3 56
-32 39z"/>
<path d="M1840 1680 c0 -54 1 -55 31 -40 23 13 25 53 3 74 -26 26 -34 18 -34
-34z"/>
<path d="M872 1718 c-17 -17 -15 -63 4 -79 22 -18 48 0 52 35 6 45 -29 71 -56
44z"/>
<path d="M1051 1716 c-31 -37 9 -103 47 -80 36 23 23 94 -18 94 -10 0 -23 -6
-29 -14z"/>
<path d="M2374 1659 c-10 -17 12 -32 35 -24 29 9 27 35 -3 35 -14 0 -28 -5
-32 -11z"/>
<path d="M2891 1716 c-31 -37 9 -103 47 -80 36 23 23 94 -18 94 -10 0 -23 -6
-29 -14z"/>
<path d="M3080 1714 c0 -10 7 -14 22 -12 32 5 35 28 4 28 -17 0 -26 -5 -26
-16z"/>
<path d="M3080 1650 c0 -17 5 -21 28 -18 16 2 27 9 27 18 0 9 -11 16 -27 18
-23 3 -28 -1 -28 -18z"/>
<path d="M3501 1716 c-31 -37 9 -103 47 -80 36 23 23 94 -18 94 -10 0 -23 -6
-29 -14z"/>
<path d="M4131 1716 c-31 -37 9 -103 47 -80 36 23 23 94 -18 94 -10 0 -23 -6
-29 -14z"/>
<path d="M5090 1714 c0 -10 7 -14 22 -12 32 5 35 28 4 28 -17 0 -26 -5 -26
-16z"/>
<path d="M5090 1650 c0 -17 5 -21 28 -18 16 2 27 9 27 18 0 9 -11 16 -27 18
-23 3 -28 -1 -28 -18z"/>
<path d="M5507 1724 c-15 -16 -5 -24 29 -24 24 0 34 4 32 13 -5 13 -50 22 -61
11z"/>
<path d="M5977 1724 c-15 -16 -5 -24 29 -24 24 0 34 4 32 13 -5 13 -50 22 -61
11z"/>
<path d="M2043 1163 c-7 -2 -13 -17 -13 -33 0 -22 5 -29 27 -33 41 -8 73 8 73
37 0 32 -45 47 -87 29z"/>
<path d="M2052 1024 c-30 -21 -29 -52 3 -60 38 -9 75 3 75 26 0 16 -34 50 -50
50 -3 0 -16 -7 -28 -16z"/>
<path d="M2653 1163 c-9 -3 -13 -34 -13 -104 0 -98 0 -99 26 -105 14 -4 36 -2
50 5 23 10 24 15 24 100 0 79 -2 92 -19 101 -21 10 -47 12 -68 3z"/>
<path d="M2983 1163 c-9 -3 -13 -34 -13 -104 0 -98 0 -99 26 -105 14 -4 36 -2
50 5 23 10 24 15 24 100 0 79 -2 92 -19 101 -21 10 -47 12 -68 3z"/>
<path d="M3523 1163 c-9 -3 -13 -34 -13 -104 0 -98 0 -99 26 -105 14 -4 36 -2
50 5 23 10 24 15 24 100 0 79 -2 92 -19 101 -21 10 -47 12 -68 3z"/>
<path d="M4133 1163 c-9 -3 -13 -34 -13 -104 0 -98 0 -99 26 -105 14 -4 36 -2
50 5 23 10 24 15 24 100 0 79 -2 92 -19 101 -21 10 -47 12 -68 3z"/>
<path d="M4463 1163 c-9 -3 -13 -34 -13 -104 0 -98 0 -99 26 -105 14 -4 36 -2
50 5 23 10 24 15 24 100 0 79 -2 92 -19 101 -21 10 -47 12 -68 3z"/>
<path d="M7517 748 c-8 -24 -18 -51 -22 -60 -6 -15 -1 -18 32 -18 l40 0 -10
53 c-13 71 -22 76 -40 25z"/>
<path d="M570 502 c0 -15 -4 -42 -9 -60 -10 -32 -9 -32 25 -32 l34 0 0 60 c0
57 -1 60 -25 60 -21 0 -25 -5 -25 -28z"/>
<path d="M940 430 c0 -19 5 -21 43 -18 29 2 42 8 42 18 0 10 -13 16 -42 18
-38 3 -43 1 -43 -18z"/>
<path d="M1516 514 c-35 -34 -8 -104 41 -104 45 0 71 71 37 104 -8 9 -26 16
-39 16 -13 0 -31 -7 -39 -16z"/>
<path d="M1720 510 c0 -18 5 -21 33 -18 20 2 32 8 32 18 0 10 -12 16 -32 18
-28 3 -33 0 -33 -18z"/>
<path d="M1720 430 c0 -18 5 -21 38 -18 25 2 37 8 37 18 0 10 -12 16 -37 18
-33 3 -38 0 -38 -18z"/>
<path d="M1937 508 c-4 -14 -10 -33 -13 -42 -5 -12 0 -16 20 -16 29 0 29 1 12
50 l-13 35 -6 -27z"/>
<path d="M2105 520 c-11 -18 5 -30 41 -30 27 0 34 4 34 20 0 16 -7 20 -34 20
-19 0 -38 -4 -41 -10z"/>
<path d="M2577 508 c-4 -14 -10 -33 -13 -42 -5 -12 0 -16 20 -16 29 0 29 1 12
50 l-13 35 -6 -27z"/>
<path d="M2740 510 c0 -18 5 -21 33 -18 20 2 32 8 32 18 0 10 -12 16 -32 18
-28 3 -33 0 -33 -18z"/>
<path d="M3127 508 c-4 -14 -10 -33 -13 -42 -5 -12 0 -16 20 -16 29 0 29 1 12
50 l-13 35 -6 -27z"/>
</g>
</svg>
