<svg width="17" height="11" viewBox="0 0 17 11" fill="none" xmlns="http://www.w3.org/2000/svg">
<path d="M8.92686 10.409L8.92688 10.409L8.93187 10.4069C9.06228 10.3499 9.17978 10.2664 9.28494 10.1614L9.28695 10.1594L16.4288 2.86283C16.6407 2.65077 16.75 2.38823 16.75 2.08881C16.75 1.8902 16.7038 1.7044 16.6051 1.53908C16.5104 1.37457 16.3794 1.24324 16.2153 1.14821C16.0497 1.04245 15.8623 0.992187 15.6613 0.992187C15.3658 0.992187 15.1048 1.10257 14.8888 1.31056L14.8887 1.31048L14.8836 1.31571L8.5 7.83277L2.11638 1.31571L2.11646 1.31564L2.11118 1.31056C1.89516 1.10257 1.63424 0.992188 1.33871 0.992188C1.13766 0.992188 0.95029 1.04245 0.784709 1.14821C0.620581 1.24323 0.489585 1.37454 0.394935 1.53903C0.296184 1.70437 0.25 1.89018 0.25 2.08881C0.25 2.38574 0.354339 2.64761 0.559684 2.86052L0.559679 2.86053L0.561084 2.86196L7.71316 10.1595L7.71315 10.1595L7.71506 10.1614C7.82197 10.2682 7.94363 10.3515 8.07985 10.408C8.2117 10.4651 8.35282 10.4922 8.5 10.4922C8.64823 10.4922 8.79123 10.4648 8.92686 10.409Z" fill="#414650" stroke="#414650" stroke-width="0.5"/>
</svg>
