<svg width="40" height="40" viewBox="0 0 40 40" fill="none" xmlns="http://www.w3.org/2000/svg">
<circle cx="20" cy="20" r="20" fill="url(#paint0_linear_78667_2294)"/>
<circle cx="20" cy="20" r="15" fill="#FEFEFE"/>
<path d="M22.0469 23.6094C22.3281 23.6094 22.6016 23.5885 22.8672 23.5469C23.1328 23.5052 23.3854 23.4427 23.625 23.3594L23.8516 24.9219C23.5495 24.9948 23.2344 25.0521 22.9062 25.0937C22.5781 25.1354 22.2448 25.1562 21.9062 25.1562C21.2656 25.1562 20.6771 25.0625 20.1406 24.875C19.6094 24.6875 19.1484 24.4089 18.7578 24.0391C18.3672 23.6641 18.0625 23.2005 17.8437 22.6484C17.6302 22.0911 17.5234 21.4427 17.5234 20.7031V18.0547C17.5234 17.2943 17.6302 16.6302 17.8437 16.0625C18.0625 15.4896 18.3698 15.0104 18.7656 14.625C19.1667 14.2396 19.638 13.9505 20.1797 13.7578C20.7266 13.5651 21.3307 13.4687 21.9922 13.4687C22.3151 13.4687 22.6276 13.4922 22.9297 13.5391C23.237 13.5807 23.5443 13.638 23.8516 13.7109L23.625 15.2812C23.3958 15.2031 23.1458 15.1406 22.875 15.0937C22.6094 15.0469 22.3411 15.0234 22.0703 15.0234C21.6693 15.0234 21.3073 15.0833 20.9844 15.2031C20.6667 15.3229 20.3958 15.5052 20.1719 15.75C19.9479 15.9896 19.776 16.2995 19.6562 16.6797C19.5417 17.0599 19.4844 17.513 19.4844 18.0391V20.7031C19.4844 21.224 19.5443 21.6693 19.6641 22.0391C19.7891 22.4036 19.9635 22.7031 20.1875 22.9375C20.4115 23.1667 20.6797 23.3359 20.9922 23.4453C21.3099 23.5547 21.6615 23.6094 22.0469 23.6094ZM22.2812 17.6953V18.7656H16.1719V17.6953H22.2812ZM22.2812 19.7891V20.8594H16.1719V19.7891H22.2812Z" fill="url(#paint1_linear_78667_2294)"/>
<defs>
<linearGradient id="paint0_linear_78667_2294" x1="20" y1="0" x2="20" y2="40" gradientUnits="userSpaceOnUse">
<stop stop-color="#1640DE"/>
<stop offset="1" stop-color="#0647BD"/>
</linearGradient>
<linearGradient id="paint1_linear_78667_2294" x1="20" y1="8" x2="20" y2="32" gradientUnits="userSpaceOnUse">
<stop stop-color="#1640DE"/>
<stop offset="1" stop-color="#0647BD"/>
</linearGradient>
</defs>
</svg>
