<svg width="30" height="23" viewBox="0 0 30 23" fill="none" xmlns="http://www.w3.org/2000/svg">
    <path d="M29.5994 10.6932C26.5901 4.62664 20.996 0.858154 15 0.858154C9.0036 0.858154 3.40992 4.62622 0.399856 10.6932L0 11.4999L0.400216 12.3071C3.40956 18.3733 9.0036 22.1417 15 22.1417C20.996 22.1417 26.5901 18.3737 29.5998 12.3071L30 11.4999L29.5994 10.6932ZM15.1499 17.2217C12.1992 17.2217 9.79827 14.421 9.79827 10.9781C9.79827 7.53555 12.1992 4.73446 15.1499 4.73446C18.1007 4.73446 20.5016 7.53555 20.5016 10.9781C20.5016 14.421 18.1007 17.2217 15.1499 17.2217ZM3.21827 11.4999C4.49119 9.24632 6.20784 7.42354 8.18482 6.14696C7.45991 7.56366 7.0356 9.21234 7.0356 10.9781C7.0356 13.4994 7.88961 15.7849 9.27077 17.4839C6.83711 16.2136 4.71881 14.1567 3.21827 11.4999ZM21.256 17.1911C22.502 15.5269 23.2632 13.3563 23.2632 10.9777C23.2632 9.34239 22.9065 7.80362 22.2783 6.46034C24.0604 7.71552 25.6098 9.4242 26.781 11.4995C25.3905 13.9621 23.4682 15.909 21.256 17.1911ZM17.2557 10.8556C17.2557 12.3088 16.2452 13.4868 15.0004 13.4868C13.7544 13.4868 12.7447 12.3084 12.7447 10.8556C12.7447 9.40196 13.7548 8.22397 15.0004 8.22397C16.2456 8.22397 17.2557 9.40196 17.2557 10.8556Z"
          fill="black"/>
</svg>
