<svg width="30" height="24" viewBox="0 0 30 24" fill="none" xmlns="http://www.w3.org/2000/svg">
    <path opacity="0.56"
          d="M15 4.44909C20.1682 4.44909 24.7773 7.11854 27.0273 11.342C26.2227 12.871 25.0909 14.1869 23.7409 15.2522L25.6636 17.0193C27.5591 15.4778 29.0591 13.5478 30 11.342C27.6409 5.84021 21.8182 1.94256 15 1.94256C13.2682 1.94256 11.6045 2.19321 10.0364 2.65692L12.2864 4.7248C13.1727 4.56188 14.0727 4.44909 15 4.44909ZM13.5409 5.87781L16.3636 8.47206C17.1409 8.78538 17.7682 9.36188 18.1091 10.0762L20.9318 12.6705C21.0409 12.2444 21.1227 11.7932 21.1227 11.3295C21.1364 8.22141 18.3818 5.70235 15 5.70235C14.4955 5.70235 14.0182 5.76501 13.5409 5.87781ZM1.37727 1.77963L5.03182 5.13838C2.80909 6.74256 1.05 8.87311 0 11.342C2.35909 16.8439 8.18182 20.7415 15 20.7415C17.0727 20.7415 19.0636 20.3781 20.8909 19.7138L25.5545 24L27.4773 22.2329L3.3 0L1.37727 1.77963ZM11.6045 11.1791L15.1636 14.4501C15.1091 14.4627 15.0545 14.4752 15 14.4752C13.1182 14.4752 11.5909 13.0715 11.5909 11.342C11.5909 11.2794 11.6045 11.2418 11.6045 11.1791ZM6.96818 6.91802L9.35455 9.11123C9.04091 9.80052 8.86364 10.5525 8.86364 11.342C8.86364 14.4501 11.6182 16.9817 15 16.9817C15.8591 16.9817 16.6773 16.8188 17.4136 16.5305L18.75 17.7588C17.55 18.0595 16.2955 18.235 15 18.235C9.83182 18.235 5.22273 15.5655 2.97273 11.342C3.92727 9.54987 5.31818 8.07102 6.96818 6.91802Z"
          fill="#212529"/>
</svg>
