<svg width="24" height="24" viewBox="0 0 24 24" fill="none" xmlns="http://www.w3.org/2000/svg">
    <path d="M20 7.53804C19.401 7.80364 18.7656 7.97791 18.115 8.05504C18.7999 7.64472 19.3126 6.9998 19.558 6.24004C18.9128 6.62198 18.2075 6.89149 17.472 7.03704C16.9777 6.50967 16.3232 6.16017 15.61 6.04275C14.8968 5.92534 14.1647 6.04658 13.5275 6.38767C12.8902 6.72875 12.3833 7.27061 12.0854 7.92919C11.7875 8.58776 11.7153 9.32624 11.88 10.03C10.5749 9.96462 9.29818 9.62544 8.13271 9.03452C6.96723 8.4436 5.93907 7.61415 5.115 6.60004C4.82254 7.10066 4.66892 7.67025 4.67 8.25004C4.67 9.39004 5.25 10.394 6.13 10.982C5.60898 10.9647 5.09958 10.8234 4.644 10.57V10.611C4.64406 11.369 4.90612 12.1036 5.38579 12.6904C5.86546 13.2772 6.53324 13.6802 7.276 13.831C6.9943 13.9071 6.7038 13.9458 6.412 13.946C6.20449 13.9461 5.99749 13.9257 5.794 13.885C6.00329 14.5373 6.41129 15.1077 6.96088 15.5165C7.51047 15.9254 8.17415 16.1521 8.859 16.165C7.69626 17.0768 6.26061 17.571 4.783 17.568C4.518 17.568 4.257 17.552 4 17.523C5.50006 18.489 7.24685 19.0018 9.031 19C15.069 19 18.369 13.998 18.369 9.66004L18.359 9.23404C19.0041 8.77264 19.5601 8.19799 20 7.53804Z" 
    fill="#FEFEFE" />
</svg>
