<svg width="33" height="32" viewBox="0 0 33 32" fill="none" xmlns="http://www.w3.org/2000/svg">
<path d="M20.6012 9.66602L16.5003 13.7668L12.3995 9.66602L10.167 11.8985L14.2678 15.9993L10.167 20.1002L12.3995 22.3327L16.5003 18.2318L20.6012 22.3327L22.8337 20.1002L18.7328 15.9993L22.8337 11.8985L20.6012 9.66602ZM16.5003 0.166016C7.74449 0.166016 0.666992 7.24352 0.666992 15.9993C0.666992 24.7552 7.74449 31.8327 16.5003 31.8327C25.2562 31.8327 32.3337 24.7552 32.3337 15.9993C32.3337 7.24352 25.2562 0.166016 16.5003 0.166016ZM16.5003 28.666C9.51783 28.666 3.83366 22.9818 3.83366 15.9993C3.83366 9.01685 9.51783 3.33268 16.5003 3.33268C23.4828 3.33268 29.167 9.01685 29.167 15.9993C29.167 22.9818 23.4828 28.666 16.5003 28.666Z" fill="white"/>
</svg>
