<svg width="380" height="240" viewBox="0 0 380 240" fill="none" xmlns="http://www.w3.org/2000/svg">
<path d="M185.996 62.1078C188.531 61.8409 188.274 58.7374 187.964 56.3614C187.838 55.5135 187.644 54.6709 187.382 53.8493L191.8 50.1701L195.799 46.7944C195.552 48.2755 195.379 49.7723 195.29 51.2796C195.07 53.8807 195.363 55.9531 195.705 58.4548C196.019 59.5695 196.696 60.4331 197.242 61.1344C197.242 61.1344 192.703 64.5571 189.586 64.4734C186.468 64.3844 185.996 62.1078 185.996 62.1078Z" fill="#FDBBB5"/>
<path opacity="0.2" d="M195.358 53.2632C195.358 53.2632 192.734 59.5434 188.037 57.0941L187.969 56.0003L195.358 53.2632Z" fill="black"/>
<path d="M197.714 39.1012C196.224 34.7574 191.338 32.2714 186.809 33.5589C180.564 35.3383 179.173 44.0417 180.197 49.4689C181.336 55.5136 188.871 58.9364 193.883 54.8176C197.226 52.0752 197.341 48.5896 198.081 42.7176C198.239 41.5034 198.118 40.2683 197.714 39.1012Z" fill="#FDBBB5"/>
<path d="M183.346 30.1361C186.038 27.1478 194.854 30.9996 194.854 30.9996C194.854 30.9996 196.964 29.2098 200.317 32.24C203.009 34.6684 200.9 38.829 200.653 40.9643C199.672 43.0211 199.787 45.8054 196.654 46.8154C195.117 45.0727 195.006 42.4402 195.164 40.6189C194.702 40.4881 194.267 40.2526 193.915 39.9124C192.54 38.5988 193.227 35.354 193.227 35.354C192.257 34.7626 189.37 34.8515 187.329 36.1076C185.671 37.1229 182.658 40.4305 180.029 39.4571C175.873 37.9184 177.893 34.951 177.893 34.951C177.941 34.7521 179.148 33.4228 180.376 33.7839C180.376 33.7839 180.528 32.465 181.105 31.4236C181.834 30.1047 183.346 30.1361 183.346 30.1361Z" fill="#263238"/>
<path d="M189.002 43.885C188.934 44.5549 188.42 45.0207 187.953 44.9318C187.486 44.8428 187.218 44.2305 187.328 43.5658C187.439 42.9011 187.921 42.4301 188.378 42.5191C188.835 42.6028 189.118 43.2099 189.002 43.885Z" fill="#263238"/>
<path d="M183.104 43.5447C183.036 44.2146 182.511 44.6804 182.055 44.5914C181.598 44.5025 181.32 43.8901 181.43 43.2255C181.541 42.5608 182.023 42.0898 182.48 42.1788C182.936 42.2625 183.215 42.9115 183.104 43.5447Z" fill="#263238"/>
<path d="M180.738 40.593C180.837 40.661 180.969 40.6767 181.079 40.6296C181.819 40.2842 182.69 40.2947 183.44 40.6558C183.592 40.7447 183.792 40.7029 183.886 40.5616C183.981 40.4203 183.928 40.2266 183.776 40.1377C182.842 39.6614 181.735 39.6352 180.801 40.0696C180.638 40.1377 180.564 40.3156 180.638 40.4726C180.638 40.4726 180.638 40.4778 180.643 40.4778C180.659 40.5197 180.696 40.5563 180.738 40.593Z" fill="#263238"/>
<path d="M189.632 41.3727C189.695 41.357 189.753 41.3204 189.795 41.2733C189.879 41.1215 189.821 40.9383 189.659 40.8598C189.659 40.8598 189.653 40.8598 189.653 40.8546C188.724 40.394 187.612 40.3888 186.662 40.8441C186.505 40.9278 186.452 41.1162 186.541 41.2628C186.636 41.4041 186.83 41.4512 186.987 41.3727C187.743 41.0325 188.625 41.0482 189.354 41.4146C189.449 41.4407 189.548 41.425 189.632 41.3727Z" fill="#263238"/>
<path d="M201.33 47.7993C200.658 49.2804 199.383 50.4318 197.793 51.0023C195.678 51.7402 194.382 49.9556 194.76 47.9459C195.116 46.1665 196.633 43.5811 198.863 43.7276C201.094 43.8794 202.133 45.9676 201.33 47.7993Z" fill="#FDBBB5"/>
<path opacity="0.1" d="M196.303 48.3487C196.429 47.2549 197.085 46.2395 198.056 45.6586C198.47 45.4126 199.037 45.2504 199.436 45.5435" stroke="black" stroke-width="0.5" stroke-miterlimit="10"/>
<path d="M184.726 42.8433C183.792 44.3034 182.648 45.6275 181.325 46.7789C181.997 47.4383 182.931 47.789 183.876 47.7366L184.726 42.8433Z" fill="#D7504D"/>
<path d="M186.457 49.9816C187.675 49.767 188.761 49.0867 189.512 48.1132C189.575 48.0295 189.522 47.8934 189.443 47.8463C189.344 47.7835 189.239 47.8306 189.176 47.9143C188.488 48.804 187.465 49.4059 186.358 49.5995C186.106 49.6467 186.211 50.0287 186.457 49.9816Z" fill="#263238"/>
<path d="M177.809 219.046L170.09 218.214L171.785 230.77L176.602 231.691L177.809 219.046Z" fill="#263238"/>
<path d="M170.672 228.608L172.504 228.571C172.918 228.561 173.312 228.755 173.574 229.069C174.703 230.419 175.469 229.885 176.55 228.577C177.274 228.482 177.516 229.273 177.589 229.487L179.211 234.197C179.352 234.59 179.132 235.009 178.723 235.129C178.649 235.15 178.576 235.16 178.497 235.16C176.272 235.202 175.217 235.223 172.451 235.276L163.981 235.438C161.672 235.48 161.074 233.276 162.013 233.057C166.243 232.078 169.208 230.822 170.468 229.613C170.704 229.409 170.441 229.257 170.672 228.608Z" fill="#263238"/>
<path d="M168.027 230.278C168.604 230.252 169.176 230.173 169.733 230.032C169.785 230.011 169.811 229.959 169.785 229.906C169.775 229.88 169.748 229.859 169.722 229.849C169.46 229.734 167.114 228.76 166.558 229.158C166.453 229.226 166.4 229.346 166.427 229.467C166.442 229.692 166.568 229.901 166.768 230.032C167.156 230.241 167.597 230.325 168.027 230.278ZM169.371 229.912C168.699 230.042 167.455 230.226 166.915 229.87C166.773 229.77 166.684 229.624 166.663 229.456C166.647 229.404 166.668 229.352 166.715 229.325C167.02 229.106 168.395 229.53 169.371 229.912Z" fill="#C61818"/>
<path d="M169.712 230.037C169.738 230.042 169.759 230.042 169.785 230.037C169.817 230.011 169.822 229.969 169.812 229.932C169.806 229.843 169.156 227.708 167.907 227.87C167.597 227.917 167.513 228.059 167.508 228.179C167.461 228.749 168.962 229.796 169.66 230.058L169.712 230.037ZM168.033 228.038C168.83 228.022 169.355 229.262 169.539 229.765C168.773 229.404 167.676 228.53 167.723 228.184C167.723 228.158 167.718 228.074 167.949 228.048L168.033 228.038Z" fill="#C61818"/>
<path d="M169.476 229.979C170.111 230.048 170.714 230.398 171.081 230.901" stroke="#C61818" stroke-width="0.5" stroke-miterlimit="10" stroke-linecap="round" stroke-linejoin="round"/>
<path d="M168.379 230.817C169.014 230.885 169.617 231.236 169.985 231.738" stroke="#C61818" stroke-width="0.5" stroke-miterlimit="10" stroke-linecap="round" stroke-linejoin="round"/>
<path d="M166.999 231.528C167.634 231.596 168.238 231.947 168.605 232.449" stroke="#C61818" stroke-width="0.5" stroke-miterlimit="10" stroke-linecap="round" stroke-linejoin="round"/>
<path d="M178.963 227.499L177.08 181.402L187.46 137.722L186.006 110.272L170.042 111.146C170.042 111.146 164.06 146.64 162.302 178.9C161.562 192.455 167.859 227.462 167.859 227.462L178.963 227.499Z" fill="#263238"/>
<path d="M183.624 112.088C183.624 112.088 187.256 170.432 187.801 183.919C188.4 198.698 191.412 228.776 191.412 228.776L201.293 228.106C201.293 228.106 202.411 189.66 203.209 175.195C204.007 160.729 206.3 134.174 206.032 128.03C205.765 121.88 202.464 107.111 202.464 107.111L183.624 112.088Z" fill="#263238"/>
<path opacity="0.3" d="M185.56 144.919C185.56 144.919 185.271 135.168 185.266 135.09C185.261 135.011 181.43 130.364 181.346 130.333C181.262 130.301 183.713 136.984 183.676 136.984C183.639 136.984 183.991 152.214 183.991 152.214L185.56 144.919Z" fill="black"/>
<path d="M199.966 220.234L192.44 219.784L194.624 232.005L199.504 233.004L199.966 220.234Z" fill="#263238"/>
<path d="M193.526 229.796L195.389 229.786C195.809 229.786 196.208 229.985 196.47 230.304C197.599 231.691 198.386 231.162 199.498 229.843C200.238 229.759 200.469 230.565 200.537 230.785L202.117 235.59C202.253 235.993 202.028 236.411 201.608 236.526C201.534 236.547 201.456 236.558 201.377 236.558C199.115 236.568 198.05 236.574 195.237 236.589L186.636 236.636C184.29 236.647 183.718 234.402 184.673 234.192C188.982 233.255 192.01 232.026 193.301 230.817C193.547 230.607 193.285 230.45 193.526 229.796Z" fill="#263238"/>
<path d="M190.818 231.45C191.406 231.434 191.989 231.361 192.556 231.225C192.608 231.204 192.634 231.151 192.613 231.099C192.603 231.073 192.577 231.052 192.55 231.041C192.283 230.921 189.916 229.9 189.349 230.293C189.244 230.361 189.186 230.481 189.207 230.607C189.218 230.837 189.344 231.052 189.543 231.183C189.932 231.402 190.378 231.491 190.818 231.45ZM192.183 231.099C191.501 231.225 190.231 231.392 189.69 231.02C189.549 230.921 189.459 230.764 189.444 230.602C189.433 230.549 189.454 230.497 189.501 230.471C189.811 230.251 191.202 230.696 192.183 231.099Z" fill="#C61818"/>
<path d="M192.529 231.235C192.555 231.24 192.576 231.24 192.602 231.235C192.634 231.209 192.644 231.167 192.628 231.13C192.623 231.036 191.993 228.864 190.723 229.006C190.409 229.047 190.325 229.194 190.314 229.314C190.256 229.89 191.763 230.979 192.476 231.251L192.529 231.235ZM190.855 229.178C191.663 229.173 192.182 230.445 192.356 230.953C191.579 230.576 190.482 229.676 190.535 229.32C190.535 229.288 190.529 229.21 190.765 229.184L190.855 229.178Z" fill="#C61818"/>
<path d="M192.293 231.167C192.938 231.245 193.547 231.607 193.909 232.125" stroke="#C61818" stroke-width="0.5" stroke-miterlimit="10" stroke-linecap="round" stroke-linejoin="round"/>
<path d="M191.165 232.004C191.811 232.083 192.419 232.444 192.781 232.962" stroke="#C61818" stroke-width="0.5" stroke-miterlimit="10" stroke-linecap="round" stroke-linejoin="round"/>
<path d="M189.753 232.706C190.398 232.785 191.007 233.146 191.369 233.664" stroke="#C61818" stroke-width="0.5" stroke-miterlimit="10" stroke-linecap="round" stroke-linejoin="round"/>
<path d="M184.427 61.6733C184.663 61.4535 187.938 58.6117 187.938 58.6117L190.724 61.6733L196.114 57.9575L198.764 60.2184L184.983 86.9514L182.826 83.963L184.427 61.6733Z" fill="#C61818"/>
<path opacity="0.8" d="M184.427 61.6733C184.663 61.4535 187.938 58.6117 187.938 58.6117L190.724 61.6733L196.114 57.9575L198.764 60.2184L184.983 86.9514L182.826 83.963L184.427 61.6733Z" fill="white"/>
<path d="M190.372 62.7671C190.168 62.8875 188.362 64.2796 188.362 64.2796L188.819 66.6923L190.614 67.022L192.545 64.1121L190.372 62.7671Z" fill="#C61818"/>
<path d="M188.819 66.6973L184.962 76.9236L185.151 86.9511L190.199 76.4526L190.619 67.027L188.819 66.6973Z" fill="#C61818"/>
<path opacity="0.5" d="M188.819 66.6973L184.962 76.9236L185.151 86.9511L190.199 76.4526L190.619 67.027L188.819 66.6973Z" fill="black"/>
<path opacity="0.5" d="M190.372 62.7671C190.168 62.8875 188.362 64.2796 188.362 64.2796L188.819 66.6923L190.614 67.022L192.545 64.1121L190.372 62.7671Z" fill="black"/>
<path d="M182.685 117.348H186.164L185.151 113.747L184.574 111.497L183.86 113.747L182.685 117.348Z" fill="black"/>
<path d="M185.602 60.2183L182.039 62.2227C182.039 62.2227 172.777 64.0021 172.341 65.0488C172.089 65.6454 172.241 87.7781 172.241 87.7781C172.241 87.7781 170.961 103.437 170.898 104.682C170.746 107.598 163.829 129.097 164.448 130.17C165.068 131.243 174.771 136.911 176.933 135.377C179.095 133.844 184.206 117.41 184.206 117.41L185.151 86.6215L185.602 60.2183Z" fill="#C61818"/>
<path opacity="0.3" d="M178.995 71.842C179.493 72.627 180.706 73.7731 180.706 73.7731C180.706 73.7731 178.664 75.2385 178.538 76.1963C178.412 77.154 183.665 95.0528 184.201 94.6707C184.384 94.5399 184.694 92.8547 185.019 90.7037L185.145 86.6215L185.602 60.2183L182.039 62.2227C182.039 62.2175 178.496 71.0569 178.995 71.842Z" fill="black"/>
<path d="M191.811 135.236C191.811 135.236 189.271 135.639 187.46 129.102C185.65 122.55 184.201 117.405 184.201 117.405L184.978 86.9461L197.473 58.5122L201.545 61.0243L207.139 62.5787L201.545 96.6177C201.545 96.6177 209.669 130.128 209.496 130.583C209.333 131.033 191.811 135.236 191.811 135.236Z" fill="#C61818"/>
<path opacity="0.3" d="M184.977 86.9514L184.909 89.5892L185.156 90.348C185.156 90.348 198.422 74.3595 198.758 72.9883C199.094 71.6119 197.772 71.3398 197.772 71.3398C197.772 71.3398 199.923 70.1465 200.196 69.1417C200.474 68.1316 201.545 61.0297 201.545 61.0297L197.472 58.5176L184.977 86.9514Z" fill="black"/>
<g opacity="0.3">
<path d="M184.401 117.405C184.196 106.959 184.265 96.4867 185.356 86.0825C185.382 85.8312 184.989 85.8312 184.962 86.0825C183.871 96.4867 183.803 106.954 184.007 117.405C184.013 117.662 184.406 117.662 184.401 117.405Z" fill="black"/>
</g>
<path opacity="0.3" d="M192.713 112.69L202.878 110.701L204.552 113.716L194.193 115.893L192.713 112.69Z" fill="black"/>
<path opacity="0.3" d="M177.583 112.135L169.517 110.555L168.62 113.768L176.104 115.343L177.583 112.135Z" fill="black"/>
<path d="M171.732 94.9853C171.858 94.4985 174.115 83.0632 174.115 83.0632L176.287 80.5459L191.774 85.6486L185.886 108.901C185.886 108.901 183.687 111.33 182.553 111.12C181.42 110.911 170.468 107.169 170.121 106.677C169.775 106.19 171.732 94.9853 171.732 94.9853Z" fill="#263238"/>
<path d="M175.122 83.1263L176.665 81.2788C176.665 81.2788 191.06 85.9628 190.991 86.2245C190.923 86.4862 185.466 108.959 185.466 108.959L182.81 110.759L188.226 87.8155L175.122 83.1263Z" fill="white"/>
<path d="M172.572 65.0439C172.572 65.0439 170.866 65.5464 169.932 68.3515C167.649 75.1761 162.296 91.0494 161.787 94.7286C161.131 99.4231 159.825 104.248 163.357 106.075C166.888 107.901 176.303 110.508 176.303 110.508L179.168 101.407L171.333 97.2093C171.333 97.2093 172.378 96.037 170.677 95.3828L172.929 87.543L172.572 65.0439Z" fill="#C61818"/>
<g opacity="0.3">
<path d="M169.958 108.917C172.052 109.508 174.151 110.105 176.245 110.696C176.35 110.728 176.455 110.66 176.486 110.56C177.321 107.912 178.155 105.264 178.99 102.616C179.11 102.228 179.231 101.846 179.352 101.459C179.425 101.218 179.047 101.114 178.974 101.354C178.139 104.002 177.305 106.651 176.471 109.299C176.35 109.686 176.229 110.068 176.108 110.455C176.187 110.408 176.271 110.366 176.35 110.319C174.256 109.728 172.157 109.131 170.063 108.54C169.816 108.467 169.711 108.849 169.958 108.917Z" fill="black"/>
</g>
<path d="M176.985 103.542C176.985 103.542 178.035 103.385 179.158 102.642C180.275 101.899 181.503 101.26 182.516 101.098C183.529 100.941 186.835 100.192 186.835 100.192C186.835 100.192 187.528 101.469 186.358 101.919C185.187 102.37 183.692 102.636 183.214 103.17C182.737 103.704 183.109 104.552 184.6 104.447C186.09 104.343 187.318 103.652 187.906 103.971C188.494 104.29 188.383 106.525 187.906 107.32L187.586 107.854C187.586 107.854 187.743 108.707 187.266 109.079C186.788 109.451 186.788 109.451 186.788 109.451C186.788 109.451 187.481 110.22 186.631 110.738C185.775 111.256 183.697 112.214 182.632 111.999C181.566 111.785 178.192 109.445 177.185 109.288C176.182 109.131 175.862 107.216 176.072 105.672C176.277 104.133 176.985 103.542 176.985 103.542Z" fill="#FDBBB5"/>
<g opacity="0.3">
<path d="M172.514 91.1438C172.824 84.6961 173.002 78.2431 173.191 71.7954C173.207 71.1726 173.228 70.5498 173.243 69.9218C173.249 69.6706 172.855 69.6706 172.85 69.9218C172.703 75.2548 172.535 80.5878 172.335 85.9155C172.273 87.6583 172.204 89.4011 172.12 91.1438C172.11 91.3951 172.503 91.3951 172.514 91.1438Z" fill="black"/>
</g>
<path opacity="0.3" d="M203.591 104.128L203.161 125.282L208.619 125.345L208.928 126.69L202.421 126.323L202.935 101.406L203.591 104.128Z" fill="black"/>
<path opacity="0.3" d="M201.781 79.8179L203.198 87.9927L201.781 96.6176C201.781 96.6176 200.968 82.1259 201.781 79.8179Z" fill="black"/>
<path d="M207.369 62.5788C207.369 62.5788 209.238 62.0764 210.681 66.4883C212.119 70.8949 213.635 100.035 213.488 104.662C213.31 110.277 210.87 125.345 210.87 125.345L203.161 125.282C203.161 125.282 203.817 97.7116 203.685 92.656C203.554 87.6004 201.203 78.2114 201.203 78.2114C201.203 78.2114 203.187 62.5788 207.369 62.5788Z" fill="#C61818"/>
<path d="M203.623 73.0774C203.691 69.4348 204.751 65.965 207.029 63.0813C207.186 62.8824 206.908 62.6051 206.751 62.8039C204.405 65.7713 203.303 69.3197 203.235 73.0774C203.224 73.3286 203.618 73.3286 203.623 73.0774Z" fill="#263238"/>
<path d="M190.204 162.613C190.204 162.613 191.38 139.711 191.742 138.031C192.015 136.759 192.634 135.603 194.733 135.603C196.832 135.603 216.281 136.607 217.036 136.775C217.792 136.942 219.214 138.115 219.004 139.7C218.794 141.291 219.881 146.473 219.004 147.143C218.128 147.812 218.128 147.812 218.128 147.812C218.128 147.812 218.38 161.524 218.128 162.278C217.876 163.032 190.204 162.613 190.204 162.613Z" fill="#C61818"/>
<path opacity="0.3" d="M190.204 162.613C190.204 162.613 191.38 139.711 191.742 138.031C192.015 136.759 192.634 135.603 194.733 135.603C196.832 135.603 216.281 136.607 217.036 136.775C217.792 136.942 219.214 138.115 219.004 139.7C218.794 141.291 219.881 146.473 219.004 147.143C218.128 147.812 218.128 147.812 218.128 147.812C218.128 147.812 218.38 161.524 218.128 162.278C217.876 163.032 190.204 162.613 190.204 162.613Z" fill="black"/>
<path opacity="0.3" d="M191.742 138.031C191.647 138.46 191.558 139.449 191.396 141.92L198.013 142.103L197.955 139.664C197.577 137.126 196.549 136.042 195.526 135.624C195.169 135.613 194.901 135.608 194.738 135.608C192.639 135.603 192.02 136.759 191.742 138.031Z" fill="black"/>
<path d="M195.41 135.938C197.195 136.524 197.709 138.481 197.793 140.151C197.882 141.899 197.83 143.662 197.845 145.415C197.851 145.986 197.824 146.614 198.081 147.143C198.36 147.708 198.884 147.964 199.456 148.158C200.784 148.608 202.149 148.995 203.513 149.346C205.56 149.869 207.858 150.403 209.963 149.937C211.374 149.623 212.781 149.278 214.187 148.948C215.52 148.634 216.853 148.325 218.186 148.011C218.433 147.954 218.328 147.577 218.081 147.634C215.462 148.247 212.838 148.864 210.22 149.477C208.262 149.937 206.263 149.597 204.332 149.147C202.962 148.828 201.613 148.42 200.265 148.006C199.451 147.755 198.554 147.582 198.318 146.63C198.108 145.771 198.234 144.772 198.228 143.898C198.213 141.218 198.821 136.66 195.515 135.571C195.274 135.477 195.169 135.854 195.41 135.938Z" fill="#263238"/>
<path d="M206.594 149.786C206.515 149.927 206.069 153.193 206.594 153.433C207.118 153.674 209.852 154.114 210.052 153.433C210.251 152.753 209.973 149.89 209.973 149.89C209.973 149.89 209.695 149.916 209.008 149.89C208.32 149.859 206.746 149.67 206.746 149.67" fill="#263238"/>
<path d="M204.814 131.892C202.301 131.845 199.84 133.488 198.932 135.828L201.068 135.917C201.849 134.786 203.345 133.97 204.72 133.991C206.095 134.012 207.669 135.106 208.414 136.262L210.834 136.382C210.02 134.006 207.328 131.939 204.814 131.892Z" fill="#C61818"/>
<g opacity="0.3">
<path d="M204.814 131.892C202.301 131.845 199.84 133.488 198.932 135.828L201.068 135.917C201.849 134.786 203.345 133.97 204.72 133.991C206.095 134.012 207.669 135.106 208.414 136.262L210.834 136.382C210.02 134.006 207.328 131.939 204.814 131.892Z" fill="black"/>
</g>
<g opacity="0.3">
<path d="M198.459 162.734C198.622 157.526 198.296 152.324 198.459 147.117C198.464 146.865 198.071 146.865 198.066 147.117C197.903 152.319 198.228 157.526 198.066 162.734C198.055 162.985 198.449 162.985 198.459 162.734Z" fill="black"/>
</g>
<path opacity="0.3" d="M198.459 147.368C198.459 147.368 198.595 147.933 200.149 148.749C201.702 149.566 208.157 150.869 209.747 150.707C211.342 150.544 217.44 147.98 217.44 147.98C217.44 147.98 210.55 149.524 208.823 149.89C207.197 150.23 198.622 147.75 198.459 147.368Z" fill="black"/>
<path opacity="0.3" d="M198.968 135.76L201.104 135.864C201.214 135.713 201.361 135.55 201.513 135.383L199.283 135.09C199.146 135.336 199.036 135.561 198.968 135.76Z" fill="black"/>
<path opacity="0.3" d="M208.419 136.262L210.839 136.382C210.839 136.382 210.676 135.927 210.602 135.807L208.146 135.885L208.419 136.262Z" fill="black"/>
<path d="M204.347 125.136C204.058 125.167 203.974 126.345 203.974 126.345C203.974 126.345 201.833 129.04 201.676 129.657C201.523 130.275 200.206 132.436 200.668 132.782C201.13 133.127 202.09 133.054 202.615 132.358C203.14 131.662 204.457 129.359 205.113 129.49C205.769 129.621 205.396 132.206 204.751 133.206C204.105 134.211 202.463 134.451 202.463 134.451C202.463 134.451 203.759 135.357 205.454 135.022C205.454 135.022 206.115 136 207.469 135.55C208.823 135.1 209.364 134.446 209.789 133.556C210.214 132.667 209.6 125.329 209.6 125.329C209.6 125.329 208.01 124.727 204.347 125.136Z" fill="#FDBBB5"/>
</svg>
