<svg width="256" height="256" viewBox="0 0 256 256" fill="none" xmlns="http://www.w3.org/2000/svg">
<g clip-path="url(#clip0_97982_6370)">
<path d="M260.702 232.558C260.702 232.643 201.284 232.715 128.006 232.715C54.704 232.715 -4.70203 232.643 -4.70203 232.558C-4.70203 232.474 54.704 232.402 128.006 232.402C201.284 232.402 260.702 232.468 260.702 232.558Z" fill="#263238"/>
<path d="M5.98107 144.718L1.36707 142.652L28.8411 108.023L33.3291 109.267C34.0011 109.453 34.5951 109.837 35.0451 110.366L39.5091 115.627C40.1511 116.383 40.0611 117.518 39.2991 118.161L8.45907 144.364C7.76907 144.952 6.80307 145.09 5.98107 144.718Z" fill="#C61818"/>
<path d="M37.1631 142.28L32.1711 146.52C31.6131 146.995 30.8451 147.133 30.1611 146.881L26.4291 145.511C25.9611 145.337 25.5711 145.001 25.3371 144.556L4.90112 106L9.50912 107.339C10.1031 107.513 10.6311 107.856 11.0331 108.33L37.4031 139.428C38.1231 140.268 38.0151 141.554 37.1631 142.28Z" fill="#C61818"/>
<g opacity="0.3">
<path d="M5.98107 144.718L1.36707 142.652L28.8411 108.023L33.3291 109.267C34.0011 109.453 34.5951 109.837 35.0451 110.366L39.5091 115.627C40.1511 116.383 40.0611 117.518 39.2991 118.161L8.45907 144.364C7.76907 144.952 6.80307 145.09 5.98107 144.718Z" fill="black"/>
<path d="M37.1631 142.28L32.1711 146.52C31.6131 146.995 30.8451 147.133 30.1611 146.881L26.4291 145.511C25.9611 145.337 25.5711 145.001 25.3371 144.556L4.90112 106L9.50912 107.339C10.1031 107.513 10.6311 107.856 11.0331 108.33L37.4031 139.428C38.1231 140.268 38.0151 141.554 37.1631 142.28Z" fill="black"/>
</g>
<path d="M0.86305 142.226L-3.67295 136.875C-4.16495 136.298 -4.09294 135.427 -3.51694 134.935L27.7251 108.39C28.3011 107.897 29.1711 107.969 29.6631 108.546L34.1991 113.897C34.6911 114.474 34.6191 115.344 34.0431 115.837L2.80106 142.382C2.22506 142.88 1.35505 142.808 0.86305 142.226Z" fill="#C61818"/>
<path d="M32.0871 139.807L26.7411 144.347C26.1651 144.839 25.2951 144.767 24.8031 144.191L-1.71689 112.919C-2.20889 112.343 -2.13689 111.472 -1.56089 110.979L3.9351 106.307C4.4271 105.886 5.1711 105.947 5.5911 106.445L32.2431 137.873C32.7351 138.449 32.6631 139.314 32.0871 139.807Z" fill="#C61818"/>
<path d="M7.22912 127.357C7.28312 127.423 5.24912 129.255 2.68712 131.453C0.119117 133.651 -2.00489 135.381 -2.05889 135.315C-2.11289 135.249 -0.0788811 133.417 2.48312 131.219C5.05112 129.015 7.17512 127.291 7.22912 127.357Z" fill="#C61818"/>
<path d="M27.8991 109.646C27.9531 109.712 25.6671 111.742 22.7931 114.174C19.9191 116.613 17.5431 118.535 17.4831 118.469C17.4231 118.402 19.7151 116.373 22.5891 113.94C25.4691 111.502 27.8451 109.58 27.8991 109.646Z" fill="#C61818"/>
<path d="M8.23106 122.424C8.16506 122.478 6.38906 120.322 4.27106 117.613C2.15306 114.905 0.491075 112.664 0.557075 112.61C0.623075 112.556 2.39906 114.712 4.51706 117.421C6.64106 120.129 8.30306 122.37 8.23106 122.424Z" fill="#C61818"/>
<path d="M24.047 140.431C23.981 140.491 22.151 138.605 19.955 136.221C17.759 133.836 16.031 131.854 16.091 131.794C16.157 131.734 17.987 133.62 20.183 136.004C22.379 138.395 24.113 140.37 24.047 140.431Z" fill="#C61818"/>
<path d="M195.146 133.024L194.192 129.469L219.914 134.603L242.636 102.617L245.408 107.782C245.84 108.581 245.834 109.542 245.402 110.34L225.68 146.489C224.204 149.197 220.784 150.152 218.12 148.603L198.212 137.03C196.7 136.153 195.596 134.712 195.146 133.024Z" fill="#4CAF50"/>
<g opacity="0.3">
<path d="M195.146 133.024L194.192 129.469L219.914 134.603L242.636 102.617L245.408 107.782C245.84 108.581 245.834 109.542 245.402 110.34L225.68 146.489C224.204 149.197 220.784 150.152 218.12 148.603L198.212 137.03C196.7 136.153 195.596 134.712 195.146 133.024Z" fill="black"/>
</g>
<path d="M194.264 127.777L197.972 121.206C198.5 120.263 199.676 119.903 200.642 120.378L215.528 127.674C216.512 128.161 217.706 127.771 218.222 126.804L232.964 99.0815C233.516 98.0425 234.83 97.6881 235.832 98.3007L241.832 101.994C242.756 102.565 243.074 103.754 242.552 104.709L223.286 140.028C221.99 142.406 219.02 143.295 216.632 142.028L195.086 130.587C194.072 130.041 193.7 128.774 194.264 127.777Z" fill="#4CAF50"/>
<path d="M52.2149 160.026C52.2149 160.026 47.0909 155.209 45.1229 153.93C43.1549 152.651 38.7329 150.891 37.0829 150.735C35.4329 150.573 27.7109 152.813 27.7109 152.813C27.7109 152.813 16.3169 151.798 14.3969 153.131C12.4829 154.464 12.6389 155.852 13.4369 156.861C14.2349 157.876 17.3249 157.551 20.7329 157.605C24.1409 157.66 25.0469 157.978 25.0469 157.978L20.0969 163.257L32.9309 166.83L40.7609 166.536L43.5809 170.091L52.2149 160.026Z" fill="#FFBF9D"/>
<path d="M13.1429 148.107L13.4549 159.47L14.0069 160.881L19.6049 167.716L33.2729 166.815L22.3889 162.569L18.5189 159.626L17.0249 154.767C17.0129 154.767 17.4809 147.278 13.1429 148.107Z" fill="#FFBF9D"/>
<path d="M14.1029 161.145H10.7729C10.7729 161.145 6.42892 153.998 2.45692 156.424L3.36892 157.836C3.36892 157.836 1.58092 157.025 0.440918 158.532L11.3969 168.154H11.9009L23.5709 167.403L14.1029 161.145Z" fill="#FFBF9D"/>
<path d="M16.0889 163.317C16.0829 163.353 15.7349 163.335 15.1469 163.359C14.5649 163.395 13.7009 163.431 12.8429 163.821L12.7289 163.869L12.6569 163.767C12.3209 163.293 11.9009 162.776 11.4749 162.242C10.5869 161.149 9.78888 160.158 9.11088 159.323C8.51088 158.572 8.13888 158.104 8.17488 158.08C8.20488 158.05 8.63688 158.464 9.27888 159.179C9.92688 159.893 10.7909 160.902 11.7149 162.043C12.1469 162.584 12.5549 163.094 12.8969 163.605L12.7109 163.551C13.6709 163.142 14.5469 163.16 15.1409 163.172C15.7469 163.202 16.0889 163.281 16.0889 163.317Z" fill="#FF9A6C"/>
<path d="M39.7649 156.706C39.7949 156.808 37.9229 157.187 35.9129 158.34C33.8969 159.481 32.6189 160.898 32.5409 160.82C32.5109 160.796 32.799 160.412 33.351 159.871C33.903 159.331 34.7309 158.652 35.7569 158.07C36.7829 157.487 37.7909 157.121 38.5349 156.922C39.2789 156.718 39.7529 156.67 39.7649 156.706Z" fill="#FF9A6C"/>
<path d="M28.8449 153.761C28.9049 153.827 28.1489 154.638 27.2789 155.689C26.4029 156.734 25.7309 157.623 25.6589 157.569C25.5869 157.521 26.1509 156.548 27.0389 155.485C27.9269 154.422 28.7909 153.701 28.8449 153.761Z" fill="#FF9A6C"/>
<path d="M17.4329 164.903C17.4269 164.909 17.3369 164.819 17.1689 164.645C16.9829 164.441 16.7549 164.182 16.4669 163.858C16.1549 163.504 15.7889 163.083 15.3689 162.603C15.1529 162.357 14.9249 162.092 14.6849 161.816C14.4449 161.54 14.1749 161.246 13.9469 160.891C13.4909 160.189 13.1729 159.282 13.1669 158.291C13.1489 157.324 13.1309 156.291 13.1069 155.204C13.0709 153.024 13.0289 150.634 12.9929 148.111V147.973L13.1249 147.955C13.2389 147.937 13.3649 147.925 13.4849 147.907C14.2889 147.817 15.1529 148.099 15.6929 148.694C16.2389 149.27 16.5449 149.991 16.7489 150.688C17.1449 152.105 17.2109 153.492 17.1569 154.784L17.1509 154.736C17.7029 156.579 18.2009 158.219 18.6149 159.6L18.5789 159.546C19.7549 160.465 20.7029 161.21 21.3929 161.744C21.6989 161.99 21.9449 162.189 22.1369 162.345C22.3049 162.483 22.3889 162.561 22.3829 162.567C22.3769 162.573 22.2809 162.513 22.1009 162.387C21.8969 162.243 21.6389 162.056 21.3209 161.828C20.6189 161.306 19.6469 160.591 18.4469 159.702L18.4229 159.684L18.4109 159.648C17.9789 158.273 17.4629 156.639 16.8809 154.802L16.8749 154.778V154.748C16.9109 153.498 16.8389 152.111 16.4489 150.754C16.2509 150.081 15.9509 149.409 15.4589 148.886C14.9729 148.364 14.2409 148.123 13.5029 148.195C13.3889 148.213 13.2749 148.225 13.1729 148.243L13.2989 148.087C13.3289 150.604 13.3589 152.994 13.3889 155.18C13.4789 157.336 13.1429 159.396 14.1269 160.759C14.3369 161.102 14.5949 161.384 14.8349 161.672C15.0689 161.954 15.2909 162.225 15.5009 162.477C15.9089 162.975 16.2629 163.402 16.5629 163.768C16.8329 164.104 17.0489 164.381 17.2229 164.591C17.3669 164.795 17.4449 164.897 17.4329 164.903Z" fill="#FF9A6C"/>
<path d="M11.907 168.148C11.913 168.166 11.673 168.178 11.325 167.979C10.977 167.793 10.533 167.439 10.041 166.953C9.05096 165.98 7.84496 164.496 6.60896 162.797C5.37296 161.097 4.32296 159.505 3.58496 158.346C3.21896 157.764 2.92496 157.289 2.73296 156.953C2.54096 156.617 2.44496 156.431 2.46296 156.419C2.48096 156.407 2.61296 156.575 2.83496 156.887C3.09296 157.259 3.40495 157.704 3.76495 158.22C4.54495 159.349 5.62495 160.917 6.86095 162.61C8.09695 164.304 9.26096 165.799 10.197 166.796C10.665 167.295 11.073 167.667 11.385 167.871C11.697 168.094 11.907 168.124 11.907 168.148Z" fill="#FF9A6C"/>
<path d="M31.8449 160.813L25.8149 160.405L24.0149 155.456L23.6849 152.129C23.5229 150.502 22.1669 149.222 20.5349 149.246C20.5169 149.246 20.4989 149.246 20.4749 149.246L20.8109 157.396L22.0469 162.459L26.9489 165.354H32.9429L31.8449 160.813Z" fill="#FFBF9D"/>
<path d="M31.8449 160.813L25.8149 160.405L24.0149 155.456L23.6849 152.129C23.5229 150.502 22.1669 149.222 20.5349 149.246C20.5169 149.246 20.4989 149.246 20.4749 149.246L20.8109 157.396L22.0469 162.459L26.9489 165.354" fill="#FFBF9D"/>
<path d="M26.9429 165.361C26.9369 165.373 26.8169 165.313 26.5889 165.187C26.3369 165.043 26.0069 164.863 25.6049 164.64C24.7229 164.13 23.4929 163.427 21.9869 162.562L21.9449 162.538L21.9329 162.49C21.5669 161.037 21.1409 159.325 20.6669 157.434L20.6609 157.422V157.41C20.5529 154.959 20.4329 152.185 20.3069 149.26L20.3009 149.104L20.4569 149.098C20.5109 149.098 20.5709 149.098 20.6309 149.098C22.1489 149.11 23.4389 150.293 23.7389 151.644C23.8229 151.986 23.8409 152.323 23.8709 152.641C23.9009 152.965 23.9309 153.284 23.9669 153.602C24.0269 154.233 24.0869 154.851 24.1469 155.446L24.1409 155.41C24.8009 157.253 25.4009 158.917 25.9169 160.364L25.8209 160.292C27.6509 160.436 29.1509 160.556 30.2309 160.641C30.7229 160.689 31.1189 160.725 31.4309 160.755C31.7069 160.785 31.8449 160.803 31.8449 160.815C31.8449 160.827 31.7009 160.827 31.4249 160.821C31.1189 160.809 30.7169 160.791 30.2249 160.773C29.1449 160.713 27.6449 160.629 25.8089 160.526L25.7369 160.52L25.7129 160.448C25.1789 159.007 24.5609 157.349 23.8829 155.512L23.8769 155.494V155.476C23.8169 154.875 23.7509 154.263 23.6849 153.632C23.6549 153.314 23.6189 152.995 23.5889 152.677C23.5529 152.353 23.5349 152.028 23.4569 151.722C23.1809 150.491 22.0049 149.422 20.6429 149.416C20.5889 149.416 20.5349 149.41 20.4809 149.416L20.6309 149.254C20.7449 152.185 20.8589 154.953 20.9549 157.403L20.9489 157.373C21.3989 159.271 21.8129 160.989 22.1609 162.442L22.1069 162.376C23.5889 163.277 24.8009 164.01 25.6709 164.538C26.0669 164.784 26.3789 164.983 26.6249 165.139C26.8409 165.271 26.9489 165.349 26.9429 165.361Z" fill="#FF9A6C"/>
<path d="M161.007 64.6425C155.835 44.9258 151.065 21.9781 122.265 24.0441C122.265 24.0441 104.517 27.4613 96.0869 40.5717C91.1309 48.283 86.8349 81.5304 85.9769 107.787C85.9769 107.793 85.9769 107.799 85.9769 107.799C85.9409 108.868 86.3849 116.321 86.3549 117.366L162.591 123.72H176.325C176.325 123.72 175.461 109.787 171.327 96.2804C167.307 83.1339 162.837 71.6211 161.007 64.6425Z" fill="#263238"/>
<path d="M118.437 31.5575L120.237 29.8398L139.707 37.6953C142.527 37.8514 144.753 40.1396 144.837 42.9622L144.663 106.466C144.687 110.772 143.823 114.502 141.231 117.937L138.495 121.553C132.261 129.792 119.433 129.114 114.495 120.033C114.147 119.396 113.913 118.844 113.805 118.394C113.703 117.829 113.547 117.457 113.517 116.976C112.935 111.865 112.905 107.439 112.905 107.439C112.557 101.83 112.443 99.5297 112.443 99.5777C112.443 99.5777 100.515 98.2084 97.2929 82.882C95.6909 75.2608 95.9909 64.7749 96.4409 54.4571C97.0709 40.1696 106.971 31.5395 118.437 31.5575Z" fill="#FFBF9D"/>
<path d="M123.447 64.6359C123.465 65.6869 124.359 66.5337 125.457 66.5397C126.549 66.5457 127.425 65.6989 127.407 64.6539C127.389 63.6089 126.489 62.7561 125.403 62.7501C124.305 62.7381 123.435 63.5849 123.447 64.6359Z" fill="#263238"/>
<path d="M103.119 65.1632C103.137 66.2141 104.031 67.061 105.129 67.067C106.221 67.073 107.097 66.2262 107.079 65.1812C107.061 64.1362 106.161 63.2834 105.075 63.2774C103.977 63.2714 103.101 64.1182 103.119 65.1632Z" fill="#263238"/>
<path d="M98.4869 58.5303C98.7449 58.7766 100.191 57.5935 102.321 57.4914C104.445 57.3592 106.065 58.3802 106.281 58.1039C106.389 57.9838 106.113 57.5274 105.411 57.065C104.715 56.6025 103.551 56.1821 102.225 56.2542C100.899 56.3263 99.8069 56.8728 99.1889 57.4073C98.5589 57.9418 98.3609 58.4222 98.4869 58.5303Z" fill="#263238"/>
<path d="M119.607 57.8004C119.889 58.0167 121.209 56.6894 123.315 56.3711C125.415 56.0228 127.131 56.8696 127.317 56.5753C127.413 56.4432 127.095 56.0228 126.345 55.6324C125.607 55.248 124.401 54.9478 123.093 55.1519C121.779 55.3621 120.753 56.0168 120.195 56.6113C119.625 57.2059 119.475 57.7044 119.607 57.8004Z" fill="#263238"/>
<path d="M112.659 74.263C112.665 74.1429 111.327 73.9807 109.167 73.8126C108.621 73.7825 108.099 73.6985 107.991 73.3321C107.841 72.9477 108.039 72.3472 108.273 71.6986C108.717 70.3533 109.185 68.948 109.671 67.4706C111.609 61.4589 112.983 56.5222 112.737 56.4502C112.497 56.3721 110.727 61.1886 108.789 67.2003C108.327 68.6837 107.877 70.095 107.457 71.4463C107.283 72.0769 106.965 72.7976 107.283 73.5964C107.451 73.9987 107.865 74.269 108.219 74.3471C108.573 74.4372 108.879 74.4251 109.149 74.4311C111.315 74.4432 112.653 74.3891 112.659 74.263Z" fill="#263238"/>
<path d="M112.615 98.642C112.615 98.642 123.031 98.7922 133.003 92.0898C133.003 92.0898 128.341 103.044 112.825 102.372L112.615 98.642Z" fill="#FF9A6C"/>
<path d="M119.313 78.5999C118.713 77.8733 117.759 77.4769 116.829 77.4228C115.491 77.3448 114.549 77.5129 113.829 78.5699C113.493 79.1525 113.523 80.0473 113.679 80.2935C113.835 80.5398 113.721 80.5458 113.955 80.7199C114.819 81.3445 115.815 81.7469 116.847 81.9871C117.879 82.2274 119.067 81.9811 119.601 81.1403C120.081 80.3896 119.913 79.3266 119.313 78.5999Z" fill="#FF9A6C"/>
<path d="M144.453 70.0601C144.453 70.0601 136.257 72.0419 124.623 46.9682C120.663 38.4342 112.971 29.8341 112.971 29.8341L120.189 28.7891C120.189 28.7891 141.699 34.8548 142.059 35.1251C142.419 35.3953 147.483 46.2596 147.483 46.2596L144.453 70.0601Z" fill="#263238"/>
<path d="M141.765 69.0565C141.711 67.9034 142.905 65.1288 144.027 64.8946C147.033 64.27 152.511 64.24 152.943 71.9392C153.537 82.4672 142.857 80.8937 142.821 80.5934C142.797 80.3592 141.957 73.0263 141.765 69.0565Z" fill="#FFBF9D"/>
<path d="M145.815 76.4214C145.857 76.3853 146.007 76.5415 146.325 76.6616C146.637 76.7817 147.159 76.8478 147.699 76.6135C148.785 76.1451 149.625 74.3254 149.565 72.4216C149.535 71.4607 149.283 70.5598 148.905 69.8271C148.539 69.0764 148.011 68.5659 147.447 68.4999C146.883 68.4038 146.505 68.7581 146.397 69.0644C146.271 69.3647 146.349 69.5749 146.295 69.5929C146.265 69.6229 146.061 69.4308 146.121 68.9923C146.151 68.7821 146.259 68.5239 146.499 68.3077C146.739 68.0855 147.105 67.9594 147.495 67.9834C148.311 67.9954 149.079 68.6981 149.499 69.5088C149.961 70.3196 150.267 71.3285 150.303 72.4096C150.357 74.5356 149.385 76.5835 147.885 77.106C147.159 77.3402 146.529 77.154 146.193 76.9198C145.845 76.6796 145.779 76.4454 145.815 76.4214Z" fill="#FF9A6C"/>
<path d="M120.669 79.0265C120.639 79.2968 118.839 79.2548 116.709 79.6692C114.573 80.0595 112.911 80.7502 112.785 80.5099C112.653 80.2997 114.231 79.1707 116.535 78.7443C118.839 78.3059 120.717 78.7863 120.669 79.0265Z" fill="#263238"/>
<path d="M202.869 160.612C202.869 160.612 211.677 153.057 214.233 152.858C216.783 152.654 223.503 153.903 223.503 153.903C223.503 153.903 227.745 153.94 229.851 153.675C233.025 153.279 235.197 153.609 236.469 154C237.105 154.192 237.897 155.777 236.031 156.852C235.239 157.309 227.535 157.831 227.535 157.831L246.807 163.344L244.305 165.41C243.975 165.687 243.561 165.843 243.129 165.855L215.379 166.84L214.107 169.945L202.869 160.612Z" fill="#FFBF9D"/>
<path d="M223.905 160.617H232.905C232.905 160.617 236.061 156.419 237.207 154.671C238.203 153.14 239.409 152.695 240.459 153.056C240.729 153.152 240.957 153.356 241.095 153.602C241.305 153.974 241.311 154.431 241.113 154.803L237.153 162.196L239.229 161.493C239.229 161.493 243.387 157.422 244.191 156.479C244.995 155.536 247.953 151.572 250.575 154.461L246.945 158.497L250.575 155.944C250.575 155.944 253.461 153.458 255.009 156.413L244.221 165.517" fill="#FFBF9D"/>
<path d="M214.533 156.888C214.527 156.876 214.653 156.834 214.893 156.762C215.133 156.696 215.481 156.558 215.961 156.516C216.903 156.354 218.343 156.384 220.005 156.936C220.833 157.218 221.709 157.609 222.603 158.131C223.047 158.395 223.497 158.678 223.953 158.996C224.175 159.158 224.403 159.32 224.637 159.483C224.853 159.639 225.123 159.843 225.303 159.939C227.583 160.119 230.187 160.269 232.917 160.461L232.791 160.515C233.631 159.513 234.465 158.426 235.269 157.284C235.581 156.84 235.881 156.396 236.175 155.951C236.463 155.507 236.739 155.044 237.063 154.618C237.381 154.192 237.723 153.783 238.125 153.441C238.323 153.267 238.545 153.11 238.779 152.99C239.025 152.876 239.265 152.762 239.607 152.81L239.553 152.804C240.027 152.756 240.573 152.81 240.975 153.147C241.377 153.495 241.485 154.023 241.449 154.492V154.516L241.437 154.54C239.721 157.615 238.233 160.293 237.075 162.371L237.081 162.347C236.817 163.236 236.109 163.753 235.491 164.029C234.855 164.305 234.261 164.359 233.793 164.389C233.325 164.413 232.959 164.389 232.719 164.377C232.473 164.365 232.347 164.347 232.347 164.341C232.347 164.329 232.473 164.323 232.719 164.323C232.965 164.317 233.325 164.317 233.787 164.281C234.249 164.239 234.825 164.167 235.425 163.885C236.007 163.608 236.667 163.098 236.883 162.293L236.889 162.281L236.895 162.269C238.029 160.179 239.499 157.489 241.179 154.39L241.161 154.444C241.191 154.059 241.089 153.609 240.783 153.357C240.483 153.104 240.027 153.044 239.583 153.092H239.571L239.529 153.086C239.373 153.062 239.115 153.141 238.917 153.249C238.707 153.363 238.509 153.495 238.323 153.663C237.951 153.987 237.621 154.378 237.315 154.792C236.721 155.627 236.169 156.57 235.533 157.453C234.723 158.6 233.889 159.693 233.031 160.702L232.983 160.762L232.905 160.756C230.157 160.552 227.601 160.395 225.249 160.191C224.907 160.029 224.733 159.855 224.493 159.687C224.265 159.519 224.043 159.356 223.821 159.194C223.377 158.876 222.933 158.588 222.495 158.323C221.619 157.801 220.761 157.399 219.957 157.11C218.337 156.54 216.927 156.486 215.991 156.606C215.517 156.63 215.163 156.75 214.923 156.798C214.665 156.87 214.539 156.894 214.533 156.888Z" fill="#FF9A6C"/>
<path d="M250.569 154.473C250.587 154.485 250.461 154.666 250.215 154.966C249.975 155.272 249.615 155.705 249.171 156.239C248.277 157.308 247.029 158.761 245.637 160.359C244.221 161.932 243.039 163.47 242.001 164.419C241.491 164.899 241.041 165.248 240.705 165.452C240.369 165.656 240.159 165.722 240.153 165.71C240.141 165.686 240.333 165.584 240.639 165.356C240.945 165.127 241.365 164.755 241.851 164.263C242.835 163.29 243.975 161.746 245.397 160.161C246.795 158.563 248.073 157.122 249.009 156.095C249.477 155.578 249.861 155.164 250.131 154.888C250.395 154.605 250.557 154.461 250.569 154.473Z" fill="#FF9A6C"/>
<path d="M245.631 154.896C245.661 154.926 245.241 155.418 244.539 156.181C243.837 156.95 242.847 157.995 241.743 159.13C240.837 160.067 239.991 160.92 239.319 161.586L239.295 161.61L239.271 161.616C237.933 162.037 237.057 162.265 237.039 162.193C237.039 162.175 237.243 162.097 237.615 161.953C238.071 161.784 238.593 161.592 239.187 161.376L239.139 161.406C239.787 160.709 240.615 159.839 241.521 158.908C242.625 157.767 243.639 156.746 244.383 156.019C245.127 155.304 245.601 154.866 245.631 154.896Z" fill="#FF9A6C"/>
<path d="M173.007 115.801C173.007 115.801 185.943 119.14 187.215 136.737C187.935 146.766 182.607 178.974 182.607 178.974L201.711 159.336L218.739 171.191C218.739 171.191 195.579 199.538 190.233 203.802C184.887 208.066 176.373 214.918 173.601 214.36C170.829 213.801 170.829 201.021 170.829 201.021V130.431L173.007 115.801Z" fill="#C61818"/>
<path d="M80.007 117.957C80.007 117.957 68.499 121.747 68.967 144.244C69.435 166.747 69.069 174.32 69.069 174.32L51.819 156.051L37.491 171.87C37.491 171.87 53.523 195.706 64.737 207.291C75.309 218.21 84.705 208.727 87.759 201.052C90.231 194.836 92.223 171.197 92.223 171.197L80.007 117.957Z" fill="#C61818"/>
<g opacity="0.3">
<path d="M174.009 156.338C175.047 149.756 175.323 142.579 172.323 136.531C164.949 154.782 165.279 175.73 167.919 195.063L173.763 211.788C177.447 200.582 173.943 188.643 174.027 176.931C174.075 170.283 172.971 162.926 174.009 156.338Z" fill="black"/>
</g>
<path d="M77.6129 132.286C77.6129 132.286 85.3049 184.079 86.7989 188.619C88.2869 193.153 88.2869 206.522 88.2869 206.522C88.2869 206.522 80.2109 221.566 79.7129 232.028L176.955 232.226L170.637 189.25C170.421 187.646 170.403 182.704 170.493 181.088C170.901 173.521 171.489 157.282 173.655 147.3C176.175 135.697 172.785 115.842 172.785 115.842L143.739 108.684C136.863 118.575 119.709 118.707 112.947 108.684L80.1629 117.962L77.6129 132.286Z" fill="#C61818"/>
<path d="M172.545 187.189C172.527 187.177 172.635 187.015 172.833 186.726C173.037 186.438 173.343 186.036 173.727 185.549C174.507 184.576 175.617 183.231 177.063 181.97C178.515 180.709 180.045 179.844 181.179 179.321C181.749 179.063 182.223 178.877 182.553 178.763C182.883 178.649 183.069 178.595 183.075 178.613C183.141 178.733 180.129 179.706 177.261 182.198C175.833 183.435 174.711 184.745 173.889 185.681C173.085 186.63 172.581 187.219 172.545 187.189Z" fill="#263238"/>
<path d="M82.497 186.092C82.437 186.11 82.215 185.041 81.477 183.456C80.751 181.882 79.431 179.81 77.409 178.093C75.387 176.375 73.125 175.402 71.457 174.946C69.777 174.477 68.685 174.429 68.697 174.369C68.697 174.351 68.973 174.345 69.459 174.387C69.951 174.423 70.659 174.525 71.517 174.736C73.227 175.144 75.543 176.099 77.613 177.859C79.683 179.612 81.003 181.75 81.681 183.372C82.029 184.182 82.239 184.867 82.359 185.348C82.479 185.822 82.515 186.092 82.497 186.092Z" fill="#263238"/>
<path d="M83.1209 158.025C83.1089 158.043 82.9529 157.959 82.6829 157.785C82.4069 157.617 82.0289 157.353 81.5669 157.004C80.6429 156.314 79.4369 155.275 78.2249 154.002C77.0189 152.722 76.0349 151.479 75.3449 150.554C74.6609 149.635 74.2709 149.041 74.3009 149.017C74.3369 148.987 74.7929 149.533 75.5189 150.416C76.2509 151.299 77.2529 152.518 78.4529 153.779C79.6469 155.046 80.8229 156.097 81.7049 156.824C82.5809 157.563 83.1449 157.983 83.1209 158.025Z" fill="#263238"/>
<path d="M150.999 186.062C151.005 186.069 150.975 186.105 150.921 186.183C150.849 186.273 150.765 186.381 150.663 186.513C150.429 186.795 150.111 187.24 149.637 187.756C148.731 188.819 147.321 190.278 145.425 191.918C143.535 193.564 141.135 195.341 138.327 197.089C135.525 198.843 132.309 200.56 128.877 202.212C125.433 203.857 122.109 205.317 119.103 206.668C116.091 208.019 113.397 209.268 111.171 210.391C108.939 211.509 107.169 212.475 105.957 213.172C105.345 213.508 104.889 213.797 104.565 213.977C104.421 214.061 104.301 214.127 104.199 214.181C104.115 214.223 104.073 214.247 104.067 214.241C104.067 214.235 104.103 214.205 104.181 214.151C104.277 214.091 104.391 214.013 104.529 213.917C104.841 213.719 105.291 213.418 105.891 213.058C107.085 212.325 108.843 211.328 111.063 210.181C113.283 209.034 115.971 207.761 118.977 206.392C121.983 205.022 125.301 203.557 128.739 201.917C132.171 200.272 135.375 198.566 138.177 196.837C140.979 195.107 143.385 193.353 145.281 191.738C147.183 190.128 148.611 188.693 149.541 187.66C150.027 187.156 150.357 186.729 150.609 186.459C150.723 186.333 150.813 186.231 150.891 186.147C150.963 186.093 150.999 186.062 150.999 186.062Z" fill="#263238"/>
<path d="M79.9349 231.213C79.9289 231.213 79.9289 231.171 79.9349 231.087C79.9409 230.991 79.9469 230.865 79.9529 230.709C79.9769 230.36 80.0069 229.874 80.0429 229.243C80.2169 227.976 80.4809 226.108 81.1409 223.832C82.3949 219.262 84.8669 212.962 88.6289 205.965L88.6109 206.043C88.2269 200.41 87.6389 194.116 86.9669 187.492C85.6829 174.994 84.3389 163.697 83.3549 155.523C82.8629 151.452 82.4609 148.149 82.1789 145.842C82.0469 144.713 81.9389 143.83 81.8669 143.212C81.8369 142.924 81.8129 142.695 81.7949 142.527C81.7769 142.371 81.7769 142.293 81.7829 142.293C81.7889 142.293 81.8069 142.371 81.8309 142.521C81.8549 142.689 81.8909 142.918 81.9389 143.2C82.0289 143.818 82.1489 144.701 82.3109 145.824C82.6109 148.124 83.0489 151.422 83.5829 155.493C84.6209 163.661 86.0009 174.958 87.2849 187.462C87.9569 194.086 88.5329 200.38 88.8989 206.025V206.067L88.8809 206.103C85.1129 213.064 82.6109 219.334 81.3089 223.874C80.6309 226.138 80.3369 227.994 80.1389 229.255C80.0789 229.88 80.0369 230.366 80.0009 230.709C79.9829 230.865 79.9709 230.985 79.9589 231.081C79.9469 231.171 79.9409 231.213 79.9349 231.213Z" fill="#263238"/>
<path d="M174.849 133.492C174.855 133.492 174.861 133.576 174.861 133.75C174.861 133.937 174.861 134.183 174.861 134.501C174.855 135.162 174.873 136.141 174.807 137.396C174.735 139.912 174.477 143.546 174.033 148.026C173.595 152.506 172.941 157.821 172.287 163.731C171.633 169.64 170.979 176.144 170.769 183.003C170.547 189.861 171.219 196.384 172.095 202.257C172.959 208.137 173.979 213.398 174.765 217.824C175.569 222.25 176.163 225.841 176.493 228.34C176.673 229.583 176.775 230.556 176.847 231.217C176.877 231.535 176.907 231.781 176.925 231.967C176.943 232.135 176.949 232.225 176.943 232.225C176.937 232.225 176.919 232.141 176.895 231.973C176.871 231.793 176.835 231.547 176.787 231.229C176.697 230.574 176.571 229.607 176.373 228.364C176.001 225.877 175.377 222.292 174.549 217.872C173.733 213.452 172.689 208.191 171.807 202.305C170.913 196.426 170.229 189.879 170.451 183.003C170.661 176.132 171.321 169.616 171.993 163.707C172.665 157.797 173.337 152.482 173.805 148.014C174.279 143.54 174.573 139.912 174.675 137.402C174.753 136.147 174.759 135.168 174.783 134.507C174.795 134.189 174.807 133.937 174.813 133.756C174.837 133.582 174.843 133.492 174.849 133.492Z" fill="#263238"/>
<g opacity="0.3">
<path d="M82.0649 144.59C80.3309 160.865 82.4069 178.216 87.7049 193.704L82.0649 144.59Z" fill="black"/>
</g>
<g opacity="0.3">
<path d="M142.215 201.975C134.847 208.749 127.455 214.539 118.389 217.764C125.223 218.346 132.117 215.728 137.397 211.356C142.677 206.978 146.439 202.365 148.857 195.945L142.215 201.975Z" fill="black"/>
</g>
<path d="M133.821 209.435C133.761 209.369 138.345 205.159 144.057 200.037C149.769 194.908 154.449 190.806 154.503 190.872C154.563 190.938 149.979 195.142 144.267 200.271C138.555 205.4 133.881 209.501 133.821 209.435Z" fill="#263238"/>
<path d="M150.117 82.3359C150.117 84.4138 148.431 86.1014 146.355 86.1014C144.279 86.1014 142.593 84.4198 142.593 82.3359C142.593 80.2579 144.273 78.5703 146.355 78.5703C148.437 78.5703 150.117 80.2519 150.117 82.3359Z" fill="#455A64"/>
<path d="M172.503 131.789C171.393 122.588 170.289 113.393 169.179 104.193L145.389 97.0039C144.927 113.435 142.053 131.891 137.925 147.8C146.691 150.647 156.057 151.62 165.225 150.647C165.633 146.202 166.035 141.758 166.443 137.314C167.037 140.665 167.631 144.016 168.225 147.361C170.721 145.962 172.191 143.17 172.695 140.353C173.187 137.53 172.845 134.635 172.503 131.789Z" fill="#263238"/>
<path d="M153.885 150.718C153.885 150.718 153.903 150.597 153.957 150.369C154.011 150.129 154.089 149.793 154.191 149.36C154.401 148.459 154.713 147.15 155.109 145.475C155.889 142.093 157.041 137.211 158.163 131.115C159.291 125.025 160.389 117.71 160.755 109.525C161.115 101.357 160.617 92.2763 158.355 83.0936C156.129 73.911 152.235 65.6111 147.327 59.0709C146.703 58.2602 146.115 57.4374 145.449 56.6987C144.795 55.948 144.183 55.1733 143.505 54.4826C143.175 54.1283 142.845 53.78 142.515 53.4316C142.179 53.0953 141.843 52.759 141.507 52.4287C140.847 51.756 140.163 51.1375 139.503 50.5129C136.833 48.0385 134.223 45.8645 131.889 43.8225C129.555 41.7866 127.467 39.9008 125.745 38.1412C125.307 37.7088 124.911 37.2643 124.515 36.85C124.119 36.4356 123.747 36.0272 123.411 35.6248C123.069 35.2224 122.739 34.8441 122.421 34.4777C122.127 34.0994 121.845 33.739 121.575 33.3967C121.023 32.7241 120.609 32.0754 120.225 31.5289C119.835 30.9884 119.541 30.502 119.313 30.1056C119.085 29.7212 118.911 29.4209 118.785 29.2107C118.665 29.0065 118.611 28.8984 118.611 28.8984C118.611 28.8984 118.683 28.9945 118.809 29.1927C118.941 29.4029 119.127 29.6912 119.367 30.0696C119.607 30.4599 119.907 30.9344 120.303 31.4689C120.693 32.0094 121.119 32.652 121.677 33.3126C121.947 33.6489 122.235 34.0093 122.529 34.3816C122.847 34.742 123.177 35.1203 123.525 35.5167C123.867 35.9191 124.239 36.3215 124.635 36.7298C125.031 37.1382 125.433 37.5827 125.871 38.0091C127.605 39.7567 129.693 41.6245 132.033 43.6484C134.373 45.6783 136.989 47.8403 139.677 50.3147C140.343 50.9393 141.033 51.5579 141.693 52.2305C142.029 52.5608 142.365 52.8971 142.707 53.2334C143.037 53.5818 143.367 53.9301 143.703 54.2844C144.387 54.9751 145.005 55.7498 145.659 56.5065C146.331 57.2512 146.925 58.074 147.549 58.8908C152.499 65.455 156.417 73.7969 158.655 83.0096C160.923 92.2283 161.415 101.339 161.037 109.525C160.659 117.728 159.537 125.055 158.379 131.145C157.227 137.241 156.045 142.123 155.229 145.493C154.815 147.174 154.485 148.483 154.257 149.366C154.143 149.799 154.053 150.135 153.993 150.369C153.927 150.603 153.885 150.718 153.885 150.718Z" fill="#455A64"/>
</g>
<defs>
<clipPath id="clip0_97982_6370">
<rect width="256" height="256" fill="white"/>
</clipPath>
</defs>
</svg>
