<svg width="300" height="300" viewBox="0 0 300 300" fill="none" xmlns="http://www.w3.org/2000/svg">
<path d="M222.039 72.5327C222.98 75.7219 227.833 81.6855 228.216 86.0375C228.599 90.3895 220.325 97.3255 220.325 97.3255C220.325 97.3255 214.141 76.4155 218.013 73.9675C221.884 71.5263 222.039 72.5327 222.039 72.5327Z" fill="#263238"/>
<path d="M205.047 95.1155C203.582 96.3532 202.143 97.4003 200.645 98.4611C199.146 99.5083 197.6 100.474 196.027 101.412C194.461 102.358 192.821 103.208 191.147 103.99C190.3 104.37 189.46 104.751 188.586 105.091C188.156 105.268 187.719 105.438 187.276 105.588L185.905 106.064C184.54 106.465 183.411 106.424 182.369 106.322C181.327 106.206 180.366 105.996 179.438 105.751C177.59 105.254 175.869 104.581 174.189 103.86C170.849 102.378 167.703 100.692 164.651 98.7263L165.915 96.36C167.495 97.0264 169.121 97.6995 170.741 98.3115C172.354 98.9439 173.981 99.5288 175.607 100.039C177.227 100.562 178.86 101.011 180.44 101.317C181.226 101.467 182.006 101.569 182.719 101.596C183.424 101.623 184.09 101.555 184.412 101.419C185.871 100.841 187.437 100.141 188.909 99.3588C189.648 98.9576 190.388 98.5563 191.114 98.1211C191.846 97.7063 192.579 97.2644 193.298 96.8155C194.743 95.9179 196.155 94.9523 197.553 93.9663C198.944 92.9939 200.349 91.9264 201.619 90.9268L205.047 95.1155Z" fill="#E58A7B"/>
<path d="M208.596 87.8736C206.929 86.5544 200.033 90.8724 197.936 92.6744L199.461 102.011C199.461 102.011 209.375 97.8084 209.974 94.932C210.599 91.94 209.866 88.88 208.596 87.8736Z" fill="#C61818"/>
<path opacity="0.2" d="M208.596 87.8736C206.929 86.5544 200.033 90.8724 197.936 92.6744L199.461 102.011C199.461 102.011 209.375 97.8084 209.974 94.932C210.599 91.94 209.866 88.88 208.596 87.8736Z" fill="black"/>
<path d="M231.792 116.128C227.745 116.923 219.162 118.616 210.861 120.255C200.046 90.6277 202.399 89.6689 202.399 89.6689C202.399 89.6689 204.476 88.4789 207.111 87.4249C207.211 87.3841 207.305 87.3501 207.393 87.3161C208.724 86.8197 209.006 86.7449 210.794 86.2145C213.872 85.4733 216.742 84.8681 220.298 84.3445C220.527 84.3105 220.755 84.2765 220.977 84.2493C221.622 84.1677 222.261 84.0997 222.879 84.0385C223.296 83.9909 223.712 83.9637 224.109 83.9365C224.58 83.9093 225.037 83.8821 225.467 83.8617C227.765 83.7461 229.412 83.7801 229.412 83.7801C228.747 102.269 229.782 107.58 231.792 116.128Z" fill="#C61818"/>
<path opacity="0.2" d="M231.792 116.128C227.745 116.923 219.162 118.616 210.861 120.255C200.046 90.6277 202.399 89.6689 202.399 89.6689C202.399 89.6689 204.476 88.4789 207.111 87.4249C207.211 87.3841 207.305 87.3501 207.393 87.3161C208.724 86.8197 209.006 86.7449 210.794 86.2145C213.872 85.4733 216.742 84.8681 220.298 84.3445C220.527 84.3105 220.755 84.2765 220.977 84.2493C221.622 84.1677 222.261 84.0997 222.879 84.0385C223.296 83.9909 223.712 83.9637 224.109 83.9365C224.58 83.9093 225.037 83.8821 225.467 83.8617C227.765 83.7461 229.412 83.7801 229.412 83.7801C228.747 102.269 229.782 107.58 231.792 116.128Z" fill="black"/>
<path d="M215.398 74.6475C214.034 76.8983 218.927 77.9387 221.811 75.6335C224.123 73.7839 223.572 69.5135 221.602 68.5207C219.693 67.5687 215.398 74.6475 215.398 74.6475Z" fill="#C61818"/>
<path opacity="0.4" d="M215.398 74.6475C214.034 76.8983 218.927 77.9387 221.811 75.6335C224.123 73.7839 223.572 69.5135 221.602 68.5207C219.693 67.5687 215.398 74.6475 215.398 74.6475Z" fill="black"/>
<path d="M235.771 238.759L230.535 239.153L228.619 226.961L233.855 226.566L235.771 238.759Z" fill="#E58A7B"/>
<path d="M272.806 221.718L268.37 224.547L260.452 215.054L264.895 212.219L272.806 221.718Z" fill="#E58A7B"/>
<path d="M228.619 226.961L229.681 233.734L234.843 232.856L233.862 226.566L228.619 226.961Z" fill="#CF6F64"/>
<path d="M264.902 212.226L260.452 215.054L263.732 218.985L268.276 216.272L264.902 212.226Z" fill="#CF6F64"/>
<path d="M211.17 120.256C211.17 120.256 211.089 162.293 214.49 178.13C218.026 194.6 228.424 232.068 228.424 232.068L235.965 231.082C235.965 231.082 230.071 193.233 227.557 176.872C224.821 159.029 226.502 117.243 226.502 117.243L211.17 120.256Z" fill="#C61818"/>
<path opacity="0.7" d="M211.17 120.256C211.17 120.256 211.089 162.293 214.49 178.13C218.026 194.6 228.424 232.068 228.424 232.068L235.965 231.082C235.965 231.082 230.071 193.233 227.557 176.872C224.821 159.029 226.502 117.243 226.502 117.243L211.17 120.256Z" fill="black"/>
<path opacity="0.5" d="M226.044 135.868L222.348 132.142C222.489 148.292 223.383 156.268 226.454 164.958C225.964 155.772 225.93 144.905 226.044 135.868Z" fill="black"/>
<path d="M216.386 119.168C216.386 119.168 227.658 153.916 233.257 173.921C239.158 195.035 261.782 218.386 261.782 218.386L268.275 214.592C268.275 214.592 252.829 192.424 247.13 172.724C235.562 132.734 240.321 124.261 231.791 116.128L216.386 119.168Z" fill="#C61818"/>
<path opacity="0.7" d="M216.386 119.168C216.386 119.168 227.658 153.916 233.257 173.921C239.158 195.035 261.782 218.386 261.782 218.386L268.275 214.592C268.275 214.592 252.829 192.424 247.13 172.724C235.562 132.734 240.321 124.261 231.791 116.128L216.386 119.168Z" fill="black"/>
<path d="M207.527 62.3809C210.525 63.3941 213.247 70.9285 213.361 73.8933C213.475 76.8581 204.684 80.9449 204.684 80.9449C204.684 80.9449 200.805 71.3977 201.881 65.3185C202.351 62.6393 207.527 62.3809 207.527 62.3809Z" fill="#263238"/>
<path d="M166.385 96.6121L162.83 92.6953L161.667 97.6049C161.667 97.6049 164.194 99.8625 166.244 99.0941L166.385 96.6121Z" fill="#E58A7B"/>
<path d="M159.227 91.5732L156.74 93.5724L161.667 97.6048L162.83 92.6952L159.227 91.5732Z" fill="#E58A7B"/>
<path d="M266.965 223.534L271.119 219.298C271.274 219.141 271.502 219.128 271.67 219.25L275.454 222.092C275.844 222.385 275.878 223.01 275.522 223.364C274.05 224.812 273.263 225.438 271.435 227.301C270.312 228.444 268.787 230.239 267.234 231.823C265.715 233.374 264.055 231.939 264.559 231.136C266.831 227.553 266.421 226.213 266.575 224.391C266.602 224.064 266.743 223.758 266.965 223.534Z" fill="#263238"/>
<path d="M230.185 238.392H236.087C236.302 238.392 236.483 238.541 236.524 238.752L237.451 243.471C237.545 243.961 237.155 244.423 236.658 244.416C234.601 244.382 233.6 244.26 231.005 244.26C229.412 244.26 226.119 244.43 223.914 244.43C221.757 244.43 221.474 242.227 222.382 242.023C226.448 241.125 228.001 239.894 229.318 238.718C229.567 238.507 229.869 238.392 230.185 238.392Z" fill="#263238"/>
<path opacity="0.27" d="M230.064 94.4902L226.838 96.435L230.562 110.572C229.748 106.309 230.111 101.596 230.064 94.4902Z" fill="#C61818"/>
<path d="M211.729 72.3763C214.021 74.3211 217.348 77.1567 221.266 73.8451C224.634 71.0027 226.979 63.5431 220.957 63.2643C217.798 63.1215 211.729 72.3763 211.729 72.3763Z" fill="#263238"/>
<path d="M217.267 73.7021C217.26 76.9117 217.758 82.6985 220.292 84.3441C220.292 84.3441 220.063 87.6489 214.377 88.7641C208.126 89.9949 210.788 86.2141 210.788 86.2141C214.041 84.7181 213.456 82.1749 212.401 79.8901L217.267 73.7021Z" fill="#E58A7B"/>
<path d="M215.284 76.2256L212.407 79.884C212.663 80.428 212.884 80.9788 213.026 81.5364C214.289 81.0876 215.802 79.2924 215.674 77.8848C215.613 77.1844 215.459 76.5248 215.284 76.2256Z" fill="#CF6F64"/>
<path d="M217.569 66.3314C218.248 71.5606 218.651 73.757 216.581 76.9122C213.469 81.6654 206.976 81.3662 204.765 76.4498C202.775 72.023 201.995 64.2234 206.6 61.177C211.13 58.1918 216.89 61.109 217.569 66.3314Z" fill="#E58A7B"/>
<path d="M208.589 57.1716C205.094 59.6808 212.104 60.422 212.111 64.06C212.118 65.5628 214.551 70.3296 218.019 70.0576L221.386 64.0124C224.915 58.2256 216.581 51.4392 208.589 57.1716Z" fill="#263238"/>
<path d="M208.589 57.1716C202.439 56.8452 199.757 61.7956 200.463 66.2428C200.463 66.2428 206.741 64.4884 213.603 65.1956C222.025 66.0592 208.589 57.1716 208.589 57.1716Z" fill="#263238"/>
<path d="M219.256 70.8398C219.357 71.9278 218.954 72.9614 218.376 73.6414C217.509 74.6682 216.332 74.063 215.956 72.839C215.613 71.7374 215.654 69.881 216.823 69.303C217.979 68.7318 219.142 69.5954 219.256 70.8398Z" fill="#E58A7B"/>
<path d="M210.101 69.3023C210.182 69.7239 210.027 70.1047 209.759 70.1591C209.49 70.2135 209.201 69.9143 209.12 69.4927C209.039 69.0711 209.194 68.6903 209.463 68.6359C209.738 68.5883 210.021 68.8807 210.101 69.3023Z" fill="#263238"/>
<path d="M205.403 70.2271C205.484 70.6487 205.329 71.0295 205.06 71.0839C204.791 71.1383 204.502 70.8391 204.422 70.4175C204.341 69.9959 204.496 69.6151 204.765 69.5607C205.04 69.5131 205.322 69.8055 205.403 70.2271Z" fill="#263238"/>
<path d="M204.892 69.561L203.837 69.4658C203.837 69.4726 204.502 70.1594 204.892 69.561Z" fill="#263238"/>
<path d="M206.788 70.71C206.788 70.71 206.432 72.6616 205.82 73.6884C206.466 74.0964 207.36 73.6748 207.36 73.6748L206.788 70.71Z" fill="#DF5753"/>
<path d="M209.114 75.042C209.053 75.042 209.006 75.0012 208.993 74.94C208.979 74.872 209.026 74.804 209.093 74.7904C210.922 74.43 211.52 72.9748 211.527 72.9612C211.553 72.8932 211.627 72.866 211.688 72.8932C211.748 72.9204 211.782 72.9952 211.755 73.0564C211.728 73.1244 211.096 74.6544 209.14 75.042C209.127 75.042 209.12 75.042 209.114 75.042Z" fill="#263238"/>
<path d="M211.177 67.4937C211.116 67.4937 211.056 67.4734 211.009 67.4326C210.189 66.6914 209.322 66.9089 209.288 66.9157C209.16 66.9497 209.019 66.8681 208.986 66.7389C208.952 66.6029 209.026 66.467 209.16 66.433C209.207 66.4194 210.316 66.1337 211.345 67.0585C211.446 67.1537 211.459 67.3102 211.365 67.4122C211.311 67.4666 211.244 67.4937 211.177 67.4937Z" fill="#263238"/>
<path d="M202.802 68.4665C202.768 68.4665 202.735 68.4597 202.708 68.4461C202.58 68.3917 202.52 68.2421 202.573 68.1197C203.104 66.8345 204.227 66.6101 204.281 66.6033C204.422 66.5761 204.543 66.6713 204.57 66.8073C204.596 66.9433 204.502 67.0725 204.368 67.0997C204.328 67.1065 203.454 67.2969 203.03 68.3169C202.99 68.4053 202.896 68.4665 202.802 68.4665Z" fill="#263238"/>
<path d="M265.413 226.002C265.191 226.002 264.996 225.893 264.835 225.676C264.707 225.506 264.72 225.349 264.761 225.247C264.996 224.615 266.851 224.2 267.059 224.153C267.106 224.139 267.16 224.159 267.187 224.2C267.214 224.241 267.221 224.295 267.194 224.336C266.831 224.941 266.118 225.955 265.453 225.989C265.439 226.002 265.426 226.002 265.413 226.002ZM266.817 224.472C266.078 224.656 265.117 225.003 264.996 225.336C264.982 225.377 264.969 225.438 265.036 225.519C265.157 225.676 265.285 225.751 265.439 225.744C265.796 225.73 266.307 225.261 266.817 224.472Z" fill="#C61818"/>
<path d="M266.514 224.472C265.855 224.472 264.995 224.309 264.753 223.935C264.686 223.84 264.612 223.636 264.8 223.384C264.921 223.228 265.089 223.14 265.291 223.126C265.311 223.126 265.324 223.126 265.345 223.126C266.104 223.126 267.133 224.153 267.18 224.194C267.213 224.228 267.227 224.268 267.213 224.316C267.2 224.357 267.166 224.391 267.126 224.404C266.971 224.445 266.756 224.472 266.514 224.472ZM265.345 223.378C265.331 223.378 265.318 223.378 265.304 223.378C265.177 223.384 265.076 223.439 264.995 223.541C264.894 223.67 264.921 223.745 264.955 223.792C265.163 224.098 266.185 224.282 266.817 224.207C266.454 223.874 265.795 223.378 265.345 223.378Z" fill="#C61818"/>
<path d="M228.256 239.323C227.739 239.323 227.255 239.242 226.973 238.997C226.791 238.841 226.704 238.637 226.717 238.385C226.724 238.236 226.784 238.12 226.905 238.052C227.524 237.685 229.688 238.773 229.93 238.895C229.977 238.922 230.004 238.97 229.997 239.024C229.991 239.079 229.95 239.119 229.896 239.133C229.46 239.221 228.834 239.323 228.256 239.323ZM227.262 238.222C227.161 238.222 227.087 238.236 227.026 238.27C226.993 238.29 226.959 238.317 226.959 238.399C226.952 238.569 227.006 238.705 227.127 238.807C227.463 239.092 228.33 239.147 229.473 238.956C228.74 238.603 227.759 238.222 227.262 238.222Z" fill="#C61818"/>
<path d="M229.876 239.133C229.855 239.133 229.842 239.133 229.828 239.119C229.17 238.827 227.866 237.671 227.96 237.072C227.98 236.936 228.074 236.766 228.41 236.732C228.444 236.726 228.477 236.726 228.511 236.726C229.681 236.726 229.99 238.895 230.003 238.99C230.01 239.038 229.99 239.078 229.956 239.106C229.929 239.126 229.902 239.133 229.876 239.133ZM228.504 236.984C228.477 236.984 228.457 236.984 228.43 236.984C228.215 237.004 228.202 237.086 228.202 237.113C228.148 237.474 229.035 238.378 229.707 238.779C229.6 238.235 229.257 236.984 228.504 236.984Z" fill="#C61818"/>
<path d="M209.59 68.6362L208.535 68.541C208.535 68.541 209.201 69.2346 209.59 68.6362Z" fill="#263238"/>
<path d="M214.209 93.2861C202.964 95.8225 206.439 88.9409 207.111 87.4245C207.212 87.3837 207.306 87.3497 207.393 87.3157C208.724 86.8193 209.006 86.7445 210.794 86.2141C213.832 85.3165 216.743 84.8677 220.298 84.3441C220.527 84.3101 220.755 84.2761 220.977 84.2489C221.622 84.1605 222.261 84.0925 222.879 84.0381C223.296 83.9905 223.713 83.9633 224.109 83.9361C224.58 83.9021 225.037 83.8749 225.467 83.8545V83.8613C225.675 84.9153 226.233 90.5865 214.209 93.2861Z" fill="#E58A7B"/>
<path d="M231.859 114.822L233.17 116.529C233.27 116.665 233.129 116.848 232.887 116.896L210.935 121.221C210.747 121.255 210.572 121.194 210.539 121.078L209.987 119.222C209.947 119.092 210.088 118.95 210.297 118.909L231.496 114.734C231.644 114.7 231.798 114.741 231.859 114.822Z" fill="#26395A"/>
<path d="M229.473 117.78L230.038 117.671C230.152 117.65 230.226 117.576 230.206 117.501L229.466 115.094C229.446 115.026 229.332 114.985 229.224 115.005L228.66 115.114C228.545 115.134 228.471 115.209 228.492 115.284L229.231 117.691C229.251 117.766 229.365 117.807 229.473 117.78Z" fill="#C61818"/>
<path d="M216.615 125.804L212.239 124.158L212.911 128.367C212.911 128.367 216.084 129.523 217.704 128.041L216.615 125.804Z" fill="#E58A7B"/>
<path d="M208.072 125.273L207.03 128.034L212.912 128.367L212.239 124.158L208.072 125.273Z" fill="#E58A7B"/>
<path d="M212.569 121.112L213.133 121.003C213.247 120.983 213.321 120.908 213.301 120.833L212.562 118.426C212.542 118.358 212.427 118.317 212.32 118.337L211.755 118.446C211.641 118.466 211.567 118.541 211.587 118.616L212.327 121.023C212.347 121.098 212.454 121.139 212.569 121.112Z" fill="#C61818"/>
<path d="M221.024 119.446L221.588 119.337C221.703 119.316 221.777 119.242 221.756 119.167L221.017 116.76C220.997 116.692 220.883 116.651 220.775 116.671L220.21 116.78C220.096 116.8 220.022 116.875 220.042 116.95L220.782 119.357C220.802 119.432 220.909 119.473 221.024 119.446Z" fill="#C61818"/>
<path d="M218.631 81.6447C219.108 81.4611 219.707 83.1611 219.559 83.3787C219.216 83.8751 212.938 85.6091 212.656 84.6367C212.649 84.2219 212.71 83.4127 212.891 83.0863C213.073 82.7599 214.464 83.3583 218.631 81.6447Z" fill="#C61818"/>
<path d="M217.569 81.6859C217.817 81.1215 218.51 80.2172 219.108 80.734C219.706 81.2508 219.968 82.366 219.572 82.5428C219.182 82.7264 217.152 82.6311 217.569 81.6859Z" fill="#C61818"/>
<path d="M218.853 81.9777C219.27 81.5357 220.224 80.9169 220.621 81.6037C221.017 82.2973 220.89 83.4329 220.459 83.4669C220.029 83.5009 218.147 82.7257 218.853 81.9777Z" fill="#C61818"/>
<path d="M219.082 81.8759C218.987 81.3047 219.256 80.5635 220.016 80.0603C220.775 79.5571 221.521 79.2307 221.824 78.7139C221.824 78.7139 222.046 79.5299 221.898 80.2371C221.743 80.9647 219.357 81.5155 219.518 82.1547L219.082 81.8759Z" fill="#C61818"/>
<path d="M218.981 81.8422C218.598 81.4138 218.423 80.6454 218.786 79.8022C219.156 78.959 219.606 78.279 219.579 77.6738C219.579 77.6738 220.204 78.2314 220.459 78.9114C220.722 79.605 219.014 81.3866 219.498 81.8286L218.981 81.8422Z" fill="#C61818"/>
<path d="M265.728 214.68C265.701 214.68 265.674 214.666 265.661 214.646C265.506 214.421 250.141 192.24 244.502 172.751C239.205 154.425 237.296 142.505 236.033 134.623C234.87 127.361 234.171 122.975 231.852 119.378C231.825 119.337 231.838 119.283 231.879 119.262C231.919 119.235 231.973 119.249 231.993 119.289C234.332 122.921 235.031 127.313 236.201 134.603C237.464 142.484 239.366 154.391 244.663 172.71C250.289 192.172 265.64 214.333 265.795 214.551C265.822 214.591 265.815 214.639 265.775 214.666C265.761 214.673 265.748 214.68 265.728 214.68Z" fill="#C61818"/>
<path opacity="0.4" d="M265.728 214.68C265.701 214.68 265.674 214.666 265.661 214.646C265.506 214.421 250.141 192.24 244.502 172.751C239.205 154.425 237.296 142.505 236.033 134.623C234.87 127.361 234.171 122.975 231.852 119.378C231.825 119.337 231.838 119.283 231.879 119.262C231.919 119.235 231.973 119.249 231.993 119.289C234.332 122.921 235.031 127.313 236.201 134.603C237.464 142.484 239.366 154.391 244.663 172.71C250.289 192.172 265.64 214.333 265.795 214.551C265.822 214.591 265.815 214.639 265.775 214.666C265.761 214.673 265.748 214.68 265.728 214.68Z" fill="black"/>
<path d="M237.33 231.048L227.06 232.394L226.388 229.498L237.081 227.206L237.33 231.048Z" fill="#C61818"/>
<path d="M268.813 214.361L261.238 218.787L258.684 216.571L266.971 210.906L268.813 214.361Z" fill="#C61818"/>
<path d="M233.264 90.9678C233.627 92.865 233.842 94.6398 234.037 96.4826C234.218 98.3118 234.313 100.148 234.366 101.997C234.427 103.84 234.373 105.703 234.245 107.56C234.171 108.491 234.091 109.423 233.963 110.361C233.909 110.831 233.849 111.293 233.761 111.762L233.513 113.204C233.197 114.605 232.619 115.591 232.027 116.461C231.422 117.331 230.784 118.079 230.118 118.78C228.794 120.181 227.39 121.377 225.951 122.52C223.054 124.764 220.077 126.743 216.904 128.497L215.459 126.239C216.797 125.158 218.168 124.043 219.478 122.907C220.803 121.785 222.1 120.623 223.323 119.426C224.56 118.243 225.736 117.012 226.764 115.761C227.275 115.135 227.739 114.496 228.102 113.87C228.465 113.258 228.727 112.633 228.761 112.286C228.962 110.715 229.117 108.988 229.144 107.308C229.157 106.458 229.164 105.608 229.137 104.758C229.13 103.908 229.103 103.051 229.063 102.195C228.982 100.481 228.828 98.7674 228.646 97.0538C228.478 95.3538 228.23 93.5926 227.981 91.981L233.264 90.9678Z" fill="#E58A7B"/>
<path d="M232.451 85.1809C235.327 87.5405 234.642 94.5241 234.642 94.5241L224.963 97.7473C224.963 97.7473 225.407 89.6893 225.884 86.7925C226.448 83.3517 229.621 82.8689 232.451 85.1809Z" fill="#C61818"/>
<path opacity="0.2" d="M232.451 85.1809C235.327 87.5405 234.642 94.5241 234.642 94.5241L224.963 97.7473C224.963 97.7473 225.407 89.6893 225.884 86.7925C226.448 83.3517 229.621 82.8689 232.451 85.1809Z" fill="black"/>
<path d="M104.93 114.258C104.157 110.865 101.173 108.458 97.7249 108.458H43.9199C39.84 108.458 36.5264 111.804 36.5264 115.938V236.856C36.5264 240.983 39.8333 244.336 43.9199 244.336H214.658C218.737 244.336 222.051 240.99 222.051 236.856V135.284C222.051 131.156 218.744 127.804 214.658 127.804H121.754C113.708 127.811 106.732 122.187 104.93 114.258Z" fill="#C61818"/>
<path opacity="0.6" d="M104.93 114.258C104.157 110.865 101.173 108.458 97.7249 108.458H43.9199C39.84 108.458 36.5264 111.804 36.5264 115.938V236.856C36.5264 240.983 39.8333 244.336 43.9199 244.336H214.658C218.737 244.336 222.051 240.99 222.051 236.856V135.284C222.051 131.156 218.744 127.804 214.658 127.804H121.754C113.708 127.811 106.732 122.187 104.93 114.258Z" fill="black"/>
<path opacity="0.22" d="M85.9492 76.5996L90.7416 92.3008C92.0119 96.4624 96.3809 98.7948 100.494 97.5096L116.007 92.6612L85.9492 76.5996Z" fill="#C61818"/>
<path d="M85.9494 76.5996L30.4977 93.926C26.3842 95.2112 24.0788 99.6244 25.3491 103.786L57.007 207.472C58.2774 211.634 62.6396 213.966 66.7531 212.681L137.725 190.5C141.838 189.214 144.144 184.801 142.873 180.64L116.008 92.6544L85.9494 76.5996Z" fill="#C61818"/>
<path opacity="0.8" d="M85.9494 76.5996L30.4977 93.926C26.3842 95.2112 24.0788 99.6244 25.3491 103.786L57.007 207.472C58.2774 211.634 62.6396 213.966 66.7531 212.681L137.725 190.5C141.838 189.214 144.144 184.801 142.873 180.64L116.008 92.6544L85.9494 76.5996Z" fill="white"/>
<g opacity="0.28">
<path d="M115.785 185.998L69.6495 200.414C67.8616 200.971 65.946 199.951 65.3949 198.142C64.8437 196.334 65.8519 194.396 67.6398 193.838L113.776 179.422C115.564 178.864 117.479 179.884 118.03 181.693C118.588 183.502 117.573 185.44 115.785 185.998Z" fill="#C61818"/>
</g>
<g opacity="0.28">
<path d="M66.1351 101.372L41.7296 109.001C39.9417 109.559 38.0261 108.539 37.4749 106.73C36.9238 104.921 37.932 102.983 39.7199 102.426L64.1254 94.796C65.9133 94.2384 67.8289 95.2584 68.38 97.0672C68.9379 98.8692 67.9297 100.807 66.1351 101.372Z" fill="#C61818"/>
</g>
<g opacity="0.28">
<path d="M86.0436 109.458L45.7218 122.058C43.9339 122.616 42.0183 121.596 41.4671 119.787C40.916 117.978 41.9242 116.04 43.7121 115.482L84.0339 102.882C85.8218 102.324 87.7374 103.344 88.2885 105.153C88.8464 106.955 87.8315 108.893 86.0436 109.458Z" fill="#C61818"/>
</g>
<g opacity="0.28">
<path d="M108.56 116.726L49.7071 135.12C47.9192 135.678 46.0036 134.658 45.4525 132.849C44.9013 131.04 45.9095 129.102 47.6974 128.545L106.55 110.151C108.338 109.593 110.254 110.613 110.805 112.422C111.363 114.224 110.348 116.162 108.56 116.726Z" fill="#C61818"/>
</g>
<g opacity="0.28">
<path d="M112.546 129.783L78.3341 140.472C76.5462 141.03 74.6306 140.01 74.0794 138.201C73.5283 136.392 74.5365 134.454 76.3244 133.897L110.536 123.207C112.324 122.65 114.24 123.67 114.791 125.478C115.349 127.287 114.334 129.225 112.546 129.783Z" fill="#C61818"/>
</g>
<g opacity="0.28">
<path d="M62.6465 145.381L53.7003 148.176C51.9124 148.734 49.9968 147.714 49.4456 145.905C48.8945 144.096 49.9027 142.158 51.6906 141.601L60.6368 138.806C62.4247 138.248 64.3403 139.268 64.8915 141.077C65.4493 142.879 64.4344 144.817 62.6465 145.381Z" fill="#C61818"/>
</g>
<g opacity="0.28">
<path d="M116.538 142.845L57.6857 161.239C55.8978 161.797 53.9822 160.777 53.431 158.968C52.8798 157.159 53.888 155.221 55.6759 154.664L114.529 136.27C116.317 135.712 118.232 136.732 118.783 138.541C119.335 140.35 118.326 142.288 116.538 142.845Z" fill="#C61818"/>
</g>
<g opacity="0.28">
<path d="M97.8131 163.001L61.672 174.295C59.8841 174.853 57.9685 173.833 57.4173 172.024C56.8662 170.215 57.8744 168.277 59.6623 167.72L95.8034 156.425C97.5913 155.867 99.5069 156.887 100.058 158.696C100.616 160.505 99.6077 162.443 97.8131 163.001Z" fill="#C61818"/>
</g>
<g opacity="0.28">
<path d="M120.524 155.908L110.879 158.92C109.091 159.478 107.176 158.458 106.624 156.649C106.073 154.84 107.081 152.902 108.869 152.345L118.515 149.332C120.302 148.775 122.218 149.795 122.769 151.603C123.327 153.405 122.312 155.343 120.524 155.908Z" fill="#C61818"/>
</g>
<g opacity="0.28">
<path d="M124.51 168.964L65.6573 187.358C63.8694 187.916 61.9538 186.896 61.4027 185.087C60.8515 183.278 61.8597 181.34 63.6476 180.783L122.5 162.389C124.288 161.831 126.204 162.851 126.755 164.66C127.313 166.469 126.298 168.407 124.51 168.964Z" fill="#C61818"/>
</g>
<path d="M149.735 84.1338L91.8101 87.7514C87.5083 88.0166 84.2417 91.7566 84.5106 96.1086L91.111 204.419C91.3732 208.771 95.0699 212.076 99.3717 211.804L173.509 207.18C177.811 206.915 181.077 203.175 180.808 198.823L175.203 106.914L149.735 84.1338Z" fill="#C61818"/>
<path opacity="0.8" d="M149.735 84.1338L91.8101 87.7514C87.5083 88.0166 84.2417 91.7566 84.5106 96.1086L91.111 204.419C91.3732 208.771 95.0699 212.076 99.3717 211.804L173.509 207.18C177.811 206.915 181.077 203.175 180.808 198.823L175.203 106.914L149.735 84.1338Z" fill="white"/>
<g opacity="0.22">
<path d="M153.237 197.565L105.038 200.57C103.169 200.686 101.543 199.238 101.428 197.347C101.314 195.457 102.746 193.811 104.614 193.696L152.814 190.69C154.682 190.574 156.309 192.023 156.423 193.913C156.544 195.81 155.106 197.449 153.237 197.565Z" fill="#C61818"/>
</g>
<g opacity="0.22">
<path d="M124.712 103.48L99.2174 105.071C97.3488 105.187 95.7222 103.738 95.608 101.848C95.4937 99.9575 96.9254 98.3119 98.7939 98.1963L124.288 96.6051C126.157 96.4895 127.783 97.9379 127.898 99.8283C128.012 101.719 126.58 103.364 124.712 103.48Z" fill="#C61818"/>
</g>
<g opacity="0.22">
<path d="M142.174 116.087L100.05 118.719C98.1818 118.835 96.5552 117.386 96.441 115.496C96.3267 113.605 97.7584 111.96 99.6269 111.844L141.75 109.213C143.619 109.097 145.245 110.545 145.359 112.436C145.474 114.326 144.042 115.972 142.174 116.087Z" fill="#C61818"/>
</g>
<g opacity="0.22">
<path d="M162.358 128.524L100.884 132.359C99.0158 132.475 97.3892 131.026 97.2749 129.136C97.1607 127.245 98.5923 125.6 100.461 125.484L161.935 121.649C163.804 121.533 165.43 122.982 165.544 124.872C165.665 126.763 164.227 128.401 162.358 128.524Z" fill="#C61818"/>
</g>
<g opacity="0.22">
<path d="M163.191 142.165L127.454 144.396C125.585 144.511 123.959 143.063 123.844 141.173C123.73 139.282 125.162 137.637 127.03 137.521L162.768 135.291C164.637 135.175 166.263 136.623 166.377 138.514C166.492 140.404 165.06 142.05 163.191 142.165Z" fill="#C61818"/>
</g>
<g opacity="0.22">
<path d="M111.06 145.415L101.711 146C99.842 146.116 98.2154 144.667 98.1011 142.777C97.9869 140.887 99.4185 139.241 101.287 139.125L110.637 138.541C112.505 138.425 114.132 139.873 114.246 141.764C114.367 143.661 112.929 145.3 111.06 145.415Z" fill="#C61818"/>
</g>
<g opacity="0.22">
<path d="M164.025 155.806L102.551 159.641C100.683 159.757 99.0562 158.308 98.9419 156.418C98.8277 154.528 100.259 152.882 102.128 152.766L163.602 148.931C165.471 148.816 167.097 150.264 167.211 152.154C167.326 154.052 165.894 155.69 164.025 155.806Z" fill="#C61818"/>
</g>
<g opacity="0.22">
<path d="M141.132 170.929L103.378 173.282C101.509 173.398 99.8824 171.949 99.7681 170.059C99.6538 168.168 101.086 166.523 102.954 166.407L140.708 164.054C142.577 163.939 144.203 165.387 144.318 167.278C144.439 169.175 143 170.814 141.132 170.929Z" fill="#C61818"/>
</g>
<g opacity="0.22">
<path d="M164.851 169.454L154.776 170.079C152.907 170.195 151.281 168.746 151.167 166.856C151.052 164.966 152.484 163.32 154.352 163.204L164.428 162.579C166.296 162.463 167.923 163.912 168.037 165.802C168.158 167.692 166.72 169.331 164.851 169.454Z" fill="#C61818"/>
</g>
<g opacity="0.22">
<path d="M165.686 183.094L104.211 186.929C102.343 187.045 100.716 185.597 100.602 183.706C100.488 181.816 101.919 180.17 103.788 180.055L165.262 176.219C167.131 176.104 168.757 177.552 168.872 179.443C168.993 181.333 167.554 182.979 165.686 183.094Z" fill="#C61818"/>
</g>
<path opacity="0.22" d="M149.735 84.1338L150.737 100.535C150.999 104.887 154.702 108.192 159.004 107.92L175.21 106.907L149.735 84.1338Z" fill="#C61818"/>
<path opacity="0.5" d="M130.768 125.049C130.654 121.656 128.126 119.249 124.685 119.249H70.88C66.8001 119.249 62.8411 122.595 62.048 126.729L40.7882 236.855C39.9883 240.983 42.6567 244.335 46.7366 244.335H217.474C221.554 244.335 225.513 240.989 226.306 236.855L243.829 146.075C244.629 141.947 241.96 138.595 237.88 138.595H144.977C136.931 138.595 131.043 132.978 130.768 125.049Z" fill="#C61818"/>
</svg>
