<svg width="300" height="300" viewBox="0 0 300 300" fill="none" xmlns="http://www.w3.org/2000/svg">
<g clip-path="url(#clip0_43266_55502)">
<g clip-path="url(#clip1_43266_55502)">
<path d="M333 263.862H-32.7676V264.044H333V263.862Z" fill="#EBEBEB"/>
<path d="M296.35 275.555H272.121V275.737H296.35V275.555Z" fill="#EBEBEB"/>
<path d="M209.532 277.53H203.175V277.712H209.532V277.53Z" fill="#EBEBEB"/>
<path d="M271.391 268.812H257.353V268.993H271.391V268.812Z" fill="#EBEBEB"/>
<path d="M37.2053 270.032H5.61035V270.214H37.2053V270.032Z" fill="#EBEBEB"/>
<path d="M48.3513 270.032H43.7207V270.214H48.3513V270.032Z" fill="#EBEBEB"/>
<path d="M131.936 273.099H63.4062V273.281H131.936V273.099Z" fill="#EBEBEB"/>
<path d="M140.612 231.455H-0.647159C-2.95149 231.455 -4.82422 229.595 -4.82422 227.306V30.0749C-4.82422 27.786 -2.95149 25.9258 -0.647159 25.9258H140.612C142.916 25.9258 144.789 27.786 144.789 30.0749V227.306C144.789 229.595 142.916 231.455 140.612 231.455ZM-0.647159 26.1074C-2.84908 26.1074 -4.64134 27.8877 -4.64134 30.0749V227.306C-4.64134 229.493 -2.84908 231.273 -0.647159 231.273H140.612C142.814 231.273 144.606 229.493 144.606 227.306V30.0749C144.606 27.8877 142.814 26.1074 140.612 26.1074H-0.647159Z" fill="#EBEBEB"/>
<path d="M298.845 231.455H157.585C155.281 231.455 153.408 229.595 153.408 227.306V30.0749C153.408 27.786 155.281 25.9258 157.585 25.9258H298.845C301.149 25.9258 303.022 27.786 303.022 30.0749V227.306C303.022 229.595 301.149 231.455 298.845 231.455ZM157.585 26.1074C155.383 26.1074 153.591 27.8877 153.591 30.0749V227.306C153.591 229.493 155.383 231.273 157.585 231.273H298.845C301.046 231.273 302.839 229.493 302.839 227.306V30.0749C302.839 27.8877 301.046 26.1074 298.845 26.1074H157.585Z" fill="#EBEBEB"/>
<path d="M290.766 263.899V228.068H274.116V194.839H271.768V213.884H265.367V208.616H253.838V190.378H251.709V168.092H249.998V189.971H245.945V222.393H238.257V189.971H224.387V217.394H209.814V184.158H207.466V203.21H201.065V197.942H189.536V179.703H187.408V157.41H185.696V179.296H181.643V211.719H173.955V179.296H160.085V210.658H150.728V192.419H148.592V170.134H146.881V192.013H142.828V224.435H135.139V192.013H121.27V224.435H114.437V228.068H102.469V194.839H100.121V213.884H93.72V208.616H82.191V190.378H80.0549V168.092H78.3505V189.971H74.627V188.147H60.7498V189.971H53.0686V188.147H49.0159V166.268H47.3042V188.554H45.1681V206.792H33.6464V212.06H27.2382V193.015H24.89V226.244H8.24023V263.899H290.766Z" fill="#F0F0F0"/>
<path d="M82.7911 92.7885C90.7302 84.9026 90.7301 72.1169 82.791 64.231C74.8519 56.3451 61.9801 56.3451 54.041 64.231C46.1019 72.1169 46.1019 84.9026 54.041 92.7885C61.9801 100.674 74.852 100.674 82.7911 92.7885Z" fill="#FAFAFA"/>
<path d="M57.8669 78.2801C57.8669 76.3399 56.2868 74.7704 54.3336 74.7704C53.9825 74.7704 53.6387 74.8213 53.3168 74.9157C53.368 74.5669 53.3973 74.2036 53.3973 73.8403C53.3973 69.7348 50.0468 66.4068 45.9137 66.4068C45.4455 66.4068 44.9846 66.4504 44.5384 66.5376C43.3899 64.6702 41.3196 63.4131 38.9568 63.4131C35.3723 63.4131 32.4681 66.276 32.4169 69.822C32.3803 69.822 32.3437 69.822 32.3071 69.822C28.9787 69.822 26.2793 72.5033 26.2793 75.8095C26.2793 79.1157 28.9787 81.797 32.3071 81.797H54.4434C56.3454 81.7388 57.8743 80.1911 57.8743 78.2873L57.8669 78.2801Z" fill="#F5F5F5"/>
<path d="M280.467 126.914C280.467 124.974 278.886 123.404 276.933 123.404C276.582 123.404 276.238 123.455 275.916 123.55C275.968 123.201 275.997 122.837 275.997 122.474C275.997 118.369 272.646 115.041 268.513 115.041C268.045 115.041 267.584 115.084 267.138 115.171C265.989 113.304 263.919 112.047 261.556 112.047C257.972 112.047 255.068 114.91 255.016 118.456C254.98 118.456 254.943 118.456 254.907 118.456C251.578 118.456 248.879 121.137 248.879 124.443C248.879 127.749 251.578 130.431 254.907 130.431H277.043C278.945 130.373 280.474 128.825 280.474 126.921L280.467 126.914Z" fill="#F5F5F5"/>
<path d="M175.812 73.6081C175.812 70.5417 178.314 68.0566 181.401 68.0566C181.957 68.0566 182.499 68.1438 183.003 68.2891C182.923 67.7296 182.879 67.1629 182.879 66.5815C182.879 60.0854 188.183 54.8246 194.715 54.8246C195.461 54.8246 196.186 54.8972 196.895 55.028C198.717 52.0706 201.987 50.0869 205.732 50.0869C211.402 50.0869 216.003 54.6139 216.083 60.2235C216.142 60.2235 216.2 60.2162 216.259 60.2162C221.526 60.2162 225.798 64.4598 225.798 69.6915C225.798 74.9233 221.526 79.1669 216.259 79.1669H181.233C178.219 79.0724 175.798 76.6309 175.798 73.6154L175.812 73.6081Z" fill="#F5F5F5"/>
<path d="M72.4902 134.078C72.4902 130.387 75.5042 127.393 79.2203 127.393C79.8934 127.393 80.5371 127.495 81.1516 127.676C81.0565 127.008 80.998 126.325 80.998 125.627C80.998 117.808 87.377 111.472 95.2483 111.472C96.148 111.472 97.0186 111.559 97.8745 111.719C100.062 108.159 104.005 105.775 108.511 105.775C115.336 105.775 120.867 111.218 120.969 117.976C121.042 117.976 121.108 117.968 121.174 117.968C127.516 117.968 132.652 123.069 132.652 129.369C132.652 135.669 127.516 140.77 121.174 140.77H79.0228L79.0302 140.763C75.4017 140.661 72.4902 137.718 72.4902 134.092V134.078Z" fill="#F5F5F5"/>
<path d="M102.206 88.8019C102.206 87.5957 101.225 86.622 100.011 86.622C99.7916 86.622 99.5795 86.6584 99.3819 86.7165C99.4112 86.4985 99.4332 86.2733 99.4332 86.048C99.4332 83.4975 97.3483 81.4266 94.7806 81.4266C94.488 81.4266 94.2027 81.4557 93.9247 81.5065C93.2078 80.3439 91.9276 79.5664 90.4499 79.5664C88.2187 79.5664 86.4118 81.3467 86.3826 83.5484C86.3606 83.5484 86.3387 83.5484 86.3167 83.5484C84.2465 83.5484 82.5713 85.2124 82.5713 87.2687C82.5713 89.3251 84.2465 90.9891 86.3167 90.9891H100.077C101.262 90.9528 102.213 89.9936 102.213 88.8092L102.206 88.8019Z" fill="#F5F5F5"/>
<path d="M22.1968 155.064C22.1968 153.857 23.177 152.884 24.3914 152.884C24.6108 152.884 24.823 152.92 25.0205 152.978C24.9912 152.76 24.9693 152.535 24.9693 152.31C24.9693 149.759 27.0542 147.688 29.6218 147.688C29.9145 147.688 30.1998 147.717 30.4777 147.768C31.1946 146.606 32.4748 145.828 33.9525 145.828C36.1837 145.828 37.9906 147.608 38.0199 149.81C38.0418 149.81 38.0637 149.81 38.0857 149.81C40.1559 149.81 41.8312 151.474 41.8312 153.53C41.8312 155.587 40.1559 157.251 38.0857 157.251H24.3255C23.1405 157.215 22.1895 156.255 22.1895 155.071L22.1968 155.064Z" fill="#F5F5F5"/>
<path d="M228.117 162.185C228.117 160.979 229.097 160.005 230.311 160.005C230.531 160.005 230.743 160.041 230.94 160.099C230.911 159.881 230.889 159.656 230.889 159.431C230.889 156.88 232.974 154.809 235.542 154.809C235.834 154.809 236.12 154.838 236.398 154.889C237.115 153.727 238.395 152.949 239.872 152.949C242.104 152.949 243.911 154.729 243.94 156.931C243.962 156.931 243.984 156.931 244.006 156.931C246.076 156.931 247.751 158.595 247.751 160.652C247.751 162.708 246.076 164.372 244.006 164.372H230.245C229.06 164.336 228.109 163.376 228.109 162.192L228.117 162.185Z" fill="#F5F5F5"/>
<path d="M269.831 252.091L266.013 225.01L262.209 232.843L225.661 179.006L165.127 159.794L144.731 115.934L51.9949 52.499L52.2436 71.7694L37.3203 80.6925L119.559 128.454L143.788 172.619L214.732 195.116L251.455 241.65L243.547 243.975L269.831 252.091Z" fill="#E0E0E0"/>
<path d="M150.851 292.037C217.741 292.037 271.966 289.302 271.966 285.929C271.966 282.556 217.741 279.821 150.851 279.821C83.9613 279.821 29.7363 282.556 29.7363 285.929C29.7363 289.302 83.9613 292.037 150.851 292.037Z" fill="#F5F5F5"/>
<path d="M238.828 268.855C238.828 268.855 242.238 261.466 238.339 254.177C234.441 246.888 233.313 245.176 235.798 243.678C238.282 242.181 239.424 249.505 239.424 249.505C239.424 249.505 241.52 244.47 239.79 239.199C238.059 233.929 236.975 225.342 239.338 224.421C241.7 223.501 239.79 235.134 241.836 239.1C241.836 239.1 243.56 234.685 243.84 230.448C244.12 226.212 243.682 219.45 245.548 217.717C247.415 215.984 248.607 217.182 246.776 226.525C244.945 235.869 244.96 243.464 244.96 243.464C244.96 243.464 249.009 231.204 251.724 230.848C254.438 230.491 254.438 234.457 252.111 237.901C249.785 241.346 245.304 247.516 244.565 250.689C244.565 250.689 249.009 241.467 253.002 244.292C257.001 247.116 249.526 252.694 246.195 254.705C242.863 256.716 240.551 269.34 240.551 269.34L238.835 268.855H238.828Z" fill="#C61818"/>
<path opacity="0.2" d="M238.828 268.855C238.828 268.855 242.238 261.466 238.339 254.177C234.441 246.888 233.313 245.176 235.798 243.678C238.282 242.181 239.424 249.505 239.424 249.505C239.424 249.505 241.52 244.47 239.79 239.199C238.059 233.929 236.975 225.342 239.338 224.421C241.7 223.501 239.79 235.134 241.836 239.1C241.836 239.1 243.56 234.685 243.84 230.448C244.12 226.212 243.682 219.45 245.548 217.717C247.415 215.984 248.607 217.182 246.776 226.525C244.945 235.869 244.96 243.464 244.96 243.464C244.96 243.464 249.009 231.204 251.724 230.848C254.438 230.491 254.438 234.457 252.111 237.901C249.785 241.346 245.304 247.516 244.565 250.689C244.565 250.689 249.009 241.467 253.002 244.292C257.001 247.116 249.526 252.694 246.195 254.705C242.863 256.716 240.551 269.34 240.551 269.34L238.835 268.855H238.828Z" fill="black"/>
<path d="M241.522 271.887C241.522 271.887 238.197 264.448 242.182 257.216C246.167 249.984 247.316 248.286 244.853 246.76C242.391 245.234 241.163 252.537 241.163 252.537C241.163 252.537 239.131 247.466 240.926 242.224C242.721 236.975 243.906 228.409 241.558 227.453C239.21 226.497 240.976 238.158 238.879 242.088C238.879 242.088 237.214 237.652 236.977 233.408C236.74 229.165 237.271 222.418 235.426 220.656C233.58 218.894 232.374 220.078 234.09 229.45C235.806 238.822 235.706 246.418 235.706 246.418C235.706 246.418 231.807 234.1 229.093 233.701C226.378 233.301 226.335 237.274 228.619 240.747C230.902 244.228 235.311 250.462 236.007 253.643C236.007 253.643 231.678 244.356 227.649 247.124C223.621 249.891 231.024 255.575 234.334 257.637C237.644 259.698 239.798 272.35 239.798 272.35L241.522 271.887Z" fill="#C61818"/>
<path d="M226.198 266.58H253.634L251.415 286.08H228.424L226.198 266.58Z" fill="#263238"/>
<path d="M192.047 129.613L199.04 135.461C200.196 136.438 201.381 137.38 202.544 138.314C203.708 139.255 204.9 140.133 206.027 140.931C206.307 141.117 206.601 141.338 206.853 141.481L207.24 141.723L207.341 141.787C207.377 141.809 207.348 141.794 207.355 141.802C207.355 141.802 207.348 141.809 207.348 141.816C207.312 141.851 207.477 141.937 207.872 141.909C208.655 141.837 209.89 141.324 211.046 140.653C213.394 139.291 215.806 137.38 218.032 135.482L218.111 135.411C218.88 134.755 220.043 134.84 220.703 135.611C221.242 136.238 221.278 137.13 220.847 137.793C219.038 140.568 217.027 143.043 214.334 145.282C212.963 146.373 211.47 147.457 209.215 148.078C208.095 148.37 206.652 148.506 205.151 148.014C204.964 147.957 204.785 147.885 204.605 147.807L204.361 147.7L204.203 147.621L203.571 147.308C203.133 147.094 202.789 146.88 202.401 146.666C200.915 145.81 199.579 144.904 198.265 143.984C196.944 143.071 195.687 142.108 194.431 141.152C191.932 139.213 189.534 137.237 187.171 135.119C185.656 133.764 185.534 131.453 186.899 129.948C188.234 128.479 190.496 128.329 192.011 129.591L192.047 129.62V129.613Z" fill="#EBC0BB"/>
<path d="M191.544 140.404C192.412 140.718 193.985 141.581 195.694 142.587C199.119 144.598 203.097 147.194 203.097 147.194L206.357 140.283C200.117 133.921 190.754 128.914 190.754 128.914C190.754 128.914 190.388 131.025 190.215 133.443C190 136.424 190.093 139.876 191.544 140.404Z" fill="#D70015"/>
<path d="M202.623 147.08L206.35 139.07L208.216 141.731L204.397 148.371L202.623 147.08Z" fill="#D70015"/>
<path opacity="0.6" d="M202.623 147.08L206.35 139.07L208.216 141.731L204.397 148.371L202.623 147.08Z" fill="white"/>
<path opacity="0.2" d="M191.544 138.871C192.412 139.142 193.985 139.891 195.694 140.761C194.545 135.59 190.718 132.487 190.718 132.487C190.538 132.594 190.373 132.716 190.215 132.837C190 135.419 190.093 138.407 191.544 138.871Z" fill="black"/>
<path d="M173.078 166.807C173.078 166.807 173.423 172.598 176.266 182.74C177.702 187.847 179.77 194.059 182.757 201.184C184.179 204.579 185.809 208.181 187.676 211.968C188.516 213.694 189.42 215.449 190.361 217.246C191.452 247.964 208.807 279.203 208.807 279.203C209.769 279.696 213.123 279.154 213.108 278.184C210.538 274.132 205.483 234.763 202.223 216.098C202.022 213.559 201.727 210.841 201.368 208.031C200.413 200.5 199.006 192.297 197.635 185.087C195.481 173.732 193.427 164.824 193.427 164.824L187.704 165.381L173.078 166.8V166.807Z" fill="#EEC1BB"/>
<path d="M166.258 209.33C166.717 212.632 167.313 216.162 168.039 219.928C161.842 240.476 174.587 280.573 174.587 280.573C176.748 280.994 178.658 280.716 179.62 279.995C177.215 267.914 178.945 236.503 180.812 217.731C180.977 216.027 181.186 214.151 181.415 212.154C181.796 208.773 182.256 205.036 182.744 201.177C183.562 194.723 184.489 187.926 185.329 181.906C186.348 174.624 187.239 168.469 187.691 165.374C187.885 164.011 188 163.241 188 163.241L170.099 165.167C170.099 165.167 165.554 170.238 164.858 186.071C164.599 192.134 164.901 199.78 166.244 209.322L166.258 209.33Z" fill="#EEC1BB"/>
<path opacity="0.2" d="M166.257 209.329C171.893 211.162 176.955 211.99 181.421 212.161C181.802 208.78 182.261 205.043 182.75 201.184C184.171 204.579 185.801 208.181 187.668 211.968C193.822 211.362 198.417 209.565 201.354 208.031C200.399 200.5 198.992 192.298 197.62 185.087C195.947 184.089 193.944 183.254 191.538 182.655C189.657 182.184 187.56 181.942 185.335 181.913C182.455 181.87 179.368 182.17 176.259 182.733C172.345 183.454 168.411 184.609 164.864 186.078C164.605 192.141 164.907 199.787 166.249 209.329H166.257Z" fill="black"/>
<path d="M166.156 129.434C166.156 129.434 166.96 132.373 167.821 137.308C168.037 138.528 168.259 139.869 168.468 141.317C168.618 142.358 168.769 143.464 168.906 144.612C169.064 145.91 169.222 147.286 169.351 148.713C169.818 153.613 170.098 159.19 169.947 165.138H193.52C193.52 165.138 197.239 137.751 191.093 128.921C191.093 128.921 179.008 123.265 166.148 129.434H166.156Z" fill="#D70015"/>
<path opacity="0.2" d="M167.814 137.308C168.029 138.528 168.252 139.868 168.46 141.316C168.611 142.358 168.762 143.463 168.898 144.611C169.674 142.029 170.126 138.05 168.826 133.892L167.807 137.308H167.814Z" fill="black"/>
<path d="M178.347 124.948C170.952 124.948 170.025 130.989 170.025 130.989L173.479 129.513L183.639 136.26L186.138 129.449L189.269 130.026C189.269 130.026 184.774 124.955 178.347 124.948Z" fill="#D70015"/>
<path opacity="0.6" d="M178.347 124.948C170.952 124.948 170.025 130.989 170.025 130.989L173.479 129.513L183.639 136.26L186.138 129.449L189.269 130.026C189.269 130.026 184.774 124.955 178.347 124.948Z" fill="white"/>
<path d="M173.768 128.293L183.353 135.397C183.353 135.339 184.84 128.293 184.84 128.293C182.578 127.801 181.652 126.71 181.407 125.397C181.221 124.413 181.429 123.293 181.738 122.209L176.431 118.037L175.01 116.917C175.663 120.169 176.288 126.125 173.768 128.293Z" fill="#EEC1BB"/>
<path opacity="0.2" d="M176.388 120.441C176.59 122.488 179.117 124.62 181.408 125.398C181.221 124.413 181.429 123.294 181.738 122.209L176.432 118.037C176.317 118.65 176.295 119.535 176.388 120.441Z" fill="black"/>
<path d="M192.66 104.172C192.66 104.172 193.342 104.65 193.557 104.971L191.877 109.585" stroke="#C61818" stroke-width="0.75" stroke-miterlimit="10"/>
<path d="M191.022 114.842C191.022 114.842 195.704 105.377 186.291 99.8283C176.877 94.2794 170.063 105.869 171.004 111.682C171.413 114.185 172.354 117.238 174.781 118.736C175.757 119.342 175.829 116.61 175.829 116.61C175.829 116.61 184.998 119.813 191.015 114.842H191.022Z" fill="#263238"/>
<path d="M175.485 108.551C174.645 114.307 174.171 116.717 176.389 120.362C179.721 125.846 186.851 125.961 189.357 120.661C191.619 115.89 192.602 107.281 187.612 103.594C182.694 99.9566 176.325 102.802 175.492 108.558L175.485 108.551Z" fill="#EEC1BB"/>
<path d="M181.51 106.233C177.181 109.064 181.826 115.583 175.745 113.236C169.663 110.883 175.149 103.08 179.486 102.36C183.822 101.64 181.51 106.233 181.51 106.233Z" fill="#263238"/>
<path d="M187.733 114.313C187.733 114.313 188.128 116.582 188.796 117.801C188.071 118.236 187.087 117.694 187.087 117.694L187.733 114.313Z" fill="#D4827D"/>
<path d="M186.04 108.865C185.968 108.85 185.889 108.865 185.832 108.922C184.891 109.692 183.893 109.35 183.886 109.342C183.742 109.292 183.584 109.364 183.541 109.514C183.498 109.663 183.584 109.827 183.735 109.884C183.786 109.906 185.035 110.341 186.205 109.378C186.32 109.285 186.334 109.1 186.234 108.972C186.184 108.907 186.119 108.872 186.047 108.865H186.04Z" fill="#263238"/>
<path d="M190.01 109.606C189.945 109.585 189.866 109.585 189.802 109.613C189.665 109.677 189.615 109.849 189.687 109.991C190.405 111.446 191.69 111.667 191.741 111.674C191.891 111.696 192.028 111.589 192.042 111.432C192.056 111.275 191.942 111.125 191.791 111.104C191.741 111.097 190.75 110.911 190.175 109.756C190.139 109.685 190.075 109.627 190.003 109.599L190.01 109.606Z" fill="#263238"/>
<path d="M184.059 103.773C184.059 103.773 181.416 108.202 177.467 109.257C173.511 110.313 173.245 108.387 173.245 108.387C173.245 108.387 173.54 102.746 178.745 101.576C178.745 101.576 179.514 99.9143 184.044 100.292C188.575 100.67 193.802 104.372 192.065 109.714C192.065 109.714 190.679 108.665 188.762 108.452C188.762 108.452 188.216 105.656 185.638 103.915C185.638 103.915 187.261 105.627 187.498 108.166C187.498 108.166 186.478 104.928 184.059 103.773Z" fill="#263238"/>
<path d="M185.071 112.766L186.249 112.724C186.249 112.724 185.509 113.474 185.071 112.766Z" fill="#263238"/>
<path d="M185.07 112.767C185.07 112.767 184.237 113.53 182.995 112.866C182.995 112.866 184.022 113.708 184.675 113.608C185.336 113.508 185.594 112.945 185.594 112.945L185.077 112.767H185.07Z" fill="#263238"/>
<path d="M189.854 113.501L191.032 113.458C191.032 113.458 190.292 114.208 189.854 113.501Z" fill="#263238"/>
<path d="M189.853 113.501C189.853 113.501 189.537 114.243 188.295 113.572C188.295 113.572 188.805 114.435 189.458 114.343C190.119 114.243 190.377 113.679 190.377 113.679L189.86 113.501H189.853Z" fill="#263238"/>
<path d="M186.139 119.834C186.139 119.834 185.845 118.244 183.54 117.238" stroke="#263238" stroke-width="0.5" stroke-linecap="round" stroke-linejoin="round"/>
<path d="M181.437 101.69C181.437 102.367 182.564 102.916 183.957 102.916C185.35 102.916 186.477 102.367 186.477 101.69C186.477 101.012 185.35 100.463 183.957 100.463C182.564 100.463 181.437 101.012 181.437 101.69Z" stroke="#C61818" stroke-width="0.75" stroke-miterlimit="10"/>
<path d="M188.288 101.668C187.943 102.253 188.647 103.295 189.853 103.986C191.059 104.678 192.316 104.764 192.653 104.179C192.998 103.594 192.294 102.553 191.088 101.861C189.882 101.169 188.625 101.084 188.288 101.668Z" stroke="#C61818" stroke-width="0.75" stroke-miterlimit="10"/>
<path d="M188.208 101.968C188.208 101.968 187.353 100.904 186.484 101.69" stroke="#C61818" stroke-width="0.75" stroke-miterlimit="10"/>
<path d="M181.437 101.689C181.437 101.689 180.009 101.946 179.484 102.353L175.98 112.067" stroke="#C61818" stroke-width="0.75" stroke-miterlimit="10"/>
<path d="M173.166 113.587C173.346 114.885 174.021 115.876 174.789 116.383C175.938 117.146 176.986 115.89 177.058 114.307C177.122 112.881 176.605 110.769 175.263 110.662C173.934 110.555 172.965 112.103 173.166 113.587Z" fill="#EEC1BB"/>
<path d="M174.15 285.83H175.148L175.428 284.603L178.731 286.087H187.096C187.096 286.087 188.424 284.76 184.439 283.698C184.26 283.648 184.073 283.583 183.872 283.484C181.747 282.492 178.724 279.154 178.724 279.154H174.136C174.136 279.154 173.978 279.383 173.762 279.81C173.259 280.816 172.398 282.92 174.15 285.83Z" fill="#263238"/>
<path d="M173.763 279.81V279.825C174.366 279.154 177.13 282.1 179.148 283.105C180.95 283.997 182.982 284.389 183.88 283.483C181.754 282.492 178.416 278.17 178.416 278.17H174.725C174.725 278.17 173.985 279.375 173.77 279.803L173.763 279.81Z" fill="#FFC2BC"/>
<path d="M209.001 285.83H209.999L210.28 284.603L213.582 286.087H221.947C221.947 286.087 223.276 284.76 219.291 283.698C219.111 283.648 218.925 283.583 218.724 283.484C216.598 282.492 213.575 279.154 213.575 279.154H208.987C208.987 279.154 208.829 279.383 208.614 279.81C208.111 280.816 207.249 282.92 209.001 285.83Z" fill="#263238"/>
<path d="M208.614 279.81V279.825C209.217 279.154 211.982 282.1 213.999 283.105C215.802 283.997 217.834 284.389 218.731 283.483C216.606 282.492 213.267 278.17 213.267 278.17H209.576C209.576 278.17 208.837 279.375 208.621 279.803L208.614 279.81Z" fill="#FFC2BC"/>
<path d="M193.75 163.263H169.983L169.344 166.301C169.344 166.301 160.613 178.305 165.036 208.231C165.036 208.231 184.157 210.421 202.158 206.591C202.158 206.591 198.115 175.844 193.893 165.809L193.75 163.263Z" fill="#263238"/>
<path d="M177.069 165.873H169.092L169.573 163.619H177.069V165.873Z" fill="#263238"/>
<path d="M191.553 163.619H193.944L194.145 165.873H191.553V163.619Z" fill="#263238"/>
<path d="M190.762 163.619H177.845V165.88H190.762V163.619Z" fill="#263238"/>
<path opacity="0.6" d="M177.069 165.873H169.092L169.573 163.619H177.069V165.873Z" fill="white"/>
<path opacity="0.6" d="M191.553 163.619H193.944L194.145 165.873H191.553V163.619Z" fill="white"/>
<path opacity="0.6" d="M190.762 163.619H177.845V165.88H190.762V163.619Z" fill="white"/>
<path d="M183.576 166.044H187.166C187.38 166.044 187.554 165.872 187.554 165.659V163.826C187.554 163.613 187.38 163.441 187.166 163.441H183.576C183.362 163.441 183.188 163.613 183.188 163.826V165.659C183.188 165.872 183.362 166.044 183.576 166.044Z" fill="white"/>
<path d="M224.954 131.588L225.054 133.393C225.09 134.07 224.796 134.726 224.257 135.147L221.759 137.123C220.761 137.914 219.432 138.178 218.204 137.822L217.443 137.601C217.077 134.619 218.894 131.124 218.894 131.124L219.303 130.069C219.662 129.135 220.653 128.671 221.565 129.006L223.676 129.776C224.401 130.04 224.918 130.754 224.961 131.567L224.954 131.588Z" fill="#EEC1BB"/>
<path d="M167.871 137.636L165.387 140.297L162.867 143.021L160.354 145.774L157.862 148.549L158.236 147.957C158.307 147.786 158.279 147.679 158.257 147.736C158.243 147.786 158.236 147.95 158.257 148.156C158.314 148.584 158.494 149.176 158.745 149.783C159.262 151.002 159.988 152.322 160.799 153.598C161.603 154.889 162.486 156.173 163.398 157.457C164.296 158.741 165.272 160.017 166.206 161.258L166.242 161.301C166.852 162.107 166.68 163.255 165.868 163.854C165.186 164.354 164.274 164.325 163.635 163.833C162.278 162.785 161.065 161.686 159.83 160.538C158.616 159.383 157.446 158.163 156.326 156.865C155.22 155.545 154.143 154.169 153.209 152.5C152.75 151.658 152.305 150.753 151.989 149.611C151.831 149.041 151.709 148.399 151.701 147.636C151.694 146.887 151.824 145.974 152.24 145.068C152.297 144.947 152.362 144.833 152.434 144.726L152.613 144.476C154.107 142.358 155.672 140.282 157.331 138.285C158.157 137.28 159.011 136.303 159.88 135.333C160.777 134.37 161.625 133.428 162.637 132.466C164.109 131.068 166.443 131.118 167.85 132.58C169.2 133.985 169.207 136.181 167.9 137.594L167.857 137.644L167.871 137.636Z" fill="#EBC0BB"/>
<path d="M166.157 129.435C166.157 129.435 160.815 132.18 153.44 142.401L159.3 147.144L168.225 139.691C168.225 139.691 169.74 136.403 169.101 133.051C168.462 129.698 166.164 129.442 166.164 129.442L166.157 129.435Z" fill="#D70015"/>
<path d="M160.124 146.802L152.887 141.117L151.788 144.27L158.674 148.371L160.124 146.802Z" fill="#D70015"/>
<path opacity="0.6" d="M160.124 146.802L152.887 141.117L151.788 144.27L158.674 148.371L160.124 146.802Z" fill="white"/>
<path d="M169.796 167.113L169.94 165.309C169.99 164.631 169.71 163.968 169.186 163.533L166.737 161.493C165.761 160.68 164.44 160.388 163.205 160.709L162.436 160.908C161.998 163.883 163.729 167.413 163.729 167.413L164.109 168.476C164.447 169.424 165.423 169.909 166.35 169.595L168.475 168.875C169.207 168.625 169.739 167.927 169.803 167.113H169.796Z" fill="#EEC1BB"/>
<path d="M177.063 100.235C177.063 100.235 175.139 92.3038 167.822 93.7088C160.505 95.1139 165.043 107.174 163.528 111.682C162.013 116.19 161.69 123.236 167.822 124.556C167.822 124.556 165.043 122.38 166.558 118.536C166.558 118.536 166.178 120.276 167.219 121.717C167.219 121.717 165.955 119.321 167.815 117.238C169.682 115.155 173.394 107.403 173.76 104.978C174.126 102.553 177.056 100.242 177.056 100.242L177.063 100.235Z" fill="#263238"/>
<path d="M222.553 140.185L221.853 140.308C221.351 140.397 220.868 140.061 220.78 139.563L214.145 102.304L216.663 101.862L223.297 139.12C223.385 139.619 223.048 140.098 222.546 140.187L222.553 140.185Z" fill="#263238"/>
<path d="M215.489 109.881C223.728 108.434 229.161 100.258 227.623 91.6194C226.085 82.9813 218.158 77.1522 209.919 78.5997C201.679 80.0472 196.247 88.2233 197.785 96.8614C199.323 105.499 207.249 111.329 215.489 109.881Z" fill="#F53C14"/>
<path opacity="0.6" d="M215.489 109.881C223.728 108.434 229.161 100.258 227.623 91.6194C226.085 82.9813 218.158 77.1522 209.919 78.5997C201.679 80.0472 196.247 88.2233 197.785 96.8614C199.323 105.499 207.249 111.329 215.489 109.881Z" fill="white"/>
<path d="M216.9 109.633C225.139 108.186 230.572 100.009 229.034 91.3714C227.496 82.7333 219.569 76.9041 211.33 78.3517C203.091 79.7992 197.658 87.9752 199.196 96.6133C200.734 105.251 208.66 111.081 216.9 109.633Z" fill="#F53C14"/>
<path opacity="0.7" d="M216.9 109.633C225.139 108.186 230.572 100.009 229.034 91.3714C227.496 82.7333 219.569 76.9041 211.33 78.3517C203.091 79.7992 197.658 87.9752 199.196 96.6133C200.734 105.251 208.66 111.081 216.9 109.633Z" fill="white"/>
<path d="M207.206 102.097L212.727 94.2516L204.829 88.7597L205.971 87.1479L213.869 92.6325L219.391 84.7871L221.021 85.9211L215.499 93.7666L223.397 99.2512L222.256 100.87L214.357 95.3856L208.836 103.231L207.206 102.097Z" fill="#F53C14"/>
</g>
</g>
<defs>
<clipPath id="clip0_43266_55502">
<rect width="300" height="300" fill="white"/>
</clipPath>
<clipPath id="clip1_43266_55502">
<rect width="300" height="300" fill="white"/>
</clipPath>
</defs>
</svg>
