<svg width="353" height="274" viewBox="0 0 353 274" fill="none" xmlns="http://www.w3.org/2000/svg">
<g clip-path="url(#clip0_28796_85879)">
<path d="M352.565 242.215H0V242.391H352.565V242.215Z" fill="#EBEBEB"/>
<path d="M317.238 253.541H279.816V253.717H317.238V253.541Z" fill="#EBEBEB"/>
<path d="M233.553 251.338H192.19V251.514H233.553V251.338Z" fill="#EBEBEB"/>
<path d="M281.622 250.318H268.09V250.494H281.622V250.318Z" fill="#EBEBEB"/>
<path d="M101.299 248.191H70.8442V248.367H101.299V248.191Z" fill="#EBEBEB"/>
<path d="M66.9165 248.191H56.0293V248.367H66.9165V248.191Z" fill="#EBEBEB"/>
<path d="M130.921 251.162H92.7031V251.338H130.921V251.162Z" fill="#EBEBEB"/>
<path d="M167.123 210.818H30.9623C28.7412 210.818 26.936 209.016 26.936 206.798V15.7189C26.936 13.5014 28.7412 11.6992 30.9623 11.6992H167.123C169.344 11.6992 171.149 13.5014 171.149 15.7189V206.798C171.149 209.016 169.344 210.818 167.123 210.818ZM30.9623 11.8752C28.8399 11.8752 27.1123 13.5999 27.1123 15.7189V206.798C27.1123 208.917 28.8399 210.642 30.9623 210.642H167.123C169.245 210.642 170.973 208.917 170.973 206.798V15.7189C170.973 13.5999 169.245 11.8752 167.123 11.8752H30.9623Z" fill="#EBEBEB"/>
<path d="M319.642 210.818H183.482C181.26 210.818 179.455 209.016 179.455 206.798V15.7189C179.455 13.5014 181.26 11.6992 183.482 11.6992H319.642C321.863 11.6992 323.668 13.5014 323.668 15.7189V206.798C323.668 209.016 321.863 210.818 319.642 210.818ZM183.482 11.8752C181.359 11.8752 179.632 13.5999 179.632 15.7189V206.798C179.632 208.917 181.359 210.642 183.482 210.642H319.642C321.765 210.642 323.492 208.917 323.492 206.798V15.7189C323.492 13.5999 321.765 11.8752 319.642 11.8752H183.482Z" fill="#EBEBEB"/>
<path d="M296.054 20.8789H195.813V114.535H296.054V20.8789Z" fill="#E6E6E6"/>
<path d="M301.477 20.8789H196.547V114.535H301.477V20.8789Z" fill="#F0F0F0"/>
<path d="M296.054 114.535H195.813V119.146H296.054V114.535Z" fill="#E6E6E6"/>
<path d="M310.495 114.535H205.565V119.146H310.495V114.535Z" fill="#F0F0F0"/>
<path d="M293.89 106.975V28.4473L204.12 28.4473V106.975H293.89Z" fill="#FAFAFA"/>
<path d="M218.567 106.975L227.861 28.4473H259.641L250.348 106.975H218.567Z" fill="white"/>
<path d="M293.896 106.975V28.4473H292.938V106.975H293.896Z" fill="#E6E6E6"/>
<g opacity="0.4">
<path d="M303.261 29.2696H201.221L200.523 26.9746H302.569L303.261 29.2696Z" fill="#E0E0E0"/>
<path d="M303.261 33.0918H201.222L200.523 30.7969H302.57L303.261 33.0918Z" fill="#E0E0E0"/>
<path d="M303.261 36.9141H201.222L200.523 34.6191H302.57L303.261 36.9141Z" fill="#E0E0E0"/>
<path d="M303.261 40.7364H201.222L200.523 38.4414H302.57L303.261 40.7364Z" fill="#E0E0E0"/>
<path d="M303.261 44.5586H201.222L200.523 42.2637H302.57L303.261 44.5586Z" fill="#E0E0E0"/>
<path d="M303.261 48.3828H201.222L200.523 46.0879H302.57L303.261 48.3828Z" fill="#E0E0E0"/>
<path d="M303.261 52.2051H201.222L200.523 49.9102H302.57L303.261 52.2051Z" fill="#E0E0E0"/>
<path d="M303.261 56.0274H201.222L200.523 53.7324H302.57L303.261 56.0274Z" fill="#E0E0E0"/>
<path d="M303.261 59.8496H201.222L200.523 57.5547H302.57L303.261 59.8496Z" fill="#E0E0E0"/>
<path d="M303.261 63.6719H201.222L200.523 61.377H302.57L303.261 63.6719Z" fill="#E0E0E0"/>
<path d="M303.261 67.4942H201.222L200.523 65.1992H302.57L303.261 67.4942Z" fill="#E0E0E0"/>
<path d="M303.261 71.3184H201.222L200.523 69.0234H302.57L303.261 71.3184Z" fill="#E0E0E0"/>
<path d="M303.261 75.1406H201.222L200.523 72.8457H302.57L303.261 75.1406Z" fill="#E0E0E0"/>
<path d="M303.261 78.9629H201.222L200.523 76.668H302.57L303.261 78.9629Z" fill="#E0E0E0"/>
<path d="M303.261 82.7852H201.222L200.523 80.4902H302.57L303.261 82.7852Z" fill="#E0E0E0"/>
<path d="M303.261 86.6075H201.222L200.523 84.3125H302.57L303.261 86.6075Z" fill="#E0E0E0"/>
<path d="M303.261 90.4297H201.222L200.523 88.1348H302.57L303.261 90.4297Z" fill="#E0E0E0"/>
<path d="M303.261 94.252H201.222L200.523 91.957H302.57L303.261 94.252Z" fill="#E0E0E0"/>
</g>
<path d="M140.102 23.4355H57.1572V105.624H140.102V23.4355Z" fill="#E6E6E6"/>
<path d="M144.579 23.4355H58.0034V105.624H144.579V23.4355Z" fill="#F0F0F0"/>
<path d="M140.574 101.64V27.4277L61.9944 27.4277V101.64H140.574Z" fill="white"/>
<path d="M140.581 101.64V27.4277H140.087V101.64H140.581Z" fill="#E6E6E6"/>
<path d="M76.329 145.229H53.8071V237.843H76.329V145.229Z" fill="#F0F0F0"/>
<path d="M144.621 237.844H58.1294V242.215H144.621V237.844Z" fill="#F0F0F0"/>
<path d="M76.3289 237.836H148.943V145.221H76.3289L76.3289 237.836Z" fill="#F5F5F5"/>
<path d="M85.1856 202.842H140.087V180.223H85.1856V202.842Z" fill="#F0F0F0"/>
<path d="M85.1856 229.592H140.087V206.973H85.1856V229.592Z" fill="#F0F0F0"/>
<path d="M85.1856 176.098H140.087V153.479H85.1856V176.098Z" fill="#F0F0F0"/>
<path d="M151.947 137.617H76.3286V145.22H151.947V137.617Z" fill="#F0F0F0"/>
<path d="M50.6619 145.227H76.3286V137.624H50.6619V145.227Z" fill="#E6E6E6"/>
<path d="M62.473 137.617H84.8608V121.25H62.473V137.617Z" fill="#F0F0F0"/>
<path d="M124.581 121.258H84.8608V137.625H124.581V121.258Z" fill="#F5F5F5"/>
<g style="mix-blend-mode:multiply" opacity="0.7">
<path d="M62.4732 126.516L124.814 126.516V124.678L62.4732 124.678V126.516Z" fill="#E6E6E6"/>
</g>
<path d="M61.239 125.453H84.8608V120.138H61.239V125.453Z" fill="#F0F0F0"/>
<path d="M125.815 120.146H84.8608V125.461H125.815V120.146Z" fill="#F5F5F5"/>
<path d="M302.013 137.619H226.367L234.603 242.208H310.249L302.013 137.619Z" fill="#F0F0F0"/>
<path d="M305.919 137.619H230.273L238.509 242.208H314.155L305.919 137.619Z" fill="#F5F5F5"/>
<path d="M251.991 227.614L246.054 152.219H292.437L298.375 227.614H251.991Z" fill="white"/>
<path d="M237.628 237.1C244.449 230.29 244.449 219.249 237.629 212.439C230.808 205.63 219.749 205.63 212.928 212.439C206.107 219.249 206.107 230.29 212.928 237.1C219.749 243.909 230.808 243.909 237.628 237.1Z" fill="#E6E6E6"/>
<g style="mix-blend-mode:multiply" opacity="0.7">
<path d="M233.835 214.38C232.798 213.302 232.382 212.021 232.904 211.507C233.433 211 234.702 211.458 235.738 212.535C236.775 213.612 237.191 214.893 236.669 215.407C236.14 215.914 234.871 215.457 233.835 214.38Z" fill="#E6E6E6"/>
</g>
<g style="mix-blend-mode:multiply" opacity="0.7">
<path d="M226.578 211.113C225.105 210.831 224.026 210.021 224.167 209.303C224.308 208.585 225.612 208.233 227.079 208.515C228.546 208.797 229.632 209.606 229.491 210.324C229.35 211.042 228.045 211.394 226.578 211.113Z" fill="#E6E6E6"/>
</g>
<g style="mix-blend-mode:multiply" opacity="0.7">
<path d="M228.066 217.196C226.656 216.703 225.753 215.598 226.056 214.732C226.36 213.866 227.756 213.564 229.166 214.064C230.576 214.563 231.479 215.662 231.176 216.527C230.872 217.393 229.476 217.696 228.066 217.196Z" fill="#E6E6E6"/>
</g>
<path d="M176.282 274C251.789 274 313 270.433 313 266.031C313 261.63 251.789 258.062 176.282 258.062C100.775 258.062 39.5649 261.63 39.5649 266.031C39.5649 270.433 100.775 274 176.282 274Z" fill="#F5F5F5"/>
<path d="M146.201 85.068C137.238 81.9353 140.827 56.7542 119.286 70.2986C114.406 73.368 108.476 93.5016 112.573 98.1759C118.292 104.702 156.763 88.7638 146.201 85.075V85.068Z" fill="#263238"/>
<path d="M120.985 108.976C120.809 109.306 120.703 109.489 120.555 109.729L120.146 110.384C119.871 110.813 119.575 111.221 119.279 111.623C118.673 112.425 118.031 113.199 117.34 113.939C115.951 115.403 114.364 116.733 112.573 117.817C110.796 118.916 108.78 119.739 106.664 120.155C105.607 120.352 104.535 120.493 103.463 120.479C102.927 120.5 102.398 120.443 101.862 120.422L101.073 120.331L100.678 120.281C100.523 120.26 100.304 120.218 100.128 120.183C98.6117 119.838 97.4482 119.049 96.5739 118.254C95.6854 117.444 95.0296 116.586 94.4514 115.727C93.3091 114.002 92.5264 112.242 91.8425 110.482C90.5098 106.941 89.6777 103.407 89.1348 99.7395L92.1668 99.0566C93.3021 102.302 94.6207 105.59 96.1438 108.581C96.9123 110.074 97.7655 111.496 98.6963 112.671C99.1617 113.256 99.6553 113.77 100.128 114.122C100.6 114.481 101.016 114.65 101.256 114.664L102.18 114.706C102.539 114.685 102.899 114.713 103.259 114.664C103.971 114.621 104.669 114.488 105.36 114.326C106.728 113.967 108.039 113.368 109.28 112.573C110.521 111.784 111.657 110.757 112.707 109.623C113.236 109.06 113.737 108.462 114.202 107.842C114.435 107.532 114.66 107.216 114.872 106.899L115.182 106.427L115.429 106.026L120.971 108.962L120.985 108.976Z" fill="#FF8B7B"/>
<path d="M122.692 101.659C116.367 101.688 111.346 107.517 111.346 107.517L119.074 117.935C119.074 117.935 125.329 112.064 125.992 108.734C126.683 105.271 126.499 101.631 122.685 101.652L122.692 101.659Z" fill="#263238"/>
<path d="M91.878 100.548L94.6492 95.9727L88.2325 96.1346C88.2325 96.1346 87.7248 99.1546 89.4171 101.062L91.878 100.548Z" fill="#FF8B7B"/>
<path d="M94.3882 90.6152L89.6497 91.629L88.2324 96.1414L94.642 95.9795L94.3882 90.6152Z" fill="#FF8B7B"/>
<path d="M154.494 259.533L148.437 260.11L145.348 246.017L151.405 245.439L154.494 259.533Z" fill="#FF8B7B"/>
<path d="M209.479 241.286L204.889 245.355L193.966 236.062L198.549 231.986L209.479 241.286Z" fill="#FF8B7B"/>
<path d="M203.232 244.581L205.89 238.231C205.989 237.999 206.228 237.879 206.468 237.943L211.806 239.322C212.363 239.463 212.666 240.118 212.434 240.653C211.467 242.849 210.889 243.863 209.719 246.658C209 248.375 207.66 252.283 206.666 254.655C205.692 256.978 203.267 256.175 203.471 255.098C204.374 250.269 203.817 247.7 203.189 245.679C203.076 245.313 203.098 244.926 203.239 244.588L203.232 244.581Z" fill="#263238"/>
<path d="M147.675 258.279H154.959C155.227 258.279 155.46 258.462 155.537 258.723L157.124 264.474C157.286 265.073 156.849 265.636 156.235 265.629C153.69 265.587 152.449 265.439 149.241 265.439C147.273 265.439 142.175 265.643 139.453 265.643C136.732 265.643 136.238 262.954 137.338 262.714C142.274 261.623 145.123 260.117 146.646 258.681C146.921 258.42 147.287 258.279 147.675 258.279Z" fill="#263238"/>
<path opacity="0.2" d="M145.348 246.024L146.942 253.282H153.126L151.412 245.439L145.348 246.024Z" fill="black"/>
<path opacity="0.2" d="M198.556 231.986L193.966 236.062L199.6 240.849L204.19 236.78L198.556 231.986Z" fill="black"/>
<path d="M116.769 103.357C116.769 103.357 114.23 105.131 129.532 138.21C139.065 135.563 148.916 132.825 153.555 131.537C150.432 121.885 148.739 115.873 147.83 94.543C147.83 94.543 142.492 94.8457 137.253 96.0354C133.156 96.9646 129.807 97.7531 126.345 99.0695C121.775 100.801 116.769 103.364 116.769 103.364V103.357Z" fill="#263238"/>
<path d="M132.747 84.0684C133.036 87.7642 134.136 94.3745 137.246 96.0288C137.246 96.0288 138.339 103.913 132.253 111.087C123.912 106.764 126.337 99.063 126.337 99.063C129.99 97.0426 129.08 94.1704 127.642 91.6361L132.747 84.0684Z" fill="#FF8B7B"/>
<path opacity="0.2" d="M134.031 91.1005L129.842 89.6855C129.856 90.115 130.054 91.2976 130.463 92.072C131.175 93.4448 133.502 93.9587 135.166 93.7897C134.707 93.0013 134.334 92.079 134.031 91.1076V91.1005Z" fill="black"/>
<path d="M120.598 80.2044C122.219 86.0685 122.776 88.5888 126.422 91.0034C131.908 94.6429 138.776 91.3765 138.945 85.1463C139.1 79.5357 136.428 70.8909 130.103 69.7505C123.869 68.6241 118.983 74.3404 120.598 80.2044Z" fill="#FF8B7B"/>
<path d="M129.356 68.7927C128.876 72.7772 125.901 86.4765 120.288 86.3779C115.655 82.3442 117.947 74.7413 119.378 71.6579C120.81 68.5674 129.356 68.7927 129.356 68.7927Z" fill="#263238"/>
<path d="M126.994 71.6156C129.814 73.1151 135.363 73.7698 134.475 71.4818C133.587 69.1939 133.847 67.3003 130.026 67.3425C126.204 67.3847 126.986 71.6156 126.986 71.6156H126.994Z" fill="#263238"/>
<path d="M120.802 85.7584C121.183 86.9622 122.086 87.8773 123.016 88.342C124.412 89.0389 125.407 87.8633 125.266 86.392C125.139 85.0685 124.257 83.1115 122.734 83.027C121.232 82.9425 120.365 84.3856 120.802 85.7654V85.7584Z" fill="#FF8B7B"/>
<path d="M129.531 138.211C129.531 138.211 128.142 186.665 132.034 204.955C136.082 223.976 143.972 251.17 143.972 251.17L155.48 250.614C155.48 250.614 149.909 216.113 148.563 201.407C146.701 181.132 147.131 133.318 147.131 133.318L129.538 138.211H129.531Z" fill="#407BFF"/>
<path opacity="0.4" d="M129.531 138.211C129.531 138.211 128.142 186.665 132.034 204.955C136.082 223.976 143.972 251.17 143.972 251.17L155.48 250.614C155.48 250.614 149.909 216.113 148.563 201.407C146.701 181.132 147.131 133.318 147.131 133.318L129.538 138.211H129.531Z" fill="#FAFAFA"/>
<path opacity="0.2" d="M147.089 151.551C145.298 147.067 143.725 144.596 143.528 149.066C143.119 158.52 144.769 169.326 147.35 174.683C147.18 166.672 147.117 158.492 147.082 151.551H147.089Z" fill="black"/>
<path d="M156.285 251.169L143.162 251.802L141.618 247.015L155.833 245.91L156.285 251.169Z" fill="#263238"/>
<path d="M135.878 136.45C135.878 136.45 150.615 176.027 160.543 197.878C168.568 215.527 196.991 240.194 196.991 240.194L203.45 234.745C203.45 234.745 182.903 206.629 177.354 194.661C159.606 156.337 164.238 140.103 153.556 131.543L135.878 136.457V136.45Z" fill="#407BFF"/>
<path opacity="0.4" d="M135.878 136.45C135.878 136.45 150.615 176.027 160.543 197.878C168.568 215.527 196.991 240.194 196.991 240.194L203.45 234.745C203.45 234.745 182.903 206.629 177.354 194.661C159.606 156.337 164.238 140.103 153.556 131.543L135.878 136.457V136.45Z" fill="#FAFAFA"/>
<path d="M203.979 234.677L196.758 241.047L193.085 238.394L201.596 231.143L203.979 234.677Z" fill="#263238"/>
<path d="M153.52 130.031L155.206 131.875C155.333 132.016 155.185 132.241 154.91 132.319L129.715 139.323C129.497 139.387 129.292 139.323 129.236 139.196L128.418 137.113C128.361 136.965 128.517 136.789 128.749 136.725L153.076 129.967C153.253 129.918 153.436 129.946 153.52 130.038V130.031Z" fill="#407BFF"/>
<path d="M151.01 133.655L151.659 133.472C151.786 133.437 151.87 133.339 151.835 133.261L150.749 130.558C150.714 130.48 150.587 130.445 150.453 130.48L149.804 130.664C149.678 130.699 149.593 130.797 149.628 130.875L150.714 133.578C150.742 133.655 150.876 133.691 151.01 133.655Z" fill="#263238"/>
<path d="M131.605 139.048L132.253 138.865C132.38 138.83 132.465 138.731 132.43 138.654L131.344 135.95C131.309 135.873 131.182 135.838 131.048 135.873L130.399 136.056C130.272 136.091 130.187 136.19 130.223 136.267L131.309 138.971C131.337 139.048 131.471 139.083 131.605 139.048Z" fill="#263238"/>
<path d="M141.307 136.353L141.956 136.17C142.083 136.134 142.167 136.036 142.132 135.958L141.046 133.255C141.011 133.178 140.884 133.143 140.75 133.178L140.101 133.361C139.974 133.396 139.89 133.495 139.925 133.572L141.011 136.275C141.039 136.353 141.173 136.388 141.307 136.353Z" fill="#263238"/>
<path d="M129.976 79.9718C130.075 80.4575 130.42 80.7955 130.738 80.7251C131.055 80.6617 131.231 80.2112 131.125 79.7254C131.027 79.2397 130.681 78.9018 130.364 78.9722C130.047 79.0355 129.87 79.4861 129.976 79.9718Z" fill="#263238"/>
<path d="M135.455 78.8156C135.553 79.3013 135.899 79.6392 136.216 79.5688C136.533 79.5054 136.71 79.0549 136.604 78.5692C136.505 78.0834 136.16 77.7455 135.842 77.8159C135.525 77.8793 135.349 78.3298 135.455 78.8156Z" fill="#263238"/>
<path d="M135.709 77.88L136.802 77.3027C136.802 77.3027 136.393 78.3376 135.709 77.88Z" fill="#263238"/>
<path d="M134.179 79.9492C134.179 79.9492 135.441 81.857 136.555 82.6736C136.041 83.4057 134.898 83.3635 134.898 83.3635L134.179 79.9492Z" fill="#FF5652"/>
<path d="M133.65 85.6033C133.699 85.5681 133.72 85.5118 133.706 85.4555C133.692 85.3781 133.614 85.3288 133.537 85.3429C131.414 85.7864 130.103 84.5122 130.089 84.5051C130.032 84.4488 129.941 84.4488 129.884 84.5051C129.828 84.5614 129.828 84.653 129.884 84.7093C129.941 84.7656 131.316 86.1102 133.593 85.6315C133.614 85.6315 133.629 85.6174 133.65 85.6104V85.6033Z" fill="#263238"/>
<path d="M128.058 78.5075C128.1 78.4793 128.135 78.4441 128.157 78.3948C128.707 77.2262 129.771 77.0643 129.778 77.0643C129.941 77.0432 130.046 76.8954 130.025 76.7334C130.004 76.5715 129.856 76.4659 129.694 76.4871C129.637 76.4941 128.312 76.6912 127.628 78.1484C127.557 78.2963 127.628 78.4652 127.769 78.5356C127.868 78.5779 127.973 78.5708 128.058 78.5075Z" fill="#263238"/>
<path d="M137.514 75.7249C137.514 75.7249 137.542 75.7038 137.556 75.6897C137.669 75.5771 137.669 75.3941 137.556 75.2814C136.407 74.1551 135.095 74.4296 135.039 74.4437C134.884 74.4789 134.785 74.6338 134.82 74.7886C134.856 74.9435 135.011 75.0421 135.166 75.0069C135.215 74.9998 136.238 74.7957 137.154 75.6897C137.253 75.7883 137.408 75.8024 137.521 75.7179L137.514 75.7249Z" fill="#263238"/>
<path d="M152.138 100.068C152.681 100.695 153.358 101.434 153.993 102.11C154.641 102.8 155.311 103.469 155.995 104.13C157.356 105.454 158.745 106.742 160.205 107.932C163.124 110.304 166.212 112.451 169.505 113.944C172.608 115.345 176.38 115.95 180.174 116.217C182.078 116.358 184.01 116.408 185.949 116.372C187.881 116.358 189.863 116.26 191.752 116.119L192.33 119.167C188.304 120.216 184.278 120.758 180.104 120.941C178.023 120.997 175.915 120.962 173.786 120.702C171.656 120.448 169.484 120.005 167.348 119.181C165.31 118.4 163.378 117.442 161.552 116.351C159.718 115.267 157.984 114.063 156.334 112.768C154.684 111.473 153.097 110.114 151.595 108.671C150.848 107.946 150.114 107.207 149.395 106.446C148.662 105.672 148.006 104.933 147.273 104.032L152.138 100.075V100.068Z" fill="#FF8B7B"/>
<path d="M190.97 119.47L197.041 118.52L192.028 113.754C192.028 113.754 189.644 115.683 189.651 118.231L190.97 119.47Z" fill="#FF8B7B"/>
<path d="M200.313 113.692L196.089 111.312L192.035 113.755L197.041 118.521L200.313 113.692Z" fill="#FF8B7B"/>
<path d="M147.823 94.5439C150.432 94.6073 155.628 102.076 155.628 102.076L148.147 111.334C148.147 111.334 143.789 105.237 143.937 101.851C144.085 98.3242 144.84 94.4735 147.823 94.5439Z" fill="#263238"/>
<path d="M202.076 247.91C202.005 247.889 201.935 247.854 201.864 247.812C201.653 247.685 201.603 247.509 201.596 247.389C201.575 246.608 203.401 245.355 203.613 245.214C203.662 245.179 203.726 245.179 203.775 245.214C203.824 245.242 203.853 245.305 203.838 245.362C203.704 246.164 203.373 247.565 202.668 247.896C202.478 247.981 202.28 247.995 202.076 247.917V247.91ZM203.486 245.65C202.767 246.171 201.878 246.967 201.885 247.375C201.885 247.424 201.899 247.495 202.005 247.558C202.203 247.678 202.379 247.699 202.541 247.621C202.922 247.445 203.267 246.72 203.486 245.65Z" fill="#407BFF"/>
<path d="M201.173 246.051C201.117 246.03 201.06 246.002 201.011 245.973C200.898 245.896 200.729 245.72 200.828 245.368C200.891 245.143 201.032 244.981 201.244 244.875C202.047 244.488 203.683 245.164 203.747 245.192C203.796 245.213 203.831 245.255 203.831 245.305C203.831 245.354 203.817 245.41 203.775 245.438C203.281 245.819 201.843 246.283 201.166 246.051H201.173ZM203.331 245.34C202.767 245.15 201.836 244.91 201.371 245.136C201.237 245.199 201.145 245.305 201.11 245.445C201.06 245.629 201.117 245.692 201.18 245.734C201.533 245.973 202.724 245.713 203.38 245.361C203.366 245.361 203.352 245.354 203.338 245.347L203.331 245.34Z" fill="#407BFF"/>
<path d="M144.445 259.485C143.881 259.485 143.359 259.401 143.021 259.147C142.795 258.971 142.668 258.739 142.654 258.45C142.64 258.232 142.746 258.112 142.837 258.056C143.5 257.613 145.975 258.732 146.469 258.964C146.525 258.992 146.561 259.049 146.553 259.112C146.546 259.175 146.504 259.225 146.441 259.239C145.912 259.358 145.15 259.492 144.445 259.492V259.485ZM143.282 258.232C143.155 258.232 143.056 258.253 142.993 258.295C142.964 258.317 142.929 258.345 142.936 258.436C142.95 258.64 143.028 258.802 143.19 258.922C143.62 259.246 144.621 259.288 145.926 259.049C145.03 258.661 143.86 258.239 143.275 258.239L143.282 258.232Z" fill="#407BFF"/>
<path d="M146.406 259.23C146.406 259.23 146.37 259.23 146.349 259.216C145.524 258.879 143.867 257.555 143.959 256.865C143.98 256.717 144.079 256.527 144.459 256.485C145.898 256.309 146.518 258.942 146.547 259.047C146.561 259.097 146.547 259.153 146.497 259.188C146.469 259.209 146.434 259.223 146.406 259.223V259.23ZM144.593 256.767C144.593 256.767 144.53 256.767 144.495 256.767C144.339 256.788 144.262 256.83 144.248 256.9C144.191 257.302 145.341 258.344 146.18 258.808C145.989 258.175 145.468 256.76 144.593 256.76V256.767Z" fill="#407BFF"/>
<path d="M130.23 79.0284L131.323 78.4512C131.323 78.4512 130.914 79.486 130.23 79.0284Z" fill="#263238"/>
<path d="M166.362 145.125C166.362 145.125 153.832 155.347 158.492 177.832C161.242 191.087 169.528 197.824 176.784 196.353C184.039 194.882 189.039 185.449 186.387 172.172C181.896 149.659 166.362 145.125 166.362 145.125Z" fill="#407BFF"/>
<path opacity="0.2" d="M166.362 145.125C166.362 145.125 153.832 155.347 158.492 177.832C161.242 191.087 169.528 197.824 176.784 196.353C184.039 194.882 189.039 185.449 186.387 172.172C181.896 149.659 166.362 145.125 166.362 145.125Z" fill="white"/>
<path d="M245.35 101.512C245.35 101.512 222.335 96.4014 200.765 121.984C188.045 137.07 187.784 152.614 196.005 159.576C204.227 166.538 219.55 163.757 232.383 148.77C254.15 123.349 245.35 101.519 245.35 101.519V101.512Z" fill="#407BFF"/>
<path d="M215.136 0C215.136 0 209.996 1.41498 208.395 8.80669C207.45 13.1643 209.051 16.304 211.434 16.8249C213.817 17.3459 216.581 15.1706 217.555 10.8201C219.205 3.43538 215.129 0.00703972 215.129 0.00703972L215.136 0Z" fill="#407BFF"/>
<path d="M174.379 227.559C171.361 216.972 170.064 206.074 170.268 195.381C170.466 184.68 172.137 174.198 174.88 164.202C176.255 159.204 177.891 154.311 179.745 149.545C180.669 147.159 181.656 144.807 182.686 142.484C183.186 141.316 183.743 140.175 184.265 139.021L185.055 137.352L185.831 135.733C189.941 127.103 193.848 118.43 197.381 109.616C200.913 100.809 204.079 91.8687 206.639 82.7734C209.191 73.6781 211.159 64.4138 212.104 55.0228C213.042 45.6459 212.971 36.1282 211.229 26.8006C209.495 17.4941 206.011 8.39874 200.61 0.359375C206.872 7.74404 211.504 16.6 214.367 26.0332C217.244 35.4735 218.443 45.4136 218.556 55.3044C218.661 65.2093 217.695 75.1071 216.102 84.8571C214.494 94.6142 212.252 104.237 209.622 113.727C206.992 123.217 203.974 132.572 200.779 141.823L200.18 143.554L199.877 144.42L199.602 145.237C199.249 146.328 198.854 147.412 198.53 148.51C197.839 150.7 197.197 152.889 196.619 155.092C195.456 159.492 194.511 163.92 193.813 168.341C192.424 177.19 192.057 186.06 192.875 194.663C193.686 203.258 195.695 211.593 198.875 219.302L174.386 227.573L174.379 227.559Z" fill="#407BFF"/>
<path opacity="0.2" d="M174.379 227.559C171.361 216.972 170.064 206.074 170.268 195.381C170.466 184.68 172.137 174.198 174.88 164.202C176.255 159.204 177.891 154.311 179.745 149.545C180.669 147.159 181.656 144.807 182.686 142.484C183.186 141.316 183.743 140.175 184.265 139.021L185.055 137.352L185.831 135.733C189.941 127.103 193.848 118.43 197.381 109.616C200.913 100.809 204.079 91.8687 206.639 82.7734C209.191 73.6781 211.159 64.4138 212.104 55.0228C213.042 45.6459 212.971 36.1282 211.229 26.8006C209.495 17.4941 206.011 8.39874 200.61 0.359375C206.872 7.74404 211.504 16.6 214.367 26.0332C217.244 35.4735 218.443 45.4136 218.556 55.3044C218.661 65.2093 217.695 75.1071 216.102 84.8571C214.494 94.6142 212.252 104.237 209.622 113.727C206.992 123.217 203.974 132.572 200.779 141.823L200.18 143.554L199.877 144.42L199.602 145.237C199.249 146.328 198.854 147.412 198.53 148.51C197.839 150.7 197.197 152.889 196.619 155.092C195.456 159.492 194.511 163.92 193.813 168.341C192.424 177.19 192.057 186.06 192.875 194.663C193.686 203.258 195.695 211.593 198.875 219.302L174.386 227.573L174.379 227.559Z" fill="black"/>
<path d="M222.984 202.393L222.258 210.446L217.561 262.772C217.399 264.617 215.848 266.032 213.993 266.032H154.459C152.605 266.032 151.054 264.617 150.891 262.772L146.195 210.446L145.469 202.393H222.977H222.984Z" fill="#407BFF"/>
<path d="M222.132 231.495L220.449 250.279L221.152 250.342L222.834 231.558L222.132 231.495Z" fill="#407BFF"/>
<path d="M223.02 221.564L222.622 226.002L223.324 226.065L223.722 221.626L223.02 221.564Z" fill="#407BFF"/>
<path d="M172.532 36.6211C172.532 36.6211 159.233 54.2978 172.793 82.6397C180.789 99.352 194.01 105.596 203.163 101.274C212.315 96.9515 215.869 82.7876 208 66.0119C194.652 37.5715 172.532 36.6211 172.532 36.6211Z" fill="#407BFF"/>
<path opacity="0.2" d="M172.532 36.6211C172.532 36.6211 159.233 54.2978 172.793 82.6397C180.789 99.352 194.01 105.596 203.163 101.274C212.315 96.9515 215.869 82.7876 208 66.0119C194.652 37.5715 172.532 36.6211 172.532 36.6211Z" fill="black"/>
<path opacity="0.2" d="M222.984 202.393L222.257 210.446H146.202L145.476 202.393H222.984Z" fill="black"/>
<path d="M227.588 192.459H140.864C139.934 192.459 139.179 193.212 139.179 194.141V204.736C139.179 205.665 139.934 206.419 140.864 206.419H227.588C228.519 206.419 229.274 205.665 229.274 204.736V194.141C229.274 193.212 228.519 192.459 227.588 192.459Z" fill="#407BFF"/>
<path d="M261.206 76.6843C273.666 67.3244 276.166 49.6527 266.791 37.2136C257.415 24.7745 239.715 22.2783 227.255 31.6383C214.796 40.9982 212.295 58.6698 221.671 71.1089C231.046 83.5481 248.747 86.0442 261.206 76.6843Z" fill="#407BFF"/>
<path opacity="0.1" d="M266.871 61.1475C269.558 50.6443 264.509 39.3666 254.327 34.5796C242.784 29.1379 229.006 34.0728 223.548 45.5968C219.874 53.3545 220.918 62.126 225.508 68.6871C220.199 61.8726 218.838 52.3831 222.779 44.041C228.371 32.2213 242.495 27.1597 254.334 32.7422C265.151 37.839 270.312 50.06 266.864 61.1475H266.871Z" fill="black"/>
<path d="M231.303 62.5064C231.079 62.3908 230.917 62.2085 230.819 61.9593C230.743 61.7217 230.769 61.4798 230.896 61.2335L232.493 58.1436L230.004 56.8612C229.757 56.7341 229.595 56.5517 229.519 56.3141C229.444 56.0765 229.469 55.8346 229.596 55.5883L230.256 54.312C230.383 54.0657 230.566 53.9047 230.804 53.8288C231.042 53.753 231.284 53.7786 231.531 53.9057L234.02 55.1881L234.906 53.4753L232.416 52.1928C232.17 52.0657 232.008 51.8834 231.932 51.6458C231.868 51.3858 231.894 51.1438 232.009 50.9199L233.311 48.401C233.439 48.1547 233.621 47.9937 233.859 47.9178C234.109 47.8195 234.357 47.834 234.604 47.9611L237.093 49.2435L242.179 39.403C242.306 39.1567 242.489 38.9956 242.727 38.9198C242.988 38.8555 243.23 38.8811 243.454 38.9966L252.907 43.8665C254.769 44.8254 256.233 45.9483 257.3 47.2353C258.401 48.5113 259.038 49.9167 259.21 51.4515C259.383 52.9862 259.017 54.6268 258.115 56.3732C257.27 58.0077 256.194 59.1547 254.888 59.8142C253.581 60.4737 252.1 60.7028 250.443 60.5015C248.809 60.3117 247.061 59.7373 245.2 58.7784L241.163 56.6987L240.278 58.4116L244.785 60.7338C245.032 60.8609 245.194 61.0433 245.269 61.2809C245.368 61.53 245.353 61.7778 245.226 62.0241L244.567 63.3003C244.439 63.5466 244.245 63.7019 243.985 63.7662C243.747 63.8421 243.505 63.8164 243.258 63.6894L238.75 61.3671L237.153 64.4569C237.026 64.7032 236.843 64.8643 236.605 64.9402C236.367 65.016 236.125 64.9904 235.878 64.8633L231.303 62.5064ZM243.249 52.415L247.219 54.46C248.183 54.9568 249.073 55.1033 249.888 54.8995C250.704 54.6958 251.372 54.0901 251.892 53.0826C252.332 52.2318 252.456 51.3882 252.263 50.5519C252.071 49.7155 251.425 49.0143 250.326 48.4482L246.356 46.4032L243.249 52.415Z" fill="white"/>
</g>
<defs>
<clipPath id="clip0_28796_85879">
<rect width="353" height="274" fill="white"/>
</clipPath>
</defs>
</svg>
