<svg width="300" height="300" viewBox="0 0 300 300" fill="none" xmlns="http://www.w3.org/2000/svg">
<g clip-path="url(#clip0_43266_94523)">
<path d="M269.889 295.536C269.889 298.004 216.414 300 150.444 300C84.4753 300 31 298.004 31 295.536C31 293.067 84.4753 291.071 150.444 291.071C216.414 291.071 269.889 293.067 269.889 295.536Z" fill="#F5F5F5"/>
<path d="M63.7158 80.2489C63.7158 68.9009 67.2546 57.4085 74.332 45.7574C81.4095 34.1136 91.7406 24.4681 105.318 16.8209C118.895 9.18099 134.739 5.35742 152.842 5.35742C169.666 5.35742 184.523 8.55335 197.406 14.9452C210.288 21.3371 220.239 30.0231 227.258 41.0104C234.277 52.005 237.787 63.9446 237.787 76.8438C237.787 86.9943 235.783 95.8967 231.784 103.537C227.777 111.184 223.025 117.778 217.512 123.333C211.999 128.888 202.107 138.23 187.835 151.375C183.887 155.075 180.728 158.336 178.345 161.136C175.968 163.942 174.199 166.51 173.037 168.84C171.874 171.171 170.975 173.501 170.339 175.831C169.703 178.161 168.745 182.252 167.465 188.102C165.257 200.525 158.355 206.737 146.752 206.737C140.72 206.737 135.639 204.71 131.522 200.648C127.406 196.587 125.344 190.555 125.344 182.555C125.344 172.52 126.85 163.834 129.87 156.49C132.889 149.145 136.889 142.696 141.883 137.141C146.876 131.586 153.603 124.985 162.077 117.345C169.505 110.657 174.872 105.607 178.177 102.202C181.481 98.7968 184.267 95.0093 186.534 90.8251C188.8 86.648 189.926 82.1102 189.926 77.2117C189.926 67.6528 186.475 59.5944 179.566 53.0222C172.664 46.4572 163.751 43.1675 152.842 43.1675C140.077 43.1675 130.674 46.4788 124.642 53.1088C118.61 59.7387 113.499 69.4996 109.325 82.3988C105.376 95.8967 97.8968 102.642 86.8712 102.642C80.3713 102.642 74.8877 100.283 70.4204 95.5648C65.9531 90.8467 63.7158 85.739 63.7158 80.2489Z" fill="#C61818"/>
<g opacity="0.2">
<path d="M185.612 132.3C182.534 115.325 179.346 108.493 175.222 105.131C171.976 108.291 167.589 112.36 162.062 117.337C154.933 123.765 149.048 129.457 144.383 134.406C146.152 156.677 148.667 188.304 148.697 188.571L150.217 206.535C156.681 205.749 161.404 202.661 164.387 197.279C163.839 190.598 162.596 187.994 162.596 187.994C162.596 187.994 164.168 165.24 165.659 147.515C167.772 154.57 169.797 162.47 172.517 169.93C172.685 169.569 172.846 169.208 173.029 168.847C174.192 166.517 175.961 163.949 178.337 161.143C180.713 158.336 183.879 155.083 187.827 151.382C188.215 151.028 188.581 150.689 188.961 150.336C187.528 143.143 186.277 136.362 185.612 132.3Z" fill="black"/>
</g>
<g opacity="0.2">
<path d="M194.02 108.226L187.213 89.4473C186.994 89.909 186.767 90.3635 186.526 90.818C185.18 93.2997 183.652 95.6443 181.941 97.8519L188.639 110.275C188.237 110.903 187.739 111.927 187.82 113.002C187.959 114.762 187.593 116.205 187.791 117.511C187.988 118.817 188.953 117.316 189.304 116.414C189.655 115.512 190.057 114.495 190.701 114.863C191.344 115.231 194.546 120.7 195.497 121.111C196.447 121.522 196.213 120.476 196.213 120.476C196.213 120.476 197.025 121.782 197.639 121.609C197.8 121.565 198.092 121.205 197.815 120.548C197.193 119.076 195.731 116.061 195.731 116.061C195.811 116.234 197.888 119.834 198.275 120.332C198.772 120.981 199.35 121.039 199.723 120.743C200.257 120.317 197.829 115.772 197.866 115.512C197.866 115.512 199.174 118.175 200.052 118.218C200.937 118.261 200.205 116.544 199.27 115.145C198.414 113.868 197.069 111.133 196.067 109.914C195.394 109.099 194.751 108.522 194.02 108.226Z" fill="black"/>
</g>
<g opacity="0.2">
<path d="M116.248 61.7296C116.292 61.708 116.329 61.6863 116.372 61.6647C117.36 61.1381 116.519 57.1269 116.519 57.1269C116.519 57.1269 117.535 56.0448 117.148 55.0348C116.943 54.5009 116.694 54.4144 116.694 54.4144C117.455 53.5775 117.338 52.2717 116.424 51.5936C116.343 51.5359 116.292 51.4998 116.292 51.4998C116.628 51.0597 116.263 49.6673 115.385 50.0641C115.195 50.1507 114.786 50.4104 114.281 50.7567V49.0902C114.376 49.0902 114.464 49.083 114.53 49.083C117.564 48.9026 119.816 45.447 119.56 41.3637C119.304 37.2876 116.643 34.1278 113.609 34.3081C113.426 34.3226 113.25 34.3442 113.068 34.3803C113.09 34.3803 113.112 34.3875 113.126 34.3875C113.082 34.3875 113.038 34.3947 113.002 34.3947C113.024 34.3875 113.046 34.3803 113.068 34.3803C112.885 34.3659 112.709 34.3659 112.527 34.3731C109.492 34.5534 107.24 38.0091 107.496 42.0923C107.73 45.851 110.012 48.8233 112.739 49.1191V51.8749C111.086 53.1302 109.31 54.6452 109.361 55.0708C109.456 55.8067 111.51 62.4944 111.51 62.4944H111.562C111.737 64.1897 112.198 68.2874 112.892 72.6665C114.208 69.4994 115.605 66.5849 117.074 63.9228L116.248 61.7296ZM113.894 49.0686C113.872 49.0686 113.857 49.0614 113.835 49.0614C113.879 49.0541 113.916 49.0541 113.96 49.0541C113.938 49.0614 113.916 49.0686 113.894 49.0686Z" fill="black"/>
</g>
<g opacity="0.2">
<path d="M145.494 26.3077C145.479 26.3005 145.464 26.3005 145.442 26.3005C145.004 26.2428 144.55 26.2211 144.083 26.2428C142.401 26.1274 140.953 25.9831 136.939 27.4404C132.187 29.381 130.132 33.0964 129.562 35.9676C129.233 39.9283 129.979 42.9294 130.213 46.8829L130.527 46.4572C130.527 46.854 130.534 47.2436 130.556 47.6259C130.571 47.8424 130.6 48.0444 130.622 48.2536C136.31 44.8629 143.71 43.1603 152.842 43.1603C153.339 43.1603 153.821 43.1747 154.311 43.1891C154.209 43.0521 154.092 42.9294 153.953 42.814C154.253 41.7679 154.494 40.6858 154.713 39.6686C154.911 38.6658 154.955 37.6558 154.889 36.653C156.337 37.1652 157.718 38.1752 158.252 39.3944C158.969 41.0393 159.627 42.309 160.446 43.7446C166.295 44.6897 171.449 46.7746 175.917 49.9922C177.854 49.6315 179.726 48.975 181.342 47.7846C183.718 46.0316 185.326 42.6336 184.325 39.6902C183.382 40.5776 182.087 40.996 180.859 40.8156C181.919 39.7119 182.358 37.9444 181.963 36.4077C177.854 38.0165 172.948 40.0221 169.015 37.9588C167.209 37.0137 166.046 34.9721 164.606 33.4499C163.165 31.9276 161.593 30.4343 159.663 29.8283C158.091 29.3377 155.02 30.29 153.375 31.6751C153.105 31.2134 152.82 30.7589 152.483 30.3333C150.963 28.8183 148.55 26.7189 145.494 26.3077Z" fill="black"/>
</g>
<path d="M147.432 294.903C140.164 294.903 133.818 292.479 128.4 287.638C122.975 282.79 120.27 276.023 120.27 267.308C120.27 259.582 122.894 253.082 128.137 247.808C133.379 242.535 139.813 239.901 147.439 239.901C154.948 239.901 161.258 242.542 166.383 247.808C171.508 253.082 174.067 259.582 174.067 267.308C174.067 275.893 171.384 282.639 166.025 287.544C160.665 292.45 154.458 294.903 147.432 294.903Z" fill="#C61818"/>
<g opacity="0.2">
<path d="M148.894 246.856C148.178 246.156 147.088 246.005 146.087 245.954C143.272 245.81 140.691 246.185 137.978 246.957C133.957 248.479 130.528 251.488 128.539 255.261C126.551 259.034 126.009 263.528 127.055 267.655C127.53 269.531 128.788 271.637 130.74 271.551C132.034 271.493 133.036 270.468 133.899 269.516C135.953 267.244 138.008 264.978 140.062 262.706C143.14 259.308 146.233 255.874 148.558 251.935C149.487 250.355 150.218 248.147 148.894 246.856Z" fill="white"/>
</g>
<path d="M104.038 39.4237C103.797 35.593 105.778 32.3105 108.534 31.7766C108.352 31.7622 108.176 31.7622 107.993 31.7694C104.959 31.9497 102.707 35.4054 102.963 39.4887C103.219 43.5647 105.88 46.7246 108.915 46.5442C109.097 46.5298 109.273 46.5082 109.456 46.4721C106.648 46.2773 104.279 43.2617 104.038 39.4237Z" fill="#263238"/>
<path opacity="0.5" d="M108.878 46.4867C111.822 46.4867 114.208 43.1921 114.208 39.1281C114.208 35.0641 111.822 31.7695 108.878 31.7695C105.934 31.7695 103.548 35.0641 103.548 39.1281C103.548 43.1921 105.934 46.4867 108.878 46.4867Z" fill="white"/>
<path opacity="0.5" d="M112.175 33.9121L103.76 41.2274C103.869 41.8045 104.111 42.461 104.403 43.1536L113.096 35.4415C112.899 34.9149 112.577 34.4099 112.175 33.9121Z" fill="white"/>
<path opacity="0.5" d="M111.035 32.6855L103.556 39.6618L103.621 40.2822L111.569 33.2338C111.364 32.7072 111.394 32.8803 111.035 32.6855Z" fill="white"/>
<path d="M115.027 38.767C114.771 34.691 112.109 31.5311 109.075 31.7115C108.892 31.7259 108.717 31.7475 108.534 31.7836C111.334 31.9784 113.703 35.0012 113.937 38.832C114.171 42.6627 112.029 45.9597 109.273 46.4935C109.455 46.508 109.806 46.5007 109.989 46.4863C113.023 46.2987 115.275 42.8431 115.027 38.767Z" fill="#263238"/>
<path d="M108.987 57.9567H108.958C108.541 57.9567 108.205 57.6248 108.205 57.2136V46.4932H109.74V57.2136C109.74 57.6248 109.404 57.9567 108.987 57.9567Z" fill="#263238"/>
<path d="M124.035 66.21L117.93 75.6679L111.313 58.0723L106.94 59.0678C106.94 59.0678 109.01 80.8405 112.446 84.2096C114.976 86.6841 118.661 86.8717 121.3 84.8228C123.896 82.8028 132.523 72.1401 132.523 72.1401L124.035 66.21Z" fill="#B97964"/>
<path d="M106.977 59.8977C106.977 59.8977 104.922 53.21 104.827 52.4742C104.732 51.7383 109.967 47.857 110.845 47.4602C111.722 47.0635 112.095 48.4486 111.751 48.8959C111.751 48.8959 111.803 48.932 111.883 48.9897C112.797 49.6606 112.914 50.9736 112.154 51.8105C112.154 51.8105 112.402 51.897 112.607 52.4309C112.994 53.4409 111.978 54.523 111.978 54.523C111.978 54.523 112.826 58.5342 111.832 59.0608C110.786 59.6163 109.938 60.0275 109.924 59.9193L106.977 59.8977Z" fill="#B97964"/>
<path d="M108.534 56.4418L109.938 55.4102V57.7837C109.938 58.2454 109.624 58.6205 109.236 58.6205C108.849 58.6205 108.534 58.2454 108.534 57.7837V56.4418Z" fill="#263238"/>
<path d="M147.863 224.131L148.814 233.964L156.308 234.772L157.068 224.196L147.863 224.131Z" fill="#B97964"/>
<path d="M147.191 232.391C147.176 232.001 147.52 231.691 147.907 231.706L150.188 231.792C150.766 231.799 151.351 232.86 151.687 233.329C153.127 235.363 154.239 234.62 155.862 232.744C156.878 232.636 157.134 233.812 157.215 234.13L159.02 241.12C159.181 241.705 158.838 242.303 158.253 242.462C158.15 242.491 158.041 242.505 157.938 242.498C154.846 242.455 153.383 242.433 149.538 242.383L137.773 242.224C134.564 242.181 133.95 238.92 135.273 238.639C141.232 237.398 145.458 235.695 147.322 233.985C147.571 233.762 147.22 233.105 147.191 232.391Z" fill="#263238"/>
<path d="M146.087 234.556C146.964 234.686 147.769 235.227 148.229 235.984" stroke="white" stroke-width="0.5" stroke-miterlimit="10" stroke-linecap="round" stroke-linejoin="round"/>
<path d="M144.397 235.521C145.275 235.651 146.079 236.192 146.54 236.95" stroke="white" stroke-width="0.5" stroke-miterlimit="10" stroke-linecap="round" stroke-linejoin="round"/>
<path d="M142.321 236.496C143.199 236.626 144.003 237.167 144.464 237.925" stroke="white" stroke-width="0.5" stroke-miterlimit="10" stroke-linecap="round" stroke-linejoin="round"/>
<path d="M208.76 208.793L216.832 214.5L222.425 209.45L214.909 201.954L208.76 208.793Z" fill="#B97964"/>
<path d="M214.485 214.752C214.178 214.507 214.171 214.045 214.434 213.764L215.977 212.09C216.357 211.657 217.541 211.903 218.112 211.953C220.59 212.191 220.744 210.857 220.378 208.397C220.956 207.553 222.016 208.13 222.308 208.274L228.779 211.47C229.32 211.73 229.554 212.386 229.298 212.927C229.254 213.021 229.196 213.115 229.123 213.194C227.083 215.517 226.125 216.614 223.588 219.507L215.83 228.344C213.717 230.754 210.844 229.094 211.487 227.904C214.412 222.566 215.867 218.237 215.779 215.705C215.772 215.358 215.041 215.2 214.485 214.752Z" fill="#263238"/>
<path d="M215.509 216.952C216.174 216.375 217.11 216.116 217.98 216.26" stroke="white" stroke-width="0.5" stroke-miterlimit="10" stroke-linecap="round" stroke-linejoin="round"/>
<path d="M215.144 218.871C215.809 218.294 216.745 218.035 217.615 218.179" stroke="white" stroke-width="0.5" stroke-miterlimit="10" stroke-linecap="round" stroke-linejoin="round"/>
<path d="M214.536 221.094C215.201 220.517 216.137 220.257 217.007 220.401" stroke="white" stroke-width="0.5" stroke-miterlimit="10" stroke-linecap="round" stroke-linejoin="round"/>
<path d="M138.146 110.297C138.146 110.297 144.12 185.542 144.171 185.967L147.907 230.01H157.61C157.61 230.01 157.675 227.471 158.18 224.131C162.603 194.848 158.07 185.383 158.07 185.383C158.07 185.383 161.967 128.844 163.334 124.588C163.466 124.141 158.823 91.7414 138.146 110.297Z" fill="#263238"/>
<path d="M138 110.203L138.271 110.643C142.27 115.981 149.845 121.666 153.807 126.543L155.182 129.616C155.182 129.616 184.011 107.562 165.272 98.4721C164.489 98.097 158.757 95.067 158.757 95.067C153.793 93.8766 138 110.203 138 110.203Z" fill="#263238"/>
<path d="M181.079 129.696C182.651 139.327 187.521 164.209 190.284 173.573C190.284 173.573 198.78 178.37 203.584 183.738L218.916 205.034L212.072 211.094L184.113 190.916C177.789 186.22 175.23 182.742 172.751 178.161C166.683 166.972 163.692 152.731 160.066 141.469C158.392 136.246 151.943 119.43 152.499 114.026C153.23 106.711 153.493 94.8723 162.508 98.8979C171.128 101.387 176.239 102.974 181.079 129.696Z" fill="#263238"/>
<path opacity="0.2" d="M159.641 143.98L152.549 118.139L144.463 115.477L150.773 121.284L159.641 143.98Z" fill="black"/>
<path d="M127.347 62.1989C124.722 64.3416 120.087 71.6641 120.087 71.6641L130.528 77.5004C130.528 77.5004 135.865 69.8316 135.317 66.4265C134.746 62.8699 131.295 60.4891 127.347 62.1989Z" fill="#263238"/>
<path opacity="0.5" d="M127.347 62.1989C124.722 64.3416 120.087 71.6641 120.087 71.6641L130.528 77.5004C130.528 77.5004 135.865 69.8316 135.317 66.4265C134.746 62.8699 131.295 60.4891 127.347 62.1989Z" fill="white"/>
<path opacity="0.3" d="M126.784 75.192V67.8623C126.784 67.8623 123.742 76.6132 124.444 78.1859C125.139 79.7587 125.424 80.5739 125.424 80.5739L126.594 79.2392L126.784 75.192Z" fill="black"/>
<path d="M165.016 93.9628C162.771 91.4234 161.301 88.3068 160.782 84.9738C159.993 79.895 158.91 72.7889 159.027 72.2334L159.378 58.5335C156.308 55.5035 144.916 55.4746 144.916 55.4746L137.276 57.4008C137.276 57.4008 134.439 58.6345 132.056 59.9475C128.882 61.7005 127.208 61.7943 126.777 63.8071C126.777 63.8071 126.155 70.4154 125.98 77.103C125.921 79.491 137.159 101.451 137.298 105.585V112.316C153.588 120.41 170.697 100.398 170.697 100.398L165.016 93.9628Z" fill="#263238"/>
<path opacity="0.5" d="M165.016 93.9628C162.771 91.4234 161.301 88.3068 160.782 84.9738C159.993 79.895 158.91 72.7889 159.027 72.2334L159.378 58.5335C156.308 55.5035 144.916 55.4746 144.916 55.4746L137.276 57.4008C137.276 57.4008 134.439 58.6345 132.056 59.9475C128.882 61.7005 127.208 61.7943 126.777 63.8071C126.777 63.8071 126.155 70.4154 125.98 77.103C125.921 79.491 137.159 101.451 137.298 105.585V112.316C153.588 120.41 170.697 100.398 170.697 100.398L165.016 93.9628Z" fill="white"/>
<path opacity="0.3" d="M159.657 77.5652C159.657 77.5652 152.513 71.2022 152.879 68.2227L158.955 71.4402L159.364 75.473L159.657 77.5652Z" fill="black"/>
<path d="M164.892 64.5146C165.06 64.7599 175.398 76.2451 179.551 80.5881C180.443 81.5187 181.13 82.6225 181.584 83.8201L190.109 107.331L184.771 108.904L172.518 86.1647L157.112 73.3016L164.892 64.5146Z" fill="#B97964"/>
<path d="M184.566 107.022C184.566 107.022 183.141 108.63 183.28 110.391C183.418 112.151 183.053 113.594 183.25 114.9C183.448 116.205 184.413 114.705 184.764 113.803C185.115 112.901 185.517 111.884 186.16 112.252C186.804 112.62 190.006 118.088 190.957 118.499C191.907 118.911 191.673 117.865 191.673 117.865C191.673 117.865 192.485 119.17 193.099 118.997C193.26 118.954 193.552 118.593 193.274 117.937C192.653 116.465 191.191 113.449 191.191 113.449C191.271 113.623 193.347 117.223 193.735 117.72C194.232 118.37 194.81 118.427 195.183 118.132C195.716 117.706 193.289 113.161 193.326 112.901C193.326 112.901 194.634 115.563 195.512 115.607C196.396 115.65 195.665 113.933 194.729 112.533C193.874 111.256 192.529 108.522 191.527 107.303C190.299 105.802 189.129 105.066 187.352 105.521C185.568 105.975 184.566 107.022 184.566 107.022Z" fill="#B97964"/>
<path d="M157.419 57.5024C160.885 57.7188 167.173 66.2677 167.173 66.2677L159.035 75.3433C159.035 75.3433 151.402 68.7639 151.27 64.3631C151.161 60.6406 153.018 57.2138 157.419 57.5024Z" fill="#263238"/>
<path opacity="0.5" d="M157.419 57.5024C160.885 57.7188 167.173 66.2677 167.173 66.2677L159.035 75.3433C159.035 75.3433 151.402 68.7639 151.27 64.3631C151.161 60.6406 153.018 57.2138 157.419 57.5024Z" fill="white"/>
<path d="M132.414 24.8358C127.661 26.7765 125.607 30.4918 125.037 33.3631C124.708 37.3238 125.453 40.3249 125.687 44.2783L140.976 23.696C138.446 23.7032 137.466 22.9962 132.414 24.8358Z" fill="#263238"/>
<path d="M138.029 23.8542C142.482 22.7793 145.969 25.7588 147.951 27.7355C150.02 30.3615 150.831 33.7522 150.181 37.0636C149.508 40.1441 148.689 43.8739 146.452 45.1075C145.194 45.829 143.695 46.0021 142.321 45.5837L130.045 28.5363C132.275 26.3432 135.024 24.7272 138.029 23.8542Z" fill="#263238"/>
<path d="M143.973 49.2415C143.973 49.126 143.966 49.0034 143.944 48.888C143.871 48.3541 143.637 47.8635 143.271 47.4812C142.299 46.399 140.624 46.3125 139.52 47.3008L135.272 49.1621C135.265 49.227 135.265 49.2847 135.258 49.3569L136.025 55.5251C136.142 57.3647 134.037 58.8725 132.859 59.6805C132.15 60.2216 130.739 65.2427 135.47 68.9581C136.866 70.0619 139.023 68.2583 140.427 67.0607C146.196 61.5851 146.071 56.5279 146.071 56.5279C143.936 54.6089 143.783 53.3175 143.973 49.2415Z" fill="#B97964"/>
<path opacity="0.2" d="M133.715 48.8021C133.751 48.7443 133.781 48.6794 133.795 48.6145L138.401 48.1961C139.776 47.6406 141.326 48.2754 141.867 49.6245C142.079 49.9996 142.613 47.3592 142.057 50.8076L142.05 50.8581L135.967 55.0785C135.967 55.0785 135.228 50.0718 135.192 50.0501C135.148 50.0429 133.715 48.8021 133.715 48.8021Z" fill="black"/>
<path d="M147.688 37.511C145.969 44.5954 145.399 47.6182 141.144 50.8213C134.739 55.6188 126.477 52.394 126.024 45.021C125.673 38.3983 128.51 27.9376 135.989 25.9897C143.469 24.0491 149.406 30.4193 147.688 37.511Z" fill="#B97964"/>
<path d="M149.53 44.2281C148.47 45.6204 146.934 46.4068 145.603 46.5799C143.6 46.8469 143.001 43.6509 143.922 41.7969C144.748 40.1304 146.81 39.1925 148.645 39.7769C150.451 40.354 150.743 42.6337 149.53 44.2281Z" fill="#B97964"/>
<path opacity="0.2" d="M145.472 43.3986C145.611 42.7132 146.027 42.0856 146.612 41.6888C147.197 41.292 147.936 41.1333 148.623 41.2487" stroke="black" stroke-width="0.5" stroke-miterlimit="10" stroke-linecap="round" stroke-linejoin="round"/>
<path d="M137.663 38.7519C137.524 39.5166 137.02 40.101 136.537 40.0577C136.054 40.0144 135.769 39.3579 135.908 38.5932C136.047 37.8285 136.552 37.2441 137.034 37.2874C137.517 37.3307 137.802 37.9872 137.663 38.7519Z" fill="#263238"/>
<path d="M130.425 37.9372C130.294 38.6803 129.789 39.243 129.307 39.1997C128.824 39.1564 128.539 38.5216 128.678 37.7785C128.809 37.0354 129.314 36.4727 129.796 36.516C130.279 36.5665 130.564 37.2014 130.425 37.9372Z" fill="#263238"/>
<path d="M139.543 36.242C139.448 36.242 139.36 36.206 139.294 36.1338C138.3 34.9723 136.976 35.196 136.962 35.2032C136.764 35.2393 136.589 35.1094 136.574 34.9146C136.56 34.7198 136.706 34.5323 136.903 34.4962C136.969 34.4818 138.629 34.2004 139.864 35.6433C139.989 35.7875 139.959 36.0112 139.806 36.1483C139.725 36.2132 139.638 36.242 139.543 36.242Z" fill="#263238"/>
<path d="M128.473 34.0272C128.4 33.9911 128.349 33.9334 128.327 33.8469C128.283 33.6737 128.393 33.4717 128.568 33.3996C130.367 32.6493 131.515 33.4934 131.566 33.5294C131.705 33.6304 131.712 33.8396 131.588 33.9984C131.464 34.1571 131.252 34.2004 131.113 34.0994C131.069 34.0633 130.162 33.4284 128.736 34.02C128.641 34.0633 128.546 34.0633 128.473 34.0272Z" fill="#263238"/>
<path d="M132.443 37.7998C132.443 37.7998 130.937 40.3897 129.416 41.948C129.153 42.2222 129.234 42.6694 129.57 42.8354C130.433 43.261 131.529 43.0807 131.529 43.0807L132.443 37.7998Z" fill="#A24E3F"/>
<path d="M137.305 37.3525L135.675 36.7754C135.675 36.7754 136.435 38.1172 137.305 37.3525Z" fill="#263238"/>
<path d="M129.972 36.5586L128.342 35.9815C128.335 35.9743 129.095 37.3233 129.972 36.5586Z" fill="#263238"/>
<path d="M131.573 45.1224C132.027 45.9015 132.531 47.3949 132.531 47.3949C132.677 47.3733 132.824 47.3444 132.97 47.3155C134.944 46.9476 135.748 46.1324 136.048 45.346C136.209 44.9132 136.209 44.4803 136.165 44.1413C136.114 43.7445 135.989 43.4775 135.989 43.4775C135.046 44.2855 133.233 44.7689 132.253 44.9925C131.836 45.0863 131.573 45.1224 131.573 45.1224Z" fill="#263238"/>
<path d="M132.246 44.9853L132.546 45.649C134.403 45.2955 135.675 44.805 136.158 44.1413C136.107 43.7445 135.982 43.4775 135.982 43.4775C135.046 44.2855 133.226 44.7689 132.246 44.9853Z" fill="white"/>
<path d="M132.97 47.3152C134.944 46.9473 135.748 46.1321 136.048 45.3457C135.382 45.4972 134.586 45.7497 133.928 46.1826C133.416 46.5072 133.138 46.9184 132.97 47.3152Z" fill="#DE5753"/>
<path d="M144.821 38.7665C144.821 38.7665 141.736 33.3197 142.481 29.323C142.481 29.323 128.516 23.2269 127.113 36.0467C127.113 36.0467 126.323 24.5688 138.701 25.1387C151.08 25.7086 150.151 41.7099 143.527 46.0601C143.52 46.0024 146.722 42.1716 144.821 38.7665Z" fill="#263238"/>
<path d="M132.911 25.6291C131.003 26.8194 129.518 28.5797 128.67 30.6358C128.334 32.1869 130.213 33.7163 130.213 33.7163L133.547 30.845L132.896 33.8101C137.254 34.178 140.2 32.4177 142.365 29.4743L140.917 24.8139C140.917 24.8139 134.585 24.6912 132.911 25.6291Z" fill="#263238"/>
<path d="M179.792 37.0858C178.848 37.9731 177.554 38.3916 176.326 38.2112C177.386 37.1074 177.825 35.3399 177.43 33.8033C173.321 35.4121 168.415 37.4176 164.481 35.3544C162.676 34.4093 161.513 32.3676 160.073 30.8454C158.632 29.3232 157.06 27.8299 155.13 27.2239C153.207 26.6251 149.032 28.1834 147.987 30.0519L147.738 33.7311C149.727 33.356 152.856 34.7844 153.726 36.7828C154.604 38.7811 155.379 40.2168 156.468 42.0853C157.85 44.4444 159.203 45.9305 161.55 46.9621C162.617 47.4311 165.044 47.9505 168.649 47.7196C171.508 47.5393 174.447 46.9261 176.816 45.173C179.185 43.4344 180.793 40.0292 179.792 37.0858Z" fill="#263238"/>
</g>
<defs>
<clipPath id="clip0_43266_94523">
<rect width="238.889" height="300" fill="white" transform="translate(31)"/>
</clipPath>
</defs>
</svg>
