<svg width="278" height="200" viewBox="0 0 278 200" fill="none" xmlns="http://www.w3.org/2000/svg">
<path d="M210.69 22.5327C211.631 25.7219 216.484 31.6855 216.867 36.0375C217.25 40.3895 208.976 47.3255 208.976 47.3255C208.976 47.3255 202.793 26.4155 206.664 23.9675C210.536 21.5263 210.69 22.5327 210.69 22.5327Z" fill="#263238"/>
<path d="M193.698 45.1156C192.233 46.3531 190.795 47.4003 189.296 48.4611C187.797 49.5083 186.251 50.474 184.678 51.4124C183.112 52.3576 181.472 53.2076 179.799 53.9896C178.952 54.3704 178.112 54.7511 177.238 55.0911C176.808 55.2679 176.371 55.438 175.927 55.5876L174.556 56.0636C173.191 56.4648 172.062 56.424 171.02 56.322C169.979 56.2064 169.017 55.9956 168.09 55.7507C166.241 55.2543 164.521 54.5812 162.84 53.8604C159.5 52.378 156.354 50.6915 153.303 48.7263L154.566 46.36C156.146 47.0264 157.772 47.6995 159.392 48.3115C161.005 48.9439 162.632 49.5288 164.259 50.0388C165.879 50.5624 167.512 51.0112 169.091 51.3172C169.878 51.4668 170.657 51.5687 171.37 51.5959C172.076 51.6231 172.741 51.5552 173.064 51.4192C174.522 50.8412 176.088 50.1408 177.56 49.3588C178.3 48.9576 179.039 48.5563 179.765 48.1211C180.498 47.7063 181.23 47.2643 181.949 46.8155C183.395 45.918 184.806 44.9523 186.204 43.9663C187.595 42.9939 189 41.9264 190.271 40.9268L193.698 45.1156Z" fill="#E58A7B"/>
<path d="M197.247 37.8736C195.58 36.5544 188.684 40.8724 186.587 42.6744L188.113 52.0108C188.113 52.0108 198.027 47.8084 198.625 44.932C199.25 41.94 198.518 38.88 197.247 37.8736Z" fill="#407BFF"/>
<path opacity="0.2" d="M197.247 37.8736C195.58 36.5544 188.684 40.8724 186.587 42.6744L188.113 52.0108C188.113 52.0108 198.027 47.8084 198.625 44.932C199.25 41.94 198.518 38.88 197.247 37.8736Z" fill="black"/>
<path d="M220.443 66.1277C216.397 66.9233 207.813 68.6165 199.512 70.2553C188.698 40.6277 191.05 39.6689 191.05 39.6689C191.05 39.6689 193.127 38.4789 195.762 37.4249C195.863 37.3841 195.957 37.3501 196.044 37.3161C197.375 36.8197 197.657 36.7449 199.445 36.2145C202.524 35.4733 205.394 34.8681 208.949 34.3445C209.178 34.3105 209.406 34.2765 209.628 34.2493C210.273 34.1677 210.912 34.0997 211.53 34.0385C211.947 33.9909 212.364 33.9637 212.76 33.9365C213.231 33.9093 213.688 33.8821 214.118 33.8617C216.417 33.7461 218.064 33.7801 218.064 33.7801C217.398 52.2693 218.433 57.5801 220.443 66.1277Z" fill="#407BFF"/>
<path opacity="0.2" d="M220.443 66.1277C216.397 66.9233 207.813 68.6165 199.512 70.2553C188.698 40.6277 191.05 39.6689 191.05 39.6689C191.05 39.6689 193.127 38.4789 195.762 37.4249C195.863 37.3841 195.957 37.3501 196.044 37.3161C197.375 36.8197 197.657 36.7449 199.445 36.2145C202.524 35.4733 205.394 34.8681 208.949 34.3445C209.178 34.3105 209.406 34.2765 209.628 34.2493C210.273 34.1677 210.912 34.0997 211.53 34.0385C211.947 33.9909 212.364 33.9637 212.76 33.9365C213.231 33.9093 213.688 33.8821 214.118 33.8617C216.417 33.7461 218.064 33.7801 218.064 33.7801C217.398 52.2693 218.433 57.5801 220.443 66.1277Z" fill="black"/>
<path d="M204.049 24.6475C202.685 26.8983 207.578 27.9387 210.462 25.6335C212.774 23.7839 212.223 19.5135 210.253 18.5207C208.344 17.5687 204.049 24.6475 204.049 24.6475Z" fill="#407BFF"/>
<path opacity="0.4" d="M204.049 24.6475C202.685 26.8983 207.578 27.9387 210.462 25.6335C212.774 23.7839 212.223 19.5135 210.253 18.5207C208.344 17.5687 204.049 24.6475 204.049 24.6475Z" fill="black"/>
<path d="M224.422 188.759L219.186 189.153L217.271 176.961L222.507 176.566L224.422 188.759Z" fill="#E58A7B"/>
<path d="M261.457 171.718L257.021 174.547L249.103 165.054L253.546 162.218L261.457 171.718Z" fill="#E58A7B"/>
<path d="M217.271 176.961L218.332 183.734L223.495 182.856L222.513 176.566L217.271 176.961Z" fill="#CF6F64"/>
<path d="M253.553 162.225L249.103 165.054L252.383 168.984L256.927 166.271L253.553 162.225Z" fill="#CF6F64"/>
<path d="M199.822 70.2551C199.822 70.2551 199.741 112.293 203.142 128.13C206.678 144.599 217.076 182.067 217.076 182.067L224.617 181.081C224.617 181.081 218.722 143.233 216.209 126.872C213.473 109.029 215.153 67.2427 215.153 67.2427L199.822 70.2551Z" fill="#407BFF"/>
<path opacity="0.7" d="M199.822 70.2551C199.822 70.2551 199.741 112.293 203.142 128.13C206.678 144.599 217.076 182.067 217.076 182.067L224.617 181.081C224.617 181.081 218.722 143.233 216.209 126.872C213.473 109.029 215.153 67.2427 215.153 67.2427L199.822 70.2551Z" fill="black"/>
<path opacity="0.5" d="M214.696 85.868L210.999 82.1416C211.14 98.2916 212.034 106.268 215.106 114.958C214.615 105.772 214.582 94.9052 214.696 85.868Z" fill="black"/>
<path d="M205.038 69.167C205.038 69.167 216.309 103.915 221.908 123.921C227.81 145.035 250.434 168.386 250.434 168.386L256.927 164.591C256.927 164.591 241.481 142.423 235.781 122.724C224.214 82.733 228.973 74.2602 220.443 66.1274L205.038 69.167Z" fill="#407BFF"/>
<path opacity="0.7" d="M205.038 69.167C205.038 69.167 216.309 103.915 221.908 123.921C227.81 145.035 250.434 168.386 250.434 168.386L256.927 164.591C256.927 164.591 241.481 142.423 235.781 122.724C224.214 82.733 228.973 74.2602 220.443 66.1274L205.038 69.167Z" fill="black"/>
<path d="M196.179 12.3804C199.176 13.3936 201.899 20.928 202.013 23.8928C202.127 26.8576 193.336 30.9444 193.336 30.9444C193.336 30.9444 189.457 21.3972 190.533 15.318C191.003 12.6388 196.179 12.3804 196.179 12.3804Z" fill="#263238"/>
<path d="M155.037 46.6116L151.481 42.6948L150.318 47.6044C150.318 47.6044 152.846 49.862 154.896 49.0936L155.037 46.6116Z" fill="#E58A7B"/>
<path d="M147.879 41.5728L145.392 43.572L150.318 47.6044L151.481 42.6947L147.879 41.5728Z" fill="#E58A7B"/>
<path d="M255.616 173.533L259.77 169.297C259.925 169.141 260.153 169.127 260.321 169.249L264.105 172.092C264.495 172.384 264.529 173.01 264.173 173.363C262.701 174.812 261.914 175.437 260.086 177.301C258.964 178.443 257.438 180.238 255.885 181.823C254.366 183.373 252.706 181.938 253.21 181.136C255.482 177.552 255.072 176.213 255.226 174.39C255.253 174.064 255.394 173.758 255.616 173.533Z" fill="#263238"/>
<path d="M218.837 188.392H224.738C224.953 188.392 225.135 188.541 225.175 188.752L226.102 193.471C226.197 193.961 225.807 194.423 225.309 194.416C223.253 194.382 222.251 194.26 219.657 194.26C218.064 194.26 214.77 194.43 212.566 194.43C210.408 194.43 210.126 192.227 211.033 192.023C215.1 191.125 216.652 189.894 217.97 188.718C218.218 188.507 218.521 188.392 218.837 188.392Z" fill="#263238"/>
<path opacity="0.27" d="M218.716 44.4902L215.489 46.435L219.213 60.5722C218.4 56.3086 218.763 51.5962 218.716 44.4902Z" fill="#407BFF"/>
<path d="M200.38 22.3763C202.672 24.3211 205.999 27.1567 209.917 23.8451C213.285 21.0027 215.631 13.5431 209.608 13.2643C206.449 13.1215 200.38 22.3763 200.38 22.3763Z" fill="#263238"/>
<path d="M205.918 23.7026C205.911 26.9122 206.409 32.699 208.943 34.3446C208.943 34.3446 208.714 37.6494 203.028 38.7646C196.777 39.9954 199.439 36.2146 199.439 36.2146C202.692 34.7186 202.107 32.1754 201.052 29.8906L205.918 23.7026Z" fill="#E58A7B"/>
<path d="M203.935 26.2251L201.058 29.8835C201.314 30.4275 201.536 30.9783 201.677 31.5359C202.94 31.0871 204.453 29.2919 204.325 27.8843C204.264 27.1839 204.11 26.5243 203.935 26.2251Z" fill="#CF6F64"/>
<path d="M206.221 16.3314C206.899 21.5606 207.303 23.757 205.233 26.9122C202.12 31.6654 195.628 31.3662 193.416 26.4498C191.427 22.023 190.647 14.2234 195.251 11.177C199.781 8.19183 205.542 11.109 206.221 16.3314Z" fill="#E58A7B"/>
<path d="M197.241 7.17161C193.746 9.68082 200.756 10.422 200.763 14.06C200.769 15.5628 203.203 20.3296 206.671 20.0576L210.038 14.0124C213.567 8.22562 205.232 1.43921 197.241 7.17161Z" fill="#263238"/>
<path d="M197.241 7.17157C191.09 6.84517 188.409 11.7956 189.114 16.2428C189.114 16.2428 195.392 14.4884 202.255 15.1956C210.677 16.0592 197.241 7.17157 197.241 7.17157Z" fill="#263238"/>
<path d="M207.908 20.8398C208.008 21.9278 207.605 22.9614 207.027 23.6414C206.16 24.6682 204.984 24.063 204.607 22.839C204.265 21.7374 204.305 19.881 205.474 19.303C206.631 18.7318 207.793 19.5954 207.908 20.8398Z" fill="#E58A7B"/>
<path d="M198.753 19.3028C198.834 19.7244 198.679 20.1052 198.41 20.1596C198.141 20.214 197.852 19.9148 197.772 19.4932C197.691 19.0716 197.846 18.6908 198.114 18.6364C198.39 18.5888 198.672 18.8812 198.753 19.3028Z" fill="#263238"/>
<path d="M194.055 20.2276C194.135 20.6492 193.981 21.03 193.712 21.0844C193.443 21.1388 193.154 20.8396 193.073 20.418C192.993 19.9964 193.147 19.6156 193.416 19.5612C193.692 19.5136 193.974 19.806 194.055 20.2276Z" fill="#263238"/>
<path d="M193.544 19.561L192.489 19.4658C192.489 19.4726 193.154 20.1594 193.544 19.561Z" fill="#263238"/>
<path d="M195.439 20.7104C195.439 20.7104 195.083 22.6621 194.471 23.6889C195.117 24.0969 196.011 23.6752 196.011 23.6752L195.439 20.7104Z" fill="#DF5753"/>
<path d="M197.765 25.042C197.704 25.042 197.657 25.0012 197.644 24.94C197.63 24.872 197.678 24.804 197.745 24.7904C199.573 24.43 200.171 22.9748 200.178 22.9612C200.205 22.8932 200.279 22.866 200.339 22.8932C200.4 22.9204 200.433 22.9952 200.406 23.0564C200.38 23.1244 199.748 24.6544 197.792 25.042C197.778 25.042 197.772 25.042 197.765 25.042Z" fill="#263238"/>
<path d="M199.828 17.4942C199.768 17.4942 199.707 17.4738 199.66 17.433C198.84 16.6918 197.973 16.9094 197.94 16.9162C197.812 16.9502 197.671 16.8686 197.637 16.7394C197.604 16.6034 197.678 16.4674 197.812 16.4334C197.859 16.4198 198.968 16.1342 199.996 17.059C200.097 17.1542 200.111 17.3106 200.017 17.4126C199.963 17.467 199.896 17.4942 199.828 17.4942Z" fill="#263238"/>
<path d="M191.453 18.4665C191.42 18.4665 191.386 18.4597 191.359 18.4461C191.232 18.3917 191.171 18.2421 191.225 18.1197C191.756 16.8345 192.878 16.6101 192.932 16.6033C193.073 16.5761 193.194 16.6713 193.221 16.8073C193.248 16.9433 193.154 17.0725 193.02 17.0997C192.979 17.1065 192.105 17.2969 191.682 18.3169C191.642 18.4053 191.548 18.4665 191.453 18.4665Z" fill="#263238"/>
<path d="M254.063 176.002C253.842 176.002 253.647 175.893 253.485 175.676C253.358 175.506 253.371 175.349 253.411 175.247C253.647 174.615 255.502 174.2 255.71 174.153C255.757 174.139 255.811 174.159 255.838 174.2C255.865 174.241 255.872 174.295 255.845 174.336C255.482 174.941 254.769 175.955 254.104 175.989C254.09 176.002 254.077 176.002 254.063 176.002ZM255.468 174.472C254.729 174.656 253.768 175.003 253.647 175.336C253.633 175.377 253.62 175.438 253.687 175.519C253.808 175.676 253.936 175.751 254.09 175.744C254.447 175.73 254.957 175.261 255.468 174.472Z" fill="#407BFF"/>
<path d="M255.166 174.472C254.507 174.472 253.647 174.309 253.405 173.935C253.338 173.839 253.264 173.635 253.452 173.384C253.573 173.227 253.741 173.139 253.943 173.125C253.963 173.125 253.976 173.125 253.996 173.125C254.756 173.125 255.784 174.152 255.831 174.193C255.865 174.227 255.878 174.268 255.865 174.315C255.851 174.356 255.818 174.39 255.777 174.404C255.623 174.445 255.408 174.472 255.166 174.472ZM253.996 173.377C253.983 173.377 253.969 173.377 253.956 173.377C253.828 173.384 253.727 173.438 253.647 173.54C253.546 173.669 253.573 173.744 253.606 173.792C253.815 174.098 254.836 174.281 255.468 174.207C255.105 173.873 254.447 173.377 253.996 173.377Z" fill="#407BFF"/>
<path d="M216.908 189.323C216.39 189.323 215.906 189.241 215.624 188.997C215.442 188.84 215.355 188.636 215.368 188.385C215.375 188.235 215.436 188.119 215.557 188.051C216.175 187.684 218.339 188.772 218.581 188.895C218.628 188.922 218.655 188.969 218.648 189.024C218.642 189.078 218.601 189.119 218.548 189.133C218.111 189.221 217.486 189.323 216.908 189.323ZM215.913 188.221C215.812 188.221 215.738 188.235 215.677 188.269C215.644 188.289 215.61 188.317 215.61 188.398C215.604 188.568 215.657 188.704 215.778 188.806C216.114 189.092 216.981 189.146 218.124 188.956C217.391 188.602 216.41 188.221 215.913 188.221Z" fill="#407BFF"/>
<path d="M218.527 189.133C218.507 189.133 218.494 189.133 218.48 189.119C217.822 188.827 216.518 187.671 216.612 187.072C216.632 186.936 216.726 186.766 217.062 186.732C217.096 186.726 217.129 186.726 217.163 186.726C218.332 186.726 218.642 188.895 218.655 188.99C218.662 189.038 218.642 189.078 218.608 189.106C218.581 189.126 218.554 189.133 218.527 189.133ZM217.156 186.984C217.129 186.984 217.109 186.984 217.082 186.984C216.867 187.004 216.854 187.086 216.854 187.113C216.8 187.474 217.687 188.378 218.359 188.779C218.252 188.235 217.909 186.984 217.156 186.984Z" fill="#407BFF"/>
<path d="M198.242 18.6362L197.187 18.541C197.187 18.541 197.852 19.2346 198.242 18.6362Z" fill="#263238"/>
<path d="M202.86 43.2866C191.615 45.823 195.09 38.9414 195.762 37.425C195.863 37.3842 195.957 37.3502 196.044 37.3162C197.375 36.8198 197.657 36.745 199.445 36.2146C202.483 35.317 205.394 34.8682 208.949 34.3446C209.178 34.3106 209.406 34.2766 209.628 34.2494C210.273 34.161 210.912 34.093 211.53 34.0386C211.947 33.991 212.364 33.9638 212.76 33.9366C213.231 33.9026 213.688 33.8754 214.118 33.855V33.8618C214.326 34.9158 214.884 40.587 202.86 43.2866Z" fill="#E58A7B"/>
<path d="M220.51 64.8221L221.821 66.5289C221.922 66.6649 221.781 66.8485 221.539 66.8961L199.586 71.2209C199.398 71.2549 199.223 71.1937 199.19 71.0781L198.639 69.2217C198.598 69.0925 198.74 68.9497 198.948 68.9089L220.147 64.7337C220.295 64.6997 220.45 64.7405 220.51 64.8221Z" fill="#26395A"/>
<path d="M218.124 67.7802L218.689 67.6714C218.803 67.651 218.877 67.5762 218.857 67.5014L218.117 65.0942C218.097 65.0262 217.983 64.9854 217.875 65.0058L217.311 65.1146C217.196 65.135 217.123 65.2098 217.143 65.2846L217.882 67.6918C217.902 67.7666 218.016 67.8074 218.124 67.7802Z" fill="#407BFF"/>
<path d="M205.266 75.8038L200.89 74.1582L201.563 78.3674C201.563 78.3674 204.735 79.5234 206.355 78.041L205.266 75.8038Z" fill="#E58A7B"/>
<path d="M196.723 75.2734L195.681 78.0342L201.562 78.3674L200.89 74.1582L196.723 75.2734Z" fill="#E58A7B"/>
<path d="M201.22 71.1122L201.784 71.0034C201.899 70.983 201.973 70.9082 201.952 70.8334L201.213 68.4262C201.193 68.3582 201.079 68.3174 200.971 68.3378L200.406 68.4466C200.292 68.467 200.218 68.5418 200.238 68.6166L200.978 71.0238C200.998 71.0986 201.105 71.1394 201.22 71.1122Z" fill="#407BFF"/>
<path d="M209.675 69.4462L210.24 69.3374C210.354 69.317 210.428 69.2422 210.408 69.1674L209.669 66.7602C209.648 66.6922 209.534 66.6514 209.427 66.6718L208.862 66.7806C208.748 66.801 208.674 66.8758 208.694 66.9506L209.433 69.3578C209.454 69.4326 209.561 69.4734 209.675 69.4462Z" fill="#407BFF"/>
<path d="M207.282 31.6447C207.76 31.4611 208.358 33.1611 208.21 33.3787C207.867 33.8751 201.589 35.6091 201.307 34.6367C201.3 34.2219 201.361 33.4127 201.542 33.0863C201.724 32.7599 203.115 33.3583 207.282 31.6447Z" fill="#407BFF"/>
<path d="M206.22 31.6855C206.469 31.1211 207.161 30.2167 207.76 30.7335C208.358 31.2503 208.62 32.3655 208.223 32.5423C207.834 32.7259 205.804 32.6307 206.22 31.6855Z" fill="#407BFF"/>
<path d="M207.504 31.9782C207.921 31.5362 208.876 30.9174 209.272 31.6042C209.669 32.2978 209.541 33.4334 209.111 33.4674C208.681 33.5014 206.799 32.7262 207.504 31.9782Z" fill="#407BFF"/>
<path d="M207.733 31.8759C207.639 31.3047 207.908 30.5635 208.667 30.0603C209.427 29.5571 210.173 29.2307 210.475 28.7139C210.475 28.7139 210.697 29.5299 210.549 30.2371C210.395 30.9647 208.008 31.5155 208.17 32.1547L207.733 31.8759Z" fill="#407BFF"/>
<path d="M207.632 31.8422C207.249 31.4138 207.074 30.6454 207.437 29.8022C207.807 28.959 208.257 28.279 208.23 27.6738C208.23 27.6738 208.855 28.2314 209.111 28.9114C209.373 29.605 207.665 31.3866 208.149 31.8286L207.632 31.8422Z" fill="#407BFF"/>
<path d="M254.379 164.68C254.353 164.68 254.326 164.666 254.312 164.646C254.158 164.421 238.792 142.24 233.153 122.751C227.857 104.425 225.948 92.5046 224.684 84.6234C223.521 77.361 222.822 72.975 220.503 69.3778C220.477 69.337 220.49 69.2826 220.53 69.2622C220.571 69.235 220.624 69.2486 220.645 69.2894C222.984 72.9206 223.683 77.3134 224.852 84.603C226.116 92.4842 228.018 104.391 233.315 122.71C238.94 142.172 254.292 164.333 254.447 164.551C254.474 164.591 254.467 164.639 254.427 164.666C254.413 164.673 254.4 164.68 254.379 164.68Z" fill="#407BFF"/>
<path opacity="0.4" d="M254.379 164.68C254.353 164.68 254.326 164.666 254.312 164.646C254.158 164.421 238.792 142.24 233.153 122.751C227.857 104.425 225.948 92.5046 224.684 84.6234C223.521 77.361 222.822 72.975 220.503 69.3778C220.477 69.337 220.49 69.2826 220.53 69.2622C220.571 69.235 220.624 69.2486 220.645 69.2894C222.984 72.9206 223.683 77.3134 224.852 84.603C226.116 92.4842 228.018 104.391 233.315 122.71C238.94 142.172 254.292 164.333 254.447 164.551C254.474 164.591 254.467 164.639 254.427 164.666C254.413 164.673 254.4 164.68 254.379 164.68Z" fill="black"/>
<path d="M225.982 181.048L215.711 182.394L215.039 179.497L225.733 177.206L225.982 181.048Z" fill="#407BFF"/>
<path d="M257.465 164.361L249.89 168.787L247.335 166.571L255.623 160.906L257.465 164.361Z" fill="#407BFF"/>
<path d="M221.915 40.9678C222.278 42.865 222.493 44.6398 222.688 46.4826C222.869 48.3118 222.963 50.1478 223.017 51.9974C223.078 53.8402 223.024 55.7034 222.896 57.5598C222.822 58.4914 222.742 59.423 222.614 60.3614C222.56 60.8306 222.5 61.293 222.412 61.7622L222.164 63.2038C221.848 64.6046 221.27 65.5906 220.678 66.461C220.073 67.3314 219.435 68.0794 218.769 68.7798C217.445 70.1806 216.04 71.3774 214.602 72.5198C211.705 74.7638 208.727 76.7426 205.555 78.497L204.11 76.2394C205.447 75.1582 206.819 74.043 208.129 72.9074C209.453 71.7854 210.751 70.6226 211.974 69.4258C213.211 68.2426 214.387 67.0118 215.415 65.7606C215.926 65.135 216.39 64.4958 216.753 63.8702C217.116 63.2582 217.378 62.6326 217.412 62.2858C217.613 60.715 217.768 58.9878 217.795 57.3082C217.808 56.4582 217.815 55.6082 217.788 54.7582C217.781 53.9082 217.754 53.0514 217.714 52.1946C217.633 50.481 217.479 48.7674 217.297 47.0538C217.129 45.3538 216.881 43.5926 216.632 41.981L221.915 40.9678Z" fill="#E58A7B"/>
<path d="M221.102 35.1809C223.978 37.5405 223.293 44.5241 223.293 44.5241L213.614 47.7473C213.614 47.7473 214.058 39.6893 214.535 36.7925C215.099 33.3517 218.272 32.8689 221.102 35.1809Z" fill="#407BFF"/>
<path opacity="0.2" d="M221.102 35.1809C223.978 37.5405 223.293 44.5241 223.293 44.5241L213.614 47.7473C213.614 47.7473 214.058 39.6893 214.535 36.7925C215.099 33.3517 218.272 32.8689 221.102 35.1809Z" fill="black"/>
<path d="M93.5826 64.2574C92.8097 60.8642 89.8254 58.457 86.3773 58.457H32.5723C28.4924 58.457 25.1787 61.8026 25.1787 65.937V186.855C25.1787 190.982 28.4857 194.335 32.5723 194.335H203.31C207.39 194.335 210.703 190.989 210.703 186.855V85.283C210.703 81.1554 207.396 77.803 203.31 77.803H110.406C102.361 77.8098 95.384 72.1862 93.5826 64.2574Z" fill="#407BFF"/>
<path opacity="0.6" d="M93.5826 64.2574C92.8097 60.8642 89.8254 58.457 86.3773 58.457H32.5723C28.4924 58.457 25.1787 61.8026 25.1787 65.937V186.855C25.1787 190.982 28.4857 194.335 32.5723 194.335H203.31C207.39 194.335 210.703 190.989 210.703 186.855V85.283C210.703 81.1554 207.396 77.803 203.31 77.803H110.406C102.361 77.8098 95.384 72.1862 93.5826 64.2574Z" fill="black"/>
<path opacity="0.22" d="M74.6013 26.5991L79.3937 42.3003C80.664 46.4619 85.033 48.7943 89.1465 47.5091L104.66 42.6607L74.6013 26.5991Z" fill="#407BFF"/>
<path d="M74.6013 26.5991L19.1496 43.9255C15.0361 45.2107 12.7306 49.6239 14.001 53.7855L45.6589 157.472C46.9292 161.633 51.2914 163.966 55.4049 162.681L126.376 140.499C130.49 139.214 132.795 134.801 131.525 130.639L104.659 42.6539L74.6013 26.5991Z" fill="#407BFF"/>
<path opacity="0.8" d="M74.6013 26.5991L19.1496 43.9255C15.0361 45.2107 12.7306 49.6239 14.001 53.7855L45.6589 157.472C46.9292 161.633 51.2914 163.966 55.4049 162.681L126.376 140.499C130.49 139.214 132.795 134.801 131.525 130.639L104.659 42.6539L74.6013 26.5991Z" fill="white"/>
<g opacity="0.28">
<path d="M104.438 135.998L58.3019 150.414C56.514 150.971 54.5984 149.951 54.0472 148.142C53.496 146.334 54.5043 144.396 56.2922 143.838L102.428 129.422C104.216 128.864 106.132 129.884 106.683 131.693C107.241 133.502 106.226 135.44 104.438 135.998Z" fill="#407BFF"/>
</g>
<g opacity="0.28">
<path d="M54.7864 51.3716L30.381 59.0012C28.5931 59.5588 26.6775 58.5388 26.1263 56.73C25.5752 54.9212 26.5834 52.9832 28.3713 52.4256L52.7767 44.796C54.5646 44.2384 56.4802 45.2584 57.0314 47.0672C57.5893 48.8692 56.5811 50.8072 54.7864 51.3716Z" fill="#407BFF"/>
</g>
<g opacity="0.28">
<path d="M74.6954 59.4566L34.3736 72.057C32.5857 72.6146 30.6701 71.5946 30.119 69.7858C29.5678 67.977 30.576 66.039 32.3639 65.4814L72.6858 52.881C74.4736 52.3234 76.3892 53.3434 76.9404 55.1522C77.4983 56.9542 76.4833 58.8922 74.6954 59.4566Z" fill="#407BFF"/>
</g>
<g opacity="0.28">
<path d="M97.2123 66.7261L38.3595 85.1201C36.5716 85.6777 34.656 84.6577 34.1048 82.8489C33.5537 81.0401 34.5619 79.1021 36.3498 78.5445L95.2026 60.1505C96.9905 59.5929 98.9061 60.6129 99.4572 62.4217C100.015 64.2237 99.0002 66.1617 97.2123 66.7261Z" fill="#407BFF"/>
</g>
<g opacity="0.28">
<path d="M101.198 79.7818L66.9859 90.4714C65.198 91.029 63.2824 90.009 62.7313 88.2002C62.1801 86.3914 63.1884 84.4534 64.9762 83.8958L99.1883 73.2062C100.976 72.6486 102.892 73.6686 103.443 75.4774C104.001 77.2862 102.986 79.2242 101.198 79.7818Z" fill="#407BFF"/>
</g>
<g opacity="0.28">
<path d="M51.2981 95.3809L42.3519 98.1757C40.564 98.7333 38.6484 97.7133 38.0973 95.9045C37.5461 94.0957 38.5543 92.1577 40.3422 91.6001L49.2884 88.8053C51.0763 88.2477 52.9919 89.2677 53.5431 91.0765C54.101 92.8785 53.086 94.8165 51.2981 95.3809Z" fill="#407BFF"/>
</g>
<g opacity="0.28">
<path d="M105.191 92.8448L46.3378 111.239C44.5499 111.796 42.6343 110.776 42.0831 108.968C41.5319 107.159 42.5401 105.221 44.328 104.663L103.181 86.2692C104.969 85.7116 106.884 86.7316 107.435 88.5404C107.987 90.3492 106.978 92.2872 105.191 92.8448Z" fill="#407BFF"/>
</g>
<g opacity="0.28">
<path d="M86.4647 113L50.3236 124.295C48.5357 124.852 46.6201 123.832 46.0689 122.024C45.5178 120.215 46.526 118.277 48.3139 117.719L84.455 106.424C86.2429 105.867 88.1585 106.887 88.7096 108.696C89.2675 110.504 88.2593 112.442 86.4647 113Z" fill="#407BFF"/>
</g>
<g opacity="0.28">
<path d="M109.176 105.908L99.5311 108.92C97.7432 109.478 95.8276 108.458 95.2765 106.649C94.7253 104.84 95.7335 102.902 97.5214 102.345L107.167 99.3322C108.955 98.7746 110.87 99.7946 111.421 101.603C111.979 103.405 110.964 105.343 109.176 105.908Z" fill="#407BFF"/>
</g>
<g opacity="0.28">
<path d="M113.162 118.963L54.3094 137.357C52.5215 137.915 50.6059 136.895 50.0548 135.086C49.5036 133.277 50.5118 131.339 52.2997 130.782L111.153 112.388C112.94 111.83 114.856 112.85 115.407 114.659C115.965 116.468 114.95 118.406 113.162 118.963Z" fill="#407BFF"/>
</g>
<path d="M138.388 34.1333L80.4624 37.7509C76.1607 38.0161 72.8941 41.7561 73.1629 46.1081L79.7634 154.418C80.0255 158.77 83.7223 162.075 88.024 161.803L162.161 157.179C166.463 156.914 169.73 153.174 169.461 148.822L163.855 56.9133L138.388 34.1333Z" fill="#407BFF"/>
<path opacity="0.8" d="M138.388 34.1333L80.4624 37.7509C76.1607 38.0161 72.8941 41.7561 73.1629 46.1081L79.7634 154.418C80.0255 158.77 83.7223 162.075 88.024 161.803L162.161 157.179C166.463 156.914 169.73 153.174 169.461 148.822L163.855 56.9133L138.388 34.1333Z" fill="white"/>
<g opacity="0.22">
<path d="M141.89 147.564L93.6903 150.569C91.8217 150.685 90.1951 149.237 90.0809 147.346C89.9666 145.456 91.3983 143.81 93.2668 143.695L141.466 140.689C143.335 140.573 144.961 142.022 145.076 143.912C145.197 145.809 143.758 147.448 141.89 147.564Z" fill="#407BFF"/>
</g>
<g opacity="0.22">
<path d="M113.364 53.4794L87.8695 55.0706C86.0009 55.1862 84.3743 53.7378 84.2601 51.8474C84.1458 49.957 85.5775 48.3114 87.446 48.1958L112.94 46.6046C114.809 46.489 116.436 47.9374 116.55 49.8278C116.664 51.7182 115.232 53.3638 113.364 53.4794Z" fill="#407BFF"/>
</g>
<g opacity="0.22">
<path d="M130.826 66.0863L88.703 68.7179C86.8344 68.8335 85.2078 67.3851 85.0935 65.4947C84.9793 63.6043 86.411 61.9587 88.2795 61.8431L130.403 59.2115C132.271 59.0959 133.898 60.5443 134.012 62.4347C134.126 64.3251 132.695 65.9707 130.826 66.0863Z" fill="#407BFF"/>
</g>
<g opacity="0.22">
<path d="M151.011 78.5238L89.5364 82.359C87.6679 82.4746 86.0413 81.0263 85.927 79.1359C85.8128 77.2455 87.2444 75.5998 89.113 75.4842L150.587 71.649C152.456 71.5334 154.082 72.9818 154.197 74.8722C154.318 76.7626 152.879 78.4014 151.011 78.5238Z" fill="#407BFF"/>
</g>
<g opacity="0.22">
<path d="M151.844 92.1645L116.106 94.3949C114.237 94.5105 112.611 93.0621 112.497 91.1717C112.382 89.2813 113.814 87.6357 115.683 87.5201L151.42 85.2897C153.289 85.1741 154.916 86.6225 155.03 88.5129C155.144 90.4033 153.712 92.0489 151.844 92.1645Z" fill="#407BFF"/>
</g>
<g opacity="0.22">
<path d="M99.7126 95.415L90.3631 95.9998C88.4946 96.1154 86.868 94.667 86.7537 92.7766C86.6394 90.8862 88.0711 89.2406 89.9397 89.125L99.2892 88.5402C101.158 88.4246 102.784 89.873 102.899 91.7634C103.02 93.6606 101.581 95.2994 99.7126 95.415Z" fill="#407BFF"/>
</g>
<g opacity="0.22">
<path d="M152.677 105.805L91.2032 109.64C89.3346 109.756 87.7081 108.308 87.5938 106.417C87.4795 104.527 88.9112 102.881 90.7798 102.766L152.254 98.9303C154.122 98.8147 155.749 100.263 155.863 102.154C155.978 104.051 154.546 105.69 152.677 105.805Z" fill="#407BFF"/>
</g>
<g opacity="0.22">
<path d="M129.784 120.929L92.0299 123.281C90.1613 123.397 88.5347 121.949 88.4205 120.058C88.3062 118.168 89.7379 116.522 91.6064 116.407L129.361 114.054C131.229 113.938 132.856 115.387 132.97 117.277C133.091 119.174 131.653 120.813 129.784 120.929Z" fill="#407BFF"/>
</g>
<g opacity="0.22">
<path d="M153.504 119.453L143.429 120.079C141.56 120.194 139.934 118.746 139.819 116.855C139.705 114.965 141.137 113.319 143.005 113.204L153.081 112.578C154.949 112.463 156.576 113.911 156.69 115.801C156.811 117.692 155.373 119.331 153.504 119.453Z" fill="#407BFF"/>
</g>
<g opacity="0.22">
<path d="M154.337 133.094L92.8634 136.929C90.9948 137.044 89.3682 135.596 89.2539 133.706C89.1397 131.815 90.5714 130.17 92.4399 130.054L153.914 126.219C155.783 126.103 157.409 127.552 157.523 129.442C157.644 131.332 156.206 132.978 154.337 133.094Z" fill="#407BFF"/>
</g>
<path opacity="0.22" d="M138.388 34.1333L139.389 50.5349C139.651 54.8869 143.355 58.1917 147.657 57.9197L163.862 56.9065L138.388 34.1333Z" fill="#407BFF"/>
<path opacity="0.5" d="M119.42 75.0489C119.305 71.6557 116.778 69.2485 113.337 69.2485H59.5318C55.4519 69.2485 51.493 72.5941 50.6999 76.7285L29.44 186.855C28.6402 190.982 31.3086 194.335 35.3885 194.335H206.126C210.206 194.335 214.165 190.989 214.958 186.855L232.481 96.0745C233.281 91.9469 230.612 88.5945 226.532 88.5945H133.629C125.583 88.5945 119.695 82.9777 119.42 75.0489Z" fill="#407BFF"/>
</svg>
