<svg width="69" height="60" viewBox="0 0 69 60" fill="none" xmlns="http://www.w3.org/2000/svg">
    <path d="M67.4174 10.7941L36.0064 0.239059C35.0357 -0.0796863 33.9657 -0.0796863 32.995 0.239059L1.58263 10.7941C1.17401 10.9282 0.821902 11.1681 0.573331 11.4818C0.324759 11.7954 0.191561 12.168 0.191528 12.5496L0.191528 16.875C0.191528 17.9109 1.15109 18.75 2.33581 18.75H66.6643C67.849 18.75 68.8085 17.9109 68.8085 16.875V12.5496C68.8085 11.768 68.2537 11.0684 67.4174 10.7941ZM8.76866 22.5V41.25H6.62437C5.43966 41.25 4.48009 42.0891 4.48009 43.125V48.75H64.52V43.125C64.52 42.0891 63.5604 41.25 62.3757 41.25H60.2314V22.5H51.6543V41.25H38.7886V22.5H30.2115V41.25H17.3458V22.5H8.76866ZM66.6643 52.5H2.33581C1.15109 52.5 0.191528 53.3391 0.191528 54.375V58.125C0.191528 59.1609 1.15109 60 2.33581 60H66.6643C67.849 60 68.8085 59.1609 68.8085 58.125V54.375C68.8085 53.3391 67.849 52.5 66.6643 52.5Z"
          fill="#2B3E78"/>
</svg>
