<svg width="42" height="52" viewBox="0 0 42 52" fill="none" xmlns="http://www.w3.org/2000/svg">
<path d="M35.9057 51.4694H36.0557H37.095C37.7088 51.4694 38.2648 51.3819 38.761 51.2042L38.7616 51.204C39.2604 51.023 39.6888 50.7635 40.0444 50.4242C40.4041 50.0848 40.6785 49.6751 40.8676 49.1974L40.8677 49.197C41.0571 48.715 41.1503 48.1777 41.1503 47.587V47.1123C41.1503 46.5218 41.0571 45.9861 40.8677 45.5075C40.6788 45.0268 40.4068 44.6155 40.0513 44.276C39.7002 43.9334 39.2818 43.6735 38.7981 43.4957C38.3138 43.3141 37.781 43.2244 37.2015 43.2244H36.0557H35.9057H35.2607H35.1107H34.7637H34.6137V43.3744V51.3194V51.4694H34.7637H35.1441H35.2962H35.9057ZM36.0557 50.3127V44.3866H37.2015C37.6128 44.3866 37.9705 44.4481 38.2773 44.5674L38.2779 44.5676C38.589 44.6871 38.8494 44.8619 39.0618 45.0915L39.0618 45.0915L39.0626 45.0923C39.2747 45.3183 39.4379 45.5988 39.5503 45.9373L39.5504 45.9377C39.6626 46.2722 39.7201 46.6594 39.7201 47.1014V47.587C39.7201 48.1474 39.6189 48.6299 39.4215 49.0388L39.4212 49.0393C39.2291 49.4414 38.9423 49.7534 38.5582 49.9783C38.1766 50.1981 37.6916 50.3127 37.095 50.3127H36.0557Z" fill="#FEFEFE" stroke="#FEFEFE" stroke-width="0.3"/>
<path d="M33.6063 50.4627V50.3127H33.4563H29.5234V43.3744V43.2244H29.3734H28.2314H28.0814V43.3744V51.3194V51.4694H28.2314H28.9986H29.1486H29.3734H29.5234H33.4563H33.6063V51.3194V50.4627Z" fill="#FEFEFE" stroke="#FEFEFE" stroke-width="0.3"/>
<path d="M26.9661 50.4627V50.3127H26.8161H22.6348V47.7971H26.2126H26.3626V47.6471V46.7904V46.6404H26.2126H22.6348V44.3866H26.7569H26.9069V44.2366V43.3744V43.2244H26.7569H22.6348H22.4848H22.254H22.104H21.3428H21.1928V43.3744V51.3194V51.4694H21.3428H22.104H22.254H22.4848H22.6348H26.8161H26.9661V51.3194V50.4627Z" fill="#FEFEFE" stroke="#FEFEFE" stroke-width="0.3"/>
<path d="M19.5996 47.3633V47.2133H19.4496H16.3195H16.1695V47.3633V48.2146V48.3646H16.3195H18.1635V49.9312C18.102 49.9886 18.0179 50.0526 17.9084 50.1228C17.7843 50.1989 17.6037 50.2703 17.3597 50.3336C17.1236 50.3913 16.8079 50.4219 16.4082 50.4219C16.0597 50.4219 15.745 50.3598 15.462 50.2378C15.1833 50.116 14.9434 49.9388 14.741 49.7048C14.5385 49.467 14.3799 49.1777 14.2669 48.8342C14.1582 48.4916 14.1026 48.0983 14.1026 47.6525V47.025C14.1026 46.5878 14.1469 46.1988 14.2339 45.8568C14.3244 45.5162 14.4588 45.231 14.6345 44.9981C14.8086 44.7673 15.0295 44.5901 15.2994 44.4656C15.5675 44.342 15.8903 44.2775 16.2721 44.2775C16.6989 44.2775 17.0339 44.348 17.2858 44.4788L17.2858 44.4789L17.2872 44.4795C17.5462 44.6107 17.7395 44.7826 17.8732 44.9935L17.8732 44.9936L17.8742 44.995C18.0167 45.2141 18.1121 45.457 18.1599 45.7254L18.182 45.849H18.3076H19.4496H19.624L19.5979 45.6766C19.5238 45.1865 19.3543 44.7467 19.0884 44.3595C18.8231 43.9675 18.4541 43.6636 17.987 43.4461C17.5194 43.223 16.9456 43.1153 16.2721 43.1153C15.7009 43.1153 15.1886 43.2031 14.7379 43.3822C14.2876 43.5575 13.9051 43.8178 13.5931 44.163C13.2815 44.5041 13.0468 44.9177 12.8871 45.4009L12.8871 45.4009L12.8868 45.402C12.7312 45.8853 12.6547 46.4305 12.6547 47.0359V47.6525C12.6547 48.26 12.7436 48.8092 12.9244 49.2979L12.9243 49.2979L12.9249 49.2993C13.109 49.7824 13.3682 50.1969 13.7032 50.5402L13.7032 50.5402L13.7045 50.5415C14.043 50.8803 14.4414 51.139 14.898 51.3173L14.8995 51.3178C15.36 51.4923 15.8615 51.5786 16.4023 51.5786C17.0538 51.5786 17.5956 51.5124 18.0223 51.3749L18.023 51.3747C18.4424 51.237 18.7811 51.0741 19.0319 50.8819L19.032 50.8819L19.0331 50.881C19.2707 50.6953 19.4525 50.5218 19.5707 50.3603L19.5996 50.3208V50.2717V47.3633Z" fill="#FEFEFE" stroke="#FEFEFE" stroke-width="0.3"/>
<path d="M11.9965 47.527V47.377H11.8465H8.95898H8.80898V47.527V48.3564V48.5064H8.95898H11.8465H11.9965V48.3564V47.527Z" fill="#FEFEFE" stroke="#FEFEFE" stroke-width="0.3"/>
<path d="M4.37869 43.2244H4.284H4.18369L4.14538 43.3171L0.861375 51.2621L0.77569 51.4694H1H2.16567H2.26781L2.30524 51.3744L3.08667 49.3904H6.48562L7.26872 51.3745L7.30618 51.4694H7.40824H8.57983H8.80445L8.71838 51.262L5.42255 43.317L5.38417 43.2244H5.284H5.18931H5.03548H4.53252H4.37869ZM4.78439 45.0801L6.02693 48.2283H3.54441L4.78439 45.0801Z" fill="#FEFEFE" stroke="#FEFEFE" stroke-width="0.3"/>
<g clip-path="url(#clip0_95905_343693)">
<path d="M20.9155 39.9973C15.3142 39.9973 9.71297 39.9997 4.11171 39.9973C1.85705 39.9973 1.13414 39.3102 1.12656 37.1499C1.08612 28.3075 1.07853 19.4627 1.00018 10.6204C0.987539 9.06776 1.64978 8.22445 3.05515 7.6019C8.15089 5.34977 13.2289 3.06044 18.2589 0.674383C20.1749 -0.233411 21.9089 -0.216049 23.797 0.669423C28.8371 3.03564 33.9025 5.34977 38.9856 7.62918C40.3834 8.2567 41.0179 9.13969 41.0002 10.6849C40.894 19.5272 40.8687 28.3696 40.7853 37.2119C40.7651 39.3474 40.0801 39.9501 37.8457 39.9526C32.2014 39.9576 26.5597 39.9526 20.9155 39.9526C20.9155 39.9675 20.9155 39.9799 20.9155 39.9948V39.9973Z" fill="#FEFEFE"/>
<path d="M27.3985 12.9547C27.3985 13.1209 27.4011 13.2846 27.3985 13.4507C27.3707 14.9042 27.027 15.0183 25.6317 14.676C23.9003 14.2519 22.1082 14.0187 20.3287 13.8501C19.2216 13.7459 18.2282 14.17 17.8592 15.3507C17.5003 16.4966 17.9502 17.6474 19.1837 18.2576C20.8671 19.091 22.6415 19.7482 24.3628 20.5122C26.1625 21.3133 27.7853 22.3377 28.4829 24.2872C29.863 28.1491 27.9698 31.5917 23.6096 32.8096C23.1951 32.9832 22.2598 32.7352 22.2169 33.6256C22.2118 34.6326 22.2042 36.2126 22.2042 36.2126H20.1189C20.1189 36.2126 20.086 34.5309 20.086 33.509C20.0911 32.8939 19.4845 32.8939 19.0345 32.8269C18.5846 32.76 17.0503 32.5516 15.056 32.0208C13.9717 31.7306 13.499 31.0907 13.499 29.9523C13.499 27.0354 13.6026 26.9412 16.2895 27.9854C18.165 28.7146 20.1164 28.9428 22.1132 28.7443C23.0939 28.6476 23.9205 28.2632 24.1505 27.209C24.3805 26.1623 24.0393 25.2744 23.0434 24.813C21.3751 24.0417 19.6462 23.3918 17.9628 22.6477C16.0039 21.7796 14.2396 20.6784 13.547 18.5081C12.306 14.609 14.4898 10.9456 18.5922 10.2362C19.1306 10.142 19.4668 9.9907 19.669 9.74514C19.7853 9.60377 19.9445 8.61908 19.9445 8.61908L19.99 6.93991H22.0955C22.0955 6.93991 22.0753 7.54263 22.0829 8.27928C22.0905 8.882 22.1006 9.41278 22.4368 9.74514C22.7274 10.0329 23.1951 10.147 23.8548 10.1122C24.1884 10.0949 24.5271 10.1494 24.8608 10.1916C26.9309 10.4421 27.3884 10.9431 27.396 12.9522L27.3985 12.9547Z" fill="url(#paint0_linear_95905_343693)"/>
</g>
<defs>
<linearGradient id="paint0_linear_95905_343693" x1="21.0637" y1="6.93991" x2="21.0637" y2="36.2126" gradientUnits="userSpaceOnUse">
<stop stop-color="#E4656C"/>
<stop offset="1" stop-color="#C61818"/>
</linearGradient>
<clipPath id="clip0_95905_343693">
<rect width="40" height="40" fill="white" transform="translate(1)"/>
</clipPath>
</defs>
</svg>
