<svg width="40" height="40" viewBox="0 0 40 40" fill="none" xmlns="http://www.w3.org/2000/svg">
<g clip-path="url(#clip0_95898_199091)">
<path d="M19.9155 39.9973C14.3142 39.9973 8.71297 39.9997 3.11171 39.9973C0.857049 39.9973 0.134143 39.3102 0.12656 37.1499C0.0861174 28.3075 0.0785345 19.4627 0.000177447 10.6204C-0.0124608 9.06776 0.649783 8.22445 2.05515 7.6019C7.15089 5.34977 12.2289 3.06044 17.2589 0.674383C19.1749 -0.233411 20.9089 -0.216049 22.797 0.669423C27.8371 3.03564 32.9025 5.34977 37.9856 7.62918C39.3834 8.2567 40.0179 9.13969 40.0002 10.6849C39.894 19.5272 39.8687 28.3696 39.7853 37.2119C39.7651 39.3474 39.0801 39.9501 36.8457 39.9526C31.2014 39.9576 25.5597 39.9526 19.9155 39.9526C19.9155 39.9675 19.9155 39.9799 19.9155 39.9948V39.9973Z" fill="#FEFEFE"/>
<path d="M26.3985 12.9547C26.3985 13.1209 26.4011 13.2846 26.3985 13.4507C26.3707 14.9042 26.027 15.0183 24.6317 14.676C22.9003 14.2519 21.1082 14.0187 19.3287 13.8501C18.2216 13.7459 17.2282 14.17 16.8592 15.3507C16.5003 16.4966 16.9502 17.6474 18.1837 18.2576C19.8671 19.091 21.6415 19.7482 23.3628 20.5122C25.1625 21.3133 26.7853 22.3377 27.4829 24.2872C28.863 28.1491 26.9698 31.5917 22.6096 32.8096C22.1951 32.9832 21.2598 32.7352 21.2169 33.6256C21.2118 34.6326 21.2042 36.2126 21.2042 36.2126H19.1189C19.1189 36.2126 19.086 34.5309 19.086 33.509C19.0911 32.8939 18.4845 32.8939 18.0345 32.8269C17.5846 32.76 16.0503 32.5516 14.056 32.0208C12.9717 31.7306 12.499 31.0907 12.499 29.9523C12.499 27.0354 12.6026 26.9412 15.2895 27.9854C17.165 28.7146 19.1164 28.9428 21.1132 28.7443C22.0939 28.6476 22.9205 28.2632 23.1505 27.209C23.3805 26.1623 23.0393 25.2744 22.0434 24.813C20.3751 24.0417 18.6462 23.3918 16.9628 22.6477C15.0039 21.7796 13.2396 20.6784 12.547 18.5081C11.306 14.609 13.4898 10.9456 17.5922 10.2362C18.1306 10.142 18.4668 9.9907 18.669 9.74514C18.7853 9.60377 18.9445 8.61908 18.9445 8.61908L18.99 6.93991H21.0955C21.0955 6.93991 21.0753 7.54263 21.0829 8.27928C21.0905 8.882 21.1006 9.41278 21.4368 9.74514C21.7274 10.0329 22.1951 10.147 22.8548 10.1122C23.1884 10.0949 23.5271 10.1494 23.8608 10.1916C25.9309 10.4421 26.3884 10.9431 26.396 12.9522L26.3985 12.9547Z" fill="url(#paint0_linear_95898_199091)"/>
</g>
<defs>
<linearGradient id="paint0_linear_95898_199091" x1="20.0641" y1="36.2136" x2="20.0641" y2="6.94014" gradientUnits="userSpaceOnUse">
<stop stop-color="#E4656C"/>
<stop offset="1" stop-color="#C61818"/>
</linearGradient>
<clipPath id="clip0_95898_199091">
<rect width="40" height="40" fill="white"/>
</clipPath>
</defs>
</svg>
