<svg width="129" height="108" viewBox="0 0 129 108" fill="none" xmlns="http://www.w3.org/2000/svg">
    <path d="M28.333 76.3193L22.5322 94H17.8594L25.7842 72.6719H28.7578L28.333 76.3193ZM33.1523 94L27.3369 76.3193L26.8682 72.6719H29.8711L37.8398 94H33.1523ZM32.8887 86.0605V89.5029H21.624V86.0605H32.8887ZM47.874 83.1895V86.5H39.5977V83.1895H47.874ZM68.5576 82.8525V91.3047C68.2256 91.7051 67.7129 92.1396 67.0195 92.6084C66.3262 93.0674 65.4326 93.4629 64.3389 93.7949C63.2451 94.127 61.9219 94.293 60.3691 94.293C58.9922 94.293 57.7373 94.0684 56.6045 93.6191C55.4717 93.1602 54.4951 92.4912 53.6748 91.6123C52.8643 90.7334 52.2393 89.6592 51.7998 88.3896C51.3604 87.1104 51.1406 85.6504 51.1406 84.0098V82.6768C51.1406 81.0361 51.3506 79.5762 51.7705 78.2969C52.2002 77.0176 52.8105 75.9385 53.6016 75.0596C54.3926 74.1807 55.335 73.5117 56.4287 73.0527C57.5225 72.5938 58.7383 72.3643 60.0762 72.3643C61.9316 72.3643 63.4551 72.667 64.6465 73.2725C65.8379 73.8682 66.7461 74.6982 67.3711 75.7627C68.0059 76.8174 68.3965 78.0283 68.543 79.3955H64.2803C64.1729 78.6729 63.9678 78.043 63.665 77.5059C63.3623 76.9688 62.9277 76.5488 62.3613 76.2461C61.8047 75.9434 61.082 75.792 60.1934 75.792C59.4609 75.792 58.8066 75.9434 58.2305 76.2461C57.6641 76.5391 57.1855 76.9736 56.7949 77.5498C56.4043 78.126 56.1064 78.8389 55.9014 79.6885C55.6963 80.5381 55.5938 81.5244 55.5938 82.6475V84.0098C55.5938 85.123 55.7012 86.1094 55.916 86.9688C56.1309 87.8184 56.4482 88.5361 56.8682 89.1221C57.2979 89.6982 57.8252 90.1328 58.4502 90.4258C59.0752 90.7188 59.8027 90.8652 60.6328 90.8652C61.3262 90.8652 61.9023 90.8066 62.3613 90.6895C62.8301 90.5723 63.2061 90.4307 63.4893 90.2646C63.7822 90.0889 64.0068 89.9229 64.1631 89.7666V85.9873H60.1494V82.8525H68.5576ZM79.1338 94.293C77.9033 94.293 76.7998 94.0977 75.8232 93.707C74.8467 93.3066 74.0166 92.7549 73.333 92.0518C72.6592 91.3486 72.1416 90.5332 71.7803 89.6055C71.4189 88.668 71.2383 87.6719 71.2383 86.6172V86.0312C71.2383 84.8301 71.4092 83.7314 71.751 82.7354C72.0928 81.7393 72.5811 80.875 73.2158 80.1426C73.8604 79.4102 74.6416 78.8486 75.5596 78.458C76.4775 78.0576 77.5127 77.8574 78.665 77.8574C79.7881 77.8574 80.7842 78.043 81.6533 78.4141C82.5225 78.7852 83.25 79.3125 83.8359 79.9961C84.4316 80.6797 84.8809 81.5 85.1836 82.457C85.4863 83.4043 85.6377 84.459 85.6377 85.6211V87.3789H73.04V84.5664H81.4922V84.2441C81.4922 83.6582 81.3848 83.1357 81.1699 82.6768C80.9648 82.208 80.6523 81.8369 80.2324 81.5635C79.8125 81.29 79.2754 81.1533 78.6211 81.1533C78.0645 81.1533 77.5859 81.2754 77.1855 81.5195C76.7852 81.7637 76.458 82.1055 76.2041 82.5449C75.96 82.9844 75.7744 83.502 75.6475 84.0977C75.5303 84.6836 75.4717 85.3281 75.4717 86.0312V86.6172C75.4717 87.252 75.5596 87.8379 75.7354 88.375C75.9209 88.9121 76.1797 89.376 76.5117 89.7666C76.8535 90.1572 77.2637 90.46 77.7422 90.6748C78.2305 90.8896 78.7822 90.9971 79.3975 90.9971C80.1592 90.9971 80.8672 90.8506 81.5215 90.5576C82.1855 90.2549 82.7568 89.8008 83.2354 89.1953L85.2861 91.4219C84.9541 91.9004 84.5 92.3594 83.9238 92.7988C83.3574 93.2383 82.6738 93.5996 81.873 93.8828C81.0723 94.1562 80.1592 94.293 79.1338 94.293ZM92.4932 71.5V94H88.2598V71.5H92.4932ZM105.34 90.543V71.5H109.588V94H105.765L105.34 90.543ZM95.3203 86.2656V85.958C95.3203 84.7471 95.457 83.6484 95.7305 82.6621C96.0039 81.666 96.4043 80.8115 96.9316 80.0986C97.459 79.3857 98.1084 78.834 98.8799 78.4434C99.6514 78.0527 100.53 77.8574 101.517 77.8574C102.444 77.8574 103.255 78.0527 103.948 78.4434C104.651 78.834 105.247 79.3906 105.735 80.1133C106.233 80.8262 106.634 81.6709 106.937 82.6475C107.239 83.6143 107.459 84.6738 107.596 85.8262V86.5C107.459 87.6035 107.239 88.6289 106.937 89.5762C106.634 90.5234 106.233 91.3535 105.735 92.0664C105.247 92.7695 104.651 93.3164 103.948 93.707C103.245 94.0977 102.425 94.293 101.487 94.293C100.501 94.293 99.6221 94.0928 98.8506 93.6924C98.0889 93.292 97.4443 92.7305 96.917 92.0078C96.3994 91.2852 96.0039 90.4355 95.7305 89.459C95.457 88.4824 95.3203 87.418 95.3203 86.2656ZM99.5391 85.958V86.2656C99.5391 86.9199 99.5879 87.5303 99.6855 88.0967C99.793 88.6631 99.9639 89.166 100.198 89.6055C100.442 90.0352 100.755 90.3721 101.136 90.6162C101.526 90.8506 102 90.9678 102.557 90.9678C103.279 90.9678 103.875 90.8066 104.344 90.4844C104.812 90.1523 105.169 89.6982 105.413 89.1221C105.667 88.5459 105.813 87.8818 105.853 87.1299V85.2109C105.823 84.5957 105.735 84.0439 105.589 83.5557C105.452 83.0576 105.247 82.6328 104.974 82.2812C104.71 81.9297 104.378 81.6562 103.978 81.4609C103.587 81.2656 103.123 81.168 102.586 81.168C102.039 81.168 101.57 81.2949 101.18 81.5488C100.789 81.793 100.472 82.1299 100.228 82.5596C99.9932 82.9893 99.8174 83.4971 99.7002 84.083C99.5928 84.6592 99.5391 85.2842 99.5391 85.958Z" 
    fill="#2B3E78"/>
    <path d="M97.4174 10.7941L66.0064 0.239059C65.0357 -0.0796863 63.9657 -0.0796863 62.995 0.239059L31.5826 10.7941C31.174 10.9282 30.8219 11.1681 30.5733 11.4818C30.3248 11.7954 30.1916 12.168 30.1915 12.5496V16.875C30.1915 17.9109 31.1511 18.75 32.3358 18.75H96.6643C97.849 18.75 98.8085 17.9109 98.8085 16.875V12.5496C98.8085 11.768 98.2537 11.0684 97.4174 10.7941ZM38.7687 22.5V41.25H36.6244C35.4397 41.25 34.4801 42.0891 34.4801 43.125V48.75H94.52V43.125C94.52 42.0891 93.5604 41.25 92.3757 41.25H90.2314V22.5H81.6543V41.25H68.7886V22.5H60.2115V41.25H47.3458V22.5H38.7687ZM96.6643 52.5H32.3358C31.1511 52.5 30.1915 53.3391 30.1915 54.375V58.125C30.1915 59.1609 31.1511 60 32.3358 60H96.6643C97.849 60 98.8085 59.1609 98.8085 58.125V54.375C98.8085 53.3391 97.849 52.5 96.6643 52.5Z" 
    fill="#2B3E78"/>
</svg>
