<svg width="32" height="32" viewBox="0 0 32 32" fill="none" xmlns="http://www.w3.org/2000/svg">
<g clip-path="url(#clip0_78667_2173)">
<path d="M10.6625 22.9328H9.59583C9.45438 22.9328 9.31873 22.989 9.21871 23.089C9.11869 23.189 9.0625 23.3247 9.0625 23.4661C9.0625 23.6076 9.11869 23.7433 9.21871 23.8433C9.31873 23.9433 9.45438 23.9995 9.59583 23.9995H10.6625C10.8039 23.9995 10.9396 23.9433 11.0396 23.8433C11.1396 23.7433 11.1958 23.6076 11.1958 23.4661C11.1958 23.3247 11.1396 23.189 11.0396 23.089C10.9396 22.989 10.8039 22.9328 10.6625 22.9328ZM25.5958 22.9328H12.7958C12.6544 22.9328 12.5187 22.989 12.4187 23.089C12.3187 23.189 12.2625 23.3247 12.2625 23.4661C12.2625 23.6076 12.3187 23.7433 12.4187 23.8433C12.5187 23.9433 12.6544 23.9995 12.7958 23.9995H25.5958C25.7373 23.9995 25.8729 23.9433 25.973 23.8433C26.073 23.7433 26.1292 23.6076 26.1292 23.4661C26.1292 23.3247 26.073 23.189 25.973 23.089C25.8729 22.989 25.7373 22.9328 25.5958 22.9328ZM10.6625 19.7328H9.59583C9.45438 19.7328 9.31873 19.789 9.21871 19.889C9.11869 19.989 9.0625 20.1247 9.0625 20.2661C9.0625 20.4076 9.11869 20.5433 9.21871 20.6433C9.31873 20.7433 9.45438 20.7995 9.59583 20.7995H10.6625C10.8039 20.7995 10.9396 20.7433 11.0396 20.6433C11.1396 20.5433 11.1958 20.4076 11.1958 20.2661C11.1958 20.1247 11.1396 19.989 11.0396 19.889C10.9396 19.789 10.8039 19.7328 10.6625 19.7328ZM25.5958 19.7328H12.7958C12.6544 19.7328 12.5187 19.789 12.4187 19.889C12.3187 19.989 12.2625 20.1247 12.2625 20.2661C12.2625 20.4076 12.3187 20.5433 12.4187 20.6433C12.5187 20.7433 12.6544 20.7995 12.7958 20.7995H25.5958C25.7373 20.7995 25.8729 20.7433 25.973 20.6433C26.073 20.5433 26.1292 20.4076 26.1292 20.2661C26.1292 20.1247 26.073 19.989 25.973 19.889C25.8729 19.789 25.7373 19.7328 25.5958 19.7328ZM10.6625 16.5328H9.59583C9.45438 16.5328 9.31873 16.589 9.21871 16.689C9.11869 16.789 9.0625 16.9247 9.0625 17.0661C9.0625 17.2076 9.11869 17.3433 9.21871 17.4433C9.31873 17.5433 9.45438 17.5995 9.59583 17.5995H10.6625C10.8039 17.5995 10.9396 17.5433 11.0396 17.4433C11.1396 17.3433 11.1958 17.2076 11.1958 17.0661C11.1958 16.9247 11.1396 16.789 11.0396 16.689C10.9396 16.589 10.8039 16.5328 10.6625 16.5328ZM25.5958 16.5328H12.7958C12.6544 16.5328 12.5187 16.589 12.4187 16.689C12.3187 16.789 12.2625 16.9247 12.2625 17.0661C12.2625 17.2076 12.3187 17.3433 12.4187 17.4433C12.5187 17.5433 12.6544 17.5995 12.7958 17.5995H25.5958C25.7373 17.5995 25.8729 17.5433 25.973 17.4433C26.073 17.3433 26.1292 17.2076 26.1292 17.0661C26.1292 16.9247 26.073 16.789 25.973 16.689C25.8729 16.589 25.7373 16.5328 25.5958 16.5328ZM10.6625 13.3328H9.59583C9.45438 13.3328 9.31873 13.389 9.21871 13.489C9.11869 13.589 9.0625 13.7247 9.0625 13.8661C9.0625 14.0076 9.11869 14.1433 9.21871 14.2433C9.31873 14.3433 9.45438 14.3995 9.59583 14.3995H10.6625C10.8039 14.3995 10.9396 14.3433 11.0396 14.2433C11.1396 14.1433 11.1958 14.0076 11.1958 13.8661C11.1958 13.7247 11.1396 13.589 11.0396 13.489C10.9396 13.389 10.8039 13.3328 10.6625 13.3328ZM25.5958 13.3328H12.7958C12.6544 13.3328 12.5187 13.389 12.4187 13.489C12.3187 13.589 12.2625 13.7247 12.2625 13.8661C12.2625 14.0076 12.3187 14.1433 12.4187 14.2433C12.5187 14.3433 12.6544 14.3995 12.7958 14.3995H25.5958C25.7373 14.3995 25.8729 14.3433 25.973 14.2433C26.073 14.1433 26.1292 14.0076 26.1292 13.8661C26.1292 13.7247 26.073 13.589 25.973 13.489C25.8729 13.389 25.7373 13.3328 25.5958 13.3328ZM10.6625 10.1328H9.59583C9.45438 10.1328 9.31873 10.189 9.21871 10.289C9.11869 10.389 9.0625 10.5247 9.0625 10.6661C9.0625 10.8076 9.11869 10.9433 9.21871 11.0433C9.31873 11.1433 9.45438 11.1995 9.59583 11.1995H10.6625C10.8039 11.1995 10.9396 11.1433 11.0396 11.0433C11.1396 10.9433 11.1958 10.8076 11.1958 10.6661C11.1958 10.5247 11.1396 10.389 11.0396 10.289C10.9396 10.189 10.8039 10.1328 10.6625 10.1328ZM25.5958 10.1328H12.7958C12.6544 10.1328 12.5187 10.189 12.4187 10.289C12.3187 10.389 12.2625 10.5247 12.2625 10.6661C12.2625 10.8076 12.3187 10.9433 12.4187 11.0433C12.5187 11.1433 12.6544 11.1995 12.7958 11.1995H25.5958C25.7373 11.1995 25.8729 11.1433 25.973 11.0433C26.073 10.9433 26.1292 10.8076 26.1292 10.6661C26.1292 10.5247 26.073 10.389 25.973 10.289C25.8729 10.189 25.7373 10.1328 25.5958 10.1328Z" fill="#C61818"/>
<path d="M29.3238 7.9664C29.3211 7.91967 29.312 7.87354 29.2966 7.82933C29.2907 7.81227 29.2865 7.79573 29.279 7.7792C29.253 7.72117 29.2169 7.66825 29.1723 7.62293L21.7057 0.156267C21.6603 0.11168 21.6074 0.0755557 21.5494 0.0496C21.5329 0.0421333 21.5163 0.0378667 21.4998 0.032C21.4552 0.0166625 21.4087 0.00733606 21.3617 0.00426667C21.3526 0.00586667 21.3425 0 21.3307 0H6.3974C6.25595 0 6.12029 0.0561903 6.02027 0.15621C5.92025 0.256229 5.86406 0.391885 5.86406 0.533333V2.13333H3.1974C3.05595 2.13333 2.92029 2.18952 2.82027 2.28954C2.72025 2.38956 2.66406 2.52522 2.66406 2.66667V31.4667C2.66406 31.6081 2.72025 31.7438 2.82027 31.8438C2.92029 31.9438 3.05595 32 3.1974 32H25.5974C25.7388 32 25.8745 31.9438 25.9745 31.8438C26.0745 31.7438 26.1307 31.6081 26.1307 31.4667V28.8H28.7974C28.9388 28.8 29.0745 28.7438 29.1745 28.6438C29.2745 28.5438 29.3307 28.4081 29.3307 28.2667V8C29.3307 7.98827 29.3249 7.97813 29.3238 7.9664ZM21.8641 1.8208L27.5099 7.46667H21.8641V1.8208ZM25.0641 30.9333H3.73073V3.2H5.86406V28.2667C5.86406 28.4081 5.92025 28.5438 6.02027 28.6438C6.12029 28.7438 6.25595 28.8 6.3974 28.8H25.0641V30.9333ZM28.2641 27.7333H6.93073V1.06667H20.7974V8C20.7974 8.14145 20.8536 8.2771 20.9536 8.37712C21.0536 8.47714 21.1893 8.53333 21.3307 8.53333H28.2641V27.7333Z" fill="#C61818"/>
<path d="M12.7958 4.80078H9.59583C9.45438 4.80078 9.31873 4.85697 9.21871 4.95699C9.11869 5.05701 9.0625 5.19267 9.0625 5.33411V8.53411C9.0625 8.67556 9.11869 8.81122 9.21871 8.91124C9.31873 9.01126 9.45438 9.06745 9.59583 9.06745H12.7958C12.9373 9.06745 13.0729 9.01126 13.173 8.91124C13.273 8.81122 13.3292 8.67556 13.3292 8.53411V5.33411C13.3292 5.19267 13.273 5.05701 13.173 4.95699C13.0729 4.85697 12.9373 4.80078 12.7958 4.80078ZM12.2625 8.00078H10.1292V5.86745H12.2625V8.00078Z" fill="#C61818"/>
</g>
<defs>
<clipPath id="clip0_78667_2173">
<rect width="32" height="32" fill="white"/>
</clipPath>
</defs>
</svg>
