<svg width="32" height="32" viewBox="0 0 32 32" fill="none" xmlns="http://www.w3.org/2000/svg">
<path d="M29.2293 13.3541H2.77002M2.77002 10.9727L2.77002 21.0273C2.77002 22.5091 2.77002 23.25 3.05841 23.816C3.31208 24.3139 3.71686 24.7187 4.21472 24.9724C4.78071 25.2607 5.52164 25.2607 7.0035 25.2607L24.9958 25.2607C26.4777 25.2607 27.2186 25.2607 27.7846 24.9724C28.2824 24.7187 28.6872 24.3139 28.9409 23.816C29.2293 23.25 29.2293 22.5091 29.2293 21.0273V10.9727C29.2293 9.49088 29.2293 8.74996 28.9409 8.18396C28.6872 7.6861 28.2824 7.28132 27.7846 7.02765C27.2186 6.73926 26.4777 6.73926 24.9958 6.73926L7.0035 6.73926C5.52164 6.73926 4.78072 6.73926 4.21472 7.02765C3.71686 7.28132 3.31208 7.6861 3.05841 8.18396C2.77002 8.74995 2.77002 9.49088 2.77002 10.9727Z" stroke="#C61818" stroke-width="1.5" stroke-linecap="round" stroke-linejoin="round"/>
</svg>
