<svg width="48" height="48" viewBox="0 0 48 48" fill="none" xmlns="http://www.w3.org/2000/svg">
    <g clip-path="url(#clip0_78731_15962)">
    <path d="M24.001 0C14.1311 0 6.10156 8.03281 6.10156 17.9066C6.10156 32.6179 22.2194 46.9821 22.9058 47.5866C23.2082 47.8534 23.5977 48.0005 24.001 48.0002C24.3923 48.0002 24.7834 47.8623 25.0965 47.5866C25.7825 46.9823 41.9005 32.618 41.9005 17.9066C41.9005 8.03281 33.8709 0 24.001 0Z" fill="#005AFE"/>
    </g>
    <path d="M19.6328 27H16.5391L22.1719 11H25.75L31.3906 27H28.2969L24.0234 14.2812H23.8984L19.6328 27ZM19.7344 20.7266H28.1719V23.0547H19.7344V20.7266Z" fill="white"/>
    <defs>
    <clipPath id="clip0_78731_15962">
    <rect width="48" height="48" fill="white"/>
    </clipPath>
    </defs>
</svg>
