<svg width="69" height="30" viewBox="0 0 69 30" fill="none" xmlns="http://www.w3.org/2000/svg">
<rect width="69" height="30" rx="4" fill="#BABEC5"/>
<path d="M38.9323 7.13803H30.0449V22.862H38.9323V7.13803Z" fill="#EAEAEA"/>
<path d="M30.6091 15C30.6077 13.4857 30.9562 11.9909 31.6283 10.6288C32.3004 9.26667 33.2785 8.07297 34.4884 7.13803C32.9901 5.97849 31.1906 5.25739 29.2956 5.05714C27.4007 4.8569 25.4867 5.18559 23.7726 6.00566C22.0584 6.82573 20.6131 8.10409 19.602 9.69461C18.5909 11.2851 18.0547 13.1236 18.0547 15C18.0547 16.8764 18.5909 18.7149 19.602 20.3054C20.6131 21.8959 22.0584 23.1743 23.7726 23.9944C25.4867 24.8144 27.4007 25.1431 29.2956 24.9429C31.1906 24.7426 32.9901 24.0215 34.4884 22.862C33.2785 21.9271 32.3004 20.7333 31.6283 19.3712C30.9562 18.0091 30.6077 16.5143 30.6091 15Z" fill="#F3F3F3"/>
<path d="M50.9215 15C50.9216 16.8764 50.3855 18.7149 49.3744 20.3054C48.3633 21.8959 46.9181 23.1743 45.204 23.9943C43.4898 24.8144 41.5759 25.1431 39.681 24.9429C37.7861 24.7426 35.9866 24.0215 34.4883 22.862C35.6972 21.9261 36.6745 20.7322 37.3465 19.3703C38.0185 18.0084 38.3676 16.5141 38.3676 15C38.3676 13.4859 38.0185 11.9916 37.3465 10.6297C36.6745 9.26781 35.6972 8.07391 34.4883 7.13803C35.9866 5.97848 37.7861 5.25738 39.681 5.05714C41.5759 4.8569 43.4898 5.18561 45.204 6.00568C46.9181 6.82576 48.3633 8.10412 49.3744 9.69464C50.3855 11.2852 50.9216 13.1237 50.9215 15Z" fill="#FEFEFE"/>
<path d="M49.953 21.1966V20.8747H50.0848V20.8091H49.749V20.8747H49.8809V21.1966H49.953ZM50.6048 21.1966V20.8084H50.5019L50.3835 21.0754L50.2651 20.8084H50.1621V21.1966H50.2348V20.9038L50.3458 21.1562H50.4212L50.5322 20.9032V21.1966H50.6048Z" fill="#FEFEFE"/>
</svg>
