<svg width="32" height="32" viewBox="0 0 32 32" fill="none" xmlns="http://www.w3.org/2000/svg">
<g clip-path="url(#clip0_78667_261)">
<path d="M6.52267 21.2714C9.6789 25.0443 13.4783 28.0149 17.8148 30.1169C19.4659 30.8993 21.6739 31.8276 24.1339 31.9867C24.2864 31.9934 24.4323 32 24.5848 32C26.2359 32 27.562 31.4298 28.6429 30.2561C28.6495 30.2495 28.6627 30.2362 28.6694 30.223C29.054 29.7588 29.4916 29.3411 29.9491 28.8968C30.2608 28.5984 30.579 28.2868 30.884 27.9685C32.2964 26.4965 32.2964 24.6266 30.8708 23.201L26.8857 19.2159C26.2094 18.5131 25.4004 18.1417 24.5517 18.1417C23.7029 18.1417 22.8874 18.5131 22.1911 19.2093L19.8173 21.5831C19.5985 21.4571 19.3731 21.3444 19.1609 21.2383C18.8956 21.1057 18.6503 20.9797 18.4315 20.8404C16.2699 19.4679 14.3072 17.6776 12.4307 15.3767C11.4825 14.1765 10.8459 13.1687 10.4017 12.1409C11.0249 11.5773 11.6085 10.9872 12.1721 10.4103C12.371 10.2047 12.5765 9.99917 12.7821 9.79362C13.4982 9.0775 13.8828 8.24865 13.8828 7.40655C13.8828 6.56444 13.5048 5.7356 12.7821 5.01948L10.8061 3.04351C10.5741 2.81144 10.3552 2.58599 10.1298 2.35392C9.69217 1.90303 9.23464 1.43887 8.78375 1.02114C8.10079 0.35143 7.29847 0 6.44973 0C5.60762 0 4.79867 0.35143 4.08918 1.02777L1.60928 3.50767C0.707499 4.40945 0.196931 5.50352 0.0908393 6.77C-0.035145 8.35474 0.256608 10.039 1.01251 12.0746C2.17289 15.2242 3.92341 18.1484 6.52267 21.2714ZM1.70874 6.90924C1.78831 6.02735 2.12648 5.29134 2.76303 4.65479L5.22967 2.18815C5.61425 1.81683 6.03862 1.62453 6.44973 1.62453C6.85421 1.62453 7.26531 1.81683 7.64326 2.20141C8.08752 2.61252 8.50526 3.04351 8.95615 3.50104C9.1816 3.73311 9.41367 3.96519 9.64575 4.2039L11.6217 6.17986C12.0328 6.59097 12.245 7.0087 12.245 7.41981C12.245 7.83092 12.0328 8.24865 11.6217 8.65976C11.4162 8.86531 11.2106 9.0775 11.0051 9.28305C10.3884 9.90634 9.81152 10.4965 9.17497 11.0601L9.14181 11.0932C8.59146 11.6436 8.67766 12.1674 8.81028 12.5653C8.81691 12.5852 8.82354 12.5984 8.83017 12.6183C9.34074 13.845 10.0502 15.012 11.1576 16.4045C13.1468 18.8579 15.2421 20.7609 17.5496 22.2263C17.8347 22.4119 18.1397 22.5578 18.4249 22.7037C18.6901 22.8363 18.9354 22.9623 19.1542 23.1015C19.1808 23.1148 19.2007 23.1281 19.2272 23.1413C19.446 23.254 19.6582 23.3071 19.8704 23.3071C20.4008 23.3071 20.7456 22.9689 20.8584 22.8562L23.3383 20.3763C23.7228 19.9917 24.1406 19.7862 24.5517 19.7862C25.0556 19.7862 25.4667 20.0978 25.7253 20.3763L29.7237 24.368C30.5194 25.1637 30.5127 26.0257 29.7038 26.8678C29.4253 27.1662 29.1335 27.4513 28.8219 27.7497C28.3577 28.2006 27.8737 28.6647 27.4361 29.1886C26.6735 30.0108 25.7651 30.3954 24.5915 30.3954C24.4787 30.3954 24.3594 30.3887 24.2467 30.3821C22.0718 30.2429 20.0494 29.3941 18.531 28.6714C14.4066 26.6755 10.7862 23.8442 7.78251 20.2503C5.30924 17.2731 3.64492 14.5014 2.54422 11.5309C1.86125 9.70742 1.60265 8.24202 1.70874 6.90924Z" fill="#1640DE"/>
</g>
<defs>
<clipPath id="clip0_78667_261">
<rect width="32" height="32" fill="white"/>
</clipPath>
</defs>
</svg>
