<svg width="28" height="29" viewBox="0 0 28 29" fill="none" xmlns="http://www.w3.org/2000/svg">
<g clip-path="url(#clip0_76_767)">
<path d="M19.25 1.8125C19.7141 1.8125 20.1592 2.00346 20.4874 2.34337C20.8156 2.68328 21 3.14429 21 3.625V25.375C21 25.8557 20.8156 26.3167 20.4874 26.6566C20.1592 26.9965 19.7141 27.1875 19.25 27.1875H8.75C8.28587 27.1875 7.84075 26.9965 7.51256 26.6566C7.18437 26.3167 7 25.8557 7 25.375V3.625C7 3.14429 7.18437 2.68328 7.51256 2.34337C7.84075 2.00346 8.28587 1.8125 8.75 1.8125H19.25ZM8.75 0C7.82174 0 6.9315 0.381919 6.27513 1.06174C5.61875 1.74156 5.25 2.66359 5.25 3.625V25.375C5.25 26.3364 5.61875 27.2584 6.27513 27.9383C6.9315 28.6181 7.82174 29 8.75 29H19.25C20.1783 29 21.0685 28.6181 21.7249 27.9383C22.3813 27.2584 22.75 26.3364 22.75 25.375V3.625C22.75 2.66359 22.3813 1.74156 21.7249 1.06174C21.0685 0.381919 20.1783 0 19.25 0L8.75 0Z" fill="white"/>
<path d="M14 25.375C14.4641 25.375 14.9092 25.184 15.2374 24.8441C15.5656 24.5042 15.75 24.0432 15.75 23.5625C15.75 23.0818 15.5656 22.6208 15.2374 22.2809C14.9092 21.941 14.4641 21.75 14 21.75C13.5359 21.75 13.0908 21.941 12.7626 22.2809C12.4344 22.6208 12.25 23.0818 12.25 23.5625C12.25 24.0432 12.4344 24.5042 12.7626 24.8441C13.0908 25.184 13.5359 25.375 14 25.375Z" fill="white"/>
</g>
<defs>
<clipPath id="clip0_76_767">
<rect width="28" height="29" fill="white"/>
</clipPath>
</defs>
</svg>
