<svg width="24" height="24" viewBox="0 0 251 500" fill="none" xmlns="http://www.w3.org/2000/svg">
<path d="M0.920451 499.109C33.627 499.128 66.017 492.691 96.2411 480.167C126.465 467.643 153.931 449.276 177.072 426.116C200.212 402.955 218.573 375.455 231.106 345.184C243.639 314.913 250.1 282.466 250.118 249.693C250.137 216.921 243.713 184.466 231.214 154.182C218.715 123.897 200.385 96.3755 177.271 73.1889C154.157 50.0024 126.712 31.6046 96.5019 19.0461C66.292 6.48764 33.9093 0.0143513 1.20273 -0.00414428L1.08486 208.424C6.47509 208.427 11.8119 209.494 16.7907 211.564C21.7694 213.634 26.2926 216.666 30.1019 220.487C33.9112 224.308 36.9321 228.844 38.992 233.835C41.0519 238.826 42.1106 244.175 42.1075 249.576C42.1045 254.977 41.0398 260.324 38.9742 265.313C36.9086 270.302 33.8826 274.834 30.069 278.651C26.2554 282.468 21.7288 285.495 16.7477 287.559C11.7666 289.623 6.42856 290.684 1.03833 290.681L0.920451 499.109Z" fill="#E4656C"/>
</svg>
