<svg width="64" height="64" viewBox="0 0 64 64" fill="none" xmlns="http://www.w3.org/2000/svg">
<path d="M32 64C49.6731 64 64 49.6731 64 32C64 14.3269 49.6731 0 32 0C14.3269 0 0 14.3269 0 32C0 49.6731 14.3269 64 32 64Z" fill="#C61818"/>
<path d="M50.5513 42.3223V42.9725C50.3001 43.5522 49.8228 43.7677 49.2237 43.7803C49.0788 43.7803 48.9339 43.786 48.7889 43.786C47.7029 43.786 46.613 43.7348 45.5299 43.8005C44.4285 43.8682 43.5975 43.4527 42.8835 42.6653C42.0478 41.7474 41.2188 40.816 40.3076 39.9754C39.438 39.1782 38.4912 38.472 37.5472 37.7657C37.0957 37.4301 36.5365 37.2723 35.9762 37.3222C35.4931 37.3589 35.2728 37.5309 35.2032 38.012C35.1573 38.3097 35.1331 38.6104 35.1307 38.9116C35.124 40.071 35.1375 41.2247 35.1307 42.3812C35.1249 43.0469 34.8718 43.3696 34.236 43.5725C34.0646 43.6292 33.8883 43.6703 33.7095 43.6952C32.2816 43.8827 30.8312 43.7958 29.436 43.4392C26.0668 42.5802 23.3267 40.7039 21.1208 38.0806C18.4448 34.9045 16.277 31.3329 14.6946 27.493C14.1835 26.2553 13.8589 24.9403 13.4492 23.6611V23.0099C13.6289 22.4244 14.0686 22.2108 14.6367 22.207C15.8802 22.1973 17.1237 22.2021 18.3672 22.1954C19.5884 22.1886 20.1421 22.0678 20.7827 23.8727C21.5672 26.0949 22.516 28.2418 23.7576 30.2419C24.4475 31.354 25.2484 32.4004 26.0552 33.4303C26.3335 33.7859 26.7528 34.0632 27.1596 34.2796C27.6176 34.5221 27.9857 34.3009 28.1007 33.7965C28.1487 33.5854 28.1733 33.3696 28.1741 33.153C28.1828 31.1163 28.1963 29.0795 28.1828 27.0428C28.1751 25.95 27.8456 24.9577 27.12 24.1181C26.9839 23.9647 26.8604 23.8006 26.7509 23.6273C26.3702 23.005 26.7219 22.2949 27.4494 22.2089C27.594 22.1965 27.7392 22.1923 27.8842 22.1963H32.122C32.7983 22.1963 33.4747 22.1886 34.151 22.207C34.6718 22.2214 34.9587 22.4591 35.0602 22.9674C35.1119 23.2637 35.1352 23.5642 35.1298 23.865C35.1298 26.3355 35.1298 28.8061 35.1356 31.2776C35.1308 31.5422 35.1564 31.8064 35.2119 32.0651C35.3414 32.6033 35.7201 32.8062 36.2216 32.5733C36.5541 32.4316 36.8555 32.2257 37.1085 31.9675C37.8728 31.1182 38.6496 30.2709 39.3182 29.3481C40.6709 27.4892 41.7221 25.4563 42.6478 23.3577C42.9656 22.6379 43.4806 22.2099 44.2835 22.2031C45.7444 22.1925 47.2053 22.1847 48.6662 22.2031C49.6189 22.2166 50.0189 22.7316 49.7001 23.6244C49.3812 24.5171 49.0237 25.4128 48.528 26.2128C47.1889 28.3723 45.7811 30.4892 44.3734 32.6052C43.67 33.668 43.6739 34.0042 44.5666 34.9192L44.6951 35.0468C45.4932 35.87 46.3135 36.671 47.0836 37.5193C48.4169 38.9927 49.8083 40.4256 50.5513 42.3223Z" fill="#FEFEFE"/>
</svg>
