<svg width="64" height="64" viewBox="0 0 64 64" fill="none" xmlns="http://www.w3.org/2000/svg">
<path d="M32 64C49.6731 64 64 49.6731 64 32C64 14.3269 49.6731 0 32 0C14.3269 0 0 14.3269 0 32C0 49.6731 14.3269 64 32 64Z" fill="#C61818"/>

<path d="M13.6768 50.4008C13.9736 49.3119 14.2552 48.2785 14.5375 47.245C15.1226 45.1039 15.7151 42.9646 16.2838 40.8186C16.3392 40.5929 16.3142 40.355 16.2133 40.1458C10.9863 30.6263 14.65 18.6517 24.3088 13.7216C34.9841 8.27022 47.9605 13.752 51.4776 25.198C54.5798 35.3021 48.8735 46.1227 38.7591 49.225C33.7365 50.7596 28.863 50.2791 24.1695 47.9159C23.9699 47.8237 23.7451 47.8006 23.5309 47.8502C20.3897 48.658 17.2534 49.4835 14.1153 50.304C13.99 50.3399 13.8635 50.3594 13.6768 50.4008ZM18.2899 45.8533C20.2194 45.3472 22.0686 44.8697 23.9129 44.3709C24.2261 44.2863 24.4652 44.3289 24.7413 44.4926C28.3016 46.6276 32.1386 47.3314 36.2037 46.5224C44.8248 44.8089 50.41 36.4712 48.7859 27.8191C47.1722 19.2235 38.7421 13.4832 30.1313 15.1206C19.3648 17.1651 13.7564 29.1719 19.1713 38.6859C19.7322 39.6713 19.8465 40.4816 19.4968 41.5199C19.0266 42.9129 18.6981 44.3575 18.2899 45.8521V45.8533Z" fill="#FEFEFE"/>
<path d="M26.841 21.9838C27.6737 21.7776 28.0733 22.2679 28.3617 23.0063C28.7978 24.1353 29.2741 25.249 29.7528 26.361C29.9195 26.7478 29.9049 27.0909 29.6543 27.4218C29.2741 27.9279 28.9097 28.4468 28.5077 28.934C28.2358 29.2637 28.2114 29.5575 28.4292 29.9237C29.9992 32.5605 32.1902 34.4681 35.0479 35.6068C35.4408 35.7631 35.751 35.692 36.0144 35.3635C36.4858 34.7747 36.9676 34.1944 37.4347 33.5995C37.7778 33.164 37.9755 33.0557 38.4688 33.2807C39.8265 33.9008 41.1722 34.5468 42.506 35.2187C42.6708 35.3014 42.8186 35.6056 42.8156 35.8045C42.7852 37.8544 42.1817 38.8368 39.998 39.7552C38.759 40.2759 37.4725 40.1537 36.1945 39.7978C31.5551 38.5077 28.139 35.5928 25.4061 31.7509C24.5545 30.5575 23.7917 29.3269 23.4663 27.8798C22.9979 25.7971 23.5088 23.9911 25.0417 22.485C25.538 21.9972 26.1378 21.8877 26.841 21.9838Z" fill="#FEFEFE"/>
</svg>
