<svg width="40" height="40" viewBox="0 0 40 40" fill="none" xmlns="http://www.w3.org/2000/svg">
<circle cx="20" cy="20" r="20" fill="url(#paint0_linear_78667_1252)"/>
<circle cx="20" cy="20" r="15" fill="#FEFEFE"/>
<path d="M20.8359 11.8047V14.1406H19.6328V11.8047H20.8359ZM20.6875 24.5625V26.6562H19.4922V24.5625H20.6875ZM21.8672 22.0391C21.8672 21.737 21.8047 21.474 21.6797 21.25C21.5599 21.0208 21.362 20.8151 21.0859 20.6328C20.8099 20.4453 20.4401 20.2708 19.9766 20.1094C19.3099 19.875 18.7266 19.612 18.2266 19.3203C17.7318 19.0234 17.3464 18.6589 17.0703 18.2266C16.7995 17.7891 16.6641 17.2448 16.6641 16.5937C16.6641 15.9531 16.8099 15.3984 17.1016 14.9297C17.3984 14.4609 17.8099 14.099 18.3359 13.8437C18.862 13.5885 19.4766 13.4609 20.1797 13.4609C20.7214 13.4609 21.2083 13.5417 21.6406 13.7031C22.0781 13.8646 22.4505 14.1016 22.7578 14.4141C23.0651 14.7266 23.2995 15.112 23.4609 15.5703C23.6276 16.0234 23.7109 16.5443 23.7109 17.1328H21.8359C21.8359 16.7995 21.7969 16.5026 21.7187 16.2422C21.6458 15.9766 21.5365 15.7526 21.3906 15.5703C21.2448 15.3828 21.0677 15.2396 20.8594 15.1406C20.6562 15.0417 20.4245 14.9922 20.1641 14.9922C19.7943 14.9922 19.4896 15.0625 19.25 15.2031C19.0104 15.3385 18.8333 15.526 18.7187 15.7656C18.6094 16.0052 18.5547 16.2786 18.5547 16.5859C18.5547 16.8828 18.612 17.1432 18.7266 17.3672C18.8411 17.5911 19.0365 17.7943 19.3125 17.9766C19.5937 18.1536 19.9792 18.3333 20.4687 18.5156C21.1406 18.7552 21.7214 19.0234 22.2109 19.3203C22.7057 19.612 23.0859 19.974 23.3516 20.4062C23.6224 20.8333 23.7578 21.3724 23.7578 22.0234C23.7578 22.6953 23.6016 23.2656 23.2891 23.7344C22.9818 24.2031 22.5495 24.5599 21.9922 24.8047C21.4401 25.0443 20.7969 25.1641 20.0625 25.1641C19.599 25.1641 19.138 25.1042 18.6797 24.9844C18.2266 24.8594 17.8151 24.6562 17.4453 24.375C17.0755 24.0937 16.7812 23.7214 16.5625 23.2578C16.3437 22.7891 16.2344 22.2161 16.2344 21.5391H18.125C18.125 21.9453 18.1797 22.2839 18.2891 22.5547C18.3984 22.8255 18.5469 23.0391 18.7344 23.1953C18.9219 23.3516 19.1302 23.4635 19.3594 23.5312C19.5937 23.599 19.8281 23.6328 20.0625 23.6328C20.4531 23.6328 20.7812 23.5677 21.0469 23.4375C21.3177 23.3021 21.5208 23.1146 21.6562 22.875C21.7969 22.6302 21.8672 22.3516 21.8672 22.0391Z" fill="url(#paint1_linear_78667_1252)"/>
<defs>
<linearGradient id="paint0_linear_78667_1252" x1="20" y1="0" x2="20" y2="40" gradientUnits="userSpaceOnUse">
<stop stop-color="#33457c"/>
<stop offset="1" stop-color="#0647BD"/>
</linearGradient>
<linearGradient id="paint1_linear_78667_1252" x1="20" y1="8" x2="20" y2="32" gradientUnits="userSpaceOnUse">
<stop stop-color="#1640DE"/>
<stop offset="1" stop-color="#33457c"/>
</linearGradient>
</defs>
</svg>
