<svg width="48" height="48" viewBox="0 0 48 48" fill="none" xmlns="http://www.w3.org/2000/svg">
<path opacity="0.85" d="M6 38C6 34.8174 7.26428 31.7652 9.51472 29.5147C11.7652 27.2643 14.8174 26 18 26H30C33.1826 26 36.2348 27.2643 38.4853 29.5147C40.7357 31.7652 42 34.8174 42 38V44H6V38Z" fill="#FEFEFE"/>
<path opacity="0.3" fill-rule="evenodd" clip-rule="evenodd" d="M32.4494 5.90234C32.0346 6.69852 31.4093 7.36566 30.6416 7.83114C29.8739 8.29662 28.9932 8.54261 28.0954 8.54234H23.1834C21.8812 8.54234 20.6323 9.05965 19.7115 9.98045C18.7907 10.9013 18.2734 12.1501 18.2734 13.4523V21.2123C19.5898 22.2992 21.1882 22.9892 22.882 23.2019C24.5757 23.4147 26.2951 23.1413 27.8393 22.4137C29.3836 21.6861 30.6891 20.5344 31.6035 19.0928C32.5178 17.6513 33.0034 15.9794 33.0034 14.2723V8.54434C33.0034 7.60434 32.8054 6.71034 32.4494 5.90434V5.90234Z" fill="#FEFEFE"/>
<path fill-rule="evenodd" clip-rule="evenodd" d="M32.446 5.904C31.9333 4.74237 31.0939 3.75487 30.0301 3.06172C28.9662 2.36858 27.7238 1.9997 26.454 2H15V14.272C14.9983 15.5993 15.2909 16.9105 15.8566 18.1112C16.4224 19.3119 17.2473 20.3723 18.272 21.216V13.456C18.272 12.1538 18.7893 10.9049 19.7101 9.98411C20.6309 9.0633 21.8798 8.546 23.182 8.546H28.092C29.984 8.546 31.626 7.474 32.446 5.906V5.904Z" fill="url(#paint0_linear_78667_592)"/>
<defs>
<linearGradient id="paint0_linear_78667_592" x1="26.454" y1="2" x2="24" y2="23.272" gradientUnits="userSpaceOnUse">
<stop/>
<stop offset="1" stop-opacity="0.5"/>
</linearGradient>
</defs>
</svg>
