<svg width="32" height="32" viewBox="0 0 32 32" fill="none" xmlns="http://www.w3.org/2000/svg">
<path d="M29.4443 15.2003V16.6703C29.4261 16.7363 29.412 16.8033 29.4019 16.8711C29.2218 18.898 28.6271 20.8664 27.6548 22.654C26.3241 25.1287 24.454 27.0766 21.857 28.2234C18.4512 29.728 14.9633 29.8538 11.4543 28.6024C8.56457 27.5722 6.22778 25.8018 4.56199 23.2013C3.34163 21.2972 2.72367 19.1951 2.5865 16.9439C2.43519 14.3773 2.8269 11.909 4.06847 9.63588C6.17617 5.77612 9.52474 3.62599 13.7649 2.75704C14.2598 2.65593 14.7661 2.61563 15.2674 2.54492H16.8936C17.2216 2.5831 17.5511 2.61563 17.8778 2.66017C21.1302 3.10561 23.8756 4.51758 26.0449 6.99789C27.7418 8.93661 28.8023 11.1871 29.24 13.7254C29.3263 14.2133 29.3786 14.7082 29.4443 15.2003ZM3.43637 16.4313C3.56788 19.2913 4.51815 21.7992 6.35647 24.0476C6.4191 23.9544 6.48733 23.8652 6.5608 23.7803C7.31584 23.0261 8.16268 22.3698 9.08142 21.8268C9.27162 21.715 9.31969 21.6111 9.26525 21.3969C8.95373 20.1495 8.76149 18.8753 8.69113 17.5916C8.66921 17.2098 8.648 16.8279 8.62608 16.4334L3.43637 16.4313ZM8.6381 15.5482C8.66742 13.7789 8.89871 12.0187 9.32747 10.3019C8.22208 9.66652 7.21109 8.87948 6.32394 7.96372C4.52098 10.1937 3.5601 12.7009 3.44061 15.5482H8.6381ZM28.5683 15.5482C28.4368 12.6896 27.4844 10.1817 25.6843 7.97291C25.6136 8.03654 25.5683 8.07543 25.5259 8.11432C24.7396 8.91232 23.8522 9.60402 22.8865 10.1718C22.7147 10.2729 22.6928 10.3754 22.7366 10.548C23.0469 11.795 23.2401 13.0682 23.3135 14.3512C23.3376 14.7485 23.3588 15.1459 23.3807 15.5447L28.5683 15.5482ZM25.7401 23.9429C27.4865 21.7857 28.446 19.2764 28.5683 16.4419H23.3567C23.3567 16.5784 23.3567 16.6915 23.3567 16.8046C23.3167 18.2905 23.1272 19.7686 22.791 21.2166C22.685 21.6656 22.6836 21.6648 23.0873 21.9158C23.1632 21.9592 23.2368 22.0064 23.3079 22.0573C24.1054 22.6752 24.9037 23.2953 25.7373 23.9422L25.7401 23.9429ZM16.4453 20.7662V28.5154C16.5019 28.5112 16.5443 28.5119 16.5867 28.5048C17.4825 28.3528 18.2129 27.8946 18.8599 27.2809C19.854 26.3342 20.5207 25.1704 21.0418 23.9182C21.2843 23.3335 21.4823 22.7304 21.7036 22.128C20.07 21.2988 18.276 20.8342 16.4453 20.7662ZM10.323 9.85648C11.9487 10.6799 13.734 11.14 15.5551 11.2048V3.44358C15.4095 3.47327 15.2822 3.49448 15.1571 3.5263C14.1135 3.79356 13.3187 4.42991 12.6372 5.2324C11.5002 6.5772 10.8356 8.16381 10.323 9.85719V9.85648ZM21.6817 9.85648C21.1337 8.06129 20.4196 6.37499 19.1434 4.98211C18.5926 4.38183 17.957 3.89538 17.1778 3.62529C16.9459 3.54468 16.702 3.49943 16.4488 3.43439V11.2119C18.2703 11.1418 20.0552 10.6795 21.6817 9.85648ZM15.5537 28.5225V20.7662C13.7167 20.8376 11.917 21.3071 10.2792 22.1421C10.6037 22.9531 10.8886 23.7598 11.245 24.534C11.7873 25.7106 12.4957 26.7789 13.5188 27.6047C14.1128 28.0848 14.771 28.4242 15.5537 28.5239V28.5225ZM15.5537 15.5432V12.0695C13.6627 12.0011 11.8065 11.5403 10.1031 10.7162C9.72919 12.2994 9.52956 13.9188 9.50777 15.5454L15.5537 15.5432ZM15.5572 19.9029V16.4355H9.52686C9.42434 17.2896 9.84998 20.6439 10.1385 21.2434C11.8322 20.4266 13.6773 19.9706 15.5565 19.9043L15.5572 19.9029ZM21.903 10.7113C20.2021 11.5367 18.348 11.999 16.4587 12.0688V15.539H22.5019C22.4757 13.9139 22.2747 12.2962 21.9023 10.7141L21.903 10.7113ZM22.4997 16.432H16.446V19.9036C18.3402 19.9672 20.1997 20.4298 21.903 21.2611C22.2741 19.6784 22.4739 18.0603 22.499 16.4348L22.4997 16.432ZM25.1017 24.6556C24.317 23.8325 23.423 23.1212 22.4446 22.5416C21.7651 24.6415 20.8523 26.5781 19.2325 28.1117C21.5084 27.5171 23.4507 26.361 25.1009 24.6585L25.1017 24.6556ZM25.1017 7.30829C23.4493 5.61138 21.5113 4.45748 19.2417 3.86285C20.853 5.40068 21.7637 7.33586 22.4432 9.42589C23.4213 8.84507 24.3157 8.13359 25.1017 7.31111V7.30829ZM12.7665 3.8678C10.4913 4.46243 8.5476 5.61562 6.90513 7.31748C7.6884 8.14236 8.58352 8.85327 9.56433 9.42942C10.2424 7.33233 11.1516 5.40351 12.7665 3.8678ZM6.90584 24.6648C8.55396 26.3617 10.4955 27.5149 12.7743 28.1138C11.1573 26.5795 10.2459 24.6443 9.56716 22.5486C8.58543 23.1261 7.68959 23.8384 6.90584 24.6648Z" fill="#FFF"/>
</svg>
